<?xml version="1.0" encoding="utf-8"?>
<!-- Generator: Adobe Illustrator 26.5.0, SVG Export Plug-In . SVG Version: 6.00 Build 0)  -->
<svg version="1.1" id="レイヤー_1" xmlns="http://www.w3.org/2000/svg" xmlns:xlink="http://www.w3.org/1999/xlink" x="0px"
	 y="0px" width="100px" height="64px" viewBox="0 0 100 64" style="enable-background:new 0 0 100 64;" xml:space="preserve">
<style type="text/css">
	.st0{fill:#FFA53A;}
	.st1{fill:#FFFFFF;}
</style>
<g>
	<path class="st0" d="M0,24.7C0,24.7,7.1,8,19.9,6.7c9.2-0.9,26.4,2,26.4,2l26.2,4.6L93,0.7l7,33.8L68.4,38l-19.6-1.6l8.2,7.9
		c0,0,26.1-1.7,40-4.3C85.6,54,82.6,62,67.7,62.7s-27.8,0.6-27.8,0.6s-9.8-1.6-11.4-7.9s-3.5-26.6-3.5-26.6L13,26.6L0,24.7z"/>
	<circle class="st1" cx="19.1" cy="17.7" r="1.7"/>
</g>
</svg>
