<?xml version="1.0" encoding="utf-8"?>
<!-- Generator: Adobe Illustrator 26.5.0, SVG Export Plug-In . SVG Version: 6.00 Build 0)  -->
<svg version="1.1" id="レイヤー_1" xmlns="http://www.w3.org/2000/svg" xmlns:xlink="http://www.w3.org/1999/xlink" x="0px"
	 y="0px" width="110px" height="102px" viewBox="0 0 110 102" style="enable-background:new 0 0 110 102;" xml:space="preserve">
<style type="text/css">
	.st0{fill:#FF7CAF;}
	.st1{fill:#FFFFFF;}
</style>
<g>
	<path class="st0" d="M0,39.4L3,5.7l50.3-5.3l29,13l7.1,18c0,0,11.2-0.3,13.6,5.3c5.9,2.1,7.1,6.9,7.1,6.9l-8,1.4
		c0,0-4.7,6.2-12.4,8c0.6,12.7-1.2,35.1-13,42.3c-7,4.3-14.2,6-14.2,6l-35.2,0.3l1.8-12.4L19.5,73l45.1-6.1l6.8-11.2l-23.2,2.6
		L32.1,68.6L17.4,40l18.7,0.7l25.1-4.3l-33-2.9L0,39.4z"/>
	<ellipse transform="matrix(0.8944 -0.4472 0.4472 0.8944 -7.5758 45.8102)" class="st1" cx="93.2" cy="38.9" rx="1.8" ry="1.8"/>
</g>
</svg>
