<?xml version="1.0" encoding="utf-8"?>
<!-- Generator: Adobe Illustrator 26.5.0, SVG Export Plug-In . SVG Version: 6.00 Build 0)  -->
<svg version="1.1" id="レイヤー_1" xmlns="http://www.w3.org/2000/svg" xmlns:xlink="http://www.w3.org/1999/xlink" x="0px"
	 y="0px" width="114px" height="100px" viewBox="0 0 114 100" style="enable-background:new 0 0 114 100;" xml:space="preserve">
<style type="text/css">
	.st0{fill:#FBD21F;}
	.st1{fill:#FFFFFF;}
</style>
<g>
	<path class="st0" d="M33.9,19.5c-1.7,3.3-7.3,4.2-10,3.8c-4.7-0.7-10.8,1.1-15.1,5c-1.1,1-5.7,8-7.9,11.1c0,0,11.2,1.1,11.2,1.1
		s4.7,0.7,11.7,1.9c-1.8,13.9-0.7,29.2-0.7,29.2l19.6,21.2l47.7,7.1l-7.7-25.1L70.3,61L56,50.3l15.6,4.8l13.9-16.3l-29.2-2.5l14-8.3
		l11.6,6.9l31.2-28L96.5,3.8L66.9,0L44,5.5C44,5.5,33.9,19.5,33.9,19.5z"/>
	
		<ellipse transform="matrix(7.381681e-02 -0.9973 0.9973 7.381681e-02 -16.3507 46.3181)" class="st1" cx="16.8" cy="32" rx="1.5" ry="1.5"/>
</g>
</svg>
