<?xml version="1.0" encoding="utf-8"?>
<!-- Generator: Adobe Illustrator 26.5.0, SVG Export Plug-In . SVG Version: 6.00 Build 0)  -->
<svg version="1.1" id="レイヤー_1" xmlns="http://www.w3.org/2000/svg" xmlns:xlink="http://www.w3.org/1999/xlink" x="0px"
	 y="0px" width="100px" height="92px" viewBox="0 0 100 92" style="enable-background:new 0 0 100 92;" xml:space="preserve">
<style type="text/css">
	.st0{fill:#BD72DD;}
	.st1{fill:#FFFFFF;}
</style>
<g>
	<path class="st0" d="M29.9,29.7l-15.3,6.8L0,32.3l13.9,36.3c0,0,14.6-8.5,24.9-14.2C34.2,64,31,71,31,71l6.6,20.1l20.7-9.7
		c0,0,17.3-20.1,18.2-24.6c0.8-4.5,5.7-28.5,5.7-28.5S96,16.1,100,13.8C87.5,2.8,75.4,2,69.5,9.9C57.3,2.3,46.2-0.8,34.9,1.8
		S3.5,8,3.5,8l14,17.1L29.9,29.7z"/>
	<circle class="st1" cx="80.9" cy="13.9" r="2.4"/>
</g>
</svg>
