<?xml version="1.0" encoding="utf-8"?>
<!-- Generator: Adobe Illustrator 26.5.0, SVG Export Plug-In . SVG Version: 6.00 Build 0)  -->
<svg version="1.1" id="レイヤー_1" xmlns="http://www.w3.org/2000/svg" xmlns:xlink="http://www.w3.org/1999/xlink" x="0px"
	 y="0px" width="120px" height="140px" viewBox="0 0 120 140" style="enable-background:new 0 0 120 140;" xml:space="preserve">
<style type="text/css">
	.st0{fill:#57BDE8;}
	.st1{fill:#FFFFFF;}
</style>
<g>
	<path class="st0" d="M93.6,131.1l11.3-11.7l-14.8-10.5L78,105.7l41.8-67.9c0,0-16.4-5.5-33.6,3.9S67.5,56.5,67.5,56.5L56.5,88.9
		L60,47.6l-15.6-46c0,0-11.7,20.7-16,34.7c-4.3,14,3.9,56.2,4.3,57.4c-0.2-0.6-4.6-1-5.2-1c-2-0.2-4-0.3-5.9-0.1
		c-5.2,0.8-7.3,3.3-10.4,6.8c-1.8,2-3.6,3.4-5.8,5.5c-0.4,0.4-3.5,3.3-5,4.6c0,0,20.8,4.6,20.8,4.6l58.9,11.3l7.8,13.3L93.6,131.1z"
		/>
	<circle class="st1" cx="22.3" cy="102.5" r="1.6"/>
</g>
</svg>
