<?xml version="1.0" encoding="utf-8"?>
<!-- Generator: Adobe Illustrator 26.5.0, SVG Export Plug-In . SVG Version: 6.00 Build 0)  -->
<svg version="1.1" id="レイヤー_1" xmlns="http://www.w3.org/2000/svg" xmlns:xlink="http://www.w3.org/1999/xlink" x="0px"
	 y="0px" width="100px" height="102px" viewBox="0 0 100 102" style="enable-background:new 0 0 100 102;" xml:space="preserve">
<style type="text/css">
	.st0{fill:#63DC84;}
	.st1{fill:#FFFFFF;}
</style>
<g>
	<path class="st0" d="M0,69.2l3.1-29l37.5,1.3c0,0-10.7-22-13.4-25.6S6.2,2.9,6.2,2.9s32.2-3.7,44.6-2.3
		c7.4,6.2,12.4,15.1,12.4,15.1l9.1,23.6c0,0,15.2-0.4,17.9,2.2c2.7,2.7,4,6.7,4,6.7l5.8,4.5l-17,6.7c0,0-10.3,5.8-18.3,9.8
		C52.2,84,52.1,102.8,8.1,101.7c8.4-7.2,17.4-13.9,20.6-20.9c2.2-11.2,3.4-19.4,3.4-19.4L0,69.2z"/>
	<circle class="st1" cx="82.2" cy="47.5" r="2"/>
</g>
</svg>
