<?xml version="1.0" encoding="utf-8"?>
<!-- Generator: Adobe Illustrator 26.5.0, SVG Export Plug-In . SVG Version: 6.00 Build 0)  -->
<svg version="1.1" id="レイヤー_1" xmlns="http://www.w3.org/2000/svg" xmlns:xlink="http://www.w3.org/1999/xlink" x="0px"
	 y="0px" width="500px" height="404px" viewBox="0 0 500 404" style="enable-background:new 0 0 500 404;" xml:space="preserve">
<style type="text/css">
	.st0{fill:#FFFFFF;}
</style>
<path class="st0" d="M500,399c-35.3,4.8-71.9,5.4-107.4,2.4c-49.8-4.1-93-22.8-133.9-50.9c-30.2-20.8-58.9-44.1-91.4-61.1
	c-27.1-14.2-56.2-23.7-85.1-33.2c-25.8-8.5-52.8-16.6-67.9-41.1c-16.5-26.7-18.4-62.6-7.5-91.7c12.3-33,39.7-55,71.6-67.8
	c43.9-17.5,92.6-19.4,139.3-20.3c37.7-0.7,75.6-0.5,113.2-4c24.7-2.3,42.4-6.7,66-14.4C419.2,9.7,440.4,0,470.3,0
	c9.4,0,16.1-0.7,29.7,3.3L500,399z"/>
</svg>
