<?xml version="1.0" encoding="utf-8"?>
<!-- Generator: Adobe Illustrator 26.5.0, SVG Export Plug-In . SVG Version: 6.00 Build 0)  -->
<svg version="1.1" id="レイヤー_1" xmlns="http://www.w3.org/2000/svg" xmlns:xlink="http://www.w3.org/1999/xlink" x="0px"
	 y="0px" width="594px" height="527px" viewBox="0 0 594 527" style="enable-background:new 0 0 594 527;" xml:space="preserve">
<style type="text/css">
	.st0{fill:#D7F3D5;}
	.st1{fill:#FFFFFF;}
</style>
<g>
	<path class="st0" d="M0,5c42-5.7,85.4-6.4,127.6-2.9C186.7,7,238.1,29.2,286.7,62.6c35.9,24.7,70,52.3,108.5,72.5
		c32.1,16.8,66.7,28.1,101.1,39.5c30.6,10.2,62.7,19.7,80.7,48.8c19.6,31.8,21.9,74.3,9,109c-14.6,39.2-47.1,65.4-85.1,80.5
		c-52.2,20.8-110,23.1-165.4,24.1c-65.4,1.2-133.8-3.8-197.8,12.3c-40.1,10-75.4,32.4-109,55.6c-9.7,6.7-20,13.5-28.5,21.8
		C0,526.7,0,5,0,5z"/>
	<path class="st1" d="M0,5c42-5.7,85.4-6.4,127.6-2.9C186.7,7,238.1,29.2,286.7,62.6c35.9,24.7,70,52.3,108.5,72.5
		c32.1,16.8,66.7,28.1,101.1,39.5c30.6,10.2,62.7,19.7,80.7,48.8c19.6,31.8,21.9,74.3,9,109c-14.6,39.2-47.1,65.4-85.1,80.5
		c-52.2,20.8-110,23.1-165.4,24.1c-65.4,1.2-133.8-3.8-197.8,12.3c-40.1,10-75.4,32.4-109,55.6c-9.7,6.7-20,13.5-28.5,21.8
		C0,526.7,0,5,0,5z"/>
</g>
</svg>
