<?xml version="1.0" encoding="utf-8"?>
<!-- Generator: Adobe Illustrator 26.5.0, SVG Export Plug-In . SVG Version: 6.00 Build 0)  -->
<svg version="1.1" id="レイヤー_1" xmlns="http://www.w3.org/2000/svg" xmlns:xlink="http://www.w3.org/1999/xlink" x="0px"
	 y="0px" width="300px" height="134px" viewBox="0 0 300 134" style="enable-background:new 0 0 300 134;" xml:space="preserve">
<style type="text/css">
	.st0{fill:#FFFFFF;}
</style>
<path class="st0" d="M133.7,107.3c-4.1-1-8.3-1.4-12.5-0.7c-8.7,1.4-15.9,7.3-23.5,11.9c-18.7,11.1-41.9,14.3-62.9,8.6
	C22.4,123.7,15,113.5,7,103.9c-2.7-3.3-5.4-6.9-6.4-11c-3.2-13.5,6.6-33.8,16.1-43C33.9,33.1,56,21.6,77.5,11.4
	c8.2-3.9,17.7-12,27.3-10.7c8.2,1.1,9.1,10.7,14.9,15.3c13.1,10.4,34.8-5.5,48.4,4.2c6.9,4.9,9.7,15.3,17.9,17.2
	c2.7,0.6,5.6,0.1,8.3-0.4c19.5-3.7,39-7.4,58.5-11.1c11.6-2.2,24.6-4.2,34.6,2.1C296.8,33.9,301,46,299.8,57
	c-1.1,11-6.7,21.1-13.4,29.9c-10.6,14.2-24.1,26.3-39.5,35.2c-12,6.9-25.5,12.1-39.3,11.2c-10.6-0.7-20.7-4.8-30.5-8.9
	c-9.8-4.1-19.6-8.1-29.4-12.2C143.2,110.3,138.5,108.4,133.7,107.3z"/>
</svg>
