<?xml version="1.0" encoding="utf-8"?>
<!-- Generator: Adobe Illustrator 26.5.0, SVG Export Plug-In . SVG Version: 6.00 Build 0)  -->
<svg version="1.1" id="レイヤー_1" xmlns="http://www.w3.org/2000/svg" xmlns:xlink="http://www.w3.org/1999/xlink" x="0px"
	 y="0px" width="162px" height="50px" viewBox="0 0 162 50" style="enable-background:new 0 0 162 50;" xml:space="preserve">
<style type="text/css">
	.st0{fill:#64D35C;}
</style>
<g>
	<path class="st0" d="M67.2,39c-2.6,0-4.7-0.2-6.5-0.7c-1.8-0.5-3.3-1.1-4.5-2.1c-1.2-0.9-2.3-2.1-3.2-3.5c-0.7,1.1-1.5,2.1-2.3,3
		s-1.7,1.8-2.6,2.7c-0.3,0.3-0.7,0.5-1.1,0.5c-0.4,0.1-0.8-0.1-1.2-0.4c-0.3-0.3-0.5-0.7-0.5-1.1c0-0.4,0.2-0.7,0.4-1
		c1.6-1.4,3.1-3,4.3-4.8s2.2-3.6,2.9-5.5c0.2-0.4,0.5-0.8,0.9-0.9c0.4-0.2,0.8-0.2,1.2,0c0.4,0.2,0.7,0.4,0.9,0.8
		c0.2,0.4,0.2,0.8,0,1.2c-0.2,0.5-0.4,1-0.6,1.5c-0.2,0.5-0.5,1-0.8,1.5c1.1,2.1,2.7,3.6,4.6,4.6v-12h-7.1c-0.4,0-0.8-0.1-1-0.4
		c-0.3-0.3-0.4-0.6-0.4-1c0-0.4,0.1-0.7,0.4-1c0.3-0.3,0.6-0.4,1-0.4h17.1c0.4,0,0.8,0.1,1,0.4c0.3,0.3,0.4,0.6,0.4,1
		c0,0.4-0.1,0.7-0.4,1c-0.3,0.3-0.6,0.4-1,0.4h-6.9v4.4h7.8c0.4,0,0.8,0.1,1,0.4c0.3,0.3,0.4,0.6,0.4,1s-0.1,0.7-0.4,1
		c-0.3,0.3-0.6,0.4-1,0.4h-7.8v5.8c1.5,0.3,3.1,0.4,4.9,0.4c1.1,0,2.2,0,3.4-0.1c1.2,0,2.3-0.1,3.4-0.2c0.5,0,0.9,0.1,1.3,0.3
		c0.3,0.3,0.5,0.6,0.5,1.1c0,0.5-0.2,0.9-0.5,1.1c-0.3,0.3-0.7,0.4-1.2,0.4c-0.6,0-1.4,0-2.2,0c-0.8,0-1.6,0-2.4,0
		C68.7,39,67.9,39,67.2,39z M48,21.7c-0.4,0-0.8-0.1-1.1-0.4c-0.3-0.3-0.4-0.6-0.4-1.1v-1.6c0-1.6,0.4-2.8,1.2-3.5
		c0.8-0.7,2.2-1.1,4.1-1.1h7.2v-3.2c0-0.5,0.2-0.9,0.5-1.2c0.3-0.3,0.7-0.4,1.2-0.4c0.4,0,0.8,0.1,1.1,0.4c0.3,0.3,0.5,0.6,0.5,1.2
		V14h7.4c1.9,0,3.3,0.4,4.1,1.1c0.8,0.7,1.2,1.9,1.2,3.5v1.6c0,0.5-0.1,0.8-0.4,1.1c-0.3,0.3-0.7,0.4-1.1,0.4s-0.8-0.1-1.1-0.4
		c-0.3-0.3-0.4-0.6-0.4-1v-1.6c0-0.7-0.2-1.3-0.6-1.6c-0.4-0.3-1-0.5-2-0.5H52.1c-1,0-1.6,0.2-2,0.5c-0.4,0.3-0.6,0.8-0.6,1.6v1.6
		c0,0.4-0.1,0.8-0.4,1C48.7,21.6,48.4,21.7,48,21.7z"/>
	<path class="st0" d="M87.9,39.5c-0.5,0.2-0.9,0.2-1.3,0.1c-0.4-0.1-0.6-0.3-0.8-0.7c-0.2-0.4-0.2-0.7,0-1.1
		c0.1-0.4,0.4-0.6,0.8-0.7c0.7-0.2,1.6-0.5,2.5-0.9c0.9-0.4,1.8-0.7,2.7-1.1c0.9-0.4,1.6-0.8,2.2-1.2c-1.3,0-2.3-0.2-3.1-0.5
		c-0.7-0.3-1.3-0.8-1.6-1.5c-0.3-0.7-0.5-1.6-0.5-2.8v-5.4c0-1.2,0.2-2.2,0.5-2.8c0.3-0.7,0.9-1.2,1.7-1.5c0.8-0.3,1.9-0.4,3.3-0.4
		h9.9c1.4,0,2.5,0.1,3.3,0.4c0.8,0.3,1.4,0.8,1.7,1.5c0.3,0.7,0.5,1.6,0.5,2.8v5.4c0,1.2-0.2,2.1-0.5,2.8c-0.3,0.7-0.9,1.2-1.6,1.5
		c-0.8,0.3-1.8,0.4-3.2,0.5c0.6,0.4,1.4,0.8,2.2,1.1c0.9,0.4,1.8,0.7,2.7,1.1c0.9,0.3,1.7,0.6,2.4,0.8c0.4,0.1,0.6,0.4,0.8,0.7
		c0.2,0.4,0.2,0.7,0,1.1c-0.2,0.4-0.4,0.6-0.8,0.8c-0.4,0.1-0.8,0.1-1.3,0c-0.7-0.3-1.6-0.6-2.6-1s-1.9-0.8-2.8-1.3
		c-0.9-0.4-1.7-0.9-2.3-1.3c-0.4-0.2-0.6-0.5-0.6-0.9c0-0.3,0-0.6,0.3-1l0.3-0.3h-7.2c0.1,0.1,0.2,0.2,0.3,0.3
		c0.2,0.3,0.3,0.6,0.3,1c-0.1,0.3-0.2,0.6-0.6,0.9c-0.6,0.4-1.4,0.8-2.3,1.3c-0.9,0.4-1.9,0.9-2.8,1.3S88.7,39.2,87.9,39.5z
		 M94,17.4c-1.1,0-2-0.1-2.6-0.3s-1.1-0.6-1.3-1.1c-0.2-0.5-0.4-1.3-0.4-2.2c0-0.9,0.1-1.6,0.4-2.2c0.2-0.5,0.7-0.9,1.3-1.1
		c0.6-0.2,1.5-0.3,2.6-0.3h10.6c1.1,0,2,0.1,2.6,0.3c0.6,0.2,1,0.6,1.3,1.1c0.2,0.5,0.4,1.3,0.4,2.2c0,0.9-0.1,1.7-0.4,2.2
		c-0.2,0.5-0.7,0.9-1.3,1.1c-0.6,0.2-1.5,0.3-2.6,0.3H94z M92,23.2h14.7c0-0.8-0.2-1.4-0.6-1.6s-1.1-0.3-2.2-0.3h-8.9
		c-1.1,0-1.8,0.1-2.2,0.3S92,22.4,92,23.2z M92,27.3h14.7v-2H92V27.3z M94.9,31.6h8.9c1.1,0,1.9-0.1,2.3-0.4
		c0.4-0.3,0.6-0.8,0.6-1.7H92c0,0.9,0.2,1.5,0.6,1.7C93,31.4,93.7,31.6,94.9,31.6z M94.7,15.1h9.1c0.9,0,1.4-0.1,1.6-0.2
		c0.2-0.2,0.3-0.5,0.3-1.2c0-0.6-0.1-1-0.3-1.1c-0.2-0.1-0.8-0.2-1.6-0.2h-9.1c-0.8,0-1.4,0.1-1.6,0.2c-0.2,0.1-0.3,0.5-0.3,1.1
		c0,0.6,0.1,1,0.3,1.2C93.3,15.1,93.8,15.1,94.7,15.1z"/>
</g>
<g>
	<path class="st0" d="M150.7,1.5c5.4,0,9.8,4.4,9.8,9.8v27.3c0,5.4-4.4,9.8-9.8,9.8H11.3c-5.4,0-9.8-4.4-9.8-9.8V11.3
		c0-5.4,4.4-9.8,9.8-9.8H150.7 M150.7,0H11.3C5.1,0,0,5.1,0,11.3v27.3C0,44.9,5.1,50,11.3,50h139.3c6.3,0,11.3-5.1,11.3-11.3V11.3
		C162,5.1,156.9,0,150.7,0L150.7,0z"/>
</g>
</svg>
