<?xml version="1.0" encoding="utf-8"?>
<!-- Generator: Adobe Illustrator 26.5.0, SVG Export Plug-In . SVG Version: 6.00 Build 0)  -->
<svg version="1.1" id="レイヤー_1" xmlns="http://www.w3.org/2000/svg" xmlns:xlink="http://www.w3.org/1999/xlink" x="0px"
	 y="0px" width="162px" height="50px" viewBox="0 0 162 50" style="enable-background:new 0 0 162 50;" xml:space="preserve">
<style type="text/css">
	.st0{fill:#64D35C;}
</style>
<g>
	<path class="st0" d="M64.1,38.9c-2.1,0-4-0.1-5.5-0.3c-1.6-0.2-2.9-0.5-4-1c-1.1-0.5-2.1-1.1-2.9-1.8c-0.4,0.2-0.8,0.5-1.3,0.9
		c-0.5,0.3-1,0.7-1.4,1c-0.5,0.3-0.8,0.5-1,0.7c-0.4,0.2-0.7,0.3-1.2,0.2c-0.4-0.1-0.8-0.3-1-0.6c-0.2-0.4-0.2-0.8-0.1-1.2
		c0.1-0.4,0.3-0.7,0.7-0.9c0.4-0.2,0.9-0.5,1.7-0.9c0.7-0.4,1.4-0.8,2-1.1V26c0-0.6-0.1-1-0.3-1.2c-0.2-0.2-0.6-0.3-1.2-0.3h-2
		c-0.4,0-0.7-0.1-1-0.4c-0.2-0.3-0.4-0.6-0.4-1c0-0.4,0.1-0.7,0.4-1c0.2-0.3,0.6-0.4,1-0.4h2.9c2.2,0,3.3,1.1,3.3,3.3v8.2
		c0.7,0.7,1.6,1.2,2.5,1.6c0.9,0.4,2.1,0.7,3.5,0.9c1.4,0.2,3.2,0.3,5.4,0.3c1.9,0,3.7,0,5.4-0.1c1.6-0.1,3.1-0.1,4.3-0.2
		c0.5,0,0.9,0.1,1.2,0.4s0.5,0.7,0.5,1.1s-0.1,0.8-0.4,1.1c-0.3,0.3-0.7,0.5-1.2,0.5c-0.8,0-1.8,0-3,0c-1.1,0-2.3,0-3.5,0
		C66.2,38.9,65.1,38.9,64.1,38.9z M51.2,16.6c-0.3-0.4-0.7-0.8-1.2-1.2c-0.5-0.4-1-0.9-1.5-1.3c-0.5-0.4-1-0.8-1.4-1.1
		c-0.3-0.2-0.4-0.5-0.4-0.9s0.1-0.7,0.4-0.9c0.2-0.3,0.5-0.5,0.9-0.5c0.4-0.1,0.7,0,1,0.3c0.4,0.3,0.9,0.7,1.5,1.1
		c0.5,0.4,1,0.9,1.5,1.3c0.5,0.4,0.9,0.8,1.2,1.1c0.3,0.3,0.5,0.6,0.5,1s-0.2,0.7-0.5,1.1c-0.3,0.3-0.6,0.4-1,0.5
		C51.8,17,51.5,16.8,51.2,16.6z M72,34.3c-1.6-0.8-3.1-1.8-4.3-3c-1.3-1.2-2.3-2.5-3.1-4.1c-1.5,3-4,5.4-7.7,7
		c-0.4,0.2-0.8,0.2-1.3,0.1c-0.4-0.1-0.7-0.3-1-0.7c-0.2-0.4-0.2-0.8-0.1-1.2c0.1-0.4,0.4-0.7,0.9-0.9c1.8-0.8,3.3-1.7,4.4-2.8
		c1.1-1,1.9-2.3,2.4-3.7h-6.7c-0.4,0-0.7-0.1-1-0.4c-0.2-0.3-0.4-0.6-0.4-0.9c0-0.4,0.1-0.7,0.4-1c0.2-0.3,0.6-0.4,1-0.4h7.3
		c0-0.2,0-0.5,0-0.7c0-0.2,0-0.5,0-0.7v-2.3h-6.2c-0.4,0-0.7-0.1-0.9-0.4c-0.2-0.3-0.3-0.6-0.3-0.9c0-0.4,0.1-0.7,0.3-0.9
		c0.2-0.3,0.5-0.4,0.9-0.4h8.5c0.2-0.5,0.5-1,0.9-1.7c0.3-0.7,0.7-1.4,1-2.1c0.3-0.7,0.6-1.2,0.7-1.6c0.2-0.4,0.4-0.7,0.8-0.8
		c0.4-0.1,0.7-0.1,1.1,0c0.4,0.1,0.6,0.4,0.8,0.7c0.2,0.3,0.2,0.7,0,1.1c-0.2,0.6-0.6,1.3-1.1,2.1s-0.9,1.6-1.3,2.3h4.1
		c0.4,0,0.7,0.1,1,0.4c0.2,0.3,0.3,0.6,0.3,0.9c0,0.4-0.1,0.7-0.3,0.9c-0.2,0.3-0.6,0.4-1,0.4h-6.4v2.3c0,0.2,0,0.5,0,0.7
		c0,0.2,0,0.5-0.1,0.7h7.8c0.4,0,0.7,0.1,1,0.4c0.2,0.3,0.4,0.6,0.4,1c0,0.4-0.1,0.7-0.4,0.9c-0.2,0.3-0.6,0.4-1,0.4h-7.1
		c0.6,1.5,1.5,2.7,2.7,3.8s2.7,2,4.4,2.7c0.4,0.2,0.6,0.4,0.8,0.8c0.1,0.4,0.1,0.8-0.1,1.1c-0.2,0.4-0.6,0.6-1,0.8
		C72.9,34.6,72.4,34.6,72,34.3z M62.1,15.7c-0.4,0.2-0.7,0.3-1.1,0.2c-0.4-0.1-0.7-0.3-0.9-0.6c-0.2-0.3-0.4-0.7-0.7-1.1
		c-0.3-0.4-0.6-0.8-0.8-1.2c-0.3-0.4-0.5-0.7-0.7-1c-0.2-0.3-0.3-0.6-0.2-1c0.1-0.4,0.3-0.6,0.6-0.8c0.3-0.2,0.7-0.3,1.1-0.2
		c0.4,0,0.7,0.2,0.9,0.5c0.2,0.2,0.4,0.6,0.7,1c0.3,0.4,0.6,0.9,0.9,1.3c0.3,0.4,0.5,0.7,0.6,1c0.2,0.4,0.3,0.7,0.2,1.1
		C62.7,15.2,62.5,15.5,62.1,15.7z"/>
	<path class="st0" d="M103.6,38.9c-2.2,0-4.1-0.1-5.7-0.3c-1.6-0.2-3-0.5-4.1-1c-1.2-0.5-2.2-1.1-3-2c-0.4,0.3-0.8,0.6-1.3,0.9
		c-0.5,0.4-1,0.7-1.4,1c-0.5,0.3-0.8,0.6-1,0.7c-0.4,0.3-0.8,0.4-1.2,0.3c-0.5-0.1-0.8-0.3-1.1-0.7c-0.2-0.4-0.3-0.8-0.2-1.2
		s0.3-0.7,0.7-1c0.2-0.1,0.6-0.3,1-0.6c0.4-0.2,0.9-0.5,1.4-0.8c0.5-0.3,0.9-0.5,1.3-0.8V26c0-0.6-0.1-1-0.3-1.2
		c-0.2-0.2-0.6-0.3-1.2-0.3h-1.8c-0.4,0-0.7-0.1-1-0.4c-0.2-0.3-0.4-0.6-0.4-0.9c0-0.4,0.1-0.7,0.4-1c0.2-0.3,0.6-0.4,1-0.4h2.8
		c1.1,0,2,0.3,2.5,0.8c0.5,0.5,0.8,1.4,0.8,2.5v8.1c0.7,0.8,1.6,1.4,2.6,1.8c1,0.4,2.2,0.7,3.7,0.9c1.5,0.2,3.3,0.3,5.6,0.3
		c1.9,0,3.7,0,5.3-0.1c1.6-0.1,3.1-0.1,4.3-0.2c0.5,0,0.9,0.1,1.2,0.3s0.5,0.6,0.5,1.1s-0.1,0.8-0.4,1.1c-0.3,0.3-0.7,0.4-1.2,0.4
		c-0.8,0-1.8,0-3,0c-1.1,0-2.3,0-3.5,0C105.7,38.9,104.6,38.9,103.6,38.9z M92.2,16.7c-0.3,0.3-0.6,0.4-1,0.4s-0.7-0.2-1-0.5
		c-0.5-0.6-1.1-1.2-1.8-1.9c-0.7-0.7-1.4-1.3-1.9-1.8c-0.3-0.2-0.4-0.5-0.4-0.9c0-0.4,0.1-0.7,0.4-0.9c0.3-0.3,0.6-0.4,1-0.5
		c0.4,0,0.7,0.1,1,0.3c0.6,0.5,1.3,1.1,2.1,1.9c0.7,0.7,1.4,1.3,1.8,1.8c0.3,0.3,0.4,0.7,0.4,1C92.6,16.1,92.5,16.4,92.2,16.7z
		 M94.5,31.8c-0.4,0.1-0.8,0.1-1.2-0.1c-0.3-0.2-0.6-0.5-0.7-0.8c-0.1-0.4-0.1-0.7,0.1-1.1c0.2-0.3,0.4-0.5,0.8-0.6
		c0.2-0.1,0.5-0.1,0.7-0.2c0.2-0.1,0.5-0.2,0.8-0.2V16.4c0-0.9,0.1-1.6,0.2-2.2c0.2-0.6,0.4-1,0.9-1.4c0.4-0.4,1-0.7,1.8-1
		c0.4-0.2,1-0.4,1.6-0.6c0.6-0.3,1.1-0.5,1.5-0.6c0.4-0.2,0.8-0.2,1.2-0.1c0.4,0.1,0.7,0.3,0.9,0.7c0.2,0.3,0.2,0.7,0.1,1
		c-0.1,0.4-0.3,0.7-0.7,0.8c-0.4,0.2-0.9,0.4-1.5,0.6c-0.6,0.2-1.1,0.4-1.5,0.6c-0.7,0.3-1.1,0.6-1.3,0.9c-0.2,0.3-0.3,0.8-0.3,1.4
		v11.4c0.6-0.2,1.1-0.4,1.6-0.5c0.5-0.2,1-0.3,1.4-0.5c0.3-0.1,0.6-0.1,0.9,0.1c0.3,0.2,0.5,0.4,0.6,0.8c0.1,0.3,0.1,0.6,0,1
		c-0.1,0.3-0.4,0.6-0.8,0.7c-0.4,0.2-0.9,0.3-1.6,0.6c-0.6,0.2-1.3,0.4-2,0.7c-0.7,0.2-1.4,0.5-2.1,0.7
		C95.5,31.5,94.9,31.6,94.5,31.8z M104.6,35.2c-0.4,0-0.7-0.1-1-0.4c-0.3-0.3-0.4-0.6-0.4-1V16c0-1.1,0.1-2,0.4-2.6
		c0.3-0.6,0.8-1,1.6-1.3c0.7-0.2,1.8-0.4,3.1-0.4c1.3,0,2.3,0.1,3,0.4c0.7,0.2,1.2,0.7,1.5,1.3c0.3,0.6,0.4,1.5,0.4,2.6v11.5
		c0,1.5-0.3,2.6-1,3.2c-0.7,0.7-1.8,1-3.4,1.1c-0.4,0-0.8-0.1-1.1-0.3c-0.3-0.2-0.5-0.6-0.5-1c0-0.4,0-0.8,0.3-1.1
		c0.2-0.3,0.6-0.5,1-0.5c0.8-0.1,1.4-0.2,1.6-0.5c0.2-0.2,0.3-0.6,0.3-1.3V16.4c0-0.8-0.1-1.3-0.4-1.5c-0.3-0.2-0.8-0.3-1.7-0.3
		c-0.9,0-1.5,0.1-1.8,0.3c-0.3,0.2-0.4,0.7-0.4,1.5v17.4c0,0.4-0.1,0.8-0.4,1C105.3,35.1,105,35.2,104.6,35.2z"/>
</g>
<g>
	<path class="st0" d="M150.7,1.5c5.4,0,9.8,4.4,9.8,9.8v27.3c0,5.4-4.4,9.8-9.8,9.8H11.3c-5.4,0-9.8-4.4-9.8-9.8V11.3
		c0-5.4,4.4-9.8,9.8-9.8H150.7 M150.7,0H11.3C5.1,0,0,5.1,0,11.3v27.3C0,44.9,5.1,50,11.3,50h139.3c6.3,0,11.3-5.1,11.3-11.3V11.3
		C162,5.1,156.9,0,150.7,0L150.7,0z"/>
</g>
</svg>
