<?xml version="1.0" encoding="utf-8"?>
<!-- Generator: Adobe Illustrator 26.5.0, SVG Export Plug-In . SVG Version: 6.00 Build 0)  -->
<svg version="1.1" id="レイヤー_1" xmlns="http://www.w3.org/2000/svg" xmlns:xlink="http://www.w3.org/1999/xlink" x="0px"
	 y="0px" width="162px" height="50px" viewBox="0 0 162 50" style="enable-background:new 0 0 162 50;" xml:space="preserve">
<style type="text/css">
	.st0{fill:#64D35C;}
</style>
<g>
	<path class="st0" d="M53.5,39.8c-0.4,0-0.7-0.1-1-0.4c-0.3-0.3-0.4-0.6-0.4-1v-11c-0.7,1.1-1.4,2.1-2.1,3.2c-0.7,1-1.4,1.9-2.1,2.6
		c-0.3,0.3-0.6,0.4-1,0.5c-0.4,0-0.7-0.1-1-0.4c-0.3-0.2-0.4-0.5-0.4-0.9c0-0.4,0.1-0.7,0.4-0.9c0.6-0.6,1.3-1.4,2-2.4
		c0.7-1,1.5-2,2.2-3.1c0.7-1.1,1.3-2.1,1.7-3H47c-0.4,0-0.7-0.1-0.9-0.4c-0.3-0.3-0.4-0.6-0.4-0.9c0-0.4,0.1-0.7,0.4-0.9
		c0.3-0.3,0.6-0.4,0.9-0.4h5.1v-9.7c0-0.4,0.1-0.8,0.4-1c0.3-0.3,0.6-0.4,1-0.4c0.4,0,0.7,0.1,1,0.4c0.3,0.3,0.4,0.6,0.4,1v9.7h4.2
		c0.4,0,0.7,0.1,0.9,0.4c0.3,0.3,0.4,0.6,0.4,0.9c0,0.4-0.1,0.7-0.4,0.9c-0.3,0.3-0.6,0.4-0.9,0.4h-4.2v0.7c0.4,0.5,0.9,1,1.5,1.6
		c0.6,0.6,1.1,1.3,1.7,1.8c0.6,0.6,1.1,1.1,1.4,1.4c0.2,0.2,0.3,0.4,0.4,0.6c0.2-0.4,0.6-0.6,1-0.6c1.1-0.2,2.3-0.4,3.8-0.7
		c1.5-0.3,3-0.6,4.5-0.9V10.7c0-0.4,0.1-0.8,0.4-1c0.3-0.3,0.6-0.4,1-0.4s0.7,0.1,1,0.4c0.3,0.3,0.4,0.6,0.4,1v15.7
		c0.5-0.1,1.1-0.3,1.5-0.4c0.5-0.1,0.9-0.2,1.3-0.3c0.4-0.1,0.7-0.1,1.1,0.1c0.3,0.2,0.5,0.5,0.6,0.9c0.2,0.9-0.2,1.5-1,1.6
		c-0.5,0.1-1,0.2-1.6,0.4c-0.6,0.1-1.2,0.3-1.8,0.4v9.2c0,0.4-0.1,0.8-0.4,1c-0.3,0.3-0.6,0.4-1,0.4s-0.7-0.1-1-0.4
		c-0.3-0.3-0.4-0.6-0.4-1v-8.5c-1.4,0.3-2.7,0.6-4.1,0.8c-1.4,0.3-2.6,0.5-3.7,0.7c-0.4,0.1-0.8,0-1.1-0.2c-0.3-0.2-0.5-0.5-0.6-0.9
		c0,0.1-0.1,0.2-0.1,0.2c-0.2,0.3-0.6,0.4-0.9,0.4c-0.4,0-0.7-0.1-1-0.4c-0.4-0.4-0.8-0.8-1.3-1.4c-0.5-0.6-1-1.1-1.5-1.8v11
		c0,0.4-0.1,0.8-0.4,1C54.2,39.7,53.9,39.8,53.5,39.8z M50,18.9c-0.4,0.2-0.7,0.2-1,0c-0.3-0.1-0.6-0.4-0.7-0.7
		c-0.1-0.4-0.3-0.8-0.5-1.3c-0.2-0.5-0.4-1-0.6-1.5c-0.2-0.5-0.4-0.9-0.6-1.3c-0.2-0.3-0.2-0.6,0-0.9c0.1-0.3,0.4-0.5,0.7-0.7
		c0.4-0.2,0.7-0.2,1,0c0.3,0.1,0.5,0.3,0.7,0.7c0.2,0.3,0.4,0.8,0.6,1.3c0.2,0.5,0.5,1.1,0.7,1.6c0.2,0.5,0.4,1,0.5,1.3
		c0.1,0.4,0.1,0.7,0,1C50.7,18.5,50.4,18.7,50,18.9z M56.7,19c-0.4-0.2-0.6-0.4-0.7-0.7c-0.1-0.3-0.1-0.6,0-0.9
		c0.2-0.4,0.4-0.8,0.7-1.4c0.2-0.6,0.5-1.1,0.7-1.7c0.2-0.5,0.4-1,0.5-1.4c0.2-0.4,0.4-0.6,0.7-0.8c0.3-0.2,0.7-0.2,1,0
		c0.4,0.1,0.6,0.3,0.8,0.6c0.2,0.3,0.2,0.6,0,1c-0.2,0.4-0.3,0.9-0.6,1.5c-0.2,0.6-0.5,1.1-0.7,1.7c-0.3,0.6-0.5,1-0.7,1.4
		c-0.2,0.3-0.4,0.5-0.7,0.6C57.4,19.2,57.1,19.2,56.7,19z M65.1,24.6c-0.4-0.4-1-0.8-1.6-1.3c-0.6-0.5-1.2-0.9-1.7-1.2
		c-0.3-0.2-0.4-0.5-0.5-0.9c0-0.4,0.1-0.7,0.3-1c0.3-0.3,0.6-0.5,0.9-0.5c0.4,0,0.7,0,1.1,0.3c0.3,0.2,0.7,0.4,1.1,0.7
		c0.4,0.3,0.9,0.6,1.3,0.9c0.4,0.3,0.8,0.6,1,0.8c0.3,0.3,0.5,0.6,0.5,1c0,0.4-0.1,0.7-0.4,1.1c-0.3,0.3-0.6,0.4-1,0.5
		C65.8,25,65.4,24.8,65.1,24.6z M66.1,17.6c-0.4-0.4-0.9-0.8-1.6-1.3c-0.6-0.5-1.2-0.9-1.7-1.2c-0.3-0.2-0.5-0.5-0.5-0.9
		c0-0.4,0.1-0.7,0.3-1c0.3-0.3,0.6-0.5,0.9-0.5c0.4,0,0.7,0.1,1,0.3c0.3,0.2,0.7,0.5,1.1,0.8c0.4,0.3,0.9,0.6,1.3,0.9
		c0.4,0.3,0.8,0.6,1,0.8c0.3,0.3,0.5,0.6,0.5,1s-0.1,0.7-0.4,1.1c-0.3,0.3-0.6,0.4-1,0.4C66.7,18,66.4,17.9,66.1,17.6z"/>
	<path class="st0" d="M85.7,22.8c-0.4,0.2-0.8,0.3-1.3,0.2c-0.4-0.1-0.7-0.3-1-0.7c-0.2-0.4-0.3-0.8-0.1-1.2
		c0.1-0.4,0.4-0.7,0.7-0.9c1.1-0.5,2.2-1.2,3.3-1.9c1.2-0.8,2.3-1.6,3.4-2.4c1.1-0.9,2.2-1.7,3.2-2.6c1-0.9,1.9-1.7,2.6-2.5
		c0.8-0.8,1.6-1.3,2.5-1.3c0.9,0,1.7,0.4,2.5,1.1c0.7,0.8,1.6,1.6,2.7,2.5c1,0.9,2.2,1.7,3.3,2.6c1.2,0.8,2.3,1.6,3.5,2.3
		c1.1,0.7,2.2,1.3,3.1,1.7c0.4,0.2,0.6,0.5,0.8,1c0.1,0.5,0.1,0.9-0.1,1.3c-0.3,0.4-0.6,0.7-1.1,0.8c-0.5,0.1-0.9,0-1.4-0.2
		c-0.9-0.5-1.9-1.1-3-1.8c-1.1-0.7-2.2-1.5-3.4-2.4c-1.1-0.8-2.2-1.7-3.3-2.6c-1-0.9-1.9-1.7-2.6-2.5c-0.7-0.7-1.3-0.8-2,0
		c-0.7,0.7-1.6,1.6-2.6,2.4c-1,0.9-2.1,1.7-3.2,2.6c-1.1,0.9-2.3,1.7-3.5,2.5C87.9,21.5,86.8,22.2,85.7,22.8z M86.3,38.4
		c-0.4,0-0.7-0.1-1-0.4c-0.2-0.3-0.4-0.6-0.4-0.9c0-0.4,0.1-0.7,0.4-0.9c0.2-0.3,0.6-0.4,1-0.4h11.4v-7.5h-9.1c-0.4,0-0.8-0.1-1-0.4
		c-0.3-0.3-0.4-0.6-0.4-0.9c0-0.4,0.1-0.7,0.4-1c0.3-0.3,0.6-0.4,1-0.4h9.1v-3.4h-4.9c-0.4,0-0.7-0.1-1-0.4c-0.2-0.3-0.4-0.6-0.4-1
		c0-0.4,0.1-0.7,0.4-1c0.2-0.3,0.6-0.4,1-0.4h12.9c0.4,0,0.7,0.1,1,0.4c0.2,0.3,0.4,0.6,0.4,1c0,0.4-0.1,0.7-0.4,1
		c-0.2,0.3-0.6,0.4-1,0.4h-4.9v3.4h9c0.4,0,0.8,0.1,1,0.4c0.3,0.3,0.4,0.6,0.4,1c0,0.4-0.1,0.7-0.4,0.9c-0.3,0.3-0.6,0.4-1,0.4h-9
		v7.5h11.1c0.4,0,0.7,0.1,1,0.4c0.2,0.3,0.4,0.6,0.4,0.9c0,0.4-0.1,0.7-0.4,0.9c-0.2,0.3-0.6,0.4-1,0.4H86.3z M94.4,35.3
		c-0.3,0.2-0.7,0.3-1.1,0.2c-0.4-0.1-0.7-0.3-0.9-0.6c-0.2-0.3-0.5-0.7-0.8-1.2c-0.3-0.5-0.6-1-1-1.5c-0.3-0.5-0.6-0.9-0.8-1.2
		c-0.2-0.3-0.3-0.6-0.3-1c0-0.4,0.2-0.7,0.5-0.9c0.3-0.2,0.7-0.3,1.1-0.3c0.4,0,0.8,0.2,1,0.5c0.2,0.3,0.5,0.7,0.9,1.2
		c0.3,0.5,0.7,1,1,1.5c0.3,0.5,0.6,0.9,0.8,1.2c0.2,0.3,0.3,0.7,0.2,1.1C95,34.7,94.8,35.1,94.4,35.3z M103.9,35.4
		c-0.3-0.2-0.5-0.5-0.6-0.9c-0.1-0.4,0-0.7,0.2-1c0.2-0.3,0.5-0.7,0.8-1.2c0.3-0.5,0.6-1,0.9-1.5c0.3-0.5,0.5-0.9,0.7-1.3
		c0.2-0.4,0.5-0.6,0.9-0.7c0.4-0.1,0.8-0.1,1.1,0.1c0.4,0.2,0.6,0.5,0.7,0.8c0.1,0.4,0.1,0.8-0.1,1.1c-0.2,0.3-0.4,0.8-0.7,1.3
		c-0.3,0.5-0.6,1-0.9,1.5c-0.3,0.5-0.6,0.9-0.8,1.2c-0.2,0.4-0.5,0.6-1,0.6C104.6,35.7,104.2,35.6,103.9,35.4z"/>
</g>
<g>
	<path class="st0" d="M150.7,1.5c5.4,0,9.8,4.4,9.8,9.8v27.3c0,5.4-4.4,9.8-9.8,9.8H11.3c-5.4,0-9.8-4.4-9.8-9.8V11.3
		c0-5.4,4.4-9.8,9.8-9.8H150.7 M150.7,0H11.3C5.1,0,0,5.1,0,11.3v27.3C0,44.9,5.1,50,11.3,50h139.3c6.3,0,11.3-5.1,11.3-11.3V11.3
		C162,5.1,156.9,0,150.7,0L150.7,0z"/>
</g>
</svg>
