<?xml version="1.0" encoding="utf-8"?>
<!-- Generator: Adobe Illustrator 26.5.0, SVG Export Plug-In . SVG Version: 6.00 Build 0)  -->
<svg version="1.1" id="レイヤー_1" xmlns="http://www.w3.org/2000/svg" xmlns:xlink="http://www.w3.org/1999/xlink" x="0px"
	 y="0px" width="390px" height="520px" viewBox="0 0 390 520" style="enable-background:new 0 0 390 520;" xml:space="preserve">
<style type="text/css">
	.st0{fill:#FFFFFF;}
	.st1{fill:#64D35C;}
</style>
<g>
	<path class="st0" d="M20.1,97.1c-10.6,0-19.3-8.6-19.3-19.3V20.1C0.9,9.5,9.5,0.9,20.1,0.9h349.8c10.6,0,19.3,8.6,19.3,19.3v57.8
		c0,10.6-8.6,19.3-19.3,19.3H20.1z"/>
	<path class="st1" d="M369.9,1.7c10.1,0,18.4,8.3,18.4,18.4v57.8c0,10.1-8.3,18.4-18.4,18.4H20.1C10,96.3,1.7,88,1.7,77.9V20.1
		C1.7,10,10,1.7,20.1,1.7H369.9 M369.9,0H20.1C9,0,0,9,0,20.1v57.8C0,89,9,98,20.1,98h349.8C381,98,390,89,390,77.9V20.1
		C390,9,381,0,369.9,0L369.9,0z"/>
</g>
<g>
	<path class="st1" d="M140.4,50c2,0,5.1-0.1,5.8-0.2l1.1,1.5c-1.3,3-3.2,5.7-5.6,7.8c3.6,1.8,7.9,2.8,12.1,2.3l-2,3.4
		c-4.4,0-9.1-1.6-12.8-3.9c-4.2,2.5-9,4-13.9,3.9l-1.9-3.3c5.5,0.3,8.8-0.2,13.3-2.5c-1.6-1.5-3.7-4-4.4-6c-0.9,0-1.9,0.1-2.8,0.2
		v-3.6c1.5,0.2,4.4,0.2,6.6,0.2H140.4z M150.3,38.7c0.3,0.2,0.6,0.3,0.6,0.7c0,0.2-0.3,0.5-1.4,0.6c-0.9,1.3-2,3.6-3.1,4.8
		c1.8,0,5.2,0,6.9-0.2c-0.1,1-0.1,2-0.1,3v2.3c0,1.1,0.1,2.1,0.1,3.2h-3.5c0-1.1,0-2.2,0-3.4v-2h-22.9v1.9c0,1.2,0.1,2.3,0.1,3.5
		h-3.4c0.1-1.1,0.2-2.2,0.2-3.3v-2.1c0-1-0.1-2.2-0.2-3.1c1.2,0.1,3.5,0.2,4.8,0.2h14.9c0.5,0,1.6-0.1,2.2-0.1v-0.1l-2.1-1.2
		c1.6-1.9,2.9-4.1,3.8-6.5L150.3,38.7z M150,35.6c0.1,0.1,0.4,0.4,0.4,0.6c0,0.3-0.2,0.4-0.5,0.4c-0.4,0-1-0.2-1.3-0.3
		c-3.4,1-6.9,1.6-10.4,2c1.2,1.4,2.3,2.9,3,4.6l-3,1.5c-0.5-1.8-1.6-3.3-3-4.4l3-1.6l-0.1-0.1c-2.5,0.2-5,0.5-7.6,0.6
		c1.1,1.2,1.9,2.6,2.5,4.1l-3,1.6c-0.7-1.7-1.9-3.2-3.2-4.5l2-1.1V39c-0.4,0-0.8,0-1.2,0l-1.2-3.4c2,0.2,4,0.3,6,0.3
		c8.6,0,13.8-1.9,15.3-2.7L150,35.6z M135.3,52.9c1,1.9,2.3,3.3,3.8,4.5c1.5-1.3,2.7-2.8,3.6-4.5H135.3z"/>
	<path class="st1" d="M161.9,38.5c0.6,0.4,1.2,0.8,1.8,1.3c1.4-2,2.7-4.1,3.6-6.4l3.2,1.9c0.2,0.1,0.4,0.3,0.4,0.6
		c0,0.3-0.4,0.5-1.4,0.5c-1.3,1.8-2.3,3.3-3.7,5c0.5,0.5,1.1,1,1.6,1.5c1.2-1.6,2.2-3.4,3.3-5.1l2.9,2c0.4,0.2,0.6,0.5,0.6,0.7
		c0,0.3-0.4,0.6-1.5,0.6c-2.3,3.3-4.9,6.1-6.2,7.4l0.1,0.1c0.9-0.1,2.3-0.2,3.7-0.5c-0.4-0.6-0.8-1.2-1.4-2l2.8-1.2
		c1.6,1.8,2.8,3.9,3.5,6.1l-2.9,1.1c-0.1-0.6-0.4-1.2-0.6-1.8c-0.9,0.1-1.9,0.3-2.8,0.4v8c0,1.8,0.3,4.7,0.4,6.4h-3.6
		c0.3-2.1,0.4-4.5,0.4-6.4v-7.7c-1.2,0.3-3,0.5-4.1,0.6c-0.2,0.5-0.6,1-0.9,1c-0.2,0-0.4-0.3-0.5-0.8l-0.4-3.2
		c0.7,0.1,1.5,0.1,2.2,0c0.4-0.5,2.7-2.8,3.2-3.5c-1.5-1.8-3.4-3.2-5.5-4.3L161.9,38.5z M164.6,53.9c0,3.7-0.3,7-1.4,10.1l-3.2-0.9
		c1.5-3.2,1.7-6.4,1.6-9.6L164.6,53.9z M172.4,53.3c1.3,2.2,2.2,4.6,2.6,7.1l-3.3,1.2c-0.3-3.5-0.8-5.5-2.1-7.6L172.4,53.3z
		 M190.5,46.2c-5.3-3.2-7.2-6.6-8.4-8.2c-0.8,1.7-4.3,6.7-7.4,8.5l-3-2.3c4.7-2.4,7.5-6.5,8.7-10.7l3.7,1c0.3,0.1,0.6,0.2,0.6,0.5
		s-0.3,0.5-0.6,0.6c1.5,2.5,3,5,8.7,7.9L190.5,46.2z M175.3,65.1c0.2-1.8,0.3-3.6,0.3-5.3v-3.9c0-1.1,0-2.7-0.1-4.1
		c0.4,0,2.8,0.1,4.5,0.1h4.6c1.7,0,4.4-0.1,5.5-0.1c-0.1,1.3-0.1,3.2-0.1,4.8V60c0,1.7,0.1,3.4,0.3,5.1h-3.6
		c0.1-0.5,0.2-0.9,0.2-1.4h-8.2c0,0.5,0.1,0.9,0.1,1.4H175.3z M189.4,49.3c-1-0.2-3.3-0.3-4.6-0.3h-4.4c-1.2,0-2.5,0-4.5,0.3v-3.5
		c0.9,0.1,3.4,0.3,4.5,0.3h4.4c1.5,0,3-0.1,4.6-0.3V49.3z M178.6,54.8v6.3h8.3v-6.3H178.6z"/>
	<path class="st1" d="M215.6,34.2c0.4,0,0.7,0.1,0.7,0.5c0,0.3-0.2,0.6-1.3,1c-0.1,0.7-0.1,1.7-0.1,2.3c0.2,0,3.4,0,5.7-0.3v2h0.1
		c1-1.5,2-3,3-4.6l3.3,2.1c0.1,0.1,0.2,0.3,0.2,0.5c0,0.3-0.2,0.6-0.7,0.6c-0.2,0-0.4-0.1-0.9-0.2c-1.5,2.3-3.3,4.5-5.3,6.4
		c2.5,0,7.4-0.2,9.8-0.3v3.2c-2.2-0.2-7-0.2-10.5-0.2h-2.3c-1.4,1.1-2.7,2.1-4.2,2.9v0.1h5c2.3,0,5.9-0.2,7-0.4
		c-0.1,1.5-0.2,3-0.2,4.6v6c0,1.4,0.2,3.8,0.2,4.6h-3.2c0-0.5,0-1,0-1.5h-12.1c0,0.6,0,1.2,0.2,1.8h-3.2c0.2-1.7,0.2-3.4,0.2-5.1
		v-6.5c-2,0.9-4,1.8-6.1,2.6l-2.9-2.9c5.1-0.7,9.8-3.2,14.1-6v-0.1H209c-3.4,0-7.4,0-10.5,0.2v-3.2c3.5,0.2,7,0.3,10.5,0.3h2.6v-3.9
		h-3c-1.9,0-4.2,0-6,0.2v-3.2c1.5,0.2,4.3,0.3,6,0.3h2.9c0-1-0.1-3.7-0.1-4.1L215.6,34.2z M210,52.7v2.9h11.9v-2.9H210z M210,58v2.8
		h11.9V58H210z M214.8,44.5h0.9c2.3-1.8,2.7-2.2,4-3.7c-1.1-0.1-3.7-0.1-4.9-0.1V44.5z"/>
	<path class="st1" d="M244.9,39.1c1.6,0,3.8-0.1,4.7-0.3v3.4c-1-0.1-2.9-0.3-4.7-0.3h-4.6c-1.1,0-3.8,0.2-4.6,0.3v-3.4
		c1,0.1,3.5,0.3,4.6,0.3H244.9z M244.4,53.7c1.1,0,2.8,0,3.7-0.1c-0.1,0.9-0.1,2.4-0.1,3.6v3.9c0,1.2,0,2.3,0.1,3.5h-3.4
		c0.1-0.4,0.1-0.8,0.1-1.3h-4.7c0,0.6,0.1,1.3,0.2,1.9h-3.5c0.1-1.2,0.1-2.5,0.1-3.7v-4.1c0-1.4-0.1-2.9-0.1-3.9
		c1.1,0.1,2.3,0.1,3.5,0.1H244.4z M244.3,34.6c1,0,2.9-0.2,3.7-0.3v3.4c-0.7-0.1-2.5-0.3-3.7-0.3h-3.6c-1.3,0-2.8,0.1-3.7,0.3v-3.4
		c0.8,0.2,2.7,0.3,3.7,0.3H244.3z M244.3,43.9c1.1,0,2.8-0.2,3.7-0.3V47c-0.7-0.1-2.6-0.3-3.7-0.3h-3.6c-1.3,0-2.9,0.1-3.7,0.3v-3.4
		c0.6,0.1,2.5,0.3,3.7,0.3H244.3z M244.3,48.8c1.2,0,3-0.1,3.7-0.3v3.2c-0.7-0.1-2.6-0.2-3.7-0.2h-3.7c-1.2,0-2.9,0.1-3.7,0.2v-3.2
		c0.8,0.1,2.6,0.3,3.7,0.3H244.3z M240.2,56.5v4.2h4.7v-4.2H240.2z M261.2,34.6c1.9,0,3.9,0,5.7-0.3v3.4c-1.5-0.2-4.1-0.3-5.7-0.3
		h-0.4v9.3h2.5c0.8,0,2.5-0.1,3.4-0.1v3.3c-1.2,0-2.3-0.1-3.5-0.1h-2.3v10.9c2.1,0,5.2-0.1,6.6-0.2v3.4c-1.2-0.1-4.4-0.1-6.2-0.1
		H255c-2,0-4,0.1-6.1,0.1v-3.3c0.8,0,1.6,0.1,2.4,0.1v-8.7c0-1.9-0.1-6.4-0.1-8.1l3.3,0.1c0.3,0,0.7,0.1,0.7,0.4
		c0,0.3-0.2,0.5-0.7,0.7c0,2.3,0,4.7,0,7v8.7h3V37.5h-1.9c-1.9,0-3.8,0.1-5.7,0.3v-3.4c1.4,0.2,4.1,0.3,5.7,0.3H261.2z"/>
</g>
<polygon class="st1" points="195,131.9 208.4,108.7 181.6,108.7 "/>
<g>
	<path class="st0" d="M20.1,237.5c-10.6,0-19.3-8.6-19.3-19.3v-57.8c0-10.6,8.6-19.3,19.3-19.3h349.8c10.6,0,19.3,8.6,19.3,19.3
		v57.8c0,10.6-8.6,19.3-19.3,19.3H20.1z"/>
	<path class="st1" d="M369.9,142.1c10.1,0,18.4,8.3,18.4,18.4v57.8c0,10.1-8.3,18.4-18.4,18.4H20.1c-10.1,0-18.4-8.3-18.4-18.4
		v-57.8c0-10.1,8.3-18.4,18.4-18.4H369.9 M369.9,140.4H20.1C9,140.4,0,149.4,0,160.5v57.8c0,11.1,9,20.1,20.1,20.1h349.8
		c11.1,0,20.1-9,20.1-20.1v-57.8C390,149.4,381,140.4,369.9,140.4L369.9,140.4z"/>
</g>
<g>
	<path class="st0" d="M20.1,378.1c-10.6,0-19.3-8.6-19.3-19.3v-57.8c0-10.6,8.6-19.3,19.3-19.3h349.8c10.6,0,19.3,8.6,19.3,19.3
		v57.8c0,10.6-8.6,19.3-19.3,19.3H20.1z"/>
	<path class="st1" d="M369.9,282.7c10.1,0,18.4,8.3,18.4,18.4v57.8c0,10.1-8.3,18.4-18.4,18.4H20.1c-10.1,0-18.4-8.3-18.4-18.4
		v-57.8c0-10.1,8.3-18.4,18.4-18.4H369.9 M369.9,281H20.1C9,281,0,290,0,301.1v57.8C0,370,9,379,20.1,379h349.8
		c11.1,0,20.1-9,20.1-20.1v-57.8C390,290,381,281,369.9,281L369.9,281z"/>
</g>
<g>
	<path class="st1" d="M177.5,332c0.4,0.1,1,0.2,1,0.5c0,0.4-0.6,0.7-1.1,1.1c-0.1,0.4-0.2,0.9-0.3,1.3h3.8c3.5,0,7-0.1,10.5-0.3v3.2
		c-3.5-0.2-7-0.3-10.5-0.3h-2c2.5,3.4,8.5,6.1,12.8,5.8l-1.9,3.4c-5.3-0.8-11-3.7-14-8.4c-2.3,5.4-7.9,7.7-13.4,8.4l-2.1-3.4
		c5,0.2,10-1.1,12.3-5.8h-2c-3.4,0-6.9,0.1-10.3,0.3v-3.2c3.4,0.2,6.9,0.3,10.3,0.3h3c0.3-1.1,0.3-2.2,0.2-3.3L177.5,332z
		 M170.3,314.5c0.4,0,1,0.1,1,0.6c0,0.4-0.4,0.5-1.1,0.9c0,0.4,0,0.8,0,1.2h0.5c1.2,0,3.6-0.2,4.9-0.4l0.1,2.9c-1.4-0.1-3.5-0.1-5,0
		l-0.5,0l0.1,2.8l0.3,0c1.2-0.1,3-0.3,4.2-0.5l0.1,3c-1.2,0-2.8-0.1-4.2,0l-0.4,0l0.1,3.3c1.8-0.3,3.7-0.7,5.5-1.1l-0.3,2.5h0.1
		c3.3-2.7,5.3-6.4,5-10.6c-0.9,0-2.5,0.1-3.4,0.1v-3c1.5,0.2,3.1,0.2,4.6,0.2h3.5c1.6,0,3.3,0,5-0.2c0.3,4.2,0.2,8.6-1.1,12.7
		c-0.9,2.9-2.4,3.3-3.7,3.4c-0.7,0-1.4,0-2.1,0l-1.2-3.8c0.8,0.3,1.5,0.5,2.3,0.5c0.6,0,1.2-0.7,1.6-1.9c0.8-2,1.2-5.3,1.1-8.2h-3.6
		c0.3,4.7-1.4,10-5.4,12.7l-2.7-1.9l-0.1,0v0.2c-2.6,0.6-9.8,2.2-13,2.5c-0.1,0.4-0.1,0.9-0.6,0.9c-0.4,0-0.5-0.6-0.6-0.9l-0.7-2.9
		c2.3-0.1,4.2-0.4,6.4-0.7l-0.1-3.6h-0.6c-1.3,0-2.9,0.2-4.1,0.4l-0.2-3c1.4,0.2,2.8,0.1,4.2,0.1h0.6l-0.1-2.9l-1.3,0
		c-1.3,0-3.8,0.2-4.9,0.4l-0.1-2.9c0.8,0,3.7,0.1,4.9,0l1.2,0c-0.1-1-0.2-2-0.3-3L170.3,314.5z"/>
	<path class="st1" d="M202.5,334.6c0.1,2.9-0.2,6.9-1.6,9.9l-3.2-0.8c0.7-1.4,2.7-5,1.7-9.6L202.5,334.6z M200,319.3
		c0.6,0.4,1.2,0.9,1.8,1.4c1.9-3,2.3-4,3.3-6.1l2.9,1.4c0.3,0.1,0.7,0.2,0.7,0.6c0,0.5-0.6,0.5-1.2,0.7c-1.2,2-3,4.3-3.7,5.1
		c0.6,0.5,1,1,1.5,1.5c0.8-1.1,2-2.8,3.2-4.8l2.8,1.6c0.3,0.1,0.6,0.4,0.6,0.6c0,0.4-0.7,0.6-1.2,0.7c-2,2.6-4.2,5-6.5,7.4
		c1.1-0.1,2.7-0.1,4.2-0.4c-0.5-0.8-0.7-1.2-1.2-1.9l2.7-1.4c1.6,2.5,2.6,4.6,3.4,6.2l-3,1.4c-0.2-0.8-0.4-1.3-0.6-1.9
		c-0.8,0.1-2,0.3-2.8,0.3v5.3c0,3.4,0.2,6,0.4,8.9h-3.8c0.4-2.7,0.5-5.4,0.5-9v-4.9c-1.6,0.1-2.8,0.3-4.3,0.4
		c-0.3,0.5-0.5,0.9-0.8,0.9c-0.4,0-0.4-0.2-0.5-0.5l-0.2-3.5c1.1,0,1.9,0,2.7,0c0.4-0.5,1.5-1.8,2.7-3.3c-1.2-1.2-3.3-3-5.5-4.1
		L200,319.3z M211,333.7c1.4,3.1,1.7,6,1.9,8.2l-3.4,0.7c0-2.1,0-4.1-1.5-8.2L211,333.7z M219.4,341.6c1.4,0.4,3.6,0.8,4.1,0.8
		c0.7,0,1.2-0.5,1.5-1.1c1.4-3.4,1.5-8.8,1.5-10.5c0-1.2-0.1-5.3-0.1-6.9h-9.9c-0.5,1.4-0.9,2.1-2.1,4.3l-3.4-1.3
		c3.1-3,4-7.9,4.3-12.2l3.5,0.8c0.4,0.1,0.6,0.2,0.6,0.6c0,0.4-0.5,0.6-1,0.7c-0.1,0.8-0.6,3.4-1,4.2c3.9,0,7.6,0,12.2-0.4
		c-0.1,5.8,0.1,9.5-0.2,13.5c-0.7,11.6-3.3,11.6-6.5,11.6c-0.9,0-1.9-0.1-2.7-0.2L219.4,341.6z M219.3,328.3c1.5,2.2,2.8,4.1,3.8,7
		l-3.4,1.4c-0.8-2.5-2.9-6-3.5-6.9L219.3,328.3z"/>
</g>
<polygon class="st1" points="195,271.4 208.4,248.1 181.6,248.1 "/>
<g>
	<path class="st0" d="M20.1,519.1c-10.6,0-19.3-8.6-19.3-19.3v-57.8c0-10.6,8.6-19.3,19.3-19.3h349.8c10.6,0,19.3,8.6,19.3,19.3
		v57.8c0,10.6-8.6,19.3-19.3,19.3H20.1z"/>
	<path class="st1" d="M369.9,423.7c10.1,0,18.4,8.3,18.4,18.4v57.8c0,10.1-8.3,18.4-18.4,18.4H20.1c-10.1,0-18.4-8.3-18.4-18.4
		v-57.8c0-10.1,8.3-18.4,18.4-18.4H369.9 M369.9,422H20.1C9,422,0,431,0,442.1v57.8C0,511,9,520,20.1,520h349.8
		c11.1,0,20.1-9,20.1-20.1v-57.8C390,431,381,422,369.9,422L369.9,422z"/>
</g>
<g>
	<path class="st1" d="M140.3,458.3c0.2,0.1,0.2,0.4,0.2,0.5c0,0.1-0.1,0.5-0.6,0.5c-0.2,0-0.5-0.1-0.9-0.2c-3.1,1.3-3.4,1.4-4.8,1.8
		v4.9h0.9c1.4,0,4.2-0.2,5.5-0.3v3.5c-1.4-0.1-4.4-0.3-5.5-0.3h-0.8c1.9,2.8,2.8,4.1,6.5,6.4l-2.3,2.3c-1.9-1.1-3.6-2.9-4.3-4h-0.1
		v2.2c0,3.5,0.3,9.6,0.5,11.8h-4c0.1-1.7,0.5-8,0.5-11.8v-2.8H131c-1.5,2.9-4.3,6-6,7.1l-2.9-2.2c3.2-1.5,6.1-5.6,7.5-9h-0.1
		c-1.3,0-4.3,0.2-5.5,0.3v-3.5c1.2,0.1,4.2,0.3,5.5,0.3h1.5v-4.3c-2.5,0.3-4.1,0.3-5.6,0.3l-1.9-3.3c0.9,0.1,1.7,0.2,2.9,0.2
		c6,0,9.7-1.9,11.2-2.6L140.3,458.3z M146.7,458.4c0.3,0,0.8,0.2,0.8,0.5c0,0.2-0.1,0.6-0.9,1c0,0.5-0.1,3.2-0.1,4.2v7.8
		c0,1.6,0.1,5.2,0.4,7.1h-4c0.3-1.9,0.3-5.3,0.3-6.9v-7.7c0-2.1-0.1-5.3-0.1-6.4L146.7,458.4z M153.6,455.8c0.4,0,0.9,0.2,0.9,0.6
		c0,0.3-0.2,0.5-0.9,0.8c0,2.5,0,5,0,7.5v6.1c0,4.1,0.2,8.2,0.2,12.2c0,3.5-1.9,4-5,4c-0.7,0-1.1,0-1.6-0.1l-1.9-3.8
		c1.3,0.3,2.2,0.4,3.4,0.4c1.6,0,1.8-0.7,1.8-2.6l-0.1-21.6c0-1.1,0-2.6-0.2-3.9L153.6,455.8z"/>
	<path class="st1" d="M181.1,457.1c2.1,0,6,0,8.7-0.2c-0.1,0.8-0.2,3.7-0.2,4.4v10c0,3.9,0.2,7.7,0.2,11.6c0,2.1-0.3,3.4-3.3,3.9
		c-1,0.2-2.4,0.2-3.4,0.1l-1.6-3.7c0.5,0.1,1.4,0.2,3.4,0.2c1.3,0,1.3-0.7,1.3-1.6V476h-7.6c0,2.3,0.2,9,0.4,10h-4
		c0.4-1.2,0.4-7.7,0.4-10h-7.2c-0.3,3-1.3,8.2-4.7,10.9l-3.2-2c4.2-3.6,4.7-9.1,4.7-14.6V463c0-1-0.1-4.9-0.1-6.1
		c1.9,0.1,6.4,0.2,8.6,0.2H181.1z M168.2,465.3h7.2v-5.2h-7.2V465.3z M168.2,473h7.2v-5h-7.2V473z M178.6,465.3h7.6v-5.2h-7.6V465.3
		z M178.6,473h7.6v-5h-7.6V473z"/>
	<path class="st1" d="M198.4,487.3c0.2-1.8,0.2-6.5,0.2-9.7v-9.7c0-3.9-0.1-7.9-0.1-11.8c1.8,0.1,3.3,0.2,4.8,0.2h3.5
		c1.2,0,4.4-0.1,5.1-0.2c-0.1,1.2-0.1,2.7-0.1,4v3.3c0,1.4,0,3.2,0.1,4.3c-1.6-0.2-3.3-0.2-4.9-0.2h-5.5v11.8c0,2.7,0.1,5.4,0.2,8.1
		H198.4z M201.7,458.6v2.1h6.9v-2.1H201.7z M201.7,463v2.2h6.9V463H201.7z M202.5,484.3c3.8-0.5,5.6-3.1,6.2-6
		c-1.8,0-3.3,0.1-5.1,0.2v-2.9c1.8,0.1,3.6,0.1,5.4,0.2v-3.1c-0.7,0-2.8,0-4.5,0.2v-3.2c2,0.2,4,0.3,6.1,0.3h6.1
		c2.1,0,4.2-0.1,6.4-0.2v3.1c-0.7-0.1-2.8-0.1-4.3-0.2v3.1c1.2,0,3.9-0.1,4.7-0.2v3c-1.5-0.1-3.1-0.1-4.7-0.1v1.8
		c0,2.4,0.2,4.5,0.4,6.3h-4c0.2-2,0.4-4.1,0.4-6.2v-1.9h-3.7c-0.6,4.3-2.9,7.4-6.5,8.5L202.5,484.3z M211.9,472.6v3.1h3.5v-3.1
		H211.9z M220.3,483.6c0.6,0.1,2.2,0.4,2.9,0.4c1.6,0,2-0.5,2-2v-14.4h-5.4c-1.7,0-3.8,0.1-4.6,0.2c0.1-1.2,0.1-2.5,0.1-3.6v-3.3
		c0-1.5,0-3.1-0.1-4.7c0.9,0.2,3,0.2,4,0.2h3.9c1.8,0,4.1-0.1,5.3-0.2c-0.3,3.5-0.3,7-0.3,10.6v16.5c0,1.9-0.7,3.1-1.9,3.7
		c-1.1,0.5-2.5,0.7-4.3,0.5L220.3,483.6z M218.5,458.6v2.1h6.6v-2.1H218.5z M218.5,463v2.2h6.6V463H218.5z"/>
	<path class="st1" d="M243.4,456.6c0.3,0,0.6,0.1,0.6,0.4s-0.3,0.4-0.9,0.6c-0.1,0.9-0.5,3.5-0.7,5.3h1.2c1,0,2.6-0.1,3.6-0.2
		c-0.3,5.3-0.5,10.9-2.6,15.6c1.4,1.2,2.8,2.4,3.6,4l-2.4,3c-0.6-1.5-1.6-2.8-2.7-4c-1.3,2.3-2.9,4.4-5,5.9l-2.5-2.3
		c2.3-1.6,3.6-2.9,5.1-5.6c-0.7-0.5-1.3-1-2-1.5c-0.1,0.4-0.4,0.9-0.6,1.4l-3.2-0.8c1.9-4,3.3-9.4,3.9-12.7c-0.5,0-2.3,0.1-3.2,0.2
		v-3.2c0.9,0,3.1,0.1,3.6,0.1c0.3-2.3,0.5-4.6,0.4-6.9L243.4,456.6z M242,465.8c-0.6,3.1-1.3,6.2-2.2,9.3c0.8,0.5,1.6,0.9,2.3,1.4
		c1.3-3.4,1.8-7.1,1.9-10.7H242z M257.7,456.8c0.4,0.1,0.6,0.2,0.6,0.5c0,0.3-0.4,0.5-1,0.7c-0.9,2.8-2,5.6-3.4,8.3
		c2.7-0.2,5.3-0.4,7.9-0.6c-1-1.6-2.1-3-3.4-4.3l2.9-1.5c2.5,2.6,4.6,5.6,6,8.9l-3.2,1.9c-0.4-0.9-0.8-1.8-1.2-2.7
		c-3.5,0.5-9,1.2-13.6,1.7c-0.2,0.6-0.3,0.9-0.6,0.9c-0.2,0-0.3-0.3-0.4-0.6l-0.8-3.2c1.4,0,1.7,0,3-0.1c1.5-3.4,2.8-6.9,3-10.6
		L257.7,456.8z M260.2,472.2c1.2,0,4.2,0,4.9-0.1c0,1.5-0.1,3-0.1,4.5v4.3c0,2,0,4.1,0.3,6h-3.6c0-0.5,0.1-0.9,0.1-1.4H252
		c0,0.4,0.1,0.9,0.1,1.4h-3.4c0.2-1.2,0.4-3.7,0.4-5.5v-3.5c0-2,0-4.2-0.1-5.8c0.8,0.1,3.6,0.2,5.3,0.2H260.2z M252,475.3v7.6h9.7
		v-7.6H252z"/>
</g>
<polygon class="st1" points="195,412.7 208.4,389.5 181.6,389.5 "/>
<g>
	<path class="st1" d="M143.5,199.7c-0.5,3.5-2.1,5.5-4,5.5h-7c-3.1,0-3.9-0.7-3.9-3.4V195h-2.5c-0.5,2.3-1.2,4.6-2.6,6.4
		c-3.1,3.3-5.8,4.2-10.4,4.9l-2-3.6c3.9,0.1,7.9-0.8,10.2-3.9c0.8-1.1,1.1-2.5,1.4-3.7c-1.7,0-4.1,0.1-5.3,0.2
		c0.2-0.9,0.2-3.7,0.2-6.6v-7.8c0-2.3-0.2-4.3-0.2-6c1.3,0,4.5,0.1,6.2,0.1h7.6c2.3,0,4.3-0.1,6-0.2c-0.1,0.8-0.3,3.7-0.3,5.8v7.7
		c0,3,0.2,5.8,0.2,6.7c-1.7,0-3.6,0-5.3,0v6c0,1.1,0.5,1.5,1.8,1.5h4.2c1.5,0,2.4-1.2,2.9-4.9L143.5,199.7z M120.9,178v2.9h12.6V178
		H120.9z M120.9,183.6v2.9h12.6v-2.9H120.9z M120.9,189.3v2.8h12.6v-2.8H120.9z"/>
	<path class="st1" d="M159.1,202.7c0.7,0.1,2.3,0.5,3.4,0.5c0.8,0,1.1-0.5,1.1-2.4c0-1.1,0-2.5-0.1-3.2h-4.1
		c-3.5,0-6.9,0.1-10.4,0.3v-3.4c3.4,0.2,6.9,0.3,10.4,0.3h4c0-1.2-0.1-2.5-0.1-3.4l2,0.5c1.1-0.8,2.1-1.8,3.1-2.7h-5.4
		c-2.3,0-4.5,0-6.9,0.3v-3.5c2.2,0.1,4.4,0.2,6.6,0.2h3.9c2.1,0,4.3-0.2,6.4-0.4l1.2,1.9c-2.7,2.4-4.7,4.7-7.1,7.1h2.6
		c3.5,0,7,0,10.5-0.3v3.4c-3.5-0.2-7-0.3-10.5-0.3h-2.7v1.6c0,1.5,0.1,3.1,0.1,4.4c0,1.8-0.8,2.6-2.8,2.9c-0.9,0.1-2.7,0.1-3.5,0
		L159.1,202.7z M156,174.3c1.4,1.4,2.6,3.2,3.2,5.1l-2,1.1v0.1c0.7,0,2.3,0.1,3.4,0.1h6.8c0.6,0,1.2,0,1.9,0c1.4-1.9,2.7-4,3.4-6.2
		l3.4,1.4c0.2,0.1,0.5,0.3,0.5,0.6c0,0.4-0.5,0.5-1.2,0.7c-0.7,1.2-1.4,2.3-2.1,3.4c2.3,0,4.2-0.1,6.4-0.3c-0.1,0.9-0.1,2.2-0.1,2.9
		v2.1c0,0.9,0.1,1.9,0.3,2.9h-3.7c0-1.2,0.1-2.5,0.1-3.7v-1h-23v1.5c0,1.1,0.1,2.4,0.2,3.3h-4c0.2-1,0.4-2.1,0.4-3.1v-2.1
		c0-0.9-0.1-1.8-0.2-2.7c0.9,0.1,4.3,0.2,6.5,0.3c-0.7-1.7-1.8-3.2-3-4.4L156,174.3z M164.3,173.5c1.5,1.3,2.5,3,3,4.9l-3,1.7
		c-0.4-1.9-1.4-3.6-2.7-5L164.3,173.5z"/>
	<path class="st1" d="M191.1,190c0-2,1.6-3.7,3.7-3.7c2,0,3.7,1.7,3.7,3.7s-1.7,3.7-3.7,3.7C193,193.8,191.1,192.3,191.1,190z"/>
	<path class="st1" d="M207.5,187.7c3.6-3.7,6.6-7.9,8.2-14l3.3,1.6c0.2,0.1,0.4,0.2,0.4,0.5c0,0.4-0.5,0.6-1.1,0.7
		c-0.7,1.8-1.4,3.6-2.3,5.4l0.1,0.1c0.2,0.2,0.4,0.4,0.4,0.7c0,0.3-0.4,0.6-0.7,0.8c0,1.8-0.1,3.5-0.1,5.3v7.4
		c4.8-2.8,8.3-7.2,10.4-12.3H225c-2.2,0-4.5,0.1-6.7,0.2v-3.2c2.3,0.1,4.6,0.2,6.9,0.2h2c0-2.3-0.1-4.8-0.2-7l3.7,0.4
		c0.5,0,0.8,0.2,0.8,0.5c0,0.3-0.5,0.6-1,1c0,1.1,0,3.4,0,5.1h1.6c2.3,0,4.6-0.1,6.9-0.2v3.2c-2.3-0.1-4.7-0.2-7-0.2h-0.7
		c2.3,5.3,5.6,9.5,9.9,11.7l-2.7,2.4c-3.4-2.2-6.1-5.4-7.9-8.9h-0.1v7.8h0.8c1.5,0,3-0.1,4.6-0.3v3.4c-1.5-0.2-3-0.3-4.6-0.3h-0.7
		c0,2.1,0.1,4.2,0.3,6.3h-3.9c0.1-2.1,0.2-4.2,0.2-6.3h-0.5c-1.6,0-3.2,0.1-4.8,0.3v-3.4c1.5,0.2,3.1,0.3,4.6,0.3h0.7V189h-0.1
		c-2,3.6-4.9,6.7-8.1,9.2l-3.2-2.2v0.7c0,3,0,6.5,0.2,9.1h-3.9c0.2-3.7,0.3-7.8,0.3-11.7v-6.9h-0.1c-0.6,0.8-1.1,1.5-2,2.5
		L207.5,187.7z"/>
	<path class="st1" d="M246.9,203.4c0.2-2.2-0.2-4.8-0.7-6.3l2.1-0.5c0.8,2,1.2,4.1,1.2,6.3L246.9,203.4z M275.8,205.6
		c-3-1.5-5.5-4-7-7c-1.4,3.4-4.4,5.7-7.7,7.1l-2.6-2.3c-0.7,1.2-1.2,1.5-1.6,1.8c-1.1,0.7-2.5,0.8-3.9,0.8l-1.8-3.3
		c0.7,0.1,1.6,0.2,2.1,0.2c2.1,0,2.9-1,3.5-5.6l-1.2,0.9c-0.2-0.7-1.2-2.8-2.6-3.6l1.5-1.2c0.9,0.6,1.7,1.3,2.3,2.2h0.1
		c0-1,0.1-1.9,0.1-2.4H250c0,0.6,0.1,1.1,0.1,1.6h-3.2c0.1-0.9,0.3-3.7,0.3-6.2v-7.5c0-2-0.1-3.9-0.2-5.8c0.5,0,2.8,0.1,4.2,0.1h5
		c0.8,0,2.7-0.1,3.8-0.2v2.9c-1.5-0.1-3.1-0.2-4.7-0.2v2.5c0.6,0,2.6-0.1,3.4-0.2v2.7c-1.1-0.1-2.9-0.2-3.4-0.2v2.6
		c0.6,0,2.2-0.1,3.4-0.2v3c-1.3-0.1-2.9-0.1-3.4-0.1v2.5c1.4,0,3.5,0,4.8-0.2c-0.1,3.5-0.3,7-0.9,10.5c-0.1,0.7-0.3,1.5-0.6,2.1
		c4.1-1,6.4-3,7.5-6.4h-0.3c-1.4,0-4.4,0.1-5.2,0.2c0.1-0.9,0.2-1.9,0.2-2.8v-3.2c0-1,0-2-0.1-2.9c1.6,0.1,4.6,0.2,5.6,0.2h0.7
		c0-0.8,0-1.6,0-2.4h-0.2c-0.7,0-2.4,0-3.5,0.2v-1.7c-0.9,0.8-1.8,1.5-2.7,2.2l-2.9-2.1c4.1-2.2,7.1-5.8,8.8-10.5l3.7,1.3
		c0.3,0.1,0.7,0.3,0.7,0.5c0,0.2-0.3,0.5-0.5,0.7c1.8,3.5,5.1,5.7,8.6,7.3l-2.3,2.7c-1.1-0.6-2.1-1.3-3.1-2v1.8
		c-0.6-0.1-2.6-0.2-3.5-0.2h-0.2c0,0.8,0,1.6,0,2.4h1.8c1.2,0,4.2-0.1,5-0.2c0,0.4-0.2,1.8-0.2,2.7v3.4c0,0.9,0.1,1.8,0.1,2.7
		c-1.7-0.2-3.4-0.2-5-0.2h-0.6c1.2,3.2,4.2,5.1,7.3,6.4L275.8,205.6z M250.3,201.6c-0.2-1.8-0.6-3.6-1.5-5.1l1.7-0.6
		c0.8,1.1,1.5,2.6,2,4.4L250.3,201.6z M252.3,177.9h-2.5v2.6h2.5V177.9z M252.3,182.8h-2.5v2.6h2.5V182.8z M252.3,188.1h-2.5v2.6
		h2.5V188.1z M253.3,199.7c-0.5-1.5-1.2-2.9-2.3-4.1l1.5-0.8c1.1,1,1.9,2.4,2.3,3.8L253.3,199.7z M266.6,194.3
		c0.2-1.2,0.3-2.4,0.3-3.6h-3.3v3.6H266.6z M270.2,183.2c0.4,0,1.3-0.1,1.9-0.1V183c-1.6-1.3-2.9-3-4-4.8c-0.9,1.8-2.1,3.4-3.4,4.8
		c0.7,0.1,1.7,0.1,2.1,0.1H270.2z M270.1,190.6c0,1.2-0.1,2.4-0.3,3.6h3.9v-3.6H270.1z"/>
</g>
</svg>
