<?xml version="1.0" encoding="utf-8"?>
<!-- Generator: Adobe Illustrator 27.0.0, SVG Export Plug-In . SVG Version: 6.00 Build 0)  -->
<svg version="1.1" id="レイヤー_1" xmlns="http://www.w3.org/2000/svg" xmlns:xlink="http://www.w3.org/1999/xlink" x="0px"
	 y="0px" width="525px" height="144px" viewBox="0 0 525 144" style="enable-background:new 0 0 525 144;" xml:space="preserve">
<style type="text/css">
	.st0{fill:#FFFFFF;}
	.st1{fill:#4AC9A4;}
	.st2{fill:#4D4D4D;}
</style>
<path class="st0" d="M495.6,144H29.4C13.1,144,0,130.9,0,114.6V29.4C0,13.1,13.1,0,29.4,0h466.3C511.9,0,525,13.1,525,29.4v85.3
	C525,130.9,511.9,144,495.6,144z"/>
<g>
	<g>
		<g>
			<path class="st1" d="M145.9,68.2c-2.7,0-5-0.7-6.8-2.2c-1.9-1.5-3.3-3.5-4.2-6.1s-1.4-5.6-1.4-8.9c0-3.4,0.5-6.3,1.4-9
				c0.9-2.6,2.3-4.6,4.2-6.1s4.1-2.2,6.8-2.2s5,0.7,6.8,2.2s3.2,3.5,4.2,6.1s1.4,5.6,1.4,9c0,3.3-0.5,6.3-1.4,8.9
				c-1,2.6-2.4,4.7-4.2,6.1C150.8,67.5,148.6,68.2,145.9,68.2z M145.9,63.4c1.5,0,2.8-0.5,3.9-1.4c1.1-1,1.9-2.4,2.5-4.2
				c0.6-1.9,0.9-4.1,0.9-6.8s-0.3-5-0.9-6.8c-0.6-1.8-1.4-3.2-2.5-4.2s-2.4-1.4-3.9-1.4s-2.8,0.5-3.9,1.4c-1.1,1-1.9,2.4-2.5,4.2
				s-0.9,4.1-0.9,6.8s0.3,4.9,0.9,6.8c0.6,1.9,1.4,3.3,2.5,4.2S144.4,63.4,145.9,63.4z"/>
			<path class="st1" d="M175.5,33.6c1.8,0,3.4,0.4,4.8,1.1c1.4,0.7,2.6,1.7,3.5,2.9s1.7,2.6,2.2,4.1s0.7,3.1,0.7,4.7
				c0,1.2-0.1,2.7-0.4,4.3c-0.3,1.6-0.8,3.3-1.4,5.1s-1.6,3.5-2.7,5.1s-2.5,3.1-4.1,4.4s-3.6,2.3-5.9,3c-0.3,0.1-0.6,0.1-0.9,0.1
				c-0.6,0-1.2-0.2-1.7-0.5c-0.5-0.4-0.7-0.9-0.7-1.7c0-0.6,0.2-1.1,0.6-1.5s0.9-0.7,1.5-0.9c1.6-0.6,3.1-1.5,4.6-2.7
				s2.8-2.6,3.9-4.3c1.1-1.6,1.8-3.4,2.2-5.3l1.2-0.2c-0.5,0.7-1.1,1.4-1.8,2.1c-0.7,0.7-1.6,1.3-2.6,1.8s-2.2,0.7-3.6,0.7
				c-2.1,0-3.9-0.5-5.4-1.4s-2.7-2.3-3.6-3.9c-0.8-1.7-1.3-3.6-1.3-5.7c0-2,0.5-3.8,1.5-5.5s2.3-3,4-4
				C171.6,34.1,173.5,33.6,175.5,33.6z M175.6,38c-1.2,0-2.2,0.3-3.2,0.9c-0.9,0.6-1.7,1.4-2.2,2.4s-0.8,2.1-0.8,3.4
				s0.2,2.4,0.7,3.4s1.2,1.8,2.1,2.4c0.9,0.6,2,0.9,3.3,0.9c1.2,0,2.4-0.3,3.3-0.9c1-0.6,1.7-1.4,2.2-2.4s0.8-2.1,0.8-3.4
				c0-1.2-0.3-2.3-0.8-3.3s-1.3-1.8-2.2-2.4C177.9,38.3,176.8,38,175.6,38z"/>
			<path class="st1" d="M209.5,67.8c-0.7,0-1.2-0.2-1.7-0.7s-0.7-1-0.7-1.8V40.9l0.9,0.2l-10.4,13.2l-0.2-0.6h17.5
				c0.6,0,1.2,0.2,1.6,0.6c0.4,0.4,0.6,1,0.6,1.6s-0.2,1.1-0.6,1.5s-1,0.6-1.6,0.6h-20.8c-0.6,0-1.1-0.2-1.6-0.7s-0.8-1-0.8-1.7
				c0-0.6,0.2-1.2,0.6-1.6l15.2-19.1c0.3-0.3,0.6-0.6,0.9-0.7c0.4-0.2,0.7-0.2,1.1-0.2c0.7,0,1.3,0.2,1.7,0.7s0.7,1,0.7,1.8v28.7
				c0,0.7-0.2,1.3-0.7,1.8C210.8,67.5,210.2,67.8,209.5,67.8z"/>
			<path class="st1" d="M240.8,63.3c0.6,0,1.2,0.2,1.6,0.6c0.4,0.4,0.6,1,0.6,1.6c0,0.6-0.2,1.2-0.6,1.6c-0.4,0.4-1,0.6-1.6,0.6H224
				c-0.7,0-1.3-0.2-1.7-0.6s-0.6-1-0.6-1.7c0-0.6,0.2-1.2,0.7-1.7L233,52.2c1.4-1.5,2.5-2.9,3.2-4.4c0.8-1.4,1.1-2.7,1.1-3.8
				c0-1.8-0.5-3.2-1.6-4.2c-1.1-1.1-2.4-1.6-4.2-1.6c-0.7,0-1.5,0.2-2.2,0.5c-0.8,0.3-1.5,0.8-2.1,1.3c-0.7,0.6-1.2,1.2-1.7,1.9
				c-0.3,0.5-0.6,0.8-1,0.9c-0.3,0.1-0.6,0.2-0.9,0.2c-0.6,0-1.2-0.2-1.7-0.6c-0.5-0.4-0.7-0.9-0.7-1.5c0-0.4,0.1-0.9,0.4-1.3
				c0.3-0.4,0.7-0.8,1.1-1.3c0.7-0.9,1.6-1.6,2.6-2.3s2.1-1.2,3.2-1.6c1.1-0.4,2.2-0.6,3.3-0.6c2.1,0,3.9,0.4,5.5,1.2s2.8,2,3.6,3.5
				s1.3,3.3,1.3,5.3c0,1.7-0.5,3.6-1.6,5.8c-1,2.1-2.5,4.2-4.3,6.1l-7.4,8.1l-0.5-0.5L240.8,63.3L240.8,63.3z"/>
			<path class="st1" d="M250.1,55.3c-0.7,0-1.2-0.2-1.7-0.7s-0.7-1-0.7-1.7s0.2-1.3,0.7-1.7s1.1-0.6,1.7-0.6h9
				c0.7,0,1.2,0.2,1.7,0.7s0.7,1,0.7,1.8c0,0.7-0.2,1.2-0.7,1.7c-0.5,0.4-1.1,0.6-1.7,0.6L250.1,55.3L250.1,55.3z"/>
			<path class="st1" d="M283.6,63.3c0.6,0,1.2,0.2,1.6,0.6s0.6,1,0.6,1.6c0,0.6-0.2,1.2-0.6,1.6s-1,0.6-1.6,0.6h-16.8
				c-0.7,0-1.3-0.2-1.7-0.6c-0.4-0.4-0.6-1-0.6-1.7c0-0.6,0.2-1.2,0.7-1.7l10.7-11.6c1.4-1.5,2.5-2.9,3.2-4.4
				c0.8-1.4,1.1-2.7,1.1-3.8c0-1.8-0.5-3.2-1.6-4.2c-1.1-1.1-2.4-1.6-4.2-1.6c-0.7,0-1.5,0.2-2.2,0.5c-0.8,0.3-1.5,0.8-2.1,1.3
				c-0.7,0.6-1.2,1.2-1.7,1.9c-0.3,0.5-0.6,0.8-1,0.9c-0.3,0.1-0.6,0.2-0.9,0.2c-0.6,0-1.2-0.2-1.7-0.6c-0.5-0.4-0.7-0.9-0.7-1.5
				c0-0.4,0.1-0.9,0.4-1.3c0.3-0.4,0.7-0.8,1.1-1.3c0.7-0.9,1.6-1.6,2.6-2.3s2.1-1.2,3.2-1.6c1.1-0.4,2.2-0.6,3.3-0.6
				c2.1,0,3.9,0.4,5.5,1.2s2.8,2,3.6,3.5c0.8,1.5,1.3,3.3,1.3,5.3c0,1.7-0.5,3.6-1.6,5.8c-1,2.1-2.5,4.2-4.3,6.1l-7.4,8.1l-0.5-0.5
				L283.6,63.3L283.6,63.3z"/>
			<path class="st1" d="M297.9,68c-0.7,0-1.3-0.2-1.8-0.6s-0.7-1-0.7-1.7c0-0.4,0.1-0.7,0.2-1.1l12-26.7l0.6,1.1h-14.7
				c-0.6,0-1.2-0.2-1.6-0.6c-0.4-0.4-0.6-1-0.6-1.6s0.2-1.1,0.6-1.5s1-0.6,1.6-0.6h17c0.7,0,1.3,0.2,1.8,0.6c0.5,0.4,0.7,1,0.7,1.7
				c0,0.4-0.1,0.7-0.2,1.1L300,66.7c-0.2,0.5-0.5,0.9-0.9,1.1C298.8,67.8,298.4,68,297.9,68z"/>
			<path class="st1" d="M318.3,55.3c-0.7,0-1.2-0.2-1.7-0.7s-0.7-1-0.7-1.7s0.2-1.3,0.7-1.7s1.1-0.6,1.7-0.6h9
				c0.7,0,1.2,0.2,1.7,0.7s0.7,1,0.7,1.8c0,0.7-0.2,1.2-0.7,1.7c-0.5,0.4-1.1,0.6-1.7,0.6L318.3,55.3L318.3,55.3z"/>
			<path class="st1" d="M344.2,68.1c-1.2,0-2.5-0.2-3.9-0.6c-1.3-0.4-2.5-0.9-3.4-1.7c-0.4-0.3-0.6-0.7-0.8-1.1s-0.3-0.9-0.3-1.3
				c0-0.4,0.2-0.9,0.6-1.3c0.4-0.4,1-0.6,1.7-0.6c0.5,0,1.1,0.3,1.8,0.8c0.6,0.4,1.3,0.8,2,1.1s1.5,0.4,2.2,0.4
				c1.7,0,3.1-0.3,4.3-0.9c1.2-0.6,2.2-1.5,2.8-2.6c0.7-1.1,1-2.4,1-3.9c0-1.3-0.3-2.5-0.9-3.5s-1.4-1.8-2.5-2.3
				c-1-0.5-2.2-0.8-3.5-0.8c-1.1,0-2,0.2-2.8,0.5s-1.5,0.7-2.2,1c-0.6,0.3-1.2,0.5-1.8,0.5c-0.8,0-1.5-0.2-1.9-0.6
				c-0.4-0.4-0.7-0.8-0.8-1.3c-0.1-0.5-0.2-1-0.1-1.5l1.7-12c0.1-0.5,0.4-1,0.8-1.4s1-0.6,1.6-0.6h14.1c0.6,0,1.2,0.2,1.6,0.6
				s0.6,1,0.6,1.7c0,0.6-0.2,1.1-0.6,1.5s-1,0.6-1.6,0.6H341l0.5-0.4L340,48.7l-0.7-1.4c0.3-0.3,0.8-0.6,1.5-0.9
				c0.7-0.3,1.5-0.6,2.4-0.8s1.8-0.3,2.7-0.3c2.1,0,4,0.5,5.7,1.4s3,2.2,4,3.9s1.4,3.6,1.4,5.7c0,2.4-0.5,4.4-1.6,6.2
				s-2.5,3.2-4.5,4.1C349.1,67.6,346.9,68.1,344.2,68.1z"/>
			<path class="st1" d="M370.6,68c-0.7,0-1.3-0.2-1.8-0.6s-0.7-1-0.7-1.7c0-0.4,0.1-0.7,0.2-1.1l12-26.7l0.6,1.1h-14.7
				c-0.6,0-1.2-0.2-1.6-0.6c-0.4-0.4-0.6-1-0.6-1.6s0.2-1.1,0.6-1.5s1-0.6,1.6-0.6h17c0.7,0,1.3,0.2,1.8,0.6c0.5,0.4,0.7,1,0.7,1.7
				c0,0.4-0.1,0.7-0.2,1.1l-12.8,28.6c-0.2,0.5-0.5,0.9-0.9,1.1C371.5,67.8,371.1,68,370.6,68z"/>
			<path class="st1" d="M411.1,63.3c0.6,0,1.2,0.2,1.6,0.6s0.6,1,0.6,1.6c0,0.6-0.2,1.2-0.6,1.6s-1,0.6-1.6,0.6h-16.8
				c-0.7,0-1.3-0.2-1.7-0.6c-0.4-0.4-0.6-1-0.6-1.7c0-0.6,0.2-1.2,0.7-1.7l10.7-11.6c1.4-1.5,2.5-2.9,3.2-4.4
				c0.8-1.4,1.1-2.7,1.1-3.8c0-1.8-0.5-3.2-1.6-4.2c-1.1-1.1-2.4-1.6-4.2-1.6c-0.7,0-1.5,0.2-2.2,0.5c-0.8,0.3-1.5,0.8-2.1,1.3
				c-0.7,0.6-1.2,1.2-1.7,1.9c-0.3,0.5-0.6,0.8-1,0.9c-0.3,0.1-0.6,0.2-0.9,0.2c-0.6,0-1.2-0.2-1.7-0.6c-0.5-0.4-0.7-0.9-0.7-1.5
				c0-0.4,0.1-0.9,0.4-1.3c0.3-0.4,0.7-0.8,1.1-1.3c0.7-0.9,1.6-1.6,2.6-2.3s2.1-1.2,3.2-1.6c1.1-0.4,2.2-0.6,3.3-0.6
				c2.1,0,3.9,0.4,5.5,1.2s2.8,2,3.6,3.5c0.8,1.5,1.3,3.3,1.3,5.3c0,1.7-0.5,3.6-1.6,5.8c-1,2.1-2.5,4.2-4.3,6.1l-7.4,8.1l-0.5-0.5
				L411.1,63.3L411.1,63.3z"/>
			<path class="st1" d="M429.4,67.8c-0.7,0-1.3-0.2-1.8-0.7s-0.7-1-0.7-1.8V39.6l0.6,0.9l-4.5,3.2c-0.4,0.3-0.8,0.4-1.4,0.4
				s-1.2-0.2-1.7-0.7s-0.7-1.1-0.7-1.7c0-0.9,0.4-1.6,1.2-2.1l7.3-4.8c0.3-0.2,0.6-0.3,0.9-0.4c0.3-0.1,0.6-0.1,0.9-0.1
				c0.7,0,1.3,0.2,1.8,0.7c0.4,0.5,0.7,1,0.7,1.8v28.7c0,0.7-0.2,1.3-0.7,1.8C430.8,67.5,430.1,67.8,429.4,67.8z"/>
		</g>
	</g>
	<g>
		<path class="st1" d="M88.8,31.9c-3.2,2.1-3.8,8.5-2.6,13.8c0.9,4.1,2.9,9.6,6.3,14.8c3.2,4.9,7.6,9.2,10.9,11.8
			c4.3,3.2,10.5,5.3,13.7,3.2c1.6-1,4-3.9,4.1-4.4c0,0-1.4-2.2-1.7-2.6l-4.7-7.3c-0.4-0.5-2.5,0-3.7,0.6c-1.5,0.9-2.9,3.1-2.9,3.1
			c-1,0.6-1.9,0-3.7-0.8c-2.2-1-4.7-4.2-6.7-7.1c-1.8-3-3.7-6.6-3.7-9c0-2-0.2-3,0.8-3.7c0,0,2.7-0.3,4-1.4c1-0.8,2.4-2.6,2-3.1
			l-4.7-7.3c-0.3-0.5-1.7-2.6-1.7-2.6C94,29.8,90.4,30.9,88.8,31.9z"/>
	</g>
</g>
<path class="st2" d="M109.1,99.5c-0.3,0-0.5-0.1-0.7-0.3c-0.2-0.2-0.3-0.4-0.3-0.7v-3.8h-5.2c-0.7,0-1.2,0.1-1.4,0.3
	c-0.3,0.2-0.4,0.6-0.4,1.2v1.2c0,0.3-0.1,0.6-0.3,0.7c-0.2,0.2-0.4,0.3-0.7,0.3c-0.3,0-0.5-0.1-0.7-0.3c-0.2-0.2-0.3-0.4-0.3-0.7
	v-1.2c0-1.1,0.3-1.8,0.8-2.3c0.6-0.5,1.6-0.7,3-0.7h5.3v-1.3h-7.3c-0.2,0-0.4-0.1-0.6-0.3c-0.2-0.2-0.2-0.4-0.2-0.6s0.1-0.4,0.2-0.6
	c0.2-0.2,0.3-0.2,0.6-0.2h16.9c0.2,0,0.4,0.1,0.6,0.2s0.2,0.4,0.2,0.6s-0.1,0.4-0.2,0.6s-0.3,0.3-0.6,0.3h-7.5v1.3h5.4
	c1.5,0,2.5,0.2,3,0.7s0.8,1.2,0.8,2.3v1.2c0,0.3-0.1,0.6-0.3,0.7c-0.2,0.2-0.4,0.3-0.7,0.3s-0.5-0.1-0.7-0.3
	c-0.2-0.2-0.3-0.4-0.3-0.7v-1.2c0-0.6-0.1-1-0.4-1.2s-0.8-0.3-1.4-0.3h-5.3v3.8c0,0.3-0.1,0.5-0.3,0.7
	C109.6,99.4,109.3,99.5,109.1,99.5z M112.5,110.5c-1.2,0-2.1-0.1-2.7-0.3c-0.7-0.2-1.1-0.5-1.4-1s-0.4-1.2-0.4-2.1h-2.5
	c-1.2,0-2.1-0.1-2.7-0.3c-0.6-0.2-1.1-0.6-1.3-1.1c-0.2-0.5-0.3-1.2-0.3-2.2s0.1-1.6,0.3-2.2c0.2-0.5,0.7-0.9,1.3-1.1
	c0.6-0.2,1.5-0.3,2.7-0.3h6.9c1.2,0,2.1,0.1,2.7,0.3c0.6,0.2,1.1,0.6,1.3,1.1s0.3,1.2,0.3,2.2s-0.1,1.6-0.3,2.2
	c-0.2,0.5-0.7,0.9-1.3,1.1c-0.6,0.2-1.5,0.3-2.7,0.3H110c0,0.4,0.1,0.8,0.2,1s0.4,0.4,0.7,0.4c0.4,0.1,0.9,0.1,1.5,0.1h2.5
	c0.8,0,1.3-0.1,1.7-0.2s0.7-0.3,0.9-0.6c0.2-0.3,0.3-0.7,0.4-1.1c0-0.3,0.2-0.5,0.4-0.6c0.2-0.1,0.5-0.2,0.8-0.1s0.5,0.2,0.6,0.4
	c0.1,0.2,0.2,0.5,0.1,0.7c-0.1,0.8-0.4,1.5-0.7,1.9c-0.4,0.5-0.9,0.8-1.6,1s-1.6,0.3-2.7,0.3h-2.3V110.5z M102.5,96.9
	c-0.2,0-0.3-0.1-0.5-0.2c-0.1-0.1-0.2-0.3-0.2-0.5s0.1-0.3,0.2-0.5c0.1-0.1,0.3-0.2,0.5-0.2h3.9c0.2,0,0.3,0.1,0.5,0.2
	c0.1,0.1,0.2,0.3,0.2,0.5s-0.1,0.4-0.2,0.5s-0.3,0.2-0.5,0.2H102.5z M102.5,99.1c-0.2,0-0.3-0.1-0.5-0.2c-0.1-0.1-0.2-0.3-0.2-0.5
	s0.1-0.4,0.2-0.5s0.3-0.2,0.5-0.2h3.9c0.2,0,0.3,0.1,0.5,0.2c0.1,0.1,0.2,0.3,0.2,0.5s-0.1,0.3-0.2,0.5c-0.1,0.1-0.3,0.2-0.5,0.2
	H102.5z M103.2,102.8h4.8v-1.2h-2.5c-0.9,0-1.5,0.1-1.8,0.2C103.5,101.9,103.3,102.3,103.2,102.8z M105.6,105.6h2.5v-1.2h-4.8
	c0.1,0.6,0.2,0.9,0.6,1C104.1,105.5,104.7,105.6,105.6,105.6z M110.1,102.8h4.7c-0.1-0.6-0.2-0.9-0.6-1c-0.3-0.1-0.9-0.2-1.8-0.2
	H110v1.2H110.1z M110.1,105.6h2.4c0.9,0,1.5-0.1,1.8-0.2s0.5-0.5,0.6-1h-4.7v1.2H110.1z M111.7,96.9c-0.2,0-0.3-0.1-0.5-0.2
	c-0.1-0.1-0.2-0.3-0.2-0.5s0.1-0.3,0.2-0.5c0.1-0.1,0.3-0.2,0.5-0.2h3.9c0.2,0,0.4,0.1,0.5,0.2s0.2,0.3,0.2,0.5s-0.1,0.4-0.2,0.5
	s-0.3,0.2-0.5,0.2H111.7z M111.7,99.1c-0.2,0-0.3-0.1-0.5-0.2c-0.1-0.1-0.2-0.3-0.2-0.5s0.1-0.4,0.2-0.5s0.3-0.2,0.5-0.2h3.9
	c0.2,0,0.4,0.1,0.5,0.2s0.2,0.3,0.2,0.5s-0.1,0.3-0.2,0.5c-0.1,0.1-0.3,0.2-0.5,0.2H111.7z"/>
<path class="st2" d="M124.4,95.5c-0.3,0-0.5-0.1-0.6-0.3c-0.2-0.2-0.2-0.4-0.2-0.6s0.1-0.4,0.2-0.6c0.2-0.2,0.4-0.3,0.6-0.3h7.6
	c0.3,0,0.5,0.1,0.6,0.3c0.2,0.2,0.2,0.4,0.2,0.6s-0.1,0.5-0.2,0.6c-0.2,0.2-0.4,0.3-0.6,0.3H124.4z M125.5,98.7
	c-0.2,0-0.4-0.1-0.6-0.3c-0.2-0.2-0.2-0.4-0.2-0.6s0.1-0.4,0.2-0.6c0.2-0.2,0.4-0.3,0.6-0.3h5.5c0.3,0,0.5,0.1,0.6,0.3
	c0.1,0.2,0.2,0.4,0.2,0.6s-0.1,0.4-0.2,0.6c-0.1,0.2-0.3,0.3-0.6,0.3H125.5z M125.5,101.9c-0.2,0-0.4-0.1-0.6-0.3
	c-0.2-0.2-0.2-0.4-0.2-0.6s0.1-0.5,0.2-0.6c0.2-0.2,0.4-0.3,0.6-0.3h5.5c0.3,0,0.5,0.1,0.6,0.3c0.1,0.2,0.2,0.4,0.2,0.6
	s-0.1,0.4-0.2,0.6c-0.1,0.2-0.3,0.3-0.6,0.3H125.5z M125.5,92.3c-0.3,0-0.5-0.1-0.6-0.3c-0.2-0.2-0.2-0.4-0.2-0.6s0.1-0.5,0.2-0.6
	c0.2-0.2,0.4-0.3,0.6-0.3h5.4c0.3,0,0.5,0.1,0.6,0.3c0.2,0.2,0.2,0.4,0.2,0.6s-0.1,0.4-0.2,0.6c-0.2,0.2-0.4,0.3-0.6,0.3H125.5z
	 M128.3,110c-1.3,0-2.3-0.2-2.8-0.7s-0.8-1.4-0.8-2.6s0.3-2.1,0.8-2.6s1.4-0.7,2.8-0.7c1.3,0,2.3,0.2,2.8,0.7s0.8,1.4,0.8,2.6
	s-0.3,2.1-0.8,2.6S129.7,110,128.3,110z M128.3,108.3c0.6,0,1.1-0.1,1.3-0.3c0.2-0.2,0.3-0.7,0.3-1.3c0-0.6-0.1-1.1-0.3-1.3
	c-0.2-0.2-0.6-0.3-1.3-0.3c-0.6,0-1,0.1-1.2,0.3c-0.2,0.2-0.3,0.7-0.3,1.3c0,0.7,0.1,1.1,0.3,1.3
	C127.3,108.2,127.7,108.3,128.3,108.3z M138.7,110c-1.2,0-2.2-0.1-2.8-0.3c-0.7-0.2-1.2-0.6-1.4-1.2c-0.3-0.6-0.4-1.4-0.4-2.5
	c0-1,0.1-1.8,0.3-2.3s0.6-1,1.1-1.3s1.2-0.4,2.2-0.5v-3.7h-4.3c-0.3,0-0.5-0.1-0.7-0.3c-0.2-0.2-0.3-0.4-0.3-0.6
	c0-0.3,0.1-0.5,0.3-0.7s0.4-0.3,0.7-0.3h4.3V93c-0.6,0.1-1.2,0.2-1.8,0.3c-0.6,0.1-1.1,0.1-1.7,0.2c-0.3,0-0.6,0-0.8-0.2
	s-0.3-0.4-0.4-0.6c0-0.3,0-0.5,0.2-0.7s0.4-0.3,0.7-0.3c0.8-0.1,1.8-0.2,2.8-0.3c1-0.1,2-0.3,3-0.5s1.9-0.4,2.6-0.6
	c0.4-0.1,0.7-0.1,0.9,0c0.3,0.1,0.4,0.3,0.5,0.5c0.1,0.3,0.1,0.5,0,0.8c-0.1,0.2-0.3,0.4-0.6,0.4c-0.5,0.1-1,0.3-1.6,0.4
	s-1.2,0.2-1.8,0.4v3.7h4.5c0.3,0,0.5,0.1,0.7,0.3c0.2,0.2,0.3,0.4,0.3,0.7c0,0.2-0.1,0.5-0.3,0.6c-0.2,0.2-0.4,0.3-0.7,0.3h-4.5v3.7
	c1,0,1.7,0.2,2.3,0.5s0.9,0.7,1.2,1.3c0.2,0.6,0.3,1.4,0.3,2.4c0,1.1-0.1,1.9-0.4,2.5c-0.3,0.6-0.8,1-1.4,1.2
	C140.9,109.9,139.9,110,138.7,110z M138.7,108.1c0.7,0,1.3-0.1,1.7-0.2s0.6-0.3,0.8-0.6c0.1-0.3,0.2-0.8,0.2-1.4s-0.1-1.1-0.2-1.4
	c-0.1-0.3-0.4-0.5-0.8-0.6s-0.9-0.2-1.7-0.2c-0.7,0-1.3,0.1-1.7,0.2s-0.6,0.3-0.8,0.6c-0.1,0.3-0.2,0.8-0.2,1.4s0.1,1.1,0.2,1.4
	c0.1,0.3,0.4,0.5,0.8,0.6S137.9,108.1,138.7,108.1z"/>
<path class="st2" d="M150.3,101.7c-0.3,0-0.5-0.1-0.7-0.3c-0.2-0.2-0.3-0.4-0.3-0.7v-1.2c0-0.8,0.1-1.4,0.4-1.9s0.6-0.8,1.2-1
	c0.6-0.2,1.4-0.3,2.4-0.3v-0.1c0,0,0-0.1-0.1-0.1c-0.1-0.1-0.2-0.3-0.3-0.6c-0.1-0.2-0.2-0.5-0.4-0.7c-0.1-0.2-0.2-0.4-0.3-0.6
	s-0.1-0.4-0.1-0.7c0.1-0.3,0.2-0.4,0.5-0.5c0.2-0.1,0.5-0.2,0.7-0.1s0.4,0.2,0.6,0.4c0.1,0.2,0.2,0.4,0.4,0.6
	c0.1,0.3,0.3,0.5,0.4,0.8c0.1,0.3,0.2,0.4,0.2,0.5c0.2,0.4,0.2,0.7-0.1,1h3.6c-0.1-0.1-0.2-0.2-0.3-0.4c0-0.1-0.1-0.3-0.3-0.6
	c-0.1-0.3-0.2-0.5-0.4-0.8c-0.1-0.3-0.2-0.5-0.3-0.6c-0.1-0.2-0.1-0.5,0-0.7s0.2-0.4,0.5-0.5s0.5-0.1,0.8-0.1
	c0.3,0.1,0.5,0.2,0.6,0.5c0.1,0.2,0.2,0.4,0.3,0.7c0.1,0.3,0.2,0.6,0.4,0.9c0.1,0.3,0.2,0.5,0.3,0.6c0.2,0.5,0.1,0.8-0.3,1.1h2.4
	c0.2-0.3,0.3-0.7,0.5-1.2s0.4-0.9,0.6-1.4c0.2-0.5,0.3-0.8,0.4-1.1c0.1-0.3,0.3-0.5,0.6-0.6s0.5-0.1,0.8,0s0.4,0.3,0.5,0.5
	s0.1,0.5,0,0.8s-0.3,0.8-0.6,1.4s-0.6,1.1-0.8,1.6h1c1,0,1.8,0.1,2.4,0.3c0.6,0.2,1,0.5,1.2,1s0.4,1.1,0.4,1.9v1.3
	c0,0.3-0.1,0.6-0.3,0.7s-0.4,0.3-0.7,0.3s-0.5-0.1-0.7-0.3s-0.3-0.4-0.3-0.7v-1.3c0-0.6-0.1-0.9-0.4-1.1c-0.3-0.2-0.8-0.3-1.5-0.3
	h-11.7c-0.8,0-1.3,0.1-1.5,0.3c-0.3,0.2-0.4,0.6-0.4,1.1v1.3c0,0.3-0.1,0.6-0.3,0.7S150.6,101.7,150.3,101.7z M150.7,110.6
	c-0.4,0-0.7,0-0.9-0.2s-0.4-0.4-0.4-0.7c0-0.3,0-0.6,0.2-0.8s0.5-0.3,0.8-0.4c1.4-0.2,2.8-0.4,4-0.8s2.3-0.8,3.3-1.3
	c-1.3-1.2-2.3-2.8-3.1-4.6h-1.3c-0.2,0-0.5-0.1-0.6-0.3c-0.2-0.2-0.3-0.4-0.3-0.6c0-0.3,0.1-0.5,0.3-0.7s0.4-0.3,0.6-0.3h8
	c1.1,0,1.9,0.2,2.5,0.6c0.5,0.4,0.8,0.9,0.8,1.5s-0.3,1.3-0.8,1.9c-0.8,0.9-1.6,1.8-2.4,2.5c1.8,1,4.2,1.7,7,1.9
	c0.3,0,0.6,0.1,0.8,0.3c0.2,0.2,0.3,0.5,0.3,0.8c-0.1,0.7-0.5,1-1.3,0.9c-3.5-0.3-6.4-1.1-8.6-2.6c-1.1,0.7-2.4,1.2-3.8,1.7
	C154.1,110,152.5,110.3,150.7,110.6z M151.2,92.7c-0.3,0-0.5-0.1-0.7-0.3c-0.2-0.2-0.3-0.4-0.3-0.7c0-0.3,0.1-0.5,0.3-0.7
	s0.5-0.2,0.8-0.2c1.1,0,2.4,0,3.7-0.1s2.6-0.1,4-0.2s2.6-0.2,3.9-0.4c1.2-0.2,2.3-0.3,3.3-0.5c0.4-0.1,0.6,0,0.9,0.1
	c0.2,0.1,0.4,0.3,0.4,0.6c0.1,0.3,0,0.6-0.1,0.8c-0.2,0.2-0.4,0.4-0.6,0.4c-1.4,0.2-2.9,0.5-4.6,0.7c-1.7,0.2-3.5,0.3-5.3,0.5
	C154.7,92.6,152.9,92.7,151.2,92.7z M159.5,105.4c0.9-0.7,1.6-1.4,2.3-2.2c0.3-0.4,0.4-0.7,0.3-0.9c-0.1-0.2-0.5-0.4-1.1-0.4h-4.2
	C157.5,103.2,158.4,104.4,159.5,105.4z"/>
<path class="st2" d="M178.3,110.6c-0.3,0-0.5-0.1-0.7-0.3c-0.2-0.2-0.3-0.4-0.3-0.7V97.9c-0.8,1-1.5,2-2.3,2.8
	c-0.2,0.2-0.4,0.3-0.7,0.3s-0.5-0.1-0.7-0.3c-0.2-0.2-0.3-0.4-0.3-0.7c0-0.3,0.1-0.5,0.3-0.7c0.6-0.6,1.2-1.3,1.7-2
	c0.6-0.8,1.1-1.6,1.7-2.4c0.5-0.8,1-1.7,1.4-2.5s0.8-1.6,1-2.3c0.1-0.3,0.3-0.5,0.6-0.6s0.5-0.1,0.8,0s0.5,0.3,0.6,0.5
	s0.1,0.5,0,0.8c-0.2,0.6-0.5,1.2-0.8,1.8c-0.3,0.6-0.7,1.3-1,1.9v14.9c0,0.3-0.1,0.6-0.3,0.7C178.9,110.5,178.6,110.6,178.3,110.6z
	 M187.2,110.6c-0.3,0-0.6-0.1-0.8-0.3c-0.2-0.2-0.3-0.5-0.4-0.8c0-0.3,0.1-0.5,0.3-0.8c0.2-0.2,0.5-0.3,0.8-0.4
	c0.6,0,1.1-0.1,1.3-0.2c0.3-0.1,0.5-0.2,0.6-0.4s0.1-0.5,0.1-1V97h-7.9c-0.3,0-0.5-0.1-0.7-0.3s-0.3-0.4-0.3-0.7
	c0-0.3,0.1-0.5,0.3-0.7s0.4-0.3,0.7-0.3h7.9v-4.3c0-0.3,0.1-0.6,0.3-0.8c0.2-0.2,0.5-0.3,0.7-0.3c0.3,0,0.5,0.1,0.7,0.3
	c0.2,0.2,0.3,0.5,0.3,0.8V95h2.6c0.3,0,0.5,0.1,0.7,0.3c0.2,0.2,0.3,0.4,0.3,0.7c0,0.3-0.1,0.5-0.3,0.7S194,97,193.7,97h-2.6v10
	c0,0.9-0.1,1.6-0.3,2.1s-0.6,0.9-1.2,1.1C189.1,110.5,188.3,110.6,187.2,110.6z M186.4,104.2c-0.3,0.2-0.5,0.2-0.8,0.2
	s-0.5-0.2-0.7-0.5s-0.4-0.7-0.7-1.1s-0.6-0.9-0.9-1.3s-0.6-0.8-0.8-1s-0.3-0.5-0.2-0.7c0-0.3,0.2-0.5,0.4-0.7s0.5-0.3,0.8-0.3
	s0.5,0.1,0.7,0.4c0.3,0.3,0.6,0.6,0.9,1.1c0.3,0.4,0.7,0.8,1,1.3s0.6,0.8,0.7,1.1c0.2,0.3,0.3,0.6,0.2,0.9
	C186.9,103.8,186.7,104,186.4,104.2z"/>
<path class="st2" d="M209.3,109.4c-0.6,0-0.9-0.4-0.9-1.1V93.1c0-0.7,0.3-1.1,0.9-1.1c0.6,0,0.9,0.4,0.9,1.1v15.2
	C210.2,109.1,209.9,109.4,209.3,109.4z"/>
<path class="st2" d="M234.5,110.7c-0.3,0-0.6-0.1-0.8-0.3s-0.3-0.5-0.3-0.8v-7.2h-8.6c-0.3,0-0.5-0.1-0.7-0.3
	c-0.2-0.2-0.3-0.4-0.3-0.7c0-0.3,0.1-0.5,0.3-0.7s0.4-0.3,0.7-0.3h8.6v-7.7h-7.6c-0.3,0-0.5-0.1-0.7-0.3c-0.2-0.2-0.3-0.4-0.3-0.7
	c0-0.3,0.1-0.5,0.3-0.7s0.4-0.3,0.7-0.3H243c0.3,0,0.5,0.1,0.7,0.3c0.2,0.2,0.3,0.4,0.3,0.7c0,0.3-0.1,0.5-0.3,0.7s-0.4,0.3-0.7,0.3
	h-7.5v7.7h8.5c0.3,0,0.5,0.1,0.7,0.3s0.3,0.4,0.3,0.7c0,0.3-0.1,0.5-0.3,0.7s-0.4,0.3-0.7,0.3h-8.5v7.2c0,0.3-0.1,0.6-0.3,0.8
	S234.8,110.7,234.5,110.7z M231,99.5c-0.3,0.2-0.6,0.2-0.8,0.1s-0.5-0.2-0.6-0.5c-0.2-0.3-0.4-0.8-0.7-1.3s-0.6-1-0.9-1.5
	s-0.6-0.9-0.8-1.3c-0.2-0.2-0.2-0.5-0.1-0.8c0.1-0.3,0.2-0.5,0.5-0.6c0.3-0.2,0.6-0.2,0.9-0.1s0.5,0.2,0.7,0.5s0.5,0.7,0.8,1.3
	c0.3,0.5,0.6,1,0.9,1.6c0.3,0.5,0.5,0.9,0.7,1.3c0.1,0.3,0.2,0.5,0.1,0.8S231.3,99.3,231,99.5z M237.9,99.5
	c-0.2-0.1-0.4-0.3-0.5-0.6c-0.1-0.3,0-0.5,0.1-0.8c0.2-0.3,0.5-0.7,0.8-1.2s0.6-1,0.9-1.5s0.5-0.9,0.7-1.3c0.2-0.3,0.4-0.5,0.7-0.5
	c0.3-0.1,0.6,0,0.8,0.1c0.3,0.2,0.5,0.4,0.6,0.7c0.1,0.3,0.1,0.6-0.1,0.8c-0.2,0.4-0.4,0.8-0.7,1.3s-0.6,1-0.9,1.5
	c-0.3,0.5-0.6,0.9-0.8,1.2c-0.2,0.2-0.4,0.4-0.7,0.5C238.4,99.7,238.1,99.7,237.9,99.5z"/>
<path class="st2" d="M257.2,109.1c-1.3,0-2.3-0.1-3.1-0.3c-0.8-0.2-1.5-0.5-1.9-0.9c-0.5-0.4-0.8-1-1-1.8s-0.3-1.8-0.3-3V97
	c0-1.2,0.1-2.3,0.3-3s0.5-1.4,1-1.8s1.1-0.7,1.9-0.9c0.8-0.2,1.9-0.3,3.1-0.3h1.8c1.3,0,2.3,0.1,3.1,0.3c0.8,0.2,1.5,0.5,1.9,0.9
	c0.5,0.4,0.8,1,1,1.8s0.3,1.8,0.3,3v6.1c0,1.2-0.1,2.3-0.3,3c-0.2,0.8-0.5,1.4-1,1.8s-1.1,0.7-1.9,0.9c-0.8,0.2-1.9,0.3-3.1,0.3
	C259,109.1,257.2,109.1,257.2,109.1z M252.9,98.9h10.2V97c0-0.9-0.1-1.6-0.2-2.1s-0.3-0.9-0.6-1.2c-0.3-0.3-0.7-0.5-1.3-0.6
	c-0.6-0.1-1.3-0.1-2.1-0.1h-1.8c-0.9,0-1.6,0-2.1,0.1c-0.6,0.1-1,0.3-1.3,0.6c-0.3,0.3-0.5,0.7-0.6,1.2s-0.2,1.2-0.2,2.1V98.9z
	 M257.2,107.1h1.8c0.9,0,1.6,0,2.1-0.1c0.6-0.1,1-0.3,1.3-0.6c0.3-0.3,0.5-0.7,0.6-1.2s0.2-1.2,0.2-2.1v-2.2H253v2.2
	c0,0.9,0.1,1.6,0.2,2.1c0.1,0.5,0.3,0.9,0.6,1.2c0.3,0.3,0.7,0.5,1.3,0.6C255.6,107.1,256.3,107.1,257.2,107.1z"/>
<path class="st2" d="M277.8,109c-0.6,0-1.2-0.1-1.7-0.4s-1-0.6-1.4-1c-0.3-0.2-0.4-0.5-0.4-0.7c0-0.3,0.1-0.5,0.4-0.7
	c0.2-0.2,0.5-0.3,0.7-0.2c0.2,0,0.4,0.2,0.7,0.4c0.2,0.2,0.5,0.4,0.8,0.5s0.6,0.2,1,0.2c0.9,0,1.5-0.3,2-0.9s0.9-1.4,1.1-2.4
	s0.3-2.2,0.3-3.5c-0.3,0.5-0.7,0.9-1.2,1.2c-0.5,0.3-1.1,0.4-1.7,0.4c-0.8,0-1.5-0.2-2.2-0.6s-1.2-0.9-1.6-1.6s-0.6-1.5-0.6-2.5
	s0.2-1.8,0.6-2.6c0.4-0.8,0.9-1.3,1.5-1.8c0.7-0.4,1.4-0.6,2.3-0.6c0.7,0,1.3,0.1,1.9,0.4c0.6,0.2,1.1,0.7,1.6,1.3
	c0.4,0.6,0.8,1.4,1,2.4s0.4,2.3,0.3,3.9c-0.1,3-0.5,5.2-1.4,6.6C280.8,108.3,279.5,109,277.8,109z M278.3,100.3c0.8,0,1.4-0.3,2-0.9
	c0.5-0.6,0.7-1.3,0.6-2.2c-0.1-1-0.3-1.7-0.8-2.2c-0.4-0.5-1-0.7-1.7-0.7c-0.8,0-1.4,0.3-1.9,0.9c-0.4,0.6-0.7,1.3-0.7,2.2
	c0,0.9,0.2,1.6,0.7,2.1C277,100.1,277.6,100.3,278.3,100.3z"/>
<path class="st2" d="M292.3,96.8c-0.5,0-0.9-0.2-1.2-0.5s-0.5-0.7-0.5-1.2s0.2-0.9,0.5-1.2c0.3-0.3,0.7-0.5,1.2-0.5s0.9,0.2,1.2,0.5
	c0.3,0.3,0.5,0.7,0.5,1.2s-0.2,0.9-0.5,1.2S292.8,96.8,292.3,96.8z M292.3,106.6c-0.5,0-0.9-0.2-1.2-0.5c-0.3-0.3-0.5-0.7-0.5-1.2
	s0.2-0.9,0.5-1.2s0.7-0.5,1.2-0.5s0.9,0.2,1.2,0.5s0.5,0.7,0.5,1.2s-0.2,0.9-0.5,1.2C293.2,106.4,292.8,106.6,292.3,106.6z"/>
<path class="st2" d="M305.4,109c-0.9,0-1.7-0.2-2.4-0.6c-0.7-0.4-1.2-1-1.6-1.7c-0.2-0.3-0.2-0.6-0.1-0.9c0.1-0.2,0.3-0.4,0.6-0.5
	c0.3-0.1,0.6-0.1,0.8,0s0.4,0.3,0.6,0.6c0.2,0.4,0.5,0.7,0.9,0.9s0.8,0.4,1.3,0.4c0.9,0,1.6-0.2,2.2-0.7c0.5-0.5,0.8-1.2,0.8-2.2
	c0-0.9-0.3-1.6-0.8-2.2c-0.6-0.6-1.3-0.8-2.2-0.8c-0.6,0-0.9-0.3-0.9-0.9s0.3-0.9,0.9-0.9c0.9,0,1.5-0.3,2-0.8s0.7-1.1,0.7-1.9
	c0-0.9-0.3-1.5-0.8-1.9s-1.1-0.6-1.8-0.6c-0.4,0-0.8,0.1-1.2,0.4s-0.6,0.5-0.8,0.9c-0.2,0.3-0.4,0.4-0.6,0.5s-0.5,0.1-0.8,0
	s-0.5-0.3-0.6-0.6c-0.1-0.2,0-0.5,0.2-0.8c0.4-0.8,1-1.3,1.6-1.7c0.7-0.4,1.4-0.6,2.1-0.6c1.3,0,2.4,0.4,3.3,1.1
	c0.8,0.8,1.3,1.8,1.3,3.1c0,0.8-0.2,1.6-0.6,2.2s-1,1.1-1.7,1.4c0.8,0.3,1.5,0.8,2,1.5s0.8,1.6,0.8,2.5c0,1.4-0.4,2.5-1.3,3.4
	S307,109,305.4,109z"/>
<path class="st2" d="M319.5,109c-1.7,0-3-0.7-3.6-2c-0.7-1.4-1-3.5-1-6.3s0.3-4.9,1-6.3s1.9-2.1,3.6-2.1s2.9,0.7,3.6,2.1
	s1,3.5,1,6.3s-0.3,4.9-1,6.3C322.5,108.3,321.3,109,319.5,109z M319.5,107.1c0.6,0,1.2-0.2,1.6-0.6s0.7-1.1,0.9-2
	c0.2-0.9,0.3-2.2,0.3-3.8c0-1.6-0.1-2.9-0.3-3.8c-0.2-0.9-0.5-1.6-0.9-2s-0.9-0.6-1.6-0.6c-0.6,0-1.1,0.2-1.5,0.6s-0.7,1.1-0.9,2
	s-0.3,2.2-0.3,3.8c0,1.6,0.1,2.9,0.3,3.8c0.2,0.9,0.5,1.6,0.9,2S318.9,107.1,319.5,107.1z"/>
<path class="st2" d="M343.1,102.6c-0.9,0-1.7-0.2-2.5-0.5c-0.7-0.3-1.4-0.7-2.1-1.1s-1.3-0.8-1.9-1.1c-0.6-0.3-1.3-0.5-2-0.5
	c-0.8,0-1.4,0.2-2,0.7s-1.1,1-1.5,1.7c-0.1,0.2-0.3,0.4-0.6,0.4c-0.3,0.1-0.5,0-0.7-0.1c-0.2-0.2-0.3-0.4-0.4-0.6s0-0.5,0.1-0.7
	c0.6-1,1.3-1.8,2.2-2.4c0.9-0.6,1.9-0.9,2.9-0.9c0.9,0,1.7,0.2,2.4,0.5s1.4,0.7,2.1,1.1s1.3,0.8,2,1.1s1.3,0.5,2,0.5
	c0.8,0,1.4-0.2,2-0.7s1.1-1,1.5-1.7c0.2-0.3,0.4-0.4,0.6-0.5c0.3,0,0.5,0,0.7,0.2s0.4,0.4,0.4,0.6c0,0.3,0,0.5-0.1,0.7
	c-0.6,1-1.3,1.8-2.2,2.4C345.1,102.3,344.1,102.6,343.1,102.6z"/>
<path class="st2" d="M356.6,108.8c-0.7,0-1-0.4-1-1.1V95.2l-2.1,1.3c-0.6,0.4-1.1,0.3-1.4-0.2c-0.4-0.6-0.2-1,0.4-1.4l3-1.8
	c0.4-0.3,0.9-0.4,1.3-0.4c0.5,0,0.8,0.4,0.8,1.1v13.9C357.6,108.4,357.3,108.8,356.6,108.8z"/>
<path class="st2" d="M368,109c-0.9,0-1.7-0.2-2.4-0.6c-0.7-0.4-1.3-1-1.7-1.7c-0.4-0.7-0.6-1.6-0.6-2.5s0.2-1.7,0.7-2.4
	c0.5-0.7,1-1.2,1.7-1.5c-0.6-0.4-1-0.8-1.4-1.4s-0.5-1.3-0.5-2.1c0-0.9,0.2-1.6,0.6-2.3s0.9-1.2,1.5-1.6s1.4-0.6,2.2-0.6
	c0.8,0,1.6,0.2,2.2,0.6s1.2,0.9,1.5,1.6s0.6,1.4,0.6,2.3c0,0.8-0.2,1.5-0.6,2.1s-0.8,1-1.4,1.4c0.7,0.3,1.2,0.8,1.7,1.5
	c0.4,0.7,0.7,1.5,0.7,2.4c0,1-0.2,1.8-0.6,2.5s-1,1.3-1.7,1.7S369,109,368,109z M368,107.1c0.8,0,1.5-0.3,2-0.8s0.7-1.2,0.7-2.2
	s-0.2-1.7-0.7-2.2s-1.2-0.8-2-0.8s-1.5,0.3-2,0.8s-0.7,1.3-0.7,2.2c0,1,0.2,1.7,0.7,2.2C366.5,106.9,367.2,107.1,368,107.1z
	 M368,99.5c0.7,0,1.3-0.2,1.7-0.7s0.6-1.1,0.6-1.9s-0.2-1.4-0.7-1.9c-0.4-0.4-1-0.7-1.7-0.7s-1.2,0.2-1.7,0.7
	c-0.4,0.4-0.6,1.1-0.6,1.9s0.2,1.5,0.6,1.9C366.7,99.3,367.3,99.5,368,99.5z"/>
<path class="st2" d="M381.9,96.8c-0.5,0-0.9-0.2-1.2-0.5s-0.5-0.7-0.5-1.2s0.2-0.9,0.5-1.2c0.3-0.3,0.7-0.5,1.2-0.5s0.9,0.2,1.2,0.5
	c0.3,0.3,0.5,0.7,0.5,1.2s-0.2,0.9-0.5,1.2S382.4,96.8,381.9,96.8z M381.9,106.6c-0.5,0-0.9-0.2-1.2-0.5c-0.3-0.3-0.5-0.7-0.5-1.2
	s0.2-0.9,0.5-1.2s0.7-0.5,1.2-0.5s0.9,0.2,1.2,0.5s0.5,0.7,0.5,1.2s-0.2,0.9-0.5,1.2C382.8,106.4,382.4,106.6,381.9,106.6z"/>
<path class="st2" d="M395,109c-0.9,0-1.7-0.2-2.4-0.6c-0.7-0.4-1.2-1-1.6-1.7c-0.2-0.3-0.2-0.6-0.1-0.9c0.1-0.2,0.3-0.4,0.6-0.5
	c0.3-0.1,0.6-0.1,0.8,0c0.2,0.1,0.4,0.3,0.6,0.6c0.2,0.4,0.5,0.7,0.9,0.9s0.8,0.4,1.3,0.4c0.9,0,1.6-0.2,2.2-0.7
	c0.5-0.5,0.8-1.2,0.8-2.2c0-0.9-0.3-1.6-0.8-2.2s-1.3-0.8-2.2-0.8c-0.6,0-0.9-0.3-0.9-0.9s0.3-0.9,0.9-0.9c0.9,0,1.5-0.3,2-0.8
	s0.7-1.1,0.7-1.9c0-0.9-0.3-1.5-0.8-1.9s-1.1-0.6-1.8-0.6c-0.4,0-0.8,0.1-1.1,0.4s-0.6,0.5-0.8,0.9c-0.2,0.3-0.4,0.4-0.6,0.5
	s-0.5,0.1-0.8,0s-0.5-0.3-0.6-0.6s0-0.5,0.2-0.8c0.4-0.8,1-1.3,1.6-1.7c0.7-0.4,1.4-0.6,2.1-0.6c1.3,0,2.4,0.4,3.3,1.1
	c0.8,0.8,1.3,1.8,1.3,3.1c0,0.8-0.2,1.6-0.6,2.2s-1,1.1-1.7,1.4c0.8,0.3,1.5,0.8,2,1.5s0.8,1.6,0.8,2.5c0,1.4-0.4,2.5-1.3,3.4
	S396.6,109,395,109z"/>
<path class="st2" d="M409.1,109c-1.7,0-3-0.7-3.6-2c-0.7-1.4-1-3.5-1-6.3s0.3-4.9,1-6.3s1.9-2.1,3.6-2.1s2.9,0.7,3.6,2.1
	s1,3.5,1,6.3s-0.3,4.9-1,6.3C412,108.3,410.8,109,409.1,109z M409.1,107.1c0.6,0,1.2-0.2,1.6-0.6s0.7-1.1,0.9-2
	c0.2-0.9,0.3-2.2,0.3-3.8c0-1.6-0.1-2.9-0.3-3.8c-0.2-0.9-0.5-1.6-0.9-2s-0.9-0.6-1.6-0.6c-0.6,0-1.1,0.2-1.5,0.6s-0.7,1.1-0.9,2
	c-0.2,0.9-0.3,2.2-0.3,3.8c0,1.6,0.1,2.9,0.3,3.8c0.2,0.9,0.5,1.6,0.9,2C408,106.9,408.5,107.1,409.1,107.1z"/>
</svg>
