<?xml version="1.0" encoding="utf-8"?>
<!-- Generator: Adobe Illustrator 26.5.0, SVG Export Plug-In . SVG Version: 6.00 Build 0)  -->
<svg version="1.1" id="レイヤー_1" xmlns="http://www.w3.org/2000/svg" xmlns:xlink="http://www.w3.org/1999/xlink" x="0px"
	 y="0px" width="270px" height="258px" viewBox="0 0 270 258" style="enable-background:new 0 0 270 258;" xml:space="preserve">
<style type="text/css">
	.st0{fill:#6EBB5D;}
	.st1{fill:#6EBB5D;stroke:#6EBB5D;stroke-width:6;stroke-linecap:round;stroke-linejoin:round;stroke-miterlimit:10;}
	.st2{fill:#FFFFFF;}
</style>
<g>
	<g>
		<path class="st0" d="M41.6,166.6c-0.4,0-0.6-0.1-0.9-0.3c-0.2-0.2-0.3-0.4-0.4-0.8c0-0.3,0.1-0.6,0.2-0.8c0.2-0.2,0.4-0.4,0.7-0.4
			c0.3,0,0.5-0.1,0.7-0.1c0.2-0.1,0.3-0.2,0.3-0.3c0.1-0.2,0.2-0.4,0.2-0.7c0.1-0.3,0.1-0.8,0.2-1.2c0.1-0.5,0.1-1,0.1-1.5
			c0-0.5,0.1-1,0.1-1.5c0-0.3,0-0.6-0.2-0.7c-0.1-0.1-0.3-0.2-0.7-0.2h-0.5c-0.1,1.4-0.4,2.7-0.8,4.1c-0.4,1.4-0.9,2.6-1.6,3.7
			c-0.2,0.3-0.4,0.5-0.7,0.6c-0.3,0.1-0.6,0-0.9-0.1c-0.3-0.2-0.4-0.4-0.5-0.7c-0.1-0.3,0-0.6,0.1-0.8c0.8-1.1,1.3-2.4,1.7-3.8
			c0.4-1.4,0.6-3.2,0.6-5.2v-1.8h-1.2c-0.3,0-0.6-0.1-0.8-0.3c-0.2-0.2-0.3-0.4-0.3-0.7c0-0.3,0.1-0.5,0.3-0.7
			c0.2-0.2,0.4-0.3,0.8-0.3h2.3v-2.4c0-0.4,0.1-0.7,0.3-0.9c0.2-0.2,0.5-0.3,0.8-0.3c0.3,0,0.6,0.1,0.8,0.3c0.2,0.2,0.3,0.5,0.3,0.9
			v2.4h2c0.3,0,0.6,0.1,0.8,0.3c0.2,0.2,0.3,0.4,0.3,0.7c0,0.3-0.1,0.5-0.3,0.7c-0.2,0.2-0.4,0.3-0.8,0.3h-3.1v2h0.9
			c0.6,0,1.1,0.1,1.5,0.3c0-0.1,0-0.3,0-0.4c0-0.1,0.1-0.3,0.2-0.4c0.5-0.5,1-1.2,1.4-1.9c0.5-0.7,0.9-1.5,1.3-2.3
			c0.4-0.8,0.7-1.5,0.9-2.1c0.1-0.4,0.3-0.6,0.6-0.7c0.3-0.1,0.6-0.1,0.9,0c0.3,0.1,0.5,0.3,0.6,0.5c0.1,0.3,0.2,0.6,0,0.9
			c-0.2,0.4-0.3,0.8-0.5,1.2s-0.4,0.8-0.6,1.2h5.2c0.3,0,0.6,0.1,0.8,0.3c0.2,0.2,0.3,0.4,0.3,0.7c0,0.3-0.1,0.5-0.3,0.7
			c-0.2,0.2-0.4,0.3-0.8,0.3h-0.6c-0.2,1.3-0.4,2.6-0.8,3.7c-0.4,1.1-0.8,2.2-1.4,3.1c0.4,0.6,1,1.1,1.5,1.6c0.6,0.5,1.2,1,1.9,1.4
			c0.3,0.2,0.5,0.4,0.5,0.8c0,0.3,0,0.6-0.2,0.9c-0.2,0.3-0.5,0.5-0.9,0.5c-0.4,0-0.7,0-1-0.2c-1.3-0.9-2.4-1.9-3.3-3
			c-1,1.2-2.2,2.2-3.7,3c-0.3,0.2-0.7,0.3-1,0.2c-0.3-0.1-0.6-0.3-0.8-0.6c-0.2-0.3-0.2-0.6-0.1-0.9c0.1-0.3,0.3-0.6,0.6-0.7
			c0.7-0.4,1.4-0.8,2-1.3s1.1-1,1.6-1.6c-0.9-1.6-1.5-3.5-1.8-5.6c-0.1,0.2-0.3,0.3-0.4,0.5c-0.1,0.2-0.3,0.3-0.4,0.5
			c-0.3,0.4-0.7,0.5-1.2,0.4c0.1,0.2,0.2,0.4,0.2,0.6c0,0.2,0,0.5,0,0.8c0,0.9-0.1,1.8-0.1,2.7c-0.1,0.9-0.2,1.7-0.3,2.4
			c-0.1,1.1-0.5,1.9-1,2.3C43.2,166.4,42.5,166.6,41.6,166.6z M50.1,159.1c0.3-0.7,0.6-1.4,0.8-2.2c0.2-0.8,0.4-1.6,0.4-2.4H49
			c0.1,0.9,0.2,1.7,0.4,2.4C49.6,157.7,49.8,158.5,50.1,159.1z"/>
		<path class="st0" d="M59.5,153.8c-0.3,0-0.5-0.1-0.7-0.3s-0.2-0.4-0.2-0.6s0.1-0.5,0.2-0.6s0.4-0.3,0.7-0.3h5.6
			c0.3,0,0.5,0.1,0.7,0.3c0.2,0.2,0.2,0.4,0.2,0.6s-0.1,0.5-0.2,0.6c-0.2,0.2-0.4,0.3-0.7,0.3H59.5z M71.1,166.8
			c-0.3,0-0.5-0.1-0.7-0.3c-0.2-0.2-0.3-0.4-0.3-0.8v-3.8c-0.5,0.6-1,1.1-1.6,1.7c-0.6,0.6-1.1,1-1.6,1.4c-0.3,0.2-0.5,0.3-0.8,0.3
			c-0.3,0-0.6-0.1-0.7-0.4c-0.1-0.2-0.2-0.3-0.2-0.5c-0.1,0.6-0.4,1.1-0.8,1.3c-0.4,0.3-1.1,0.4-2,0.4c-0.8,0-1.3-0.1-1.8-0.3
			s-0.7-0.5-0.9-0.9c-0.2-0.4-0.2-1-0.2-1.7c0-0.8,0.1-1.3,0.2-1.7c0.2-0.4,0.5-0.7,0.9-0.9c0.4-0.2,1-0.2,1.8-0.2
			c0.8,0,1.3,0.1,1.7,0.2c0.4,0.2,0.7,0.5,0.9,0.9c0.2,0.4,0.2,1,0.2,1.7c0,0.1,0,0.3,0,0.4c0,0.1,0,0.2,0,0.3
			c0.1-0.2,0.2-0.3,0.3-0.4c0.4-0.3,0.8-0.6,1.3-1c0.5-0.4,0.9-0.8,1.3-1.2c0.4-0.4,0.8-0.8,1.1-1.2h-2.8c-0.3,0-0.5-0.1-0.7-0.3
			c-0.2-0.2-0.2-0.4-0.2-0.7c0-0.3,0.1-0.5,0.2-0.7c0.2-0.2,0.4-0.3,0.7-0.3h3.7v-1.1h-0.3c-1.3,0-2.2-0.2-2.7-0.7
			c-0.5-0.4-0.8-1.2-0.8-2.3V152c0-1.1,0.3-1.9,0.8-2.3c0.5-0.4,1.4-0.7,2.7-0.7h2.6c1.3,0,2.2,0.2,2.7,0.7c0.5,0.4,0.8,1.2,0.8,2.3
			v2.1c0,1.1-0.3,1.9-0.8,2.3c-0.5,0.4-1.4,0.7-2.7,0.7h-0.3v1.1h4.1c0.3,0,0.5,0.1,0.7,0.3c0.2,0.2,0.2,0.4,0.2,0.7
			c0,0.3-0.1,0.5-0.2,0.7c-0.2,0.2-0.4,0.3-0.7,0.3H73c0.3,0.4,0.7,0.7,1.1,1.2c0.4,0.4,0.9,0.8,1.3,1.2s0.9,0.7,1.3,1
			c0.2,0.1,0.4,0.4,0.4,0.6c0,0.3,0,0.5-0.2,0.8c-0.2,0.3-0.4,0.4-0.7,0.4c-0.3,0-0.6,0-0.8-0.2c-0.5-0.4-1.1-0.8-1.6-1.4
			c-0.6-0.5-1.1-1.1-1.6-1.7v3.8c0,0.3-0.1,0.6-0.3,0.8C71.7,166.7,71.4,166.8,71.1,166.8z M60.5,156.6c-0.3,0-0.5-0.1-0.7-0.3
			c-0.2-0.2-0.2-0.4-0.2-0.6c0-0.3,0.1-0.5,0.2-0.7c0.2-0.2,0.4-0.3,0.7-0.3h3.8c0.3,0,0.5,0.1,0.7,0.3c0.2,0.2,0.2,0.4,0.2,0.7
			c0,0.3-0.1,0.5-0.2,0.6c-0.2,0.2-0.4,0.3-0.7,0.3H60.5z M60.5,159.4c-0.3,0-0.5-0.1-0.7-0.3c-0.2-0.2-0.2-0.4-0.2-0.6
			c0-0.3,0.1-0.5,0.2-0.7c0.2-0.2,0.4-0.3,0.7-0.3h3.8c0.3,0,0.5,0.1,0.7,0.3s0.2,0.4,0.2,0.7c0,0.3-0.1,0.5-0.2,0.6
			s-0.4,0.3-0.7,0.3H60.5z M60.5,151c-0.3,0-0.5-0.1-0.7-0.3c-0.2-0.2-0.2-0.4-0.2-0.7c0-0.3,0.1-0.5,0.2-0.7
			c0.2-0.2,0.4-0.3,0.7-0.3h3.7c0.3,0,0.5,0.1,0.7,0.3c0.2,0.2,0.2,0.4,0.2,0.7c0,0.3-0.1,0.5-0.2,0.7c-0.2,0.2-0.4,0.3-0.7,0.3
			H60.5z M62.4,164.3c0.4,0,0.6-0.1,0.7-0.2c0.1-0.1,0.1-0.4,0.1-0.9c0-0.5,0-0.8-0.1-0.9c-0.1-0.1-0.3-0.2-0.7-0.2
			c-0.4,0-0.6,0.1-0.7,0.2c-0.1,0.1-0.1,0.4-0.1,0.9c0,0.5,0,0.8,0.1,0.9C61.8,164.2,62,164.3,62.4,164.3z M68.4,152.2h1.7v-1.4
			h-0.3c-0.5,0-0.9,0.1-1.1,0.2c-0.2,0.2-0.3,0.5-0.3,0.9V152.2z M69.8,155.3h0.3v-1.3h-1.7v0.2c0,0.5,0.1,0.8,0.3,0.9
			C68.9,155.2,69.3,155.3,69.8,155.3z M72.1,152.2h1.7V152c0-0.5-0.1-0.8-0.3-0.9c-0.2-0.2-0.6-0.2-1.1-0.2h-0.3V152.2z M72.1,155.3
			h0.3c0.5,0,0.9-0.1,1.1-0.2c0.2-0.2,0.3-0.5,0.3-0.9v-0.2h-1.7V155.3z"/>
		<path class="st0" d="M84.3,166.8c-0.3,0-0.6-0.1-0.8-0.3c-0.2-0.2-0.3-0.5-0.3-0.8v-6.9c-0.3,0.2-0.6,0.5-0.8,0.7
			c-0.3,0.2-0.6,0.3-0.9,0.3c-0.3,0-0.6-0.2-0.8-0.5c-0.2-0.2-0.3-0.5-0.2-0.8c0-0.3,0.2-0.6,0.4-0.7c0.3-0.3,0.7-0.6,1.2-0.9
			c0.4-0.4,0.9-0.8,1.3-1.2c0.4-0.4,0.8-0.8,1.2-1.2c0.4-0.4,0.7-0.8,0.9-1.1c0.2-0.2,0.4-0.4,0.7-0.4s0.6,0.1,0.8,0.2
			c0.3,0.2,0.4,0.4,0.4,0.7c0,0.3,0,0.6-0.2,0.8c-0.3,0.3-0.5,0.6-0.8,1c-0.3,0.3-0.6,0.7-1,1.1v8.9c0,0.3-0.1,0.6-0.3,0.8
			C84.9,166.7,84.6,166.8,84.3,166.8z M82.8,153.8c-0.3,0.2-0.6,0.3-0.9,0.3c-0.3,0-0.6-0.2-0.8-0.5c-0.2-0.3-0.3-0.5-0.2-0.8
			c0.1-0.3,0.2-0.5,0.5-0.7c0.4-0.2,0.8-0.5,1.2-0.9c0.5-0.4,0.9-0.7,1.3-1.1c0.4-0.4,0.8-0.7,1.1-1c0.2-0.2,0.5-0.3,0.8-0.3
			c0.3,0,0.6,0.1,0.8,0.3c0.2,0.2,0.4,0.5,0.4,0.8s-0.1,0.6-0.3,0.8c-0.3,0.3-0.7,0.7-1.1,1c-0.4,0.4-0.9,0.8-1.3,1.1
			C83.6,153.2,83.2,153.5,82.8,153.8z M87.8,166.6c-0.4,0.1-0.7,0.1-0.9,0c-0.3-0.1-0.4-0.3-0.6-0.6c-0.1-0.3-0.1-0.6,0.1-0.8
			c0.2-0.3,0.4-0.4,0.7-0.5c1.4-0.3,2.7-0.8,3.8-1.5c-0.3-0.3-0.5-0.5-0.7-0.8c-0.2-0.3-0.5-0.6-0.7-0.9c-0.5,0.6-1,1.1-1.6,1.6
			c-0.3,0.3-0.6,0.4-0.9,0.4s-0.6-0.1-0.8-0.4c-0.2-0.2-0.3-0.5-0.3-0.8c0-0.3,0.1-0.5,0.4-0.7c0.6-0.5,1.1-1,1.8-1.7
			c0.6-0.7,1.2-1.3,1.7-2c-0.5,0-0.9,0.1-1.3,0.1c-0.4,0-0.8,0-1.1,0.1c-0.3,0-0.6-0.1-0.8-0.2c-0.2-0.2-0.3-0.4-0.4-0.7
			c0-0.3,0.1-0.5,0.3-0.7c0.2-0.2,0.4-0.3,0.7-0.3c0.3,0,0.6,0,0.9,0c0.3,0,0.7,0,1.1-0.1c0.1-0.2,0.3-0.3,0.5-0.5
			c0.2-0.2,0.4-0.4,0.6-0.6c-0.3-0.2-0.6-0.5-1-0.8c-0.4-0.3-0.7-0.6-1-0.8c-0.3-0.3-0.6-0.5-0.8-0.6c-0.2-0.2-0.4-0.4-0.4-0.7
			c-0.1-0.3,0-0.5,0.2-0.8c0.2-0.2,0.4-0.4,0.7-0.5c0.3-0.1,0.6,0,0.8,0.1c0.1,0.1,0.1,0.1,0.2,0.2c0.1,0.1,0.2,0.1,0.3,0.2
			c0.2-0.3,0.5-0.7,0.8-1.1c0.3-0.4,0.5-0.8,0.7-1.1c0.2-0.3,0.4-0.4,0.7-0.5c0.3,0,0.6,0,0.8,0.2c0.3,0.2,0.4,0.4,0.5,0.7
			c0.1,0.3,0,0.6-0.2,0.8c-0.2,0.3-0.5,0.7-0.8,1.1c-0.3,0.4-0.6,0.8-0.9,1.1c0.2,0.1,0.3,0.3,0.5,0.4c0.2,0.1,0.3,0.2,0.4,0.3
			c0.5-0.6,1-1.2,1.5-1.8c0.5-0.6,0.8-1.1,1.1-1.5c0.2-0.2,0.4-0.4,0.7-0.4c0.3,0,0.6,0,0.8,0.2c0.2,0.2,0.4,0.4,0.4,0.7
			c0,0.3,0,0.6-0.2,0.8c-0.3,0.4-0.7,0.8-1.1,1.4c-0.5,0.5-0.9,1.1-1.4,1.6c-0.5,0.6-1,1.1-1.5,1.6c0.5,0,1-0.1,1.5-0.1
			c0.5,0,0.9-0.1,1.3-0.1c-0.1-0.1-0.1-0.1-0.1-0.2c0-0.1-0.1-0.1-0.1-0.2c-0.2-0.2-0.2-0.4-0.2-0.7c0-0.3,0.1-0.5,0.4-0.7
			c0.2-0.2,0.5-0.3,0.8-0.3c0.3,0,0.5,0.1,0.7,0.4c0.2,0.2,0.5,0.5,0.8,0.9c0.3,0.4,0.6,0.7,0.9,1.1c0.3,0.4,0.5,0.7,0.7,0.9
			c0.2,0.3,0.3,0.5,0.2,0.8c0,0.3-0.2,0.5-0.5,0.7c-0.3,0.2-0.5,0.2-0.8,0.2c-0.3-0.1-0.5-0.2-0.7-0.5c-0.1-0.1-0.1-0.2-0.2-0.3
			c-0.1-0.1-0.2-0.3-0.3-0.4c-0.5,0.1-1.1,0.1-1.7,0.2c-0.7,0.1-1.4,0.1-2.1,0.2c-0.1,0.2-0.2,0.3-0.3,0.5c-0.1,0.2-0.2,0.4-0.4,0.5
			h1.9c0.9,0,1.5,0.2,1.9,0.6s0.6,0.8,0.5,1.4c0,0.6-0.3,1.1-0.8,1.7c-0.3,0.3-0.6,0.6-0.9,0.9c1.1,0.7,2.4,1.1,3.7,1.3
			c0.3,0.1,0.6,0.2,0.8,0.5c0.2,0.3,0.2,0.5,0.1,0.9c-0.1,0.3-0.3,0.6-0.6,0.7c-0.3,0.1-0.6,0.1-1,0c-0.8-0.2-1.7-0.4-2.5-0.8
			c-0.8-0.3-1.6-0.8-2.3-1.2C91.2,165.4,89.6,166.1,87.8,166.6z M92.7,161.9c0.3-0.3,0.6-0.5,0.8-0.8c0.2-0.3,0.3-0.4,0.2-0.6
			c-0.1-0.1-0.3-0.2-0.6-0.2h-2c0.2,0.3,0.4,0.6,0.7,0.8C92.1,161.5,92.4,161.7,92.7,161.9z"/>
		<path class="st0" d="M112.8,166.9c-0.3,0-0.6-0.1-0.8-0.3c-0.2-0.2-0.4-0.5-0.4-0.9c0-0.3,0.1-0.6,0.3-0.8
			c0.2-0.2,0.5-0.4,0.8-0.4c0.6,0,1-0.1,1.1-0.3c0.2-0.1,0.2-0.4,0.2-0.9v-1.3h-5.7c0,0,0.1,0,0.1,0.1c0,0,0.1,0.1,0.1,0.1
			c0.2,0.2,0.5,0.5,0.8,0.8c0.3,0.3,0.6,0.6,0.7,0.8c0.2,0.3,0.4,0.6,0.3,0.9c0,0.3-0.2,0.6-0.4,0.8c-0.3,0.2-0.6,0.3-0.9,0.3
			c-0.3,0-0.6-0.2-0.8-0.4c-0.2-0.2-0.4-0.5-0.7-0.8c-0.3-0.3-0.5-0.6-0.7-0.8c-0.2-0.2-0.3-0.5-0.3-0.8c0-0.3,0.2-0.5,0.4-0.8
			c0,0,0.1,0,0.1-0.1c0,0,0,0,0.1,0h-3.1c-0.3,0-0.5-0.1-0.7-0.3c-0.2-0.2-0.3-0.4-0.3-0.7c0-0.3,0.1-0.5,0.3-0.7
			c0.2-0.2,0.4-0.3,0.7-0.3H114V159h-10.8c-0.3,0-0.5-0.1-0.6-0.3c-0.2-0.2-0.3-0.4-0.3-0.7c0-0.3,0.1-0.5,0.3-0.7
			c0.2-0.2,0.4-0.3,0.6-0.3h7.1v-1h-4.9c-0.3,0-0.5-0.1-0.6-0.3c-0.2-0.2-0.3-0.4-0.3-0.6c0-0.3,0.1-0.5,0.3-0.7
			c0.2-0.2,0.4-0.3,0.6-0.3h4.9V154c0-0.4,0.2-0.8,0.5-1c-0.1-0.3-0.1-0.6,0.1-0.9c0.3-0.4,0.6-0.9,1-1.5c0.3-0.6,0.6-1.1,0.8-1.6
			c0.1-0.3,0.3-0.5,0.6-0.6s0.6-0.1,0.8,0c0.3,0.1,0.5,0.3,0.6,0.5c0.1,0.2,0.1,0.5,0,0.8c0,0.1-0.1,0.1-0.1,0.2
			c0,0.1-0.1,0.2-0.1,0.2h4.8c0.3,0,0.5,0.1,0.7,0.3c0.2,0.2,0.2,0.4,0.2,0.6c0,0.3-0.1,0.5-0.2,0.6c-0.2,0.2-0.4,0.3-0.7,0.3h-2.5
			c0.1,0.1,0.1,0.3,0.2,0.4c0,0.1,0.1,0.3,0.1,0.4c0.1,0.3,0.1,0.5,0,0.8c-0.1,0.3-0.3,0.4-0.6,0.5c-0.3,0.1-0.6,0.1-0.8,0
			c-0.3-0.1-0.5-0.3-0.5-0.5c-0.1-0.2-0.2-0.4-0.3-0.7s-0.2-0.6-0.3-0.8h-0.9c-0.1,0.2-0.2,0.4-0.4,0.6c-0.1,0.2-0.2,0.4-0.3,0.5
			c-0.1,0.2-0.2,0.3-0.4,0.4c0.1,0.1,0.1,0.3,0.1,0.5v0.3h5.1c0.3,0,0.5,0.1,0.7,0.3c0.2,0.2,0.3,0.4,0.3,0.7c0,0.3-0.1,0.5-0.3,0.6
			c-0.2,0.2-0.4,0.3-0.7,0.3h-5.1v1h7.1c0.3,0,0.5,0.1,0.7,0.3c0.2,0.2,0.3,0.4,0.3,0.7c0,0.3-0.1,0.5-0.3,0.7
			c-0.2,0.2-0.4,0.3-0.7,0.3h-3.3v1.1h2.7c0.3,0,0.5,0.1,0.7,0.3c0.2,0.2,0.3,0.4,0.3,0.7c0,0.3-0.1,0.5-0.3,0.7
			c-0.2,0.2-0.4,0.3-0.7,0.3h-2.7v1.8c0,1.1-0.3,1.8-0.8,2.3C115,166.7,114,166.9,112.8,166.9z M108.4,154c-0.3,0.1-0.6,0.1-0.9,0
			c-0.3-0.1-0.4-0.3-0.5-0.5c-0.1-0.2-0.2-0.4-0.3-0.7s-0.2-0.6-0.3-0.8h-0.9c-0.2,0.3-0.4,0.6-0.6,0.8c-0.2,0.3-0.4,0.5-0.5,0.7
			c-0.2,0.3-0.4,0.4-0.7,0.5c-0.3,0.1-0.6,0-0.9-0.1c-0.3-0.1-0.4-0.4-0.5-0.7c-0.1-0.3,0-0.6,0.2-0.8c0.4-0.5,0.8-1.1,1.2-1.7
			c0.4-0.6,0.7-1.2,1-1.7c0.1-0.3,0.4-0.5,0.6-0.6c0.3-0.1,0.6-0.1,0.9,0c0.3,0.1,0.5,0.3,0.6,0.6c0.1,0.3,0.1,0.5-0.1,0.8
			c0,0.1-0.1,0.1-0.1,0.2c0,0.1-0.1,0.1-0.1,0.2h3.7c0.3,0,0.5,0.1,0.7,0.3c0.2,0.2,0.2,0.4,0.2,0.6c0,0.3-0.1,0.5-0.2,0.6
			c-0.2,0.2-0.4,0.3-0.7,0.3h-1.5c0.1,0.1,0.1,0.3,0.2,0.4c0.1,0.1,0.1,0.3,0.1,0.4c0.1,0.3,0.1,0.5,0,0.8
			C108.9,153.8,108.7,153.9,108.4,154z"/>
		<path class="st0" d="M127.4,165.6c-0.3,0.1-0.6,0.2-0.9,0.1c-0.3-0.1-0.6-0.3-0.7-0.6c-0.2-0.3-0.2-0.6-0.1-0.9
			c0.1-0.3,0.3-0.6,0.6-0.7c1.4-0.7,2.5-1.7,3.3-2.7c0.8-1.1,1.4-2.3,1.6-3.6h-5.7c-0.3,0-0.6-0.1-0.8-0.3c-0.2-0.2-0.3-0.5-0.3-0.8
			c0-0.3,0.1-0.6,0.3-0.8c0.2-0.2,0.5-0.3,0.8-0.3h13.1c0.3,0,0.6,0.1,0.8,0.3c0.2,0.2,0.3,0.5,0.3,0.8c0,0.3-0.1,0.6-0.3,0.8
			c-0.2,0.2-0.5,0.3-0.8,0.3h-5c-0.1,1.1-0.5,2.2-1,3.3c-0.5,1.1-1.2,2.1-2.1,2.9C129.6,164.3,128.6,165,127.4,165.6z M127.7,152.9
			c-0.3,0-0.6-0.1-0.8-0.3c-0.2-0.2-0.3-0.5-0.3-0.8c0-0.3,0.1-0.6,0.3-0.8c0.2-0.2,0.5-0.3,0.8-0.3h8.4c0.3,0,0.6,0.1,0.8,0.3
			c0.2,0.2,0.3,0.5,0.3,0.8c0,0.3-0.1,0.6-0.3,0.8c-0.2,0.2-0.5,0.3-0.8,0.3H127.7z M140.3,154.5c-0.2,0.2-0.4,0.2-0.6,0.2
			c-0.2,0-0.4-0.1-0.6-0.3c-0.1-0.2-0.3-0.4-0.5-0.7c-0.2-0.3-0.4-0.5-0.6-0.8c-0.1-0.1-0.2-0.3-0.2-0.5c0-0.2,0.1-0.4,0.3-0.5
			c0.2-0.1,0.3-0.2,0.5-0.2c0.2,0,0.4,0.1,0.5,0.2c0.2,0.2,0.4,0.4,0.7,0.7c0.3,0.3,0.5,0.5,0.6,0.8c0.1,0.2,0.2,0.4,0.2,0.6
			C140.6,154.2,140.5,154.3,140.3,154.5z M142.2,152.9c-0.2,0.2-0.4,0.2-0.6,0.2c-0.2,0-0.4-0.1-0.6-0.3c-0.2-0.2-0.4-0.4-0.6-0.7
			c-0.2-0.3-0.5-0.5-0.7-0.7c-0.1-0.1-0.2-0.3-0.2-0.5c0-0.2,0.1-0.4,0.2-0.6c0.1-0.1,0.3-0.2,0.5-0.2c0.2,0,0.4,0.1,0.6,0.2
			c0.2,0.1,0.4,0.3,0.7,0.6c0.3,0.3,0.5,0.5,0.7,0.7c0.1,0.2,0.2,0.4,0.2,0.6C142.5,152.5,142.4,152.7,142.2,152.9z"/>
		<path class="st0" d="M151.9,166c-0.3,0-0.6-0.1-0.8-0.4c-0.2-0.2-0.4-0.5-0.4-0.9v-7.9c-0.8,0.7-1.7,1.4-2.6,2.1
			c-0.9,0.7-1.8,1.3-2.7,1.9c-0.3,0.2-0.6,0.2-0.9,0.1c-0.3-0.1-0.6-0.3-0.8-0.6c-0.2-0.3-0.2-0.6-0.1-0.9c0.1-0.3,0.3-0.6,0.6-0.8
			c0.8-0.5,1.7-1.1,2.6-1.8c0.9-0.7,1.8-1.4,2.6-2.2c0.9-0.8,1.7-1.6,2.4-2.3c0.7-0.8,1.3-1.5,1.8-2.2c0.2-0.3,0.5-0.4,0.8-0.5
			c0.3-0.1,0.6,0,0.9,0.2c0.3,0.2,0.4,0.4,0.5,0.8c0.1,0.3,0,0.6-0.2,0.9c-0.7,0.9-1.5,1.9-2.5,2.9v10.3c0,0.3-0.1,0.6-0.4,0.9
			C152.5,165.8,152.2,166,151.9,166z"/>
		<path class="st0" d="M167.3,165.9c-0.3,0.1-0.6,0.1-0.9,0c-0.3-0.1-0.5-0.3-0.7-0.6c-0.1-0.3-0.1-0.6,0-0.9
			c0.1-0.3,0.3-0.5,0.6-0.7c1.5-0.7,2.6-1.6,3.3-2.8c0.7-1.2,1.1-2.7,1.1-4.6h-3c0,0.5,0,1,0,1.5c0,0.5,0,0.9,0,1.3
			c0,0.3-0.1,0.6-0.4,0.8c-0.3,0.2-0.5,0.3-0.9,0.3c-0.3,0-0.6-0.2-0.8-0.4c-0.2-0.3-0.3-0.6-0.3-0.9c0-0.4,0-0.8,0-1.2s0-0.9,0-1.4
			h-4c-0.3,0-0.6-0.1-0.8-0.3c-0.2-0.2-0.3-0.5-0.3-0.8c0-0.3,0.1-0.6,0.3-0.8c0.2-0.2,0.5-0.3,0.8-0.3h4c0-0.5-0.1-0.9-0.1-1.3
			c0-0.4-0.1-0.8-0.1-1.1c-0.1-0.3,0-0.6,0.2-0.9c0.2-0.3,0.5-0.4,0.8-0.5c0.3-0.1,0.6,0,0.9,0.2c0.3,0.2,0.4,0.5,0.5,0.8
			c0.1,0.4,0.1,0.8,0.1,1.3c0,0.5,0.1,1,0.1,1.5h3.1c0-0.6,0-1.1,0-1.6c0-0.5,0-1-0.1-1.4c0-0.3,0.1-0.6,0.3-0.9
			c0.2-0.3,0.5-0.4,0.8-0.4c0.3,0,0.6,0.1,0.9,0.3c0.3,0.2,0.4,0.5,0.4,0.8c0,0.4,0.1,0.9,0.1,1.5c0,0.6,0,1.2,0,1.8h3.8
			c0.3,0,0.6,0.1,0.8,0.3c0.2,0.2,0.3,0.5,0.3,0.8c0,0.3-0.1,0.6-0.3,0.8c-0.2,0.2-0.5,0.3-0.8,0.3h-3.8c0,2.3-0.5,4.3-1.5,5.9
			C170.6,163.9,169.1,165.1,167.3,165.9z"/>
		<path class="st0" d="M183.1,158.9c-0.3,0-0.6-0.1-0.9-0.4c-0.2-0.2-0.4-0.5-0.4-0.9c0-0.3,0.1-0.6,0.4-0.9
			c0.2-0.2,0.5-0.4,0.9-0.4h12.3c0.3,0,0.6,0.1,0.9,0.4c0.2,0.2,0.4,0.5,0.4,0.9c0,0.3-0.1,0.6-0.4,0.9c-0.2,0.2-0.5,0.4-0.9,0.4
			H183.1z"/>
		<path class="st0" d="M213.7,164.5c-2.5,0.4-4.4,0.6-6,0.5c-1.5-0.1-2.7-0.4-3.4-1.1c-0.6-0.5-1-1-1.2-1.8
			c-0.2-0.7-0.3-1.6-0.3-2.6v-8c0-0.3,0.1-0.6,0.4-0.9c0.2-0.2,0.5-0.4,0.8-0.4c0.3,0,0.6,0.1,0.9,0.4c0.2,0.2,0.4,0.5,0.4,0.9v4.4
			c1.1-0.3,2.2-0.6,3.3-0.9c1.2-0.3,2.2-0.7,3.1-1.1c0.3-0.1,0.6-0.1,0.9,0c0.3,0.1,0.5,0.4,0.6,0.7c0.1,0.3,0.1,0.6,0,0.9
			c-0.1,0.3-0.4,0.5-0.7,0.6c-1.1,0.4-2.3,0.8-3.6,1.1c-1.3,0.4-2.5,0.7-3.7,0.9v1.3c0,0.8,0.1,1.3,0.2,1.7c0.1,0.3,0.3,0.6,0.6,0.8
			c0.3,0.2,0.7,0.4,1.3,0.5c0.6,0.1,1.3,0.1,2.3,0c1-0.1,2.2-0.2,3.7-0.5c0.3-0.1,0.6,0,0.9,0.2s0.4,0.5,0.5,0.8
			c0.1,0.3,0,0.6-0.2,0.9C214.3,164.3,214,164.4,213.7,164.5z M215.9,154.7c-0.2,0.2-0.4,0.3-0.6,0.2c-0.2,0-0.5-0.1-0.6-0.3
			c-0.2-0.2-0.4-0.4-0.6-0.7c-0.3-0.3-0.5-0.5-0.7-0.7c-0.1-0.1-0.2-0.3-0.2-0.5c0-0.2,0.1-0.4,0.2-0.6c0.1-0.1,0.3-0.2,0.5-0.2
			c0.2,0,0.4,0,0.6,0.2c0.2,0.1,0.5,0.3,0.7,0.6c0.3,0.3,0.5,0.5,0.7,0.7c0.2,0.2,0.2,0.4,0.2,0.6
			C216.1,154.3,216,154.5,215.9,154.7z M216.4,152.9c-0.2-0.2-0.4-0.4-0.7-0.6c-0.3-0.2-0.5-0.4-0.7-0.6c-0.1-0.1-0.2-0.3-0.2-0.5
			c0-0.2,0-0.4,0.2-0.6c0.1-0.2,0.3-0.3,0.5-0.3c0.2,0,0.4,0,0.6,0.1c0.2,0.1,0.5,0.3,0.8,0.6c0.3,0.2,0.5,0.5,0.8,0.7
			c0.2,0.2,0.3,0.4,0.3,0.6c0,0.2-0.1,0.4-0.2,0.6c-0.1,0.2-0.3,0.3-0.6,0.3C216.8,153.1,216.6,153,216.4,152.9z"/>
		<path class="st0" d="M222.5,164.7c-0.3,0.1-0.6,0.2-0.9,0c-0.3-0.1-0.6-0.3-0.7-0.6s-0.2-0.6,0-0.9c0.1-0.3,0.3-0.5,0.6-0.7
			c1.9-0.9,3.6-2,5-3.3c1.5-1.3,2.7-2.7,3.6-4.2c0.6-0.9,0.3-1.4-0.9-1.4h-5.4c-0.3,0-0.6-0.1-0.8-0.4c-0.2-0.2-0.4-0.5-0.4-0.9
			c0-0.3,0.1-0.6,0.4-0.9c0.2-0.2,0.5-0.4,0.8-0.4h5.5c1.2,0,2.1,0.2,2.7,0.6c0.6,0.4,1,1,1,1.7c0.1,0.7-0.2,1.6-0.7,2.5
			c-0.3,0.5-0.6,1.1-1,1.6c0.6,0.5,1.2,1.1,1.9,1.6c0.6,0.6,1.2,1.2,1.8,1.7c0.6,0.6,1,1,1.4,1.4c0.2,0.2,0.3,0.5,0.3,0.9
			c0,0.3-0.1,0.6-0.4,0.9c-0.2,0.2-0.5,0.4-0.9,0.3c-0.3,0-0.6-0.1-0.9-0.4c-0.4-0.4-0.8-0.8-1.3-1.4c-0.5-0.6-1.1-1.1-1.7-1.7
			c-0.6-0.6-1.2-1.1-1.8-1.6c-1,1-2.1,2-3.3,2.9C225,163.3,223.8,164.1,222.5,164.7z"/>
	</g>
	<g>
		<path class="st0" d="M53.9,251.4c-1.5,0.1-2.7-0.3-3.6-1c-1-0.7-1.4-1.7-1.4-3c0-1,0.3-1.8,0.9-2.5c0.6-0.7,1.3-1.2,2.3-1.6
			c0.9-0.4,1.9-0.6,2.9-0.6c0.5,0,1,0,1.4,0.1c0.4,0.1,0.8,0.3,1.2,0.5v-1.2c0-0.9-0.2-1.5-0.6-1.7c-0.4-0.3-0.9-0.4-1.7-0.4
			c-0.5,0-1.1,0.1-1.7,0.2c-0.6,0.1-1.1,0.3-1.7,0.5c-0.5,0.2-0.9,0.3-1.3,0.2c-0.3-0.1-0.6-0.3-0.9-0.7c-0.2-0.4-0.3-0.8-0.2-1.1
			c0.1-0.4,0.4-0.7,1-0.9c0.7-0.3,1.4-0.6,2.2-0.8c0.8-0.2,1.6-0.3,2.5-0.3c1.8,0,3.1,0.4,4,1.1s1.3,2,1.3,3.8v6.3
			c0,0.2,0,0.3,0.1,0.5c0,0.1,0.1,0.2,0.1,0.3c0.2,0.2,0.4,0.4,0.6,0.4c0.2,0,0.4,0.1,0.5,0.1c0.2,0,0.2,0.1,0.2,0.3
			c0,0.3-0.1,0.6-0.3,0.9c-0.2,0.2-0.5,0.4-0.9,0.5c-0.4,0.1-0.9,0.1-1.3,0.1c-0.6,0-1-0.1-1.3-0.3s-0.5-0.5-0.7-1
			c-0.5,0.4-1,0.7-1.6,0.9C55.2,251.3,54.5,251.4,53.9,251.4z M53.8,248.7c1.1,0,1.9-0.2,2.6-0.6c0.7-0.4,1-0.9,1-1.6
			c0-0.5-0.3-0.8-0.7-0.9c-0.4-0.2-1-0.2-1.7-0.2c-0.9,0-1.7,0.3-2.3,0.7c-0.6,0.4-0.9,0.9-0.9,1.5
			C51.9,248.3,52.6,248.7,53.8,248.7z"/>
		<path class="st0" d="M74.1,251.3c-0.4,0-0.8-0.1-1.2-0.3c-0.4-0.2-0.7-0.6-0.8-1l-3.9-10.4c-0.2-0.6-0.3-1.1-0.1-1.4
			s0.6-0.5,1.2-0.5c1,0,1.6,0.4,1.9,1.3l2.9,8.2l2.9-8.2c0.3-0.9,0.9-1.3,1.9-1.3c0.5,0,0.9,0.2,1,0.5c0.2,0.3,0.2,0.8-0.1,1.4
			l-3.8,10.4c-0.2,0.5-0.4,0.8-0.8,1.1C74.9,251.2,74.5,251.3,74.1,251.3z"/>
		<path class="st0" d="M93.2,251.5c-2,0-3.6-0.6-4.8-1.8c-1.2-1.2-1.8-3-1.8-5.3c0-1.5,0.3-2.7,0.8-3.8c0.5-1.1,1.3-1.9,2.3-2.5
			c1-0.6,2.1-0.9,3.4-0.9c1.3,0,2.3,0.3,3.2,0.9c0.9,0.6,1.6,1.3,2,2.3s0.7,1.9,0.7,2.9c0,0.7-0.1,1.2-0.4,1.4
			c-0.3,0.2-0.7,0.3-1.2,0.3h-7.7c0.1,1.4,0.4,2.3,1.1,2.9c0.6,0.6,1.5,0.9,2.5,0.9c1.2,0,2.1-0.4,2.7-1.2c0.4-0.4,0.7-0.7,1.1-0.8
			c0.3-0.1,0.7-0.1,1.1,0.2c0.4,0.3,0.6,0.6,0.7,1c0.1,0.4-0.1,0.9-0.5,1.3c-0.6,0.8-1.4,1.3-2.2,1.7
			C95.2,251.4,94.3,251.5,93.2,251.5z M89.9,242.5h6c-0.2-0.9-0.5-1.6-1-2.1c-0.5-0.5-1.1-0.7-1.9-0.7c-0.8,0-1.5,0.2-2.1,0.7
			C90.4,240.9,90,241.6,89.9,242.5z"/>
		<path class="st0" d="M108.6,251.5c-0.6,0-1.1-0.2-1.5-0.6c-0.4-0.4-0.6-0.9-0.6-1.5c0-0.6,0.2-1.1,0.6-1.5
			c0.4-0.4,0.9-0.6,1.5-0.6c0.6,0,1.1,0.2,1.5,0.6c0.4,0.4,0.6,0.9,0.6,1.5c0,0.6-0.2,1.1-0.6,1.5S109.2,251.5,108.6,251.5z"/>
		<path class="st0" d="M125.6,251.5c-1.6,0-2.9-0.7-3.8-2.1v0.6c0,0.5-0.1,0.8-0.4,1c-0.3,0.2-0.7,0.3-1.1,0.3
			c-0.9,0-1.4-0.6-1.4-1.7v-16.9c0-1.1,0.5-1.7,1.6-1.7c1.1,0,1.6,0.6,1.6,1.7v6.1c0.5-0.5,1-0.9,1.6-1.1c0.6-0.3,1.3-0.4,2-0.4
			c1.3,0,2.4,0.3,3.4,0.9c1,0.6,1.8,1.4,2.3,2.5c0.6,1.1,0.9,2.3,0.9,3.8c0,1.5-0.3,2.8-0.9,3.8s-1.3,1.9-2.3,2.5
			C128,251.3,126.9,251.5,125.6,251.5z M125.5,248.7c1,0,1.8-0.4,2.5-1.1c0.7-0.7,1-1.8,1-3.1s-0.3-2.4-1-3.1
			c-0.7-0.7-1.5-1.1-2.5-1.1s-1.8,0.4-2.5,1.1c-0.7,0.7-1,1.8-1,3.1s0.3,2.4,1,3.1C123.7,248.3,124.5,248.7,125.5,248.7z"/>
		<path class="st0" d="M141.6,251.2c-1.1,0-1.6-0.6-1.6-1.7v-16.9c0-1.1,0.5-1.7,1.6-1.7c1.1,0,1.6,0.6,1.6,1.7v16.9
			C143.2,250.7,142.6,251.2,141.6,251.2z"/>
		<path class="st0" d="M156,251.4c-1.5,0.1-2.7-0.3-3.6-1c-1-0.7-1.4-1.7-1.4-3c0-1,0.3-1.8,0.9-2.5c0.6-0.7,1.3-1.2,2.3-1.6
			c0.9-0.4,1.9-0.6,2.9-0.6c0.5,0,1,0,1.4,0.1s0.8,0.3,1.2,0.5v-1.2c0-0.9-0.2-1.5-0.6-1.7c-0.4-0.3-0.9-0.4-1.7-0.4
			c-0.5,0-1.1,0.1-1.7,0.2s-1.1,0.3-1.7,0.5c-0.5,0.2-0.9,0.3-1.3,0.2c-0.4-0.1-0.6-0.3-0.9-0.7c-0.2-0.4-0.3-0.8-0.2-1.1
			c0.1-0.4,0.4-0.7,1-0.9c0.7-0.3,1.4-0.6,2.2-0.8c0.8-0.2,1.6-0.3,2.5-0.3c1.8,0,3.1,0.4,4,1.1s1.3,2,1.3,3.8v6.3
			c0,0.2,0,0.3,0.1,0.5c0,0.1,0.1,0.2,0.1,0.3c0.2,0.2,0.4,0.4,0.6,0.4c0.2,0,0.4,0.1,0.5,0.1c0.2,0,0.2,0.1,0.2,0.3
			c0,0.3-0.1,0.6-0.3,0.9c-0.2,0.2-0.5,0.4-0.9,0.5c-0.4,0.1-0.9,0.1-1.3,0.1c-0.6,0-1-0.1-1.3-0.3c-0.3-0.2-0.5-0.5-0.7-1
			c-0.5,0.4-1,0.7-1.6,0.9C157.3,251.3,156.6,251.4,156,251.4z M155.9,248.7c1.1,0,1.9-0.2,2.6-0.6c0.7-0.4,1-0.9,1-1.6
			c0-0.5-0.3-0.8-0.7-0.9c-0.4-0.2-1-0.2-1.7-0.2c-0.9,0-1.7,0.3-2.3,0.7c-0.6,0.4-0.9,0.9-0.9,1.5
			C154,248.3,154.7,248.7,155.9,248.7z"/>
		<path class="st0" d="M172.9,251.2c-1.1,0-1.6-0.6-1.6-1.7v-10.3c0-1.1,0.5-1.7,1.4-1.7c1,0,1.5,0.2,1.5,0.7l0.1,0.9
			c0.4-0.5,0.9-1,1.5-1.4c0.6-0.4,1.4-0.6,2.2-0.6c1.4,0,2.6,0.5,3.5,1.4c0.9,0.9,1.3,2.2,1.3,4v6.9c0,1.1-0.5,1.7-1.6,1.7
			c-1.1,0-1.6-0.6-1.6-1.7v-6.2c0-1.1-0.2-1.9-0.7-2.4c-0.4-0.5-1-0.8-1.8-0.8c-0.8,0-1.5,0.3-2,0.8c-0.5,0.6-0.8,1.4-0.8,2.5v6.1
			C174.5,250.7,174,251.2,172.9,251.2z"/>
		<path class="st0" d="M197.1,251.5c-1.2,0-2.4-0.3-3.4-0.9c-1-0.6-1.8-1.4-2.4-2.5c-0.6-1.1-0.9-2.3-0.9-3.8c0-1.4,0.3-2.7,0.9-3.8
			c0.6-1.1,1.4-1.9,2.4-2.5c1-0.6,2.1-0.9,3.4-0.9c1.6,0,3,0.5,4.1,1.4c0.5,0.3,0.7,0.7,0.6,1.1c0,0.4-0.3,0.8-0.7,1.1
			c-0.4,0.3-0.8,0.4-1.1,0.4c-0.3,0-0.7-0.2-1.1-0.5c-0.5-0.4-1.1-0.5-1.8-0.5c-1,0-1.8,0.4-2.4,1.1c-0.6,0.7-0.9,1.8-0.9,3.1
			s0.3,2.4,0.9,3.1s1.4,1.1,2.4,1.1c0.7,0,1.3-0.2,1.8-0.5c0.4-0.3,0.8-0.4,1.1-0.5c0.3-0.1,0.7,0,1.1,0.3c0.4,0.3,0.7,0.7,0.7,1.1
			c0.1,0.4-0.1,0.8-0.6,1.1C200.1,251.1,198.7,251.5,197.1,251.5z"/>
		<path class="st0" d="M215.3,251.5c-1.2,0-2.4-0.3-3.4-0.9c-1-0.6-1.8-1.4-2.4-2.5c-0.6-1.1-0.9-2.3-0.9-3.8c0-1.4,0.3-2.7,0.9-3.8
			s1.4-1.9,2.4-2.5c1-0.6,2.1-0.9,3.4-0.9c1.3,0,2.4,0.3,3.4,0.9c1,0.6,1.8,1.4,2.3,2.5c0.6,1.1,0.9,2.3,0.9,3.8
			c0,1.4-0.3,2.7-0.9,3.8c-0.6,1.1-1.3,1.9-2.3,2.5C217.8,251.3,216.6,251.5,215.3,251.5z M215.3,248.7c1,0,1.8-0.4,2.5-1.1
			c0.6-0.7,0.9-1.8,0.9-3.1s-0.3-2.4-0.9-3.1c-0.6-0.7-1.5-1.1-2.5-1.1c-1,0-1.8,0.4-2.4,1.1c-0.6,0.7-0.9,1.8-0.9,3.1
			s0.3,2.4,0.9,3.1C213.5,248.3,214.4,248.7,215.3,248.7z"/>
	</g>
	<g>
		<path class="st0" d="M7.9,192.1l-0.5-8.5h31.2v7.5c-1.4,11.1-10.3,10.7-10.3,10.7l-1.5-0.1c0,0,3.8-4.7,3.5-10.4L7.9,192.1z
			 M13.1,219.1c0,0,4.6-5.7,4-21.6l8.5,0.3c0.7,22.3-10.2,21.3-10.2,21.3L13.1,219.1z"/>
		<path class="st0" d="M47.3,205.5l14.9-15.7l23.3,20l-5.9,6.2l-16.7-15.5l-9.1,10.6L47.3,205.5z"/>
		<path class="st0" d="M128.6,184.8h1c-1,29.7-18.5,38.1-24.7,32.9l-2-1.5c9.6-2.1,16.6-11.5,17.1-24l-20,0.8l-0.5-8.2h24.9H128.6z"
			/>
		<path class="st0" d="M146.8,193.6h30c0,18.1-8.7,27.9-18.1,25l-1-1c4.9-3.8,8.6-8.1,10-16.3l-20.4,0.9L146.8,193.6z M173.3,182.1
			v7.4l-22.5,1.1l-0.5-8.5H173.3z"/>
		<path class="st0" d="M207.4,192.7l-5,5.5l-8.8-6.5l5.4-6.7L207.4,192.7z M223,195.5c1.5,4.6-0.2,17.6-25.4,22.1l-2.3-8.8
			c20.6-2.9,26.6-15.7,26.6-15.7L223,195.5z"/>
		<path class="st0" d="M236.8,217.2l-0.5-8.5h18.3l-0.3-13.9l-17.5,0.8l-0.5-8.5h26.3l-0.4,29.2L236.8,217.2z"/>
	</g>
	<circle class="st0" cx="74.4" cy="191.2" r="3.6"/>
	<circle class="st0" cx="82.8" cy="190.4" r="3.6"/>
	
		<ellipse transform="matrix(0.8959 -0.4443 0.4443 0.8959 -66.5345 75.2363)" class="st0" cx="127.3" cy="179.6" rx="3.6" ry="3.6"/>
	<ellipse transform="matrix(0.8959 -0.4443 0.4443 0.8959 -67.231 79.0203)" class="st0" cx="135" cy="182.9" rx="3.6" ry="3.6"/>
</g>
<g>
	<path class="st0" d="M169,63.7c-0.3,0-0.6-0.2-0.9-0.4c-0.6-0.6-0.5-1.5,0-2c16.9-16.7,5.4-32,4.8-32.8c-0.5-0.6-0.3-1.5,0.3-2
		c0.6-0.5,1.5-0.3,2,0.3c0.2,0.2,13.6,18.1-5.1,36.5C169.9,63.6,169.4,63.7,169,63.7z"/>
	<path class="st1" d="M108.8,58.2l-15.6,6.7l-14.9-4.4L92,97.8c0,0,14.9-8.5,25.6-14.1c-4.9,9.7-8.2,16.8-8.2,16.8l6.5,20.6
		l21.3-9.7c0,0,17.9-20.3,18.8-24.9c0.9-4.6,6.2-29,6.2-29s14.2-12.2,18.2-14.5c-12.6-11.4-24.9-12.4-31.1-4.4
		c-12.3-7.9-23.6-11.2-35.2-8.7s-32.1,6-32.1,6l14.1,17.6L108.8,58.2z"/>
	<path class="st2" d="M108.8,58.2l-15.6,6.7l-14.9-4.4L92,97.8c0,0,14.9-8.5,25.6-14.1c-4.9,9.7-8.2,16.8-8.2,16.8l6.5,20.6
		l21.3-9.7c0,0,17.9-20.3,18.8-24.9c0.9-4.6,6.2-29,6.2-29s14.2-12.2,18.2-14.5c-12.6-11.4-24.9-12.4-31.1-4.4
		c-12.3-7.9-23.6-11.2-35.2-8.7s-32.1,6-32.1,6l14.1,17.6L108.8,58.2z"/>
	<circle class="st0" cx="164.8" cy="41" r="1.8"/>
	<g>
		<path class="st0" d="M173.6,10.8c0.3-1.7-0.9-3.3-2.6-3.6c-1-0.2-2,0.2-2.7,0.9c-0.5-0.9-1.3-1.5-2.3-1.6
			c-1.7-0.3-3.3,0.9-3.6,2.6c-0.1,0.9,0.1,1.8,0.7,2.4l3,4.1l0,0c0.2,0.3,0.6,0.5,1,0.6c0.5,0.1,0.9,0,1.2-0.3l0,0l4.1-3.1
			C173,12.5,173.5,11.7,173.6,10.8z"/>
		<path class="st0" d="M160.1,24.4c-0.3,1.7,0.9,3.3,2.6,3.6c1,0.2,2-0.2,2.7-0.9c0.5,0.9,1.3,1.5,2.3,1.6c1.7,0.3,3.3-0.9,3.6-2.6
			c0.1-0.9-0.1-1.8-0.7-2.4l-3-4.1l0,0c-0.2-0.3-0.6-0.5-1-0.6c-0.5-0.1-0.9,0-1.2,0.3l0,0l-4.1,3.1
			C160.8,22.7,160.2,23.5,160.1,24.4z"/>
		<path class="st0" d="M174.3,24.5c1.7,0.3,3.3-0.9,3.6-2.6c0.2-1-0.2-2-0.9-2.7c0.9-0.5,1.5-1.3,1.6-2.3c0.3-1.7-0.9-3.3-2.6-3.6
			c-0.9-0.1-1.8,0.1-2.4,0.7l-4.1,3l0,0c-0.3,0.2-0.5,0.6-0.6,1c-0.1,0.5,0,0.9,0.3,1.2l0,0l3.1,4.1
			C172.7,23.9,173.4,24.4,174.3,24.5z"/>
		<path class="st0" d="M159.5,10.8c-1.7-0.3-3.3,0.9-3.6,2.6c-0.2,1,0.2,2,0.9,2.7c-0.9,0.5-1.5,1.3-1.6,2.3
			c-0.3,1.7,0.9,3.3,2.6,3.6c0.9,0.1,1.8-0.1,2.4-0.7l4.1-3l0,0c0.3-0.2,0.5-0.6,0.6-1c0.1-0.5,0-0.9-0.3-1.2l0,0l-3.1-4.1
			C161.2,11.5,160.4,11,159.5,10.8z"/>
	</g>
</g>
</svg>
