<?xml version="1.0" encoding="utf-8"?>
<!-- Generator: Adobe Illustrator 26.5.0, SVG Export Plug-In . SVG Version: 6.00 Build 0)  -->
<svg version="1.1" id="レイヤー_1" xmlns="http://www.w3.org/2000/svg" xmlns:xlink="http://www.w3.org/1999/xlink" x="0px"
	 y="0px" width="525px" height="144px" viewBox="0 0 525 144" style="enable-background:new 0 0 525 144;" xml:space="preserve">
<style type="text/css">
	.st0{fill:#FFFFFF;}
	.st1{fill:#4AC9A4;}
</style>
<g>
	<path class="st0" d="M495.6,144H29.4C13.1,144,0,130.9,0,114.6V29.4C0,13.1,13.1,0,29.4,0h466.3C511.9,0,525,13.1,525,29.4v85.3
		C525,130.9,511.9,144,495.6,144z"/>
	<g>
		<g>
			<g>
				<path class="st1" d="M154.1,64.8c-0.5,0.3-1.1,0.4-1.7,0.3c-0.6-0.1-1.1-0.5-1.4-1c-0.3-0.5-0.4-1.1-0.3-1.7
					c0.1-0.6,0.5-1.1,1-1.4c2.2-1.4,4.3-2.9,6.3-4.6c2-1.7,3.8-3.5,5.4-5.4c-0.9-0.6-1.8-1.2-2.6-1.7c-0.9-0.5-1.7-1-2.4-1.3
					c-0.6-0.3-0.9-0.7-1.1-1.3c-0.2-0.6-0.2-1.1,0.1-1.7c0.3-0.6,0.7-0.9,1.3-1.1c0.6-0.2,1.2-0.2,1.7,0.1c0.9,0.4,1.8,0.9,2.8,1.5
					c1,0.6,2,1.3,3,2c0.8-1.1,1.5-2.2,2.1-3.3c0.7-1.1,1.3-2.3,1.8-3.4c0.3-0.6,0.7-0.9,1.3-1.2c0.6-0.2,1.1-0.2,1.7,0.1
					c0.6,0.2,0.9,0.7,1.2,1.2c0.2,0.6,0.2,1.2-0.1,1.7c-1.2,2.5-2.7,5-4.5,7.5c1,0.8,2,1.6,2.8,2.4c0.9,0.8,1.6,1.5,2.2,2.1
					c0.4,0.5,0.6,1,0.6,1.6c0,0.6-0.2,1.1-0.7,1.6c-0.5,0.4-1,0.6-1.6,0.6c-0.6,0-1.1-0.3-1.5-0.7c-0.6-0.6-1.3-1.3-2.1-2
					c-0.8-0.7-1.6-1.4-2.5-2.1c-1.8,2.1-3.8,4.2-6,6.1C158.7,61.7,156.4,63.4,154.1,64.8z"/>
				<path class="st1" d="M185.5,54.1c-0.6,0-1.1-0.2-1.6-0.7c-0.4-0.4-0.7-1-0.7-1.6c0-0.6,0.2-1.2,0.7-1.6c0.4-0.4,1-0.6,1.6-0.6
					h22.4c0.6,0,1.2,0.2,1.6,0.6s0.6,1,0.6,1.6c0,0.6-0.2,1.1-0.6,1.6s-1,0.7-1.6,0.7H185.5z"/>
				<path class="st1" d="M215.9,63.1c-0.6,0.2-1.1,0.3-1.7,0.1c-0.6-0.2-1-0.6-1.3-1.1c-0.2-0.6-0.3-1.1-0.1-1.7
					c0.2-0.6,0.6-1,1.1-1.2c1.9-0.9,3.5-2,4.6-3.3c1.1-1.3,1.9-2.8,2.4-4.5c0.5-1.7,0.7-3.5,0.7-5.4c0-0.6,0.2-1.2,0.6-1.6
					s0.9-0.6,1.5-0.6c0.6,0,1.1,0.2,1.6,0.6c0.4,0.4,0.6,1,0.6,1.6c0,4.1-0.9,7.7-2.7,10.6C221.7,59.4,219.2,61.6,215.9,63.1z
					 M239.5,60.8c-2.1,0.8-3.9,1.1-5.5,1c-1.6-0.1-2.8-0.7-3.7-1.7c-0.9-1-1.3-2.6-1.3-4.6V44c0-0.6,0.2-1.2,0.7-1.6
					c0.4-0.4,1-0.6,1.6-0.6c0.6,0,1.1,0.2,1.6,0.6c0.4,0.4,0.6,1,0.6,1.6v10.8c0,2.3,1.4,2.9,4.1,1.9c1.1-0.4,2.3-0.9,3.5-1.4
					c1.3-0.6,2.4-1.1,3.4-1.5c0.6-0.3,1.1-0.3,1.7-0.1c0.6,0.2,1,0.5,1.3,1.1c0.3,0.5,0.3,1.1,0.2,1.7c-0.2,0.6-0.5,1-1.1,1.3
					c-1.1,0.5-2.3,1.1-3.6,1.6C241.8,59.9,240.6,60.4,239.5,60.8z"/>
				<path class="st1" d="M255.6,66c-0.6,0.2-1.1,0.2-1.7,0c-0.6-0.2-1-0.6-1.3-1.2c-0.2-0.6-0.3-1.1,0-1.7c0.2-0.6,0.6-1,1.2-1.2
					c3.8-1.7,6.9-3.7,9.5-6.1c2.6-2.4,4.5-4.9,5.7-7.7c0.5-1.2,0.6-2.1,0.2-2.7c-0.4-0.6-1.2-0.9-2.7-0.9h-13.6
					c-0.6,0-1.1-0.2-1.6-0.6c-0.4-0.4-0.7-0.9-0.7-1.5c0-0.6,0.2-1.2,0.7-1.6c0.4-0.4,1-0.6,1.6-0.6h13.8c2.2,0,3.9,0.4,5.1,1.2
					c1.2,0.8,1.9,1.9,2.2,3.3c0.2,1.4-0.1,3.1-0.9,5c-1.4,3.4-3.6,6.5-6.6,9.3C263.5,61.7,259.9,64.1,255.6,66z"/>
				<path class="st1" d="M293.2,67.4c-0.5,0-1-0.2-1.4-0.6c-0.4-0.4-0.6-0.8-0.6-1.4c0-0.6,0.2-1,0.6-1.4c0.4-0.4,0.8-0.6,1.4-0.6
					c1,0,1.6-0.1,1.9-0.4c0.3-0.3,0.4-0.8,0.4-1.5c0-0.6-0.1-1.2-0.1-2c0-0.8-0.1-1.6-0.1-2.5c-1,1-2.1,2-3.3,3
					c-1.2,1-2.3,2-3.5,2.9c-1.2,0.9-2.3,1.7-3.4,2.4c-0.5,0.3-1,0.3-1.5,0.2s-0.9-0.5-1.2-0.9c-0.2-0.5-0.3-1-0.1-1.5
					s0.4-0.9,0.9-1.2c0.9-0.6,2-1.3,3.1-2.1c1.1-0.8,2.3-1.7,3.5-2.7s2.3-2,3.4-3h-8.3c-0.5,0-0.9-0.2-1.3-0.5
					c-0.4-0.4-0.6-0.8-0.6-1.3c0-0.5,0.2-1,0.6-1.3c0.4-0.4,0.8-0.5,1.3-0.5H295c0-0.7,0-1.4-0.1-1.9c0-0.6,0-1,0-1.2
					c0-0.6,0.1-1,0.5-1.4c0.3-0.4,0.8-0.6,1.3-0.6c0.6,0,1,0.1,1.4,0.5c0.4,0.4,0.6,0.8,0.6,1.4c0,0.3,0,0.7,0.1,1.2
					c0,0.6,0,1.2,0.1,2h4.1c0.5,0,1,0.2,1.3,0.5c0.4,0.4,0.5,0.8,0.5,1.3c0,0.5-0.2,1-0.5,1.3c-0.4,0.4-0.8,0.5-1.3,0.5h-4
					c0.1,1.4,0.1,2.8,0.2,4.1c0.1,1.3,0.1,2.4,0.1,3.2c0.1,2.1-0.3,3.6-1.2,4.5C297,67,295.4,67.4,293.2,67.4z"/>
				<path class="st1" d="M315.7,54.1c-0.6,0-1.1-0.2-1.6-0.7c-0.4-0.4-0.7-1-0.7-1.6c0-0.6,0.2-1.2,0.7-1.6c0.4-0.4,1-0.6,1.6-0.6
					h22.4c0.6,0,1.2,0.2,1.6,0.6s0.6,1,0.6,1.6c0,0.6-0.2,1.1-0.6,1.6s-1,0.7-1.6,0.7H315.7z"/>
				<path class="st1" d="M372.7,64.3c-0.5,0.3-1.1,0.3-1.7,0.1c-0.6-0.2-1-0.6-1.4-1.1c-0.2-0.4-0.6-0.9-1-1.5
					c-0.4-0.6-0.9-1.2-1.3-1.9c-1.4,0.2-3,0.5-4.8,0.7c-1.8,0.3-3.6,0.5-5.5,0.7c-1.9,0.2-3.8,0.4-5.5,0.6c-1.8,0.2-3.3,0.3-4.7,0.4
					c-0.6,0-1.1-0.1-1.6-0.5c-0.5-0.4-0.7-0.9-0.8-1.5c0-0.6,0.2-1.2,0.6-1.6c0.4-0.5,0.9-0.7,1.5-0.7c0.4,0,0.8-0.1,1.2-0.1
					c0.4,0,0.8,0,1.3-0.1c0.7-1.1,1.5-2.3,2.3-3.7c0.8-1.4,1.6-2.9,2.4-4.4c0.8-1.5,1.5-3,2.1-4.4c0.6-1.4,1.2-2.6,1.6-3.6
					c0.2-0.6,0.6-1,1.2-1.3c0.6-0.3,1.1-0.3,1.7-0.1c0.6,0.2,1,0.6,1.3,1.2c0.3,0.6,0.3,1.1,0.1,1.7c-0.5,1.2-1.2,2.7-2,4.3
					s-1.7,3.3-2.6,5c-0.9,1.7-1.9,3.3-2.8,4.8c1.8-0.2,3.6-0.3,5.4-0.5c1.8-0.2,3.5-0.4,5-0.6c-0.5-0.6-1-1.2-1.5-1.8
					c-0.5-0.6-0.9-1-1.3-1.4c-0.4-0.5-0.6-1-0.6-1.6c0-0.6,0.2-1.1,0.7-1.5c0.5-0.4,1-0.6,1.6-0.6c0.6,0,1.1,0.3,1.5,0.7
					c0.6,0.6,1.3,1.4,2.2,2.4c0.8,1,1.6,2,2.5,3.1c0.9,1.1,1.6,2.1,2.4,3.1c0.7,1,1.3,1.8,1.7,2.5c0.3,0.5,0.4,1.1,0.2,1.7
					C373.6,63.5,373.2,64,372.7,64.3z"/>
				<path class="st1" d="M390.3,66.3c-0.6-0.1-1.1-0.3-1.4-0.8c-0.4-0.5-0.5-1-0.4-1.6c0.1-0.6,0.4-1.1,0.8-1.4
					c0.5-0.4,1-0.5,1.6-0.4c0.8,0.1,1.4,0.1,2,0.1c0.6-0.1,1.1-0.3,1.5-0.7c0.4-0.4,0.8-1.1,1.2-2.1c0.3-1,0.6-2.3,0.9-4.1
					c0.2-1.5,0.2-2.7,0-3.5c-0.2-0.9-0.6-1.4-1.4-1.8c-0.7-0.3-1.8-0.4-3.2-0.3c-0.6,2-1.3,3.9-2.1,5.9s-1.7,3.8-2.6,5.6
					c-1,1.8-2,3.4-3.1,4.8c-0.4,0.5-0.8,0.7-1.4,0.8c-0.6,0.1-1.1-0.1-1.6-0.4c-0.5-0.4-0.7-0.9-0.8-1.5c-0.1-0.6,0.1-1.1,0.5-1.6
					c1.4-1.7,2.7-3.8,3.9-6.1s2.1-4.7,2.9-7.2c-0.7,0.1-1.5,0.2-2.3,0.3c-0.8,0.1-1.6,0.2-2.3,0.2c-0.6,0-1.1-0.1-1.6-0.5
					c-0.5-0.4-0.7-0.8-0.8-1.4c0-0.6,0.1-1.1,0.5-1.6s0.8-0.7,1.4-0.8c1-0.1,2.1-0.2,3.1-0.3c1.1-0.1,2.1-0.1,3.1-0.2
					c0.5-2.2,0.8-4.3,0.9-6.2c0-0.6,0.3-1.1,0.7-1.5c0.4-0.4,0.9-0.6,1.5-0.5c0.6,0,1.1,0.3,1.5,0.7s0.6,1,0.5,1.6
					c-0.1,0.9-0.2,1.8-0.3,2.8c-0.2,1-0.3,1.9-0.6,3c3.3,0,5.5,0.9,6.7,2.6c1.2,1.7,1.5,4.3,1,7.7c-0.4,3-1,5.3-1.9,6.9
					c-0.9,1.6-2,2.7-3.3,3.3C394,66.4,392.3,66.6,390.3,66.3z M410.5,55.7c-0.5,0.3-1.1,0.3-1.6,0.2c-0.6-0.2-1-0.5-1.3-1
					c-0.4-0.8-0.9-1.6-1.5-2.4c-0.6-0.9-1.3-1.7-1.9-2.5c-0.7-0.8-1.3-1.5-1.9-2.1c-0.4-0.4-0.7-0.9-0.7-1.5c0-0.6,0.2-1.1,0.6-1.5
					c0.4-0.4,0.9-0.7,1.5-0.7c0.6,0,1.1,0.2,1.5,0.6c0.8,0.7,1.5,1.5,2.3,2.5c0.8,0.9,1.5,1.9,2.2,2.8c0.7,1,1.3,1.9,1.7,2.7
					c0.3,0.5,0.4,1.1,0.2,1.7C411.4,55,411,55.4,410.5,55.7z"/>
				<path class="st1" d="M426.7,66.7c-0.6,0-1.1-0.2-1.5-0.6c-0.4-0.4-0.6-0.9-0.7-1.5c0-0.6,0.2-1.1,0.6-1.5
					c0.4-0.4,0.9-0.6,1.5-0.7c6.7-0.1,10.1-2,10.1-5.8c0-1.2-0.4-2.2-1.3-2.9c-0.8-0.7-2-1-3.3-1c-1.5,0-3.1,0.4-4.8,1.1
					c-1.6,0.8-3.1,1.9-4.5,3.4c-0.3,0.4-0.7,0.6-1.2,0.7c-0.5,0.1-0.9,0-1.4-0.2c-0.4-0.2-0.7-0.5-0.9-0.9c-0.2-0.4-0.3-0.9-0.2-1.3
					c0.2-1,0.4-2.1,0.6-3.3c0.2-1.2,0.4-2.4,0.7-3.6c0.2-1.2,0.5-2.3,0.7-3.4c0.1-0.6,0.4-1,1-1.3c0.5-0.3,1.1-0.4,1.6-0.2
					c0.6,0.1,1,0.5,1.3,1c0.3,0.5,0.4,1.1,0.3,1.6c-0.2,0.7-0.4,1.4-0.6,2.3c-0.2,0.9-0.5,1.8-0.7,2.8c2.8-1.9,5.5-2.8,8.2-2.8
					c1.8,0,3.3,0.3,4.6,1c1.3,0.7,2.3,1.6,3.1,2.8c0.7,1.2,1.1,2.6,1.1,4.2c0,3-1.2,5.4-3.5,7.2C435.2,65.7,431.6,66.7,426.7,66.7z
					 M432.5,44.2c-0.8-0.4-1.6-0.8-2.6-1.2c-1-0.4-1.9-0.9-2.9-1.3c-1-0.4-1.8-0.8-2.6-1.1c-0.5-0.2-0.9-0.6-1.1-1.2
					c-0.2-0.6-0.2-1.1,0.1-1.7c0.3-0.6,0.7-0.9,1.2-1.1c0.6-0.2,1.1-0.2,1.7,0.1c0.8,0.3,1.6,0.7,2.6,1.1c0.9,0.4,1.9,0.8,2.8,1.2
					c0.9,0.4,1.8,0.8,2.6,1.2c0.5,0.3,0.9,0.7,1.1,1.2c0.2,0.5,0.2,1.1,0,1.6c-0.2,0.5-0.6,0.9-1.2,1.2
					C433.6,44.4,433,44.4,432.5,44.2z"/>
				<path class="st1" d="M167.7,106.8c-0.6,0-1.1-0.2-1.5-0.7c-0.4-0.4-0.6-0.9-0.6-1.5c0-0.6,0.2-1.1,0.6-1.6s0.9-0.6,1.5-0.6
					c2,0,3.5-0.3,4.5-0.9c1-0.6,1.5-1.6,1.5-3c0-1.3-0.6-2.2-1.7-2.9c-1.1-0.7-2.7-1-4.8-1c-0.8,0-1.6,0-2.3,0.1
					c-0.7,0.1-1.5,0.2-2.2,0.3v4.5c0,2.5-0.6,4.3-1.7,5.5c-1.1,1.2-2.8,1.7-4.9,1.7c-1.7,0-3.2-0.4-4.3-1.3
					c-1.2-0.9-1.7-2.3-1.7-4.2c0-2,0.7-3.8,2.2-5.4c1.5-1.6,3.5-2.8,6.1-3.7v-5.4c-1,0.1-2,0.2-3,0.2c-1,0-1.9,0.1-2.7,0.1
					c-0.6,0-1.1-0.2-1.5-0.6c-0.4-0.4-0.6-0.9-0.6-1.5s0.2-1.1,0.6-1.5c0.4-0.4,0.9-0.6,1.5-0.6c0.8,0,1.8-0.1,2.7-0.1
					c1,0,2-0.1,3-0.2v-4.4c0-0.6,0.2-1.1,0.6-1.6c0.4-0.4,0.9-0.6,1.5-0.6c0.6,0,1.1,0.2,1.5,0.6c0.4,0.4,0.6,0.9,0.6,1.6v4.1
					c0.6,0,1.1-0.1,1.5-0.2c0.5-0.1,0.9-0.1,1.4-0.2c0.6-0.1,1.1,0,1.6,0.3c0.5,0.3,0.8,0.8,0.9,1.4c0.1,0.6,0,1.1-0.4,1.5
					c-0.4,0.4-0.8,0.7-1.4,0.8c-0.5,0.1-1.1,0.2-1.7,0.3c-0.6,0.1-1.3,0.2-1.9,0.3v4.8c1.4-0.2,3-0.3,4.6-0.3c2.2,0,4.1,0.3,5.7,0.9
					c1.6,0.6,2.8,1.5,3.7,2.7c0.9,1.2,1.3,2.5,1.3,4.2c0,2.7-0.9,4.7-2.8,6.2C173.6,106.2,171,106.9,167.7,106.8z M156.3,102.6
					c0.7,0,1.3-0.2,1.7-0.6c0.4-0.4,0.6-1.2,0.6-2.5v-3.2c-1.3,0.6-2.3,1.3-3,2.1c-0.7,0.8-1.1,1.7-1.1,2.6
					C154.6,102.1,155.1,102.6,156.3,102.6z M175.6,89.3c-0.4-0.3-0.9-0.6-1.4-1c-0.6-0.3-1.1-0.7-1.7-1c-0.6-0.3-1-0.6-1.4-0.8
					c-0.5-0.3-0.9-0.7-1.1-1.2c-0.2-0.6-0.2-1.1,0-1.6c0.3-0.6,0.7-0.9,1.3-1.1c0.6-0.2,1.1-0.1,1.6,0.1c0.5,0.2,1.1,0.6,1.7,0.9
					c0.6,0.4,1.3,0.8,1.9,1.2c0.6,0.4,1.2,0.8,1.6,1.1c0.5,0.3,0.8,0.8,0.8,1.4s-0.1,1.1-0.4,1.6c-0.4,0.5-0.8,0.7-1.4,0.8
					C176.6,89.7,176.1,89.6,175.6,89.3z"/>
				<path class="st1" d="M187.1,108.4c-0.6,0-1-0.2-1.4-0.6s-0.6-0.9-0.6-1.5V81.1c0-2,0.5-3.4,1.4-4.2c0.9-0.8,2.4-1.2,4.5-1.2h2.4
					c2.1,0,3.6,0.4,4.5,1.2c0.9,0.8,1.3,2.2,1.3,4.2V83c0,1.3-0.2,2.3-0.6,3.1c-0.4,0.7-1,1.2-1.9,1.5c-0.9,0.3-2,0.4-3.4,0.4h-4.1
					v18.3c0,0.6-0.2,1.1-0.6,1.5C188.2,108.2,187.7,108.4,187.1,108.4z M189.2,84.8h3.7c0.8,0,1.4-0.1,1.7-0.3
					c0.3-0.2,0.5-0.6,0.6-1.3h-6V84.8z M189.2,80.5h6c0-0.6-0.2-1-0.5-1.2c-0.3-0.2-0.9-0.3-1.7-0.3h-1.4c-0.8,0-1.4,0.1-1.7,0.3
					C189.5,79.5,189.3,79.9,189.2,80.5z M200.3,102.4c-1.8,0-3.1-0.2-4.1-0.6c-1-0.4-1.7-1-2.1-1.9c-0.4-0.9-0.6-2-0.6-3.3
					c0-1.4,0.2-2.5,0.6-3.3c0.4-0.8,1.1-1.5,2.1-1.8c1-0.4,2.4-0.6,4.1-0.6c1.8,0,3.1,0.2,4.1,0.6c1,0.4,1.7,1,2.1,1.8
					c0.4,0.8,0.6,1.9,0.6,3.3c0,1.3-0.2,2.4-0.6,3.3c-0.4,0.9-1.1,1.5-2.1,1.9C203.4,102.2,202.1,102.4,200.3,102.4z M200.3,99
					c1.1,0,1.8-0.2,2.1-0.5c0.4-0.3,0.6-0.9,0.6-1.9c0-0.9-0.2-1.5-0.6-1.8c-0.4-0.3-1.1-0.5-2.1-0.5c-1.1,0-1.8,0.2-2.2,0.5
					c-0.4,0.3-0.6,0.9-0.6,1.8c0,0.9,0.2,1.6,0.6,1.9C198.5,98.8,199.2,99,200.3,99z M210.3,108.2c-0.7,0-1.2-0.2-1.6-0.6
					c-0.4-0.4-0.6-0.9-0.7-1.5c-0.1-0.6,0.1-1.1,0.4-1.5c0.4-0.4,0.8-0.7,1.4-0.8c0.9-0.1,1.5-0.3,1.7-0.5c0.2-0.2,0.3-0.7,0.3-1.4
					V88h-4.3c-1.4,0-2.5-0.1-3.4-0.4s-1.5-0.8-1.9-1.5c-0.4-0.7-0.6-1.8-0.6-3.1v-1.8c0-2,0.5-3.4,1.4-4.2c0.9-0.8,2.4-1.2,4.5-1.2
					h2.5c2.1,0,3.6,0.4,4.5,1.2c0.9,0.8,1.4,2.2,1.4,4.2v21.8c0,1.8-0.4,3.2-1.3,4C213.7,107.8,212.3,108.2,210.3,108.2z
					 M205.7,80.5h6.2c-0.1-0.6-0.3-1-0.6-1.2c-0.3-0.2-0.9-0.3-1.7-0.3H208c-0.8,0-1.4,0.1-1.7,0.3
					C205.9,79.5,205.7,79.9,205.7,80.5z M208,84.8h3.9v-1.6h-6.2c0,0.7,0.2,1.1,0.6,1.3C206.5,84.7,207.1,84.8,208,84.8z"/>
				<path class="st1" d="M224.2,91c-0.6,0.4-1.2,0.5-1.8,0.5c-0.6-0.1-1.1-0.4-1.5-0.9s-0.4-1.1-0.3-1.7c0.2-0.6,0.6-1,1.1-1.3
					c1.4-0.8,2.9-1.8,4.5-3c1.5-1.2,3-2.4,4.4-3.6c1.4-1.2,2.6-2.4,3.6-3.5c1.3-1.4,2.6-2.1,3.8-2.1c1.2,0,2.6,0.7,4,2.1
					c1,1,2.2,2.1,3.6,3.2c1.4,1.1,2.8,2.2,4.3,3.3c1.5,1.1,3.1,2.1,4.6,2.9c0.5,0.3,0.9,0.8,1.1,1.4c0.2,0.6,0.1,1.2-0.3,1.8
					c-0.4,0.6-0.9,0.9-1.5,1c-0.6,0.1-1.3-0.1-1.9-0.5c-1.5-1-3-2-4.5-3.2c-1.6-1.2-3-2.4-4.5-3.6c-1.4-1.2-2.7-2.4-3.7-3.6
					c-0.3-0.4-0.7-0.6-1-0.6c-0.3,0-0.6,0.2-1,0.6c-1,1.1-2.2,2.3-3.5,3.5c-1.3,1.2-2.6,2.4-4,3.5c0.2-0.1,0.5-0.1,0.8-0.1h15.3
					c0.6,0,1.1,0.2,1.4,0.6c0.3,0.4,0.5,0.9,0.5,1.4c0,0.5-0.2,1-0.5,1.4c-0.3,0.4-0.8,0.6-1.4,0.6h-15.3c-0.6,0-1.1-0.2-1.4-0.6
					c-0.3-0.4-0.5-0.8-0.5-1.4c0-0.5,0.1-0.9,0.4-1.2c-0.8,0.6-1.6,1.2-2.4,1.7C225.8,90,225,90.5,224.2,91z M235.4,107.6
					c-1.9,0-3.5-0.2-4.7-0.6c-1.2-0.4-2-1.2-2.5-2.2c-0.5-1-0.8-2.4-0.8-4.1c0-1.8,0.3-3.1,0.8-4.1c0.5-1,1.3-1.7,2.5-2.1
					c1.2-0.4,2.7-0.6,4.7-0.6h5.4c2,0,3.5,0.2,4.7,0.6c1.2,0.4,2,1.1,2.5,2.1c0.5,1,0.8,2.4,0.8,4.1c0,1.7-0.3,3.1-0.8,4.1
					c-0.5,1-1.3,1.7-2.5,2.2c-1.2,0.4-2.7,0.6-4.7,0.6H235.4z M235.5,103.8h5.3c1.3,0,2.3-0.2,2.8-0.6c0.5-0.4,0.7-1.2,0.7-2.5
					c0-1.2-0.2-2.1-0.7-2.5c-0.5-0.4-1.4-0.6-2.8-0.6h-5.3c-1.3,0-2.3,0.2-2.8,0.6c-0.5,0.4-0.7,1.2-0.7,2.5c0,1.2,0.2,2.1,0.7,2.5
					C233.2,103.6,234.1,103.8,235.5,103.8z"/>
				<path class="st1" d="M286,105.3c-3.3,0.4-6.2,0.4-8.6,0.1c-2.4-0.3-4.4-1.2-6-2.5c-1-1-1.8-2.1-2.3-3.5s-0.8-3.1-0.8-5.1v-3.3
					c-1.2,0.1-2.2,0.3-3.3,0.5c-1,0.2-2,0.3-2.9,0.5c-0.6,0.1-1.1,0-1.6-0.4c-0.5-0.3-0.8-0.8-0.9-1.4c-0.1-0.6,0-1.1,0.3-1.6
					c0.3-0.5,0.8-0.8,1.4-0.9c1-0.1,2.1-0.3,3.2-0.5c1.2-0.2,2.4-0.3,3.7-0.5v-6c0-0.6,0.2-1.1,0.6-1.5c0.4-0.4,0.9-0.6,1.5-0.6
					c0.6,0,1.1,0.2,1.5,0.6c0.4,0.4,0.6,0.9,0.6,1.5v5.6c1.2-0.1,2.5-0.2,3.8-0.3c1.3-0.1,2.5-0.2,3.8-0.3c0.1-1,0.2-2,0.3-3
					c0.1-1,0.1-1.9,0.1-2.7c0-0.6,0.2-1.1,0.7-1.5c0.4-0.4,0.9-0.6,1.5-0.6c0.6,0,1.1,0.2,1.5,0.7c0.4,0.4,0.6,0.9,0.6,1.5
					c0,0.8-0.1,1.7-0.1,2.6c-0.1,0.9-0.1,1.8-0.2,2.8c1.1-0.1,2.1-0.1,3.1-0.2c1,0,2-0.1,2.9-0.1c0.6,0,1.1,0.2,1.5,0.6
					c0.4,0.4,0.6,0.9,0.6,1.5s-0.2,1.1-0.6,1.5c-0.4,0.4-0.9,0.6-1.5,0.6c-2,0-4.1,0-6.4,0.1c-0.2,1.2-0.4,2.3-0.6,3.4
					c-0.2,1.1-0.4,2.1-0.6,3c-0.1,0.6-0.5,1-1,1.3c-0.5,0.3-1,0.4-1.6,0.3c-0.6-0.1-1.1-0.5-1.3-1c-0.3-0.5-0.4-1-0.3-1.6
					c0.2-0.8,0.4-1.6,0.5-2.5c0.2-0.9,0.3-1.8,0.4-2.7c-1.2,0.1-2.4,0.2-3.5,0.3c-1.2,0.1-2.4,0.2-3.5,0.3v3.8
					c0,1.3,0.1,2.5,0.4,3.3c0.3,0.9,0.7,1.6,1.3,2.1c0.9,0.8,2.2,1.3,4,1.5s4.1,0.1,7.2-0.2c0.6-0.1,1.1,0.1,1.6,0.5
					c0.5,0.4,0.7,0.9,0.8,1.5c0.1,0.6-0.1,1.1-0.5,1.6C287.2,105,286.7,105.2,286,105.3z"/>
			</g>
		</g>
		<g>
			<g>
				<path class="st1" d="M125.4,61.2c-0.2-1.1-0.7-2.2-1.4-3.1c-0.1-0.2-0.3-0.4-0.5-0.5c-1.3-1.3-3-2-4.9-2H82.1
					c-1.9,0-3.7,0.8-4.9,2c-0.2,0.2-0.3,0.3-0.5,0.5C76,59,75.5,60,75.3,61.2c-0.1,0.4-0.1,0.9-0.1,1.4v25.6c0,1,0.2,1.9,0.6,2.8
					c0.3,0.8,0.9,1.5,1.5,2.2c0.2,0.2,0.3,0.3,0.5,0.4c1.2,1,2.8,1.6,4.5,1.6h36.4c1.7,0,3.3-0.6,4.5-1.6c0.2-0.1,0.3-0.3,0.5-0.4
					c0.6-0.6,1.1-1.4,1.5-2.2v0c0.4-0.9,0.6-1.8,0.6-2.8V62.5C125.5,62.1,125.5,61.6,125.4,61.2z M79.7,60.1c0.6-0.6,1.5-1,2.4-1
					h36.4c0.9,0,1.8,0.4,2.4,1c0.1,0.1,0.2,0.2,0.3,0.4l-19.1,16.6c-0.5,0.5-1.2,0.7-1.8,0.7c-0.7,0-1.3-0.2-1.8-0.7L79.4,60.5
					C79.5,60.3,79.6,60.2,79.7,60.1z M78.7,88.1V64.2l13.8,12l-13.8,12C78.7,88.2,78.7,88.1,78.7,88.1z M118.5,91.5H82.1
					c-0.6,0-1.2-0.2-1.7-0.4L95,78.4l1.4,1.2c1.1,1,2.6,1.5,4,1.5c1.4,0,2.8-0.5,4-1.5l1.4-1.2L120.2,91
					C119.7,91.3,119.1,91.5,118.5,91.5z M121.9,88.1c0,0.1,0,0.1,0,0.1l-13.8-12l13.8-12V88.1z"/>
			</g>
		</g>
	</g>
</g>
</svg>
