<?xml version="1.0" encoding="utf-8"?>
<!-- Generator: Adobe Illustrator 26.5.0, SVG Export Plug-In . SVG Version: 6.00 Build 0)  -->
<svg version="1.1" id="レイヤー_1" xmlns="http://www.w3.org/2000/svg" xmlns:xlink="http://www.w3.org/1999/xlink" x="0px"
	 y="0px" width="346px" height="110px" viewBox="0 0 346 110" style="enable-background:new 0 0 346 110;" xml:space="preserve">
<style type="text/css">
	.st0{fill:#6EBB5D;}
	.st1{fill:#6EBB5D;stroke:#6EBB5D;stroke-width:5.5315;stroke-linecap:round;stroke-linejoin:round;stroke-miterlimit:10;}
	.st2{fill:#FFFFFF;}
</style>
<g>
	<g>
		<g>
			<path class="st0" d="M139.6,28.7c-0.3,0-0.6-0.1-0.8-0.2c-0.2-0.2-0.3-0.4-0.3-0.7c0-0.3,0.1-0.5,0.2-0.7
				c0.1-0.2,0.4-0.3,0.6-0.4c0.3,0,0.5-0.1,0.6-0.1c0.1-0.1,0.2-0.2,0.3-0.3c0.1-0.1,0.1-0.3,0.2-0.6c0.1-0.3,0.1-0.7,0.2-1.1
				c0.1-0.4,0.1-0.9,0.1-1.4c0-0.5,0.1-0.9,0.1-1.4c0-0.3,0-0.5-0.1-0.6c-0.1-0.1-0.3-0.2-0.6-0.2h-0.5c-0.1,1.3-0.4,2.5-0.7,3.8
				c-0.4,1.3-0.9,2.4-1.5,3.4c-0.2,0.3-0.4,0.4-0.7,0.5c-0.3,0.1-0.6,0-0.8-0.1c-0.3-0.2-0.4-0.4-0.5-0.6c-0.1-0.3,0-0.5,0.1-0.7
				c0.7-1,1.2-2.2,1.6-3.5c0.3-1.3,0.5-2.9,0.5-4.8v-1.6h-1.1c-0.3,0-0.5-0.1-0.7-0.3c-0.2-0.2-0.3-0.4-0.3-0.7
				c0-0.3,0.1-0.5,0.3-0.7c0.2-0.2,0.4-0.3,0.7-0.3h2.1V13c0-0.3,0.1-0.6,0.3-0.8c0.2-0.2,0.5-0.3,0.8-0.3c0.3,0,0.6,0.1,0.8,0.3
				c0.2,0.2,0.3,0.5,0.3,0.8v2.3h1.8c0.3,0,0.5,0.1,0.7,0.3c0.2,0.2,0.3,0.4,0.3,0.7c0,0.3-0.1,0.5-0.3,0.7
				c-0.2,0.2-0.4,0.3-0.7,0.3h-2.8V19h0.8c0.6,0,1.1,0.1,1.4,0.3c0-0.1,0-0.3,0-0.4c0-0.1,0.1-0.2,0.2-0.4c0.4-0.5,0.9-1.1,1.3-1.7
				c0.4-0.7,0.8-1.4,1.2-2.1c0.4-0.7,0.6-1.4,0.8-1.9c0.1-0.3,0.3-0.6,0.6-0.7c0.3-0.1,0.5-0.1,0.8,0c0.2,0.1,0.4,0.2,0.6,0.5
				c0.1,0.2,0.1,0.5,0,0.8c-0.1,0.4-0.3,0.7-0.5,1.1c-0.2,0.4-0.3,0.8-0.6,1.1h4.8c0.3,0,0.5,0.1,0.7,0.3c0.2,0.2,0.3,0.4,0.3,0.7
				c0,0.3-0.1,0.5-0.3,0.7c-0.2,0.2-0.4,0.3-0.7,0.3h-0.6c-0.1,1.2-0.4,2.4-0.7,3.4c-0.3,1-0.8,2-1.3,2.9c0.4,0.5,0.9,1,1.4,1.5
				c0.5,0.5,1.1,0.9,1.8,1.3c0.3,0.2,0.4,0.4,0.5,0.7c0,0.3,0,0.6-0.2,0.8c-0.2,0.3-0.5,0.4-0.8,0.5c-0.3,0-0.6,0-0.9-0.2
				c-1.2-0.8-2.2-1.8-3-2.8c-0.9,1.1-2,2-3.4,2.8c-0.3,0.2-0.6,0.2-0.9,0.2c-0.3-0.1-0.5-0.3-0.7-0.5c-0.2-0.3-0.2-0.5-0.1-0.8
				c0.1-0.3,0.3-0.5,0.6-0.7c0.7-0.4,1.3-0.8,1.8-1.2c0.6-0.5,1-1,1.5-1.5c-0.8-1.5-1.4-3.2-1.6-5.2c-0.1,0.2-0.2,0.3-0.4,0.5
				c-0.1,0.2-0.3,0.3-0.4,0.5c-0.3,0.4-0.7,0.5-1.1,0.4c0.1,0.2,0.1,0.4,0.2,0.6c0,0.2,0,0.5,0,0.7c0,0.8-0.1,1.7-0.1,2.4
				c-0.1,0.8-0.2,1.5-0.3,2.2c-0.1,1-0.4,1.7-0.9,2.1C141.1,28.5,140.4,28.7,139.6,28.7z M147.4,21.8c0.3-0.6,0.5-1.3,0.7-2
				c0.2-0.7,0.3-1.4,0.4-2.2h-2.2c0.1,0.8,0.2,1.5,0.3,2.2C146.9,20.5,147.1,21.2,147.4,21.8z"/>
			<path class="st0" d="M156.1,16.9c-0.3,0-0.5-0.1-0.6-0.2c-0.1-0.2-0.2-0.4-0.2-0.6s0.1-0.4,0.2-0.6c0.1-0.2,0.4-0.2,0.6-0.2h5.1
				c0.3,0,0.5,0.1,0.6,0.2c0.1,0.2,0.2,0.4,0.2,0.6s-0.1,0.4-0.2,0.6c-0.1,0.2-0.4,0.2-0.6,0.2H156.1z M166.8,28.8
				c-0.3,0-0.5-0.1-0.7-0.3c-0.2-0.2-0.3-0.4-0.3-0.7v-3.5c-0.4,0.5-0.9,1.1-1.4,1.6c-0.5,0.5-1,0.9-1.4,1.3
				c-0.2,0.2-0.5,0.2-0.8,0.2s-0.5-0.1-0.7-0.3c-0.1-0.2-0.2-0.3-0.2-0.5c-0.1,0.6-0.3,1-0.7,1.2c-0.4,0.2-1,0.3-1.8,0.3
				c-0.7,0-1.2-0.1-1.6-0.2c-0.4-0.2-0.7-0.4-0.8-0.8c-0.2-0.4-0.2-0.9-0.2-1.6c0-0.7,0.1-1.2,0.2-1.6c0.2-0.4,0.4-0.6,0.8-0.8
				c0.4-0.2,0.9-0.2,1.6-0.2c0.7,0,1.2,0.1,1.6,0.2c0.4,0.2,0.6,0.4,0.8,0.8c0.2,0.4,0.2,0.9,0.2,1.6c0,0.1,0,0.2,0,0.4
				c0,0.1,0,0.2,0,0.3c0-0.1,0.2-0.3,0.3-0.4c0.4-0.2,0.8-0.5,1.2-0.9c0.4-0.4,0.8-0.7,1.2-1.1c0.4-0.4,0.7-0.8,1-1.1h-2.6
				c-0.3,0-0.5-0.1-0.6-0.3c-0.1-0.2-0.2-0.4-0.2-0.6c0-0.2,0.1-0.4,0.2-0.6c0.1-0.2,0.4-0.2,0.6-0.2h3.4v-1.1h-0.3
				c-1.2,0-2-0.2-2.5-0.6c-0.5-0.4-0.7-1.1-0.7-2.1v-1.9c0-1,0.2-1.7,0.7-2.1c0.5-0.4,1.3-0.6,2.5-0.6h2.4c1.2,0,2,0.2,2.5,0.6
				c0.5,0.4,0.7,1.1,0.7,2.1v1.9c0,1-0.2,1.7-0.7,2.1c-0.5,0.4-1.3,0.6-2.5,0.6h-0.3v1.1h3.8c0.3,0,0.5,0.1,0.6,0.2
				c0.2,0.2,0.2,0.4,0.2,0.6c0,0.2-0.1,0.4-0.2,0.6c-0.2,0.2-0.4,0.3-0.6,0.3h-3c0.3,0.3,0.6,0.7,1,1.1c0.4,0.4,0.8,0.8,1.2,1.1
				c0.4,0.4,0.8,0.6,1.2,0.9c0.2,0.1,0.3,0.3,0.4,0.6c0,0.3,0,0.5-0.2,0.7c-0.2,0.2-0.4,0.4-0.7,0.4c-0.3,0-0.5,0-0.8-0.2
				c-0.5-0.4-1-0.8-1.5-1.3c-0.5-0.5-1-1-1.4-1.5v3.5c0,0.3-0.1,0.5-0.3,0.7C167.3,28.7,167,28.8,166.8,28.8z M157,19.5
				c-0.3,0-0.5-0.1-0.6-0.2c-0.2-0.2-0.2-0.4-0.2-0.6c0-0.2,0.1-0.4,0.2-0.6c0.2-0.2,0.4-0.2,0.6-0.2h3.5c0.3,0,0.5,0.1,0.6,0.2
				c0.1,0.2,0.2,0.4,0.2,0.6c0,0.2-0.1,0.4-0.2,0.6c-0.1,0.2-0.4,0.2-0.6,0.2H157z M157,22c-0.3,0-0.5-0.1-0.6-0.2
				c-0.2-0.2-0.2-0.4-0.2-0.6c0-0.2,0.1-0.4,0.2-0.6c0.2-0.2,0.4-0.2,0.6-0.2h3.5c0.3,0,0.5,0.1,0.6,0.2s0.2,0.4,0.2,0.6
				c0,0.2-0.1,0.4-0.2,0.6s-0.4,0.2-0.6,0.2H157z M157,14.3c-0.3,0-0.5-0.1-0.6-0.3c-0.2-0.2-0.2-0.4-0.2-0.6c0-0.2,0.1-0.4,0.2-0.6
				c0.2-0.2,0.4-0.3,0.6-0.3h3.4c0.3,0,0.5,0.1,0.6,0.3c0.2,0.2,0.2,0.4,0.2,0.6c0,0.2-0.1,0.4-0.2,0.6c-0.2,0.2-0.4,0.3-0.6,0.3
				H157z M158.7,26.5c0.3,0,0.5-0.1,0.6-0.2c0.1-0.1,0.1-0.4,0.1-0.8c0-0.4,0-0.7-0.1-0.8c-0.1-0.1-0.3-0.2-0.6-0.2
				c-0.3,0-0.5,0.1-0.6,0.2c-0.1,0.1-0.1,0.4-0.1,0.8c0,0.4,0,0.7,0.1,0.8C158.2,26.5,158.4,26.5,158.7,26.5z M164.3,15.4h1.5v-1.3
				h-0.3c-0.5,0-0.8,0.1-1,0.2c-0.2,0.2-0.3,0.4-0.3,0.9V15.4z M165.6,18.3h0.3V17h-1.5v0.1c0,0.4,0.1,0.7,0.3,0.9
				C164.7,18.2,165.1,18.3,165.6,18.3z M167.7,15.4h1.6v-0.2c0-0.4-0.1-0.7-0.3-0.9c-0.2-0.2-0.5-0.2-1-0.2h-0.3V15.4z M167.7,18.3
				h0.3c0.5,0,0.8-0.1,1-0.2c0.2-0.2,0.3-0.4,0.3-0.9V17h-1.6V18.3z"/>
			<path class="st0" d="M178.9,28.9c-0.3,0-0.5-0.1-0.7-0.3c-0.2-0.2-0.3-0.4-0.3-0.7v-6.3c-0.3,0.2-0.5,0.4-0.8,0.6
				c-0.3,0.2-0.5,0.3-0.8,0.2c-0.3,0-0.6-0.2-0.7-0.4c-0.2-0.2-0.3-0.5-0.2-0.8c0-0.3,0.2-0.5,0.4-0.7c0.3-0.2,0.7-0.5,1.1-0.9
				c0.4-0.3,0.8-0.7,1.2-1.1c0.4-0.4,0.8-0.8,1.1-1.1c0.3-0.4,0.6-0.7,0.9-1c0.2-0.2,0.4-0.3,0.7-0.4c0.3,0,0.5,0,0.7,0.2
				c0.2,0.2,0.4,0.4,0.4,0.7c0,0.3,0,0.5-0.2,0.8c-0.2,0.3-0.5,0.6-0.8,0.9c-0.3,0.3-0.6,0.6-0.9,1v8.3c0,0.3-0.1,0.5-0.3,0.7
				C179.5,28.8,179.2,28.9,178.9,28.9z M177.5,16.8c-0.3,0.2-0.5,0.3-0.8,0.3c-0.3,0-0.5-0.1-0.8-0.4c-0.2-0.2-0.3-0.5-0.2-0.8
				c0.1-0.3,0.2-0.5,0.4-0.6c0.3-0.2,0.7-0.5,1.1-0.8c0.4-0.3,0.8-0.7,1.2-1c0.4-0.3,0.7-0.6,1-0.9c0.2-0.2,0.5-0.3,0.8-0.3
				c0.3,0,0.5,0.1,0.7,0.3c0.2,0.2,0.3,0.5,0.3,0.7s-0.1,0.5-0.3,0.7c-0.3,0.3-0.6,0.6-1,1c-0.4,0.4-0.8,0.7-1.2,1
				C178.3,16.3,177.9,16.6,177.5,16.8z M182.2,28.7c-0.3,0.1-0.6,0.1-0.9,0c-0.2-0.1-0.4-0.3-0.5-0.6c-0.1-0.3-0.1-0.5,0.1-0.8
				c0.1-0.2,0.4-0.4,0.7-0.5c1.3-0.3,2.4-0.8,3.5-1.4c-0.2-0.2-0.5-0.5-0.7-0.8c-0.2-0.3-0.4-0.6-0.6-0.8c-0.5,0.5-1,1-1.4,1.4
				c-0.3,0.2-0.5,0.3-0.8,0.3s-0.5-0.1-0.7-0.3c-0.2-0.2-0.2-0.4-0.2-0.7c0-0.3,0.1-0.5,0.3-0.7c0.5-0.4,1.1-1,1.6-1.6
				s1.1-1.2,1.5-1.8c-0.4,0-0.8,0.1-1.2,0.1c-0.4,0-0.7,0-1,0.1c-0.3,0-0.6-0.1-0.8-0.2c-0.2-0.2-0.3-0.4-0.3-0.7
				c0-0.2,0.1-0.5,0.2-0.7c0.2-0.2,0.4-0.3,0.7-0.3c0.3,0,0.5,0,0.9,0c0.3,0,0.7,0,1-0.1c0.1-0.1,0.3-0.3,0.5-0.5
				c0.2-0.2,0.3-0.4,0.5-0.6c-0.3-0.2-0.6-0.5-0.9-0.7c-0.3-0.3-0.6-0.5-1-0.8c-0.3-0.2-0.6-0.4-0.8-0.6c-0.2-0.1-0.3-0.3-0.4-0.6
				c-0.1-0.3,0-0.5,0.2-0.7c0.2-0.2,0.4-0.4,0.6-0.4c0.3-0.1,0.5,0,0.7,0.1c0.1,0,0.1,0.1,0.2,0.2c0.1,0.1,0.2,0.1,0.3,0.2
				c0.2-0.3,0.5-0.6,0.7-1c0.3-0.4,0.5-0.7,0.7-1c0.2-0.2,0.4-0.4,0.6-0.4c0.3,0,0.5,0,0.8,0.2c0.2,0.1,0.4,0.4,0.4,0.6
				c0.1,0.3,0,0.5-0.2,0.7c-0.2,0.3-0.5,0.6-0.8,1c-0.3,0.4-0.6,0.7-0.8,1c0.2,0.1,0.3,0.2,0.5,0.4c0.1,0.1,0.3,0.2,0.4,0.3
				c0.5-0.6,0.9-1.1,1.4-1.6c0.4-0.5,0.8-1,1-1.4c0.2-0.2,0.4-0.4,0.7-0.4c0.3,0,0.5,0,0.8,0.2c0.2,0.2,0.3,0.4,0.4,0.6
				c0,0.3,0,0.5-0.2,0.7c-0.3,0.4-0.6,0.8-1,1.3c-0.4,0.5-0.9,1-1.3,1.5c-0.5,0.5-0.9,1-1.4,1.5c0.5,0,0.9-0.1,1.3-0.1
				c0.4,0,0.8-0.1,1.2-0.1c0-0.1-0.1-0.1-0.1-0.2s-0.1-0.1-0.1-0.1c-0.2-0.2-0.2-0.4-0.2-0.7c0-0.3,0.1-0.5,0.3-0.6
				c0.2-0.2,0.4-0.2,0.7-0.2c0.3,0,0.5,0.1,0.7,0.3c0.2,0.2,0.4,0.5,0.7,0.8c0.3,0.3,0.6,0.7,0.8,1c0.3,0.3,0.5,0.6,0.6,0.8
				c0.2,0.2,0.2,0.5,0.2,0.8c0,0.3-0.2,0.5-0.4,0.7c-0.2,0.2-0.5,0.2-0.8,0.2c-0.3,0-0.5-0.2-0.7-0.4c-0.1-0.1-0.1-0.2-0.2-0.3
				c-0.1-0.1-0.2-0.2-0.3-0.4c-0.4,0-1,0.1-1.6,0.2c-0.6,0.1-1.3,0.1-2,0.2c-0.1,0.2-0.2,0.3-0.3,0.5c-0.1,0.2-0.2,0.3-0.3,0.5h1.8
				c0.8,0,1.4,0.2,1.7,0.5c0.4,0.3,0.5,0.8,0.5,1.3s-0.3,1-0.8,1.5c-0.3,0.3-0.5,0.6-0.8,0.8c1,0.6,2.2,1,3.4,1.2
				c0.3,0.1,0.6,0.2,0.7,0.4c0.2,0.2,0.2,0.5,0.1,0.8c-0.1,0.3-0.3,0.5-0.5,0.6c-0.3,0.1-0.6,0.1-0.9,0c-0.8-0.2-1.5-0.4-2.3-0.7
				c-0.8-0.3-1.5-0.7-2.1-1.1C185.3,27.6,183.8,28.3,182.2,28.7z M186.7,24.4c0.3-0.2,0.6-0.5,0.8-0.7c0.2-0.2,0.3-0.4,0.2-0.5
				c-0.1-0.1-0.2-0.2-0.5-0.2h-1.8c0.2,0.3,0.4,0.5,0.6,0.8C186.2,23.9,186.4,24.2,186.7,24.4z"/>
			<path class="st0" d="M205.2,29c-0.3,0-0.6-0.1-0.8-0.3c-0.2-0.2-0.3-0.5-0.4-0.8c0-0.3,0.1-0.5,0.3-0.7c0.2-0.2,0.4-0.3,0.7-0.3
				c0.5,0,0.9-0.1,1-0.2c0.1-0.1,0.2-0.4,0.2-0.8v-1.2h-5.2c0,0,0.1,0,0.1,0.1c0,0,0.1,0.1,0.1,0.1c0.2,0.2,0.4,0.4,0.7,0.7
				c0.3,0.3,0.5,0.5,0.7,0.7c0.2,0.3,0.3,0.5,0.3,0.8c0,0.3-0.2,0.5-0.4,0.8c-0.3,0.2-0.5,0.3-0.8,0.3c-0.3,0-0.6-0.2-0.8-0.4
				c-0.2-0.2-0.4-0.4-0.7-0.7c-0.3-0.3-0.5-0.5-0.7-0.7c-0.2-0.2-0.3-0.4-0.3-0.7c0-0.3,0.1-0.5,0.4-0.7c0,0,0,0,0.1-0.1
				c0,0,0,0,0.1,0H197c-0.2,0-0.4-0.1-0.6-0.3c-0.2-0.2-0.3-0.4-0.3-0.6c0-0.2,0.1-0.5,0.3-0.6c0.2-0.2,0.4-0.3,0.6-0.3h9.3v-1h-10
				c-0.2,0-0.4-0.1-0.6-0.3c-0.2-0.2-0.2-0.4-0.2-0.6c0-0.2,0.1-0.4,0.2-0.6c0.2-0.2,0.4-0.3,0.6-0.3h6.5v-0.9h-4.5
				c-0.2,0-0.4-0.1-0.6-0.2c-0.2-0.2-0.2-0.4-0.2-0.6s0.1-0.4,0.2-0.6c0.2-0.2,0.4-0.3,0.6-0.3h4.5v-0.3c0-0.4,0.2-0.7,0.5-0.9
				c-0.1-0.3-0.1-0.6,0.1-0.8c0.3-0.4,0.6-0.9,0.9-1.4c0.3-0.5,0.5-1,0.7-1.5c0.1-0.3,0.3-0.5,0.6-0.6c0.3-0.1,0.5-0.1,0.8,0
				c0.3,0.1,0.5,0.3,0.6,0.5c0.1,0.2,0.1,0.5,0,0.7c0,0.1-0.1,0.1-0.1,0.2c0,0.1-0.1,0.1-0.1,0.2h4.5c0.3,0,0.5,0.1,0.6,0.2
				c0.1,0.2,0.2,0.4,0.2,0.6s-0.1,0.4-0.2,0.6c-0.1,0.2-0.4,0.2-0.6,0.2h-2.3c0.1,0.1,0.1,0.2,0.2,0.4c0,0.1,0.1,0.2,0.1,0.3
				c0.1,0.2,0.1,0.5,0,0.7s-0.3,0.4-0.6,0.5c-0.3,0.1-0.5,0.1-0.8,0c-0.2-0.1-0.4-0.3-0.5-0.5c-0.1-0.2-0.1-0.4-0.2-0.7
				s-0.2-0.5-0.3-0.7h-0.9c-0.1,0.2-0.2,0.4-0.3,0.6c-0.1,0.2-0.2,0.3-0.3,0.5c-0.1,0.2-0.2,0.3-0.4,0.4c0,0.1,0.1,0.3,0.1,0.5v0.3
				h4.7c0.2,0,0.4,0.1,0.6,0.3c0.2,0.2,0.2,0.4,0.2,0.6s-0.1,0.4-0.2,0.6c-0.2,0.2-0.4,0.2-0.6,0.2H205V20h6.6
				c0.2,0,0.4,0.1,0.6,0.3c0.2,0.2,0.2,0.4,0.2,0.6c0,0.2-0.1,0.4-0.2,0.6c-0.2,0.2-0.4,0.3-0.6,0.3h-3.1v1h2.5
				c0.2,0,0.4,0.1,0.6,0.3c0.2,0.2,0.3,0.4,0.3,0.6c0,0.2-0.1,0.5-0.3,0.6c-0.2,0.2-0.4,0.3-0.6,0.3h-2.5v1.7c0,1-0.3,1.7-0.8,2.1
				C207.2,28.7,206.4,29,205.2,29z M201.1,17.1c-0.3,0.1-0.5,0.1-0.8,0c-0.2-0.1-0.4-0.3-0.5-0.5c-0.1-0.2-0.2-0.4-0.3-0.7
				c-0.1-0.3-0.2-0.5-0.3-0.7h-0.8c-0.2,0.3-0.3,0.5-0.5,0.7c-0.2,0.2-0.3,0.4-0.5,0.7c-0.2,0.2-0.4,0.4-0.7,0.5
				c-0.3,0.1-0.5,0-0.8-0.1c-0.2-0.1-0.4-0.3-0.4-0.6c0-0.3,0-0.5,0.2-0.7c0.4-0.5,0.8-1,1.1-1.6c0.4-0.5,0.7-1.1,0.9-1.6
				c0.1-0.3,0.3-0.5,0.6-0.6c0.3-0.1,0.5-0.1,0.8,0c0.3,0.1,0.5,0.3,0.6,0.5c0.1,0.2,0.1,0.5-0.1,0.8c0,0-0.1,0.1-0.1,0.2
				c0,0.1-0.1,0.1-0.1,0.2h3.4c0.3,0,0.5,0.1,0.6,0.2c0.2,0.2,0.2,0.4,0.2,0.6s-0.1,0.4-0.2,0.6c-0.2,0.2-0.4,0.2-0.6,0.2h-1.4
				c0,0.1,0.1,0.2,0.1,0.4c0,0.1,0.1,0.2,0.1,0.3c0.1,0.2,0.1,0.5,0,0.7C201.6,16.9,201.4,17,201.1,17.1z"/>
			<path class="st0" d="M218.7,27.8c-0.3,0.1-0.5,0.2-0.8,0.1c-0.3-0.1-0.5-0.3-0.7-0.5c-0.2-0.3-0.2-0.5-0.1-0.8
				c0.1-0.3,0.3-0.5,0.5-0.7c1.3-0.7,2.3-1.5,3.1-2.5c0.8-1,1.3-2.1,1.5-3.3h-5.3c-0.3,0-0.6-0.1-0.8-0.3c-0.2-0.2-0.3-0.5-0.3-0.8
				c0-0.3,0.1-0.6,0.3-0.8c0.2-0.2,0.5-0.3,0.8-0.3h12.1c0.3,0,0.6,0.1,0.8,0.3c0.2,0.2,0.3,0.5,0.3,0.8c0,0.3-0.1,0.6-0.3,0.8
				c-0.2,0.2-0.5,0.3-0.8,0.3h-4.6c-0.1,1-0.4,2.1-0.9,3.1c-0.5,1-1.1,1.9-1.9,2.7C220.7,26.6,219.8,27.2,218.7,27.8z M219,16.1
				c-0.3,0-0.6-0.1-0.8-0.3c-0.2-0.2-0.3-0.5-0.3-0.8c0-0.3,0.1-0.6,0.3-0.8c0.2-0.2,0.5-0.3,0.8-0.3h7.8c0.3,0,0.6,0.1,0.8,0.3
				c0.2,0.2,0.3,0.5,0.3,0.8c0,0.3-0.1,0.6-0.3,0.8c-0.2,0.2-0.5,0.3-0.8,0.3H219z M230.6,17.5c-0.2,0.1-0.3,0.2-0.6,0.2
				s-0.4-0.1-0.5-0.3c-0.1-0.2-0.3-0.4-0.5-0.7c-0.2-0.3-0.4-0.5-0.6-0.7c-0.1-0.1-0.2-0.3-0.1-0.5c0-0.2,0.1-0.4,0.3-0.5
				c0.1-0.1,0.3-0.2,0.5-0.2c0.2,0,0.4,0.1,0.5,0.2c0.2,0.2,0.4,0.4,0.6,0.6c0.2,0.3,0.4,0.5,0.6,0.7c0.1,0.2,0.2,0.4,0.2,0.6
				C230.9,17.2,230.8,17.4,230.6,17.5z M232.4,16c-0.2,0.1-0.3,0.2-0.6,0.2c-0.2,0-0.4-0.1-0.5-0.3c-0.1-0.2-0.3-0.4-0.5-0.6
				c-0.2-0.2-0.4-0.5-0.6-0.7c-0.1-0.1-0.2-0.3-0.2-0.5c0-0.2,0.1-0.4,0.2-0.5c0.1-0.1,0.3-0.2,0.5-0.2c0.2,0,0.4,0.1,0.5,0.2
				c0.2,0.1,0.4,0.3,0.7,0.6c0.3,0.2,0.5,0.5,0.6,0.7c0.1,0.2,0.2,0.4,0.2,0.6C232.6,15.7,232.5,15.9,232.4,16z"/>
			<path class="st0" d="M241.2,28.1c-0.3,0-0.6-0.1-0.8-0.3c-0.2-0.2-0.3-0.5-0.3-0.8v-7.3c-0.8,0.7-1.6,1.3-2.4,2
				c-0.8,0.6-1.7,1.2-2.5,1.7c-0.3,0.2-0.5,0.2-0.8,0.1c-0.3-0.1-0.5-0.2-0.7-0.5c-0.2-0.3-0.2-0.6-0.1-0.9c0.1-0.3,0.2-0.5,0.5-0.7
				c0.8-0.5,1.6-1,2.4-1.7c0.8-0.6,1.6-1.3,2.4-2c0.8-0.7,1.5-1.4,2.2-2.2c0.7-0.7,1.2-1.4,1.7-2c0.2-0.3,0.4-0.4,0.7-0.5
				c0.3-0.1,0.6,0,0.8,0.2c0.3,0.2,0.4,0.4,0.5,0.7c0.1,0.3,0,0.6-0.2,0.8c-0.6,0.9-1.4,1.7-2.3,2.7V27c0,0.3-0.1,0.6-0.3,0.8
				C241.8,28,241.6,28.1,241.2,28.1z"/>
			<path class="st0" d="M255.4,28.1c-0.3,0.1-0.6,0.1-0.9,0c-0.3-0.1-0.5-0.3-0.6-0.6c-0.1-0.3-0.1-0.6,0-0.9
				c0.1-0.3,0.3-0.5,0.6-0.6c1.4-0.6,2.4-1.5,3-2.6c0.7-1.1,1-2.5,1-4.2h-2.8c0,0.5,0,0.9,0,1.4c0,0.4,0,0.8,0,1.2
				c0,0.3-0.1,0.6-0.4,0.8c-0.2,0.2-0.5,0.3-0.8,0.3c-0.3,0-0.6-0.2-0.7-0.4c-0.2-0.2-0.3-0.5-0.3-0.8c0-0.3,0-0.7,0-1.1
				s0-0.9,0-1.3h-3.7c-0.3,0-0.6-0.1-0.8-0.3c-0.2-0.2-0.3-0.5-0.3-0.8c0-0.3,0.1-0.6,0.3-0.8c0.2-0.2,0.5-0.3,0.8-0.3h3.7
				c0-0.4-0.1-0.8-0.1-1.2c0-0.4-0.1-0.7-0.1-1c0-0.3,0-0.6,0.2-0.8c0.2-0.2,0.4-0.4,0.7-0.4c0.3-0.1,0.6,0,0.8,0.2
				c0.2,0.2,0.4,0.4,0.4,0.7c0,0.3,0.1,0.7,0.1,1.2c0,0.4,0.1,0.9,0.1,1.4h2.8c0-0.5,0-1,0-1.5c0-0.5,0-0.9-0.1-1.3
				c0-0.3,0.1-0.6,0.3-0.8c0.2-0.2,0.5-0.4,0.8-0.4c0.3,0,0.6,0.1,0.8,0.3c0.2,0.2,0.4,0.5,0.4,0.8c0,0.4,0.1,0.8,0.1,1.4
				s0,1.1,0,1.6h3.5c0.3,0,0.6,0.1,0.8,0.3c0.2,0.2,0.3,0.5,0.3,0.8c0,0.3-0.1,0.6-0.3,0.8c-0.2,0.2-0.5,0.3-0.8,0.3h-3.5
				c0,2.2-0.5,4-1.4,5.5C258.5,26.2,257.1,27.3,255.4,28.1z"/>
			<path class="st0" d="M270,21.6c-0.3,0-0.6-0.1-0.8-0.3c-0.2-0.2-0.3-0.5-0.3-0.8c0-0.3,0.1-0.6,0.3-0.8c0.2-0.2,0.5-0.3,0.8-0.3
				h11.3c0.3,0,0.6,0.1,0.8,0.3c0.2,0.2,0.3,0.5,0.3,0.8c0,0.3-0.1,0.6-0.3,0.8c-0.2,0.2-0.5,0.3-0.8,0.3H270z"/>
			<path class="st0" d="M298.2,26.7c-2.3,0.4-4.1,0.5-5.5,0.5c-1.4-0.1-2.5-0.4-3.1-1c-0.5-0.4-0.9-1-1.1-1.6
				c-0.2-0.7-0.3-1.5-0.3-2.4v-7.4c0-0.3,0.1-0.6,0.3-0.8c0.2-0.2,0.5-0.3,0.8-0.3c0.3,0,0.6,0.1,0.8,0.3c0.2,0.2,0.3,0.5,0.3,0.8v4
				c1-0.2,2-0.5,3.1-0.8c1.1-0.3,2-0.6,2.9-1c0.3-0.1,0.6-0.1,0.9,0c0.3,0.1,0.5,0.3,0.6,0.6c0.1,0.3,0.1,0.6,0,0.9
				c-0.1,0.3-0.3,0.5-0.6,0.6c-1,0.4-2.1,0.7-3.4,1.1c-1.2,0.3-2.3,0.6-3.4,0.9v1.2c0,0.7,0.1,1.2,0.2,1.5c0.1,0.3,0.3,0.6,0.5,0.7
				c0.3,0.2,0.7,0.4,1.2,0.4c0.5,0.1,1.2,0.1,2.1,0c0.9-0.1,2-0.2,3.4-0.4c0.3-0.1,0.6,0,0.8,0.2c0.2,0.2,0.4,0.4,0.4,0.8
				c0.1,0.3,0,0.6-0.2,0.8C298.8,26.5,298.5,26.7,298.2,26.7z M300.2,17.7c-0.1,0.2-0.3,0.2-0.6,0.2c-0.2,0-0.4-0.1-0.6-0.2
				c-0.1-0.2-0.3-0.4-0.6-0.6c-0.2-0.2-0.4-0.5-0.6-0.6c-0.1-0.1-0.2-0.3-0.2-0.5c0-0.2,0.1-0.4,0.2-0.5c0.1-0.1,0.3-0.2,0.5-0.2
				c0.2,0,0.4,0,0.5,0.2c0.2,0.1,0.4,0.3,0.7,0.5c0.3,0.2,0.5,0.5,0.6,0.6c0.1,0.2,0.2,0.3,0.2,0.6
				C300.5,17.3,300.4,17.5,300.2,17.7z M300.7,16c-0.2-0.2-0.4-0.4-0.6-0.6c-0.2-0.2-0.5-0.4-0.7-0.6c-0.1-0.1-0.2-0.3-0.2-0.5
				c0-0.2,0-0.4,0.2-0.5c0.1-0.1,0.3-0.2,0.5-0.3c0.2,0,0.4,0,0.5,0.1c0.2,0.1,0.4,0.3,0.7,0.5c0.3,0.2,0.5,0.4,0.7,0.6
				c0.2,0.2,0.2,0.3,0.2,0.6c0,0.2-0.1,0.4-0.2,0.6c-0.1,0.2-0.3,0.2-0.5,0.3C301.1,16.2,300.9,16.2,300.7,16z"/>
			<path class="st0" d="M306.3,26.9c-0.3,0.1-0.5,0.1-0.8,0c-0.3-0.1-0.5-0.3-0.6-0.6s-0.1-0.6,0-0.9c0.1-0.3,0.3-0.5,0.6-0.6
				c1.7-0.8,3.3-1.8,4.6-3c1.4-1.2,2.5-2.5,3.3-3.9c0.5-0.9,0.2-1.3-0.9-1.3h-5c-0.3,0-0.6-0.1-0.8-0.3c-0.2-0.2-0.3-0.5-0.3-0.8
				c0-0.3,0.1-0.6,0.3-0.8c0.2-0.2,0.5-0.3,0.8-0.3h5c1.1,0,1.9,0.2,2.5,0.6c0.6,0.4,0.9,0.9,1,1.6c0.1,0.7-0.2,1.5-0.7,2.3
				c-0.3,0.5-0.6,1-1,1.5c0.6,0.5,1.1,1,1.7,1.5c0.6,0.6,1.1,1.1,1.7,1.6s0.9,1,1.3,1.3c0.2,0.2,0.3,0.5,0.3,0.8
				c0,0.3-0.1,0.6-0.3,0.8c-0.2,0.2-0.5,0.3-0.8,0.3c-0.3,0-0.6-0.1-0.8-0.3c-0.3-0.3-0.7-0.8-1.2-1.3c-0.5-0.5-1-1-1.6-1.6
				c-0.6-0.6-1.1-1.1-1.6-1.5c-0.9,1-2,1.9-3.1,2.7C308.7,25.7,307.5,26.4,306.3,26.9z"/>
		</g>
		<g>
			<path class="st0" d="M150.9,106.9c-1.4,0.1-2.5-0.2-3.4-0.9c-0.9-0.6-1.3-1.6-1.3-2.8c0-0.9,0.3-1.6,0.8-2.3
				c0.5-0.6,1.2-1.1,2.1-1.5c0.9-0.4,1.7-0.5,2.6-0.6c0.5,0,0.9,0,1.3,0.1c0.4,0.1,0.8,0.3,1.1,0.4v-1.1c0-0.8-0.2-1.4-0.5-1.6
				c-0.3-0.2-0.9-0.4-1.5-0.4c-0.5,0-1,0.1-1.5,0.2c-0.5,0.1-1.1,0.3-1.6,0.5c-0.5,0.2-0.8,0.3-1.2,0.2c-0.3-0.1-0.6-0.3-0.8-0.6
				c-0.2-0.4-0.3-0.7-0.1-1.1c0.1-0.3,0.4-0.6,0.9-0.8c0.6-0.3,1.3-0.5,2.1-0.7c0.7-0.2,1.5-0.3,2.3-0.3c1.6,0,2.8,0.3,3.7,1
				c0.8,0.7,1.2,1.8,1.2,3.5v5.8c0,0.2,0,0.3,0.1,0.4c0,0.1,0.1,0.2,0.1,0.2c0.2,0.2,0.3,0.4,0.5,0.4c0.2,0,0.3,0.1,0.5,0.1
				c0.1,0,0.2,0.1,0.2,0.2c0,0.3-0.1,0.6-0.2,0.8c-0.2,0.2-0.4,0.4-0.8,0.5c-0.4,0.1-0.8,0.1-1.2,0.1c-0.5,0-1-0.1-1.2-0.3
				s-0.5-0.5-0.6-0.9c-0.4,0.4-0.9,0.6-1.5,0.9C152.1,106.7,151.5,106.9,150.9,106.9z M150.8,104.3c1,0,1.8-0.2,2.4-0.6
				c0.6-0.3,0.9-0.8,0.9-1.5c0-0.4-0.2-0.7-0.6-0.9c-0.4-0.2-0.9-0.2-1.5-0.2c-0.9,0-1.6,0.2-2.1,0.6c-0.6,0.4-0.8,0.9-0.8,1.4
				C149.1,104,149.7,104.4,150.8,104.3z"/>
			<path class="st0" d="M169.5,106.8c-0.4,0-0.8-0.1-1.1-0.3c-0.3-0.2-0.6-0.5-0.8-1l-3.6-9.6c-0.2-0.6-0.2-1-0.1-1.3
				s0.5-0.5,1.1-0.5c0.9,0,1.5,0.4,1.8,1.2l2.7,7.6l2.7-7.6c0.3-0.8,0.9-1.2,1.8-1.2c0.5,0,0.8,0.2,0.9,0.5c0.2,0.3,0.1,0.7-0.1,1.3
				l-3.5,9.5c-0.2,0.4-0.4,0.8-0.8,1C170.3,106.7,169.9,106.8,169.5,106.8z"/>
			<path class="st0" d="M187.2,107c-1.8,0-3.3-0.6-4.4-1.7c-1.1-1.1-1.7-2.7-1.7-4.9c0-1.4,0.3-2.5,0.8-3.5c0.5-1,1.2-1.7,2.1-2.3
				c0.9-0.5,1.9-0.8,3.1-0.8c1.2,0,2.2,0.3,3,0.8c0.8,0.5,1.4,1.2,1.9,2.1s0.7,1.7,0.7,2.7c0,0.6-0.1,1.1-0.4,1.3
				c-0.3,0.2-0.6,0.3-1.2,0.3h-7.1c0.1,1.3,0.4,2.1,1,2.7s1.4,0.8,2.3,0.8c1.1,0,1.9-0.4,2.5-1.1c0.3-0.4,0.7-0.6,1-0.7
				c0.3-0.1,0.6,0,1,0.2c0.3,0.2,0.5,0.6,0.6,0.9c0.1,0.4-0.1,0.8-0.5,1.2c-0.6,0.7-1.3,1.2-2,1.6C189,106.8,188.1,107,187.2,107z
				 M184,98.7h5.6c-0.1-0.8-0.4-1.5-0.9-1.9c-0.5-0.4-1.1-0.7-1.8-0.7c-0.8,0-1.4,0.2-1.9,0.6C184.6,97.2,184.2,97.8,184,98.7z"/>
			<path class="st0" d="M201.4,107c-0.5,0-1-0.2-1.4-0.6c-0.4-0.4-0.6-0.8-0.6-1.4c0-0.6,0.2-1,0.6-1.4c0.4-0.4,0.9-0.6,1.4-0.6
				s1,0.2,1.4,0.6c0.4,0.4,0.6,0.9,0.6,1.4c0,0.5-0.2,1-0.6,1.4C202.4,106.8,201.9,107,201.4,107z"/>
			<path class="st0" d="M217,107c-1.5,0-2.7-0.6-3.5-1.9v0.5c0,0.4-0.1,0.7-0.4,0.9c-0.3,0.2-0.6,0.2-1,0.2c-0.9,0-1.3-0.5-1.3-1.5
				V89.6c0-1,0.5-1.5,1.5-1.5c1,0,1.5,0.5,1.5,1.5v5.6c0.4-0.5,0.9-0.8,1.5-1.1c0.6-0.3,1.2-0.4,1.8-0.4c1.2,0,2.2,0.3,3.1,0.8
				c0.9,0.5,1.6,1.3,2.2,2.3c0.5,1,0.8,2.2,0.8,3.5c0,1.4-0.3,2.6-0.8,3.5c-0.5,1-1.2,1.7-2.2,2.3C219.3,106.7,218.2,107,217,107z
				 M216.9,104.3c0.9,0,1.7-0.3,2.3-1c0.6-0.7,0.9-1.6,0.9-2.9c0-1.3-0.3-2.2-0.9-2.9s-1.4-1-2.3-1s-1.7,0.3-2.3,1
				c-0.6,0.7-0.9,1.6-0.9,2.9c0,1.3,0.3,2.2,0.9,2.9C215.3,104,216,104.3,216.9,104.3z"/>
			<path class="st0" d="M231.7,106.7c-1,0-1.5-0.5-1.5-1.5V89.6c0-1,0.5-1.5,1.5-1.5c1,0,1.5,0.5,1.5,1.5v15.6
				C233.2,106.2,232.7,106.7,231.7,106.7z"/>
			<path class="st0" d="M245,106.9c-1.4,0.1-2.5-0.2-3.4-0.9c-0.9-0.6-1.3-1.6-1.3-2.8c0-0.9,0.3-1.6,0.8-2.3
				c0.5-0.6,1.2-1.1,2.1-1.5c0.9-0.4,1.7-0.5,2.6-0.6c0.5,0,0.9,0,1.3,0.1c0.4,0.1,0.8,0.3,1.1,0.4v-1.1c0-0.8-0.2-1.4-0.5-1.6
				c-0.3-0.2-0.9-0.4-1.5-0.4c-0.5,0-1,0.1-1.5,0.2s-1.1,0.3-1.6,0.5c-0.5,0.2-0.8,0.3-1.2,0.2c-0.3-0.1-0.6-0.3-0.8-0.6
				c-0.2-0.4-0.3-0.7-0.1-1.1c0.1-0.3,0.4-0.6,0.9-0.8c0.6-0.3,1.3-0.5,2.1-0.7c0.7-0.2,1.5-0.3,2.3-0.3c1.6,0,2.8,0.3,3.7,1
				c0.8,0.7,1.2,1.8,1.2,3.5v5.8c0,0.2,0,0.3,0.1,0.4c0,0.1,0.1,0.2,0.1,0.2c0.2,0.2,0.3,0.4,0.5,0.4c0.2,0,0.3,0.1,0.5,0.1
				c0.1,0,0.2,0.1,0.2,0.2c0,0.3-0.1,0.6-0.2,0.8c-0.2,0.2-0.4,0.4-0.8,0.5c-0.4,0.1-0.8,0.1-1.2,0.1c-0.5,0-1-0.1-1.2-0.3
				c-0.3-0.2-0.5-0.5-0.6-0.9c-0.4,0.4-0.9,0.6-1.5,0.9C246.2,106.7,245.6,106.9,245,106.9z M244.9,104.3c1,0,1.8-0.2,2.4-0.6
				c0.6-0.3,0.9-0.8,0.9-1.5c0-0.4-0.2-0.7-0.6-0.9c-0.4-0.2-0.9-0.2-1.5-0.2c-0.9,0-1.6,0.2-2.1,0.6c-0.6,0.4-0.8,0.9-0.8,1.4
				C243.2,104,243.8,104.4,244.9,104.3z"/>
			<path class="st0" d="M260.6,106.7c-1,0-1.5-0.5-1.5-1.5v-9.5c0-1,0.4-1.5,1.3-1.5c0.9,0,1.4,0.2,1.4,0.7l0.1,0.8
				c0.3-0.5,0.8-0.9,1.4-1.3c0.6-0.4,1.3-0.5,2-0.5c1.3,0,2.4,0.4,3.2,1.3c0.8,0.8,1.2,2.1,1.2,3.7v6.4c0,1-0.5,1.5-1.5,1.5
				c-1,0-1.5-0.5-1.5-1.5v-5.7c0-1-0.2-1.7-0.6-2.2c-0.4-0.5-0.9-0.7-1.6-0.7c-0.7,0-1.4,0.3-1.8,0.8c-0.5,0.5-0.7,1.3-0.7,2.3v5.6
				C262.1,106.2,261.6,106.7,260.6,106.7z"/>
			<path class="st0" d="M283,107c-1.2,0-2.2-0.3-3.1-0.8c-0.9-0.5-1.6-1.3-2.2-2.3c-0.5-1-0.8-2.1-0.8-3.5c0-1.3,0.3-2.5,0.8-3.5
				s1.3-1.8,2.2-2.3c0.9-0.5,1.9-0.8,3.1-0.8c1.5,0,2.8,0.4,3.8,1.3c0.4,0.3,0.6,0.7,0.6,1c0,0.4-0.2,0.7-0.6,1
				c-0.4,0.3-0.7,0.4-1,0.3c-0.3,0-0.6-0.2-1.1-0.5c-0.5-0.3-1-0.5-1.7-0.5c-0.9,0-1.6,0.3-2.2,1s-0.9,1.6-0.9,2.9
				c0,1.3,0.3,2.2,0.9,2.9c0.6,0.7,1.3,1,2.2,1c0.6,0,1.2-0.2,1.6-0.5c0.4-0.2,0.8-0.4,1.1-0.5c0.3-0.1,0.6,0,1,0.3
				c0.4,0.3,0.6,0.6,0.7,1c0.1,0.4-0.1,0.7-0.5,1C285.7,106.6,284.4,107,283,107z"/>
			<path class="st0" d="M299.7,107c-1.2,0-2.2-0.3-3.1-0.8c-0.9-0.5-1.6-1.3-2.2-2.3c-0.5-1-0.8-2.1-0.8-3.5c0-1.3,0.3-2.5,0.8-3.5
				c0.5-1,1.3-1.8,2.2-2.3c0.9-0.5,1.9-0.8,3.1-0.8c1.2,0,2.2,0.3,3.2,0.8c0.9,0.5,1.6,1.3,2.2,2.3s0.8,2.1,0.8,3.5
				c0,1.3-0.3,2.5-0.8,3.5c-0.5,1-1.2,1.8-2.2,2.3C302,106.7,300.9,107,299.7,107z M299.7,104.3c0.9,0,1.7-0.3,2.3-1
				c0.6-0.7,0.9-1.6,0.9-2.9c0-1.3-0.3-2.2-0.9-2.9c-0.6-0.7-1.3-1-2.3-1c-0.9,0-1.6,0.3-2.2,1c-0.6,0.7-0.9,1.6-0.9,2.9
				c0,1.3,0.3,2.2,0.9,2.9C298.1,104,298.8,104.3,299.7,104.3z"/>
		</g>
		<g>
			<path class="st0" d="M108.5,52.2l-0.5-7.9h28.8v6.9c-1.2,10.2-9.5,9.9-9.5,9.9l-1.3,0c0,0,3.5-4.3,3.2-9.6L108.5,52.2z
				 M113.3,77.1c0,0,4.2-5.2,3.7-19.9l7.9,0.2c0.6,20.5-9.4,19.7-9.4,19.7L113.3,77.1z"/>
			<path class="st0" d="M144.8,64.5l13.7-14.5L180,68.5l-5.4,5.7l-15.4-14.3l-8.4,9.8L144.8,64.5z"/>
			<path class="st0" d="M219.8,45.5h0.9c-0.9,27.3-17.1,35.1-22.8,30.3l-1.8-1.4c8.8-2,15.3-10.6,15.8-22.1l-18.4,0.7l-0.5-7.6h23
				H219.8z"/>
			<path class="st0" d="M236.5,53.6h27.6c0,16.7-8,25.7-16.7,23.1l-0.9-0.9c4.5-3.5,7.9-7.4,9.2-15.1L237,61.5L236.5,53.6z
				 M261,42.9v6.8l-20.8,1l-0.5-7.9H261z"/>
			<path class="st0" d="M292.4,52.7l-4.6,5.1l-8.1-6l4.9-6.1L292.4,52.7z M306.8,55.4c1.4,4.2-0.1,16.3-23.4,20.4l-2.1-8.1
				c19-2.7,24.5-14.4,24.5-14.4L306.8,55.4z"/>
			<path class="st0" d="M319.5,75.3l-0.5-7.9h16.9l-0.3-12.8l-16.2,0.7l-0.5-7.9h24.3L343,74.4L319.5,75.3z"/>
		</g>
		<circle class="st0" cx="169.8" cy="51.4" r="3.3"/>
		<circle class="st0" cx="177.5" cy="50.6" r="3.3"/>
		<ellipse transform="matrix(0.8959 -0.4443 0.4443 0.8959 4.6961 101.3254)" class="st0" cx="218.5" cy="40.6" rx="3.3" ry="3.3"/>
		<ellipse transform="matrix(0.8959 -0.4443 0.4443 0.8959 4.0539 104.8139)" class="st0" cx="225.7" cy="43.8" rx="3.3" ry="3.3"/>
	</g>
	<g>
		<path class="st0" d="M87.7,53.8c-0.3,0-0.6-0.2-0.8-0.4c-0.5-0.5-0.5-1.3,0-1.8c15.6-15.4,4.9-29.5,4.4-30.2
			c-0.4-0.6-0.3-1.4,0.3-1.8c0.6-0.4,1.4-0.3,1.8,0.3c0.1,0.2,12.6,16.6-4.7,33.6C88.4,53.7,88.1,53.8,87.7,53.8z"/>
		<path class="st1" d="M32.1,48.7l-14.4,6.2L4,50.9l12.6,34.3c0,0,13.8-7.8,23.6-13c-4.5,9-7.6,15.5-7.6,15.5l6,19l19.6-8.9
			c0,0,16.5-18.7,17.4-22.9c0.8-4.2,5.7-26.7,5.7-26.7s13.1-11.3,16.8-13.3c-11.6-10.5-23-11.4-28.6-4c-11.3-7.3-21.8-10.3-32.4-8
			S7.5,28.1,7.5,28.1l13,16.2L32.1,48.7z"/>
		<path class="st2" d="M32.1,48.7l-14.4,6.2L4,50.9l12.6,34.3c0,0,13.8-7.8,23.6-13c-4.5,9-7.6,15.5-7.6,15.5l6,19l19.6-8.9
			c0,0,16.5-18.7,17.4-22.9c0.8-4.2,5.7-26.7,5.7-26.7s13.1-11.3,16.8-13.3c-11.6-10.5-23-11.4-28.6-4c-11.3-7.3-21.8-10.3-32.4-8
			S7.5,28.1,7.5,28.1l13,16.2L32.1,48.7z"/>
		<circle class="st0" cx="83.8" cy="32.8" r="1.7"/>
		<g>
			<path class="st0" d="M91.9,5C92.1,3.4,91,2,89.5,1.7c-0.9-0.1-1.9,0.2-2.5,0.8c-0.4-0.8-1.2-1.4-2.1-1.5
				c-1.6-0.2-3.1,0.9-3.3,2.4c-0.1,0.8,0.1,1.6,0.6,2.2l2.8,3.8l0,0c0.2,0.3,0.5,0.5,0.9,0.6c0.4,0.1,0.8,0,1.1-0.3l0,0L90.7,7
				C91.3,6.5,91.8,5.8,91.9,5z"/>
			<path class="st0" d="M79.5,17.5c-0.2,1.6,0.9,3.1,2.4,3.3c0.9,0.1,1.9-0.2,2.5-0.8c0.4,0.8,1.2,1.4,2.1,1.5
				c1.6,0.2,3.1-0.9,3.3-2.4c0.1-0.8-0.1-1.6-0.6-2.2L86.4,13l0,0c-0.2-0.3-0.5-0.5-0.9-0.6c-0.4-0.1-0.8,0-1.1,0.3l0,0l-3.7,2.8
				C80,16,79.6,16.7,79.5,17.5z"/>
			<path class="st0" d="M92.6,17.6c1.6,0.2,3.1-0.9,3.3-2.4c0.1-0.9-0.2-1.9-0.8-2.5c0.8-0.4,1.4-1.2,1.5-2.1
				c0.2-1.6-0.9-3.1-2.4-3.3c-0.8-0.1-1.6,0.1-2.2,0.6l-3.8,2.8l0,0c-0.3,0.2-0.5,0.5-0.6,0.9s0,0.8,0.3,1.1l0,0l2.8,3.7
				C91,17,91.7,17.5,92.6,17.6z"/>
			<path class="st0" d="M78.9,5c-1.6-0.2-3.1,0.9-3.3,2.4c-0.1,0.9,0.2,1.9,0.8,2.5c-0.8,0.4-1.4,1.2-1.5,2.1
				c-0.2,1.6,0.9,3.1,2.4,3.3c0.8,0.1,1.6-0.1,2.2-0.6l3.8-2.8l0,0c0.3-0.2,0.5-0.5,0.6-0.9s0-0.8-0.3-1.1l0,0l-2.8-3.7
				C80.4,5.6,79.7,5.2,78.9,5z"/>
		</g>
	</g>
</g>
</svg>
