<?xml version="1.0" encoding="utf-8"?>
<!-- Generator: Adobe Illustrator 26.5.0, SVG Export Plug-In . SVG Version: 6.00 Build 0)  -->
<svg version="1.1" id="レイヤー_1" xmlns="http://www.w3.org/2000/svg" xmlns:xlink="http://www.w3.org/1999/xlink" x="0px"
	 y="0px" width="300px" height="256px" viewBox="0 0 300 256" style="enable-background:new 0 0 300 256;" xml:space="preserve">
<style type="text/css">
	.st0{fill:#ABE7A7;}
	.st1{fill:#FFFFFF;}
	.st2{fill:#64D35C;}
</style>
<g>
	<g>
		<path class="st0" d="M194.6,65.1c-0.4-0.1-0.7-0.2-1-0.5c-0.6-0.7-0.5-1.7,0.2-2.2c20.2-17.5,8.4-35.5,7.8-36.4
			c-0.5-0.7-0.2-1.7,0.5-2.2c0.7-0.5,1.7-0.2,2.2,0.5c0.2,0.3,13.9,21.2-8.4,40.5C195.5,65,195,65.2,194.6,65.1z"/>
		<path class="st1" d="M129.6,53.4l-18,6.4l-16.4-6l12.6,42.7c0,0,17.4-8.4,29.7-13.9c-6.2,10.5-10.4,18.2-10.4,18.2l5.8,23.5
			l24.5-9.2c0,0,21.6-21.4,22.9-26.5c1.4-5.1,9.1-32,9.1-32s16.8-12.6,21.5-14.9c-13.3-13.7-27-15.7-34.5-7.2
			c-13.2-9.8-25.6-14.3-38.8-12.4c-13.1,1.9-36.4,4.3-36.4,4.3l14.5,20.8L129.6,53.4z"/>
		<ellipse transform="matrix(0.3134 -0.9496 0.9496 0.3134 96.7525 210.111)" class="st2" cx="193.7" cy="38.1" rx="2.1" ry="2.1"/>
		<g>
			<path class="st0" d="M203.6,6.2c0.4-1.9-0.8-3.8-2.7-4.2c-1.1-0.2-2.3,0.1-3.1,0.8c-0.4-1-1.3-1.8-2.5-2
				c-1.9-0.4-3.8,0.8-4.2,2.7c-0.2,1,0,2,0.6,2.8l3,4.8l0,0c0.2,0.4,0.6,0.6,1.1,0.8s1,0,1.3-0.2l0,0l4.8-3.1
				C202.8,8,203.4,7.2,203.6,6.2z"/>
			<path class="st0" d="M187.5,20.4c-0.4,1.9,0.8,3.8,2.7,4.2c1.1,0.2,2.3-0.1,3.1-0.8c0.4,1,1.3,1.8,2.5,2c1.9,0.4,3.8-0.8,4.2-2.7
				c0.2-1,0-2-0.6-2.8l-3-4.8l0,0c-0.2-0.4-0.6-0.6-1.1-0.8c-0.5-0.1-1,0-1.3,0.2l0,0l-4.8,3.1C188.3,18.6,187.7,19.4,187.5,20.4z"
				/>
			<path class="st0" d="M203.4,21.6c1.9,0.4,3.8-0.8,4.2-2.7c0.2-1.1-0.1-2.3-0.8-3.1c1-0.4,1.8-1.3,2-2.5c0.4-1.9-0.8-3.8-2.7-4.2
				c-1-0.2-2,0-2.8,0.6l-4.8,3l0,0c-0.4,0.2-0.6,0.6-0.8,1.1c-0.1,0.5,0,1,0.2,1.3l0,0l3.1,4.8C201.6,20.7,202.4,21.3,203.4,21.6z"
				/>
			<path class="st0" d="M187.8,5.1c-1.9-0.4-3.8,0.8-4.2,2.7c-0.2,1.1,0.1,2.3,0.8,3.1c-1,0.4-1.8,1.3-2,2.5
				c-0.4,1.9,0.8,3.8,2.7,4.2c1,0.2,2,0,2.8-0.6l4.8-3l0,0c0.4-0.2,0.6-0.6,0.8-1.1s0-1-0.2-1.3l0,0l-3.1-4.8
				C189.6,6,188.8,5.4,187.8,5.1z"/>
		</g>
	</g>
	<g>
		<g>
			<path class="st1" d="M41.6,164.4c-0.4,0-0.8-0.1-1-0.3c-0.3-0.2-0.4-0.5-0.4-0.9c0-0.4,0.1-0.7,0.2-0.9c0.2-0.3,0.4-0.4,0.8-0.5
				c0.4,0,0.6-0.1,0.8-0.2c0.2-0.1,0.3-0.2,0.4-0.4c0.1-0.2,0.2-0.4,0.3-0.8c0.1-0.4,0.1-0.9,0.2-1.4c0.1-0.6,0.1-1.2,0.2-1.8
				c0-0.6,0.1-1.2,0.1-1.7c0-0.4,0-0.7-0.2-0.8c-0.1-0.1-0.4-0.2-0.8-0.2h-0.6c-0.2,1.6-0.5,3.2-0.9,4.8c-0.5,1.6-1.1,3-1.9,4.3
				c-0.2,0.3-0.5,0.6-0.8,0.7c-0.4,0.1-0.7,0.1-1.1-0.2c-0.3-0.2-0.5-0.5-0.6-0.8c-0.1-0.3,0-0.6,0.2-0.9c0.9-1.3,1.5-2.8,2-4.5
				c0.4-1.7,0.6-3.7,0.6-6v-2h-1.4c-0.4,0-0.7-0.1-0.9-0.3c-0.2-0.2-0.3-0.5-0.3-0.9c0-0.3,0.1-0.6,0.3-0.9c0.2-0.2,0.5-0.3,0.9-0.3
				h2.7v-2.9c0-0.4,0.1-0.8,0.4-1c0.3-0.2,0.6-0.4,1-0.4c0.4,0,0.7,0.1,1,0.4c0.3,0.2,0.4,0.6,0.4,1v2.9h2.3c0.4,0,0.7,0.1,0.9,0.3
				c0.2,0.2,0.3,0.5,0.3,0.9c0,0.3-0.1,0.6-0.3,0.9c-0.2,0.2-0.5,0.3-0.9,0.3h-3.6v2.3h1.1c0.7,0,1.3,0.1,1.8,0.3c0-0.2,0-0.3,0-0.5
				c0-0.2,0.1-0.3,0.2-0.4c0.6-0.6,1.1-1.3,1.7-2.2c0.6-0.9,1-1.7,1.5-2.6c0.4-0.9,0.8-1.7,1-2.4c0.1-0.4,0.4-0.7,0.7-0.8
				c0.3-0.1,0.7-0.1,1.1,0c0.3,0.1,0.5,0.3,0.7,0.6c0.2,0.3,0.2,0.7,0,1.1c-0.2,0.5-0.4,0.9-0.6,1.4c-0.2,0.5-0.4,1-0.7,1.4h6.1
				c0.4,0,0.7,0.1,0.9,0.3c0.2,0.2,0.3,0.5,0.3,0.9c0,0.3-0.1,0.6-0.3,0.9c-0.2,0.2-0.5,0.3-0.9,0.3h-0.7c-0.2,1.6-0.5,3-0.9,4.3
				c-0.4,1.3-1,2.5-1.6,3.6c0.5,0.7,1.1,1.3,1.8,1.9c0.7,0.6,1.4,1.1,2.2,1.7c0.3,0.2,0.5,0.5,0.6,0.9c0.1,0.4,0,0.7-0.2,1
				c-0.2,0.4-0.6,0.6-1,0.6c-0.4,0.1-0.8,0-1.2-0.3c-1.5-1.1-2.8-2.2-3.8-3.5c-1.2,1.3-2.6,2.5-4.3,3.5c-0.4,0.2-0.8,0.3-1.2,0.2
				c-0.4-0.1-0.7-0.3-0.9-0.6c-0.2-0.3-0.2-0.7-0.1-1c0.1-0.4,0.4-0.6,0.7-0.8c0.9-0.5,1.6-1,2.3-1.6c0.7-0.6,1.3-1.2,1.9-1.9
				c-1.1-1.9-1.7-4.1-2.1-6.5c-0.2,0.2-0.3,0.4-0.5,0.6c-0.2,0.2-0.3,0.4-0.5,0.6c-0.4,0.4-0.9,0.6-1.4,0.5c0.1,0.2,0.2,0.5,0.2,0.7
				c0,0.3,0,0.6,0,0.9c0,1.1-0.1,2.1-0.2,3.1c-0.1,1-0.2,1.9-0.3,2.8c-0.2,1.3-0.5,2.2-1.1,2.6C43.5,164.1,42.6,164.4,41.6,164.4z
				 M51.4,155.7c0.4-0.8,0.7-1.7,0.9-2.6c0.2-0.9,0.4-1.8,0.5-2.8h-2.7c0.1,1,0.2,1.9,0.4,2.8C50.8,154.1,51.1,154.9,51.4,155.7z"/>
			<path class="st1" d="M62.4,149.5c-0.3,0-0.6-0.1-0.8-0.3c-0.2-0.2-0.3-0.5-0.3-0.7c0-0.3,0.1-0.5,0.3-0.7
				c0.2-0.2,0.4-0.3,0.8-0.3h6.5c0.3,0,0.6,0.1,0.8,0.3c0.2,0.2,0.3,0.5,0.3,0.7c0,0.3-0.1,0.5-0.3,0.7c-0.2,0.2-0.4,0.3-0.8,0.3
				H62.4z M75.9,164.6c-0.3,0-0.6-0.1-0.9-0.3c-0.2-0.2-0.3-0.5-0.3-0.9v-4.4c-0.6,0.7-1.2,1.3-1.8,2c-0.7,0.6-1.3,1.2-1.8,1.6
				c-0.3,0.2-0.6,0.3-1,0.3c-0.4,0-0.6-0.2-0.9-0.4c-0.1-0.2-0.2-0.4-0.3-0.6c-0.1,0.8-0.4,1.3-0.9,1.6c-0.5,0.3-1.3,0.4-2.3,0.4
				c-0.9,0-1.6-0.1-2-0.3c-0.5-0.2-0.8-0.5-1-1c-0.2-0.5-0.3-1.2-0.3-2c0-0.9,0.1-1.5,0.3-2c0.2-0.5,0.5-0.8,1-1
				c0.5-0.2,1.2-0.3,2-0.3c0.9,0,1.6,0.1,2,0.3c0.5,0.2,0.8,0.5,1,1c0.2,0.5,0.3,1.1,0.3,2c0,0.2,0,0.3,0,0.4c0,0.1,0,0.3,0,0.4
				c0.1-0.2,0.2-0.4,0.4-0.5c0.5-0.3,1-0.7,1.5-1.1s1-0.9,1.5-1.4c0.5-0.5,0.9-1,1.3-1.4h-3.3c-0.3,0-0.6-0.1-0.8-0.3
				c-0.2-0.2-0.3-0.5-0.3-0.8c0-0.3,0.1-0.6,0.3-0.8c0.2-0.2,0.4-0.3,0.8-0.3h4.3v-1.3h-0.3c-1.5,0-2.5-0.3-3.1-0.8
				c-0.6-0.5-0.9-1.4-0.9-2.7v-2.4c0-1.3,0.3-2.2,0.9-2.7c0.6-0.5,1.6-0.8,3.1-0.8h3.1c1.5,0,2.5,0.3,3.1,0.8
				c0.6,0.5,0.9,1.4,0.9,2.7v2.4c0,1.3-0.3,2.2-0.9,2.7c-0.6,0.5-1.7,0.8-3.1,0.8H77v1.3h4.8c0.3,0,0.6,0.1,0.8,0.3
				c0.2,0.2,0.3,0.5,0.3,0.8c0,0.3-0.1,0.5-0.3,0.8c-0.2,0.2-0.5,0.3-0.8,0.3h-3.8c0.4,0.4,0.8,0.9,1.3,1.3c0.5,0.5,1,0.9,1.6,1.4
				c0.5,0.4,1,0.8,1.5,1.1c0.3,0.2,0.4,0.4,0.5,0.7c0,0.3,0,0.6-0.2,0.9c-0.2,0.3-0.5,0.5-0.9,0.5c-0.4,0-0.7,0-1-0.3
				c-0.6-0.4-1.2-1-1.9-1.6c-0.7-0.6-1.3-1.3-1.8-1.9v4.5c0,0.4-0.1,0.7-0.3,0.9C76.5,164.5,76.2,164.6,75.9,164.6z M63.5,152.7
				c-0.3,0-0.6-0.1-0.8-0.3c-0.2-0.2-0.3-0.5-0.3-0.7c0-0.3,0.1-0.6,0.3-0.8c0.2-0.2,0.4-0.3,0.8-0.3h4.4c0.3,0,0.6,0.1,0.8,0.3
				c0.2,0.2,0.3,0.5,0.3,0.8c0,0.3-0.1,0.5-0.3,0.7c-0.2,0.2-0.4,0.3-0.8,0.3H63.5z M63.5,156c-0.3,0-0.6-0.1-0.8-0.3
				c-0.2-0.2-0.3-0.5-0.3-0.7c0-0.3,0.1-0.6,0.3-0.8c0.2-0.2,0.4-0.3,0.8-0.3h4.4c0.3,0,0.6,0.1,0.8,0.3c0.2,0.2,0.3,0.5,0.3,0.8
				c0,0.3-0.1,0.5-0.3,0.7c-0.2,0.2-0.4,0.3-0.8,0.3H63.5z M63.5,146.3c-0.3,0-0.6-0.1-0.8-0.3c-0.2-0.2-0.3-0.5-0.3-0.8
				c0-0.3,0.1-0.6,0.3-0.8c0.2-0.2,0.5-0.3,0.8-0.3h4.3c0.3,0,0.6,0.1,0.8,0.3c0.2,0.2,0.3,0.5,0.3,0.8c0,0.3-0.1,0.5-0.3,0.8
				c-0.2,0.2-0.5,0.3-0.8,0.3H63.5z M65.7,161.7c0.4,0,0.7-0.1,0.8-0.2c0.1-0.1,0.2-0.5,0.2-1c0-0.5-0.1-0.9-0.2-1
				c-0.1-0.1-0.4-0.2-0.8-0.2c-0.4,0-0.7,0.1-0.8,0.2c-0.1,0.1-0.2,0.5-0.2,1c0,0.6,0.1,0.9,0.2,1C65,161.6,65.3,161.7,65.7,161.7z
				 M72.7,147.7h1.9V146h-0.3c-0.6,0-1.1,0.1-1.3,0.3c-0.2,0.2-0.3,0.6-0.3,1.1V147.7z M74.3,151.2h0.3v-1.6h-1.9v0.2
				c0,0.5,0.1,0.9,0.3,1.1C73.3,151.1,73.7,151.2,74.3,151.2z M77,147.7h2v-0.2c0-0.5-0.1-0.9-0.3-1.1c-0.2-0.2-0.7-0.3-1.3-0.3H77
				V147.7z M77,151.2h0.3c0.6,0,1.1-0.1,1.3-0.3c0.2-0.2,0.3-0.6,0.3-1.1v-0.2h-2V151.2z"/>
			<path class="st1" d="M91.1,164.6c-0.4,0-0.7-0.1-0.9-0.4c-0.3-0.2-0.4-0.5-0.4-0.9v-8c-0.3,0.3-0.7,0.5-1,0.8
				c-0.3,0.2-0.7,0.3-1.1,0.3c-0.4,0-0.7-0.2-0.9-0.6c-0.2-0.3-0.3-0.6-0.3-1c0.1-0.4,0.2-0.6,0.5-0.9c0.4-0.3,0.8-0.7,1.3-1.1
				c0.5-0.4,1-0.9,1.5-1.4c0.5-0.5,1-1,1.4-1.4c0.4-0.5,0.8-0.9,1.1-1.3c0.2-0.3,0.5-0.4,0.9-0.5c0.3,0,0.7,0.1,0.9,0.3
				c0.3,0.2,0.5,0.5,0.5,0.9c0,0.4,0,0.7-0.3,1c-0.3,0.4-0.6,0.8-1,1.2c-0.4,0.4-0.7,0.8-1.1,1.2v10.4c0,0.4-0.1,0.7-0.4,0.9
				C91.8,164.5,91.5,164.6,91.1,164.6z M89.4,149.5c-0.3,0.2-0.7,0.4-1.1,0.4c-0.4,0-0.7-0.2-1-0.5c-0.2-0.3-0.3-0.6-0.3-1
				c0.1-0.4,0.3-0.6,0.6-0.8c0.4-0.3,0.9-0.6,1.4-1c0.5-0.4,1-0.8,1.5-1.3c0.5-0.4,0.9-0.8,1.2-1.1c0.3-0.3,0.6-0.4,1-0.4
				c0.4,0,0.7,0.1,0.9,0.3c0.3,0.3,0.4,0.6,0.4,0.9c0,0.4-0.1,0.7-0.4,0.9c-0.4,0.4-0.8,0.8-1.3,1.2c-0.5,0.4-1,0.9-1.6,1.3
				C90.3,148.8,89.9,149.1,89.4,149.5z M95.2,164.4c-0.4,0.1-0.8,0.1-1.1,0c-0.3-0.1-0.5-0.4-0.6-0.7c-0.1-0.4-0.1-0.7,0.1-1
				c0.2-0.3,0.5-0.5,0.8-0.6c1.6-0.4,3.1-1,4.4-1.7c-0.3-0.3-0.6-0.6-0.9-1c-0.3-0.3-0.5-0.7-0.8-1.1c-0.6,0.7-1.2,1.3-1.8,1.8
				c-0.3,0.3-0.7,0.4-1,0.4c-0.4,0-0.7-0.1-0.9-0.4c-0.2-0.2-0.3-0.5-0.3-0.9c0-0.3,0.2-0.6,0.4-0.9c0.6-0.5,1.3-1.2,2-2
				c0.7-0.8,1.4-1.6,1.9-2.3c-0.5,0-1,0.1-1.5,0.1c-0.5,0-0.9,0.1-1.2,0.1c-0.4,0-0.7-0.1-1-0.3c-0.3-0.2-0.4-0.5-0.4-0.9
				c0-0.3,0.1-0.6,0.3-0.8c0.2-0.2,0.5-0.4,0.9-0.4c0.3,0,0.7,0,1.1,0c0.4,0,0.8,0,1.3-0.1c0.2-0.2,0.4-0.4,0.6-0.6
				c0.2-0.2,0.4-0.5,0.7-0.7c-0.3-0.3-0.7-0.6-1.1-0.9c-0.4-0.3-0.8-0.7-1.2-1c-0.4-0.3-0.7-0.5-1-0.7c-0.3-0.2-0.4-0.4-0.5-0.8
				c-0.1-0.3,0-0.6,0.2-0.9c0.2-0.3,0.5-0.5,0.8-0.5c0.3-0.1,0.6,0,0.9,0.2c0.1,0.1,0.2,0.1,0.3,0.2c0.1,0.1,0.2,0.2,0.3,0.3
				c0.3-0.4,0.6-0.8,0.9-1.3c0.4-0.5,0.6-0.9,0.8-1.2c0.2-0.3,0.5-0.5,0.8-0.5c0.3-0.1,0.7,0,1,0.2c0.3,0.2,0.5,0.4,0.6,0.8
				c0.1,0.3,0,0.7-0.2,0.9c-0.3,0.4-0.6,0.8-1,1.3c-0.4,0.5-0.7,0.9-1,1.3c0.2,0.2,0.4,0.3,0.6,0.4c0.2,0.1,0.4,0.3,0.5,0.4
				c0.6-0.7,1.2-1.4,1.7-2.1c0.5-0.7,1-1.2,1.3-1.7c0.2-0.3,0.5-0.5,0.8-0.5c0.3,0,0.7,0,1,0.3c0.3,0.2,0.4,0.5,0.5,0.8
				c0,0.3,0,0.6-0.3,0.9c-0.3,0.4-0.8,1-1.3,1.6c-0.5,0.6-1.1,1.2-1.7,1.9c-0.6,0.7-1.2,1.3-1.7,1.9c0.6,0,1.1-0.1,1.7-0.1
				s1.1-0.1,1.5-0.1c-0.1-0.1-0.1-0.1-0.2-0.2c-0.1-0.1-0.1-0.1-0.1-0.2c-0.2-0.2-0.3-0.5-0.3-0.8c0-0.3,0.2-0.6,0.4-0.8
				c0.3-0.2,0.6-0.3,0.9-0.3c0.3,0,0.6,0.2,0.9,0.4c0.2,0.3,0.5,0.6,0.9,1c0.4,0.4,0.7,0.8,1,1.3c0.3,0.4,0.6,0.8,0.8,1
				c0.2,0.3,0.3,0.6,0.3,1c0,0.3-0.2,0.6-0.5,0.8c-0.3,0.2-0.6,0.3-1,0.2c-0.4-0.1-0.6-0.2-0.8-0.5c-0.1-0.1-0.2-0.2-0.3-0.4
				c-0.1-0.1-0.2-0.3-0.3-0.4c-0.6,0.1-1.2,0.1-2,0.2c-0.8,0.1-1.6,0.2-2.5,0.2c-0.1,0.2-0.2,0.4-0.4,0.6c-0.1,0.2-0.3,0.4-0.4,0.6
				h2.2c1,0,1.7,0.2,2.2,0.7c0.5,0.4,0.7,1,0.6,1.6c-0.1,0.6-0.4,1.3-1,2c-0.3,0.4-0.7,0.7-1.1,1.1c1.3,0.8,2.8,1.3,4.3,1.6
				c0.4,0.1,0.7,0.3,0.9,0.6c0.2,0.3,0.2,0.6,0.1,1c-0.1,0.4-0.3,0.6-0.7,0.8c-0.3,0.1-0.7,0.2-1.2,0.1c-1-0.2-1.9-0.5-2.9-0.9
				c-1-0.4-1.8-0.9-2.7-1.4C99.2,163.1,97.4,163.9,95.2,164.4z M100.9,159c0.4-0.3,0.7-0.6,1-0.9c0.3-0.3,0.4-0.5,0.3-0.7
				c-0.1-0.2-0.3-0.3-0.7-0.3h-2.3c0.2,0.3,0.5,0.7,0.8,1C100.3,158.4,100.6,158.7,100.9,159z"/>
			<path class="st1" d="M124.2,164.7c-0.4,0-0.7-0.1-1-0.4c-0.3-0.3-0.4-0.6-0.5-1c0-0.4,0.1-0.7,0.4-0.9c0.2-0.3,0.6-0.4,0.9-0.4
				c0.7,0,1.1-0.1,1.3-0.3c0.2-0.2,0.3-0.5,0.3-1v-1.5H119c0,0,0.1,0,0.1,0.1c0,0,0.1,0.1,0.1,0.1c0.2,0.2,0.5,0.5,0.9,0.9
				c0.4,0.4,0.6,0.6,0.8,0.9c0.3,0.3,0.4,0.7,0.4,1c0,0.4-0.2,0.7-0.5,1c-0.3,0.3-0.7,0.4-1,0.3c-0.4,0-0.7-0.2-1-0.5
				c-0.2-0.2-0.5-0.6-0.8-0.9c-0.3-0.4-0.6-0.7-0.9-0.9c-0.2-0.3-0.4-0.6-0.3-0.9c0-0.3,0.2-0.6,0.5-0.9c0,0,0.1-0.1,0.1-0.1
				c0,0,0.1,0,0.1-0.1h-3.6c-0.3,0-0.6-0.1-0.8-0.3c-0.2-0.2-0.3-0.5-0.3-0.8c0-0.3,0.1-0.6,0.3-0.8c0.2-0.2,0.5-0.3,0.8-0.3h11.8
				v-1.3H113c-0.3,0-0.5-0.1-0.7-0.3c-0.2-0.2-0.3-0.5-0.3-0.8c0-0.3,0.1-0.6,0.3-0.8c0.2-0.2,0.5-0.3,0.7-0.3h8.3v-1.1h-5.7
				c-0.3,0-0.5-0.1-0.7-0.3c-0.2-0.2-0.3-0.5-0.3-0.7c0-0.3,0.1-0.5,0.3-0.8c0.2-0.2,0.4-0.3,0.7-0.3h5.7v-0.3
				c0-0.5,0.2-0.9,0.6-1.1c-0.1-0.4-0.1-0.7,0.2-1c0.4-0.5,0.7-1.1,1.1-1.8c0.4-0.7,0.7-1.3,0.9-1.9c0.1-0.4,0.4-0.6,0.7-0.7
				c0.3-0.1,0.7-0.1,1,0c0.4,0.1,0.6,0.3,0.7,0.6c0.1,0.3,0.2,0.6,0,0.9c0,0.1-0.1,0.2-0.1,0.3c0,0.1-0.1,0.2-0.1,0.3h5.6
				c0.3,0,0.6,0.1,0.8,0.3c0.2,0.2,0.3,0.5,0.3,0.7c0,0.3-0.1,0.5-0.3,0.7c-0.2,0.2-0.4,0.3-0.8,0.3H129c0.1,0.2,0.1,0.3,0.2,0.5
				c0.1,0.2,0.1,0.3,0.1,0.4c0.1,0.3,0.1,0.6,0,0.9c-0.1,0.3-0.4,0.5-0.7,0.6c-0.3,0.1-0.7,0.1-1,0c-0.3-0.1-0.5-0.3-0.6-0.6
				c-0.1-0.2-0.2-0.5-0.3-0.9c-0.1-0.3-0.2-0.6-0.3-0.9h-1.1c-0.1,0.2-0.3,0.5-0.4,0.7c-0.1,0.2-0.3,0.4-0.4,0.6
				c-0.1,0.2-0.3,0.4-0.5,0.5c0.1,0.2,0.1,0.4,0.1,0.6v0.3h5.9c0.3,0,0.6,0.1,0.8,0.3c0.2,0.2,0.3,0.5,0.3,0.8
				c0,0.3-0.1,0.5-0.3,0.7c-0.2,0.2-0.5,0.3-0.8,0.3H124v1.1h8.3c0.3,0,0.6,0.1,0.8,0.3c0.2,0.2,0.3,0.5,0.3,0.8
				c0,0.3-0.1,0.5-0.3,0.8c-0.2,0.2-0.5,0.3-0.8,0.3h-3.9v1.3h3.1c0.3,0,0.6,0.1,0.8,0.3c0.2,0.2,0.3,0.5,0.3,0.8
				c0,0.3-0.1,0.6-0.3,0.8c-0.2,0.2-0.5,0.3-0.8,0.3h-3.1v2.1c0,1.2-0.3,2.1-1,2.7C126.8,164.5,125.7,164.7,124.2,164.7z
				 M119.1,149.8c-0.4,0.1-0.7,0.1-1,0c-0.3-0.1-0.5-0.3-0.6-0.6c-0.1-0.2-0.2-0.5-0.3-0.9c-0.1-0.3-0.2-0.6-0.3-0.9h-1.1
				c-0.2,0.3-0.4,0.7-0.6,0.9c-0.2,0.3-0.4,0.6-0.6,0.8c-0.2,0.3-0.5,0.5-0.9,0.6c-0.3,0.1-0.7,0-1-0.2c-0.3-0.2-0.5-0.4-0.5-0.8
				c-0.1-0.4,0-0.7,0.2-0.9c0.5-0.6,1-1.3,1.4-2c0.5-0.7,0.8-1.4,1.1-2c0.2-0.4,0.4-0.6,0.7-0.7c0.3-0.1,0.7-0.1,1,0
				c0.4,0.1,0.6,0.3,0.7,0.6c0.1,0.3,0.1,0.6-0.1,1c0,0.1-0.1,0.1-0.1,0.2c0,0.1-0.1,0.2-0.1,0.2h4.3c0.3,0,0.6,0.1,0.8,0.3
				c0.2,0.2,0.3,0.5,0.3,0.7c0,0.3-0.1,0.5-0.3,0.7c-0.2,0.2-0.4,0.3-0.8,0.3h-1.8c0.1,0.2,0.1,0.3,0.2,0.5c0.1,0.2,0.1,0.3,0.2,0.4
				c0.1,0.3,0.1,0.6,0,0.9C119.7,149.5,119.5,149.7,119.1,149.8z"/>
			<path class="st1" d="M141.3,163.2c-0.3,0.2-0.7,0.2-1.1,0.1c-0.4-0.1-0.7-0.3-0.9-0.7c-0.2-0.3-0.2-0.7-0.1-1.1
				c0.1-0.4,0.3-0.7,0.7-0.9c1.6-0.9,2.9-1.9,3.9-3.2c1-1.3,1.6-2.7,1.9-4.1h-6.7c-0.4,0-0.7-0.1-1-0.4c-0.3-0.3-0.4-0.6-0.4-1
				c0-0.4,0.1-0.7,0.4-1c0.3-0.3,0.6-0.4,1-0.4h15.2c0.4,0,0.7,0.1,1,0.4c0.3,0.3,0.4,0.6,0.4,1c0,0.4-0.1,0.7-0.4,1
				c-0.3,0.3-0.6,0.4-1,0.4h-5.8c-0.2,1.3-0.5,2.6-1.2,3.8c-0.6,1.2-1.4,2.4-2.4,3.4C143.7,161.7,142.6,162.5,141.3,163.2z
				 M141.6,148.5c-0.4,0-0.7-0.1-1-0.4c-0.3-0.3-0.4-0.6-0.4-1c0-0.4,0.1-0.7,0.4-1c0.3-0.3,0.6-0.4,1-0.4h9.8c0.4,0,0.7,0.1,1,0.4
				c0.3,0.3,0.4,0.6,0.4,1c0,0.4-0.1,0.7-0.4,1c-0.3,0.3-0.6,0.4-1,0.4H141.6z M156.3,150.3c-0.2,0.2-0.4,0.3-0.7,0.2
				c-0.3,0-0.5-0.2-0.7-0.4c-0.2-0.2-0.4-0.5-0.6-0.9c-0.3-0.3-0.5-0.6-0.7-0.9c-0.1-0.2-0.2-0.4-0.2-0.6c0-0.2,0.1-0.5,0.3-0.6
				c0.2-0.2,0.4-0.2,0.6-0.2c0.2,0,0.4,0.1,0.6,0.3c0.2,0.2,0.5,0.5,0.8,0.8c0.3,0.3,0.5,0.6,0.7,0.9c0.2,0.2,0.2,0.5,0.2,0.7
				C156.6,149.9,156.5,150.1,156.3,150.3z M158.5,148.4c-0.2,0.2-0.4,0.3-0.7,0.3c-0.3,0-0.5-0.1-0.7-0.3c-0.2-0.2-0.4-0.5-0.7-0.8
				c-0.3-0.3-0.5-0.6-0.8-0.8c-0.2-0.2-0.2-0.3-0.2-0.6c0-0.2,0.1-0.5,0.3-0.7c0.2-0.2,0.4-0.3,0.6-0.3c0.2,0,0.5,0.1,0.7,0.2
				c0.2,0.2,0.5,0.4,0.8,0.7c0.3,0.3,0.6,0.6,0.8,0.9c0.2,0.2,0.2,0.5,0.2,0.7C158.8,148,158.7,148.2,158.5,148.4z"/>
			<path class="st1" d="M169.6,163.7c-0.4,0-0.7-0.1-1-0.4c-0.3-0.3-0.4-0.6-0.4-1V153c-1,0.9-2,1.7-3,2.5c-1,0.8-2.1,1.5-3.1,2.2
				c-0.3,0.2-0.7,0.3-1.1,0.2c-0.4-0.1-0.7-0.3-0.9-0.6c-0.2-0.3-0.3-0.7-0.2-1.1c0.1-0.4,0.3-0.7,0.6-0.9c1-0.6,2-1.3,3-2.1
				c1-0.8,2.1-1.6,3.1-2.6c1-0.9,1.9-1.8,2.8-2.7c0.9-0.9,1.6-1.8,2.1-2.6c0.2-0.3,0.5-0.5,0.9-0.6c0.4-0.1,0.7,0,1.1,0.2
				c0.3,0.2,0.5,0.5,0.6,0.9c0.1,0.4,0,0.7-0.2,1.1c-0.8,1.1-1.8,2.2-2.9,3.4v11.9c0,0.4-0.1,0.7-0.4,1
				C170.4,163.5,170,163.7,169.6,163.7z"/>
			<path class="st1" d="M187.5,163.6c-0.4,0.2-0.7,0.2-1.1,0c-0.4-0.1-0.6-0.4-0.8-0.7c-0.2-0.4-0.2-0.7,0-1.1
				c0.1-0.4,0.4-0.6,0.7-0.8c1.7-0.8,3-1.9,3.8-3.3c0.8-1.4,1.3-3.2,1.3-5.3h-3.5c0,0.6,0,1.2,0,1.7s0,1,0,1.5c0,0.4-0.2,0.7-0.5,1
				c-0.3,0.3-0.6,0.4-1,0.4c-0.4,0-0.7-0.2-0.9-0.5c-0.2-0.3-0.4-0.6-0.3-1c0-0.4,0-0.9,0-1.4c0-0.5,0-1.1,0-1.6h-4.7
				c-0.4,0-0.7-0.1-1-0.4c-0.3-0.3-0.4-0.6-0.4-1c0-0.4,0.1-0.7,0.4-1c0.3-0.3,0.6-0.4,1-0.4h4.6c0-0.5-0.1-1-0.1-1.5
				c0-0.5-0.1-0.9-0.1-1.3c-0.1-0.4,0-0.7,0.2-1c0.2-0.3,0.5-0.5,0.9-0.6c0.4-0.1,0.8,0,1.1,0.2c0.3,0.2,0.5,0.5,0.5,0.9
				c0.1,0.4,0.1,0.9,0.2,1.5c0,0.6,0.1,1.2,0.1,1.8h3.6c0-0.7,0-1.3-0.1-1.9c0-0.6-0.1-1.2-0.1-1.6c0-0.4,0.1-0.7,0.3-1
				c0.3-0.3,0.6-0.5,1-0.5c0.4,0,0.7,0.1,1,0.3c0.3,0.3,0.5,0.6,0.5,1c0,0.5,0.1,1,0.1,1.7s0,1.4,0.1,2.1h4.4c0.4,0,0.7,0.1,1,0.4
				c0.3,0.3,0.4,0.6,0.4,1c0,0.4-0.1,0.7-0.4,1c-0.3,0.3-0.6,0.4-1,0.4h-4.4c0,2.7-0.6,5-1.8,6.9
				C191.3,161.2,189.6,162.6,187.5,163.6z"/>
			<path class="st1" d="M205.8,155.4c-0.4,0-0.7-0.1-1-0.4c-0.3-0.3-0.4-0.6-0.4-1c0-0.4,0.1-0.7,0.4-1c0.3-0.3,0.6-0.4,1-0.4h14.3
				c0.4,0,0.7,0.1,1,0.4s0.4,0.6,0.4,1c0,0.4-0.1,0.7-0.4,1c-0.3,0.3-0.6,0.4-1,0.4H205.8z"/>
			<path class="st1" d="M241.4,161.9c-2.9,0.5-5.2,0.7-6.9,0.6c-1.8-0.1-3.1-0.5-4-1.2c-0.7-0.5-1.1-1.2-1.3-2
				c-0.2-0.8-0.4-1.8-0.4-3.1v-9.3c0-0.4,0.1-0.7,0.4-1s0.6-0.4,1-0.4c0.4,0,0.7,0.1,1,0.4c0.3,0.3,0.4,0.6,0.4,1v5.1
				c1.3-0.3,2.6-0.7,3.9-1.1c1.3-0.4,2.5-0.8,3.6-1.2c0.4-0.2,0.8-0.1,1.1,0c0.4,0.2,0.6,0.4,0.7,0.8c0.1,0.4,0.1,0.7,0,1.1
				c-0.2,0.4-0.4,0.6-0.8,0.7c-1.3,0.5-2.7,0.9-4.2,1.3c-1.5,0.4-3,0.8-4.3,1.1v1.5c0,0.9,0.1,1.6,0.2,1.9s0.4,0.7,0.6,0.9
				c0.4,0.3,0.9,0.4,1.5,0.6c0.7,0.1,1.5,0.1,2.7,0.1c1.1-0.1,2.6-0.3,4.3-0.6c0.4-0.1,0.8,0,1.1,0.2c0.3,0.2,0.5,0.6,0.6,1
				c0.1,0.4,0,0.7-0.2,1C242.1,161.7,241.8,161.9,241.4,161.9z M243.9,150.5c-0.2,0.2-0.4,0.3-0.7,0.3c-0.3,0-0.5-0.1-0.7-0.3
				c-0.2-0.2-0.4-0.5-0.7-0.8c-0.3-0.3-0.6-0.6-0.8-0.8c-0.2-0.1-0.2-0.3-0.3-0.6c0-0.2,0.1-0.5,0.3-0.7c0.2-0.2,0.4-0.3,0.6-0.3
				c0.2,0,0.5,0.1,0.7,0.2c0.2,0.2,0.5,0.4,0.9,0.7c0.3,0.3,0.6,0.6,0.8,0.8c0.2,0.2,0.3,0.4,0.3,0.7
				C244.2,150,244.1,150.3,243.9,150.5z M244.5,148.4c-0.2-0.2-0.5-0.5-0.8-0.7c-0.3-0.3-0.6-0.5-0.9-0.7c-0.2-0.1-0.2-0.3-0.3-0.6
				c0-0.2,0-0.5,0.2-0.7c0.2-0.2,0.3-0.3,0.6-0.3c0.2,0,0.5,0,0.7,0.1c0.3,0.2,0.6,0.4,0.9,0.6c0.3,0.3,0.6,0.5,0.9,0.8
				c0.2,0.2,0.3,0.4,0.3,0.7c0,0.3-0.1,0.5-0.3,0.7c-0.2,0.2-0.4,0.3-0.7,0.3C245,148.7,244.7,148.6,244.5,148.4z"/>
			<path class="st1" d="M251.6,162.2c-0.3,0.2-0.7,0.2-1.1,0.1c-0.4-0.1-0.6-0.4-0.8-0.7c-0.2-0.4-0.2-0.7-0.1-1.1
				c0.1-0.4,0.4-0.6,0.7-0.8c2.2-1.1,4.1-2.3,5.8-3.8c1.7-1.5,3.1-3.1,4.2-4.9c0.7-1.1,0.3-1.7-1.1-1.7H253c-0.4,0-0.7-0.1-1-0.4
				c-0.3-0.3-0.4-0.6-0.4-1c0-0.4,0.1-0.7,0.4-1s0.6-0.4,1-0.4h6.4c1.4,0,2.4,0.2,3.2,0.7c0.7,0.5,1.1,1.2,1.2,2
				c0.1,0.9-0.2,1.8-0.9,3c-0.3,0.6-0.7,1.2-1.2,1.8c0.7,0.6,1.4,1.2,2.2,1.9c0.7,0.7,1.4,1.4,2.1,2c0.7,0.7,1.2,1.2,1.6,1.7
				c0.3,0.3,0.4,0.6,0.4,1c0,0.4-0.1,0.7-0.4,1c-0.3,0.3-0.6,0.4-1,0.4c-0.4,0-0.7-0.1-1-0.4c-0.4-0.4-0.9-1-1.6-1.6
				c-0.6-0.7-1.3-1.3-2-2c-0.7-0.7-1.4-1.3-2-1.9c-1.2,1.2-2.5,2.3-3.9,3.4C254.5,160.6,253.1,161.5,251.6,162.2z"/>
		</g>
		<g>
			<path class="st1" d="M85.7,255.2c-1.3,0.1-2.5-0.2-3.3-0.9c-0.9-0.6-1.3-1.6-1.3-2.8c0-0.9,0.3-1.6,0.8-2.3
				c0.5-0.6,1.2-1.1,2.1-1.5c0.8-0.4,1.7-0.5,2.6-0.6c0.4,0,0.9,0,1.3,0.1c0.4,0.1,0.8,0.3,1.1,0.4v-1.1c0-0.8-0.2-1.3-0.5-1.6
				c-0.3-0.2-0.9-0.4-1.5-0.4c-0.5,0-1,0.1-1.5,0.2c-0.5,0.1-1,0.3-1.5,0.5c-0.4,0.2-0.8,0.3-1.2,0.2c-0.3-0.1-0.6-0.3-0.8-0.6
				c-0.2-0.4-0.3-0.7-0.1-1c0.1-0.3,0.4-0.6,0.9-0.8c0.6-0.3,1.3-0.5,2-0.7c0.7-0.2,1.5-0.3,2.2-0.3c1.6,0,2.8,0.3,3.6,1
				c0.8,0.6,1.2,1.8,1.2,3.5v5.7c0,0.2,0,0.3,0.1,0.4c0,0.1,0.1,0.2,0.1,0.2c0.2,0.2,0.3,0.4,0.5,0.4c0.2,0,0.3,0.1,0.5,0.1
				c0.1,0,0.2,0.1,0.2,0.2c0,0.3-0.1,0.6-0.2,0.8c-0.2,0.2-0.4,0.4-0.8,0.5c-0.4,0.1-0.8,0.1-1.2,0.1c-0.5,0-0.9-0.1-1.2-0.3
				c-0.3-0.2-0.5-0.5-0.6-0.9c-0.4,0.4-0.9,0.6-1.5,0.8C86.9,255.1,86.3,255.2,85.7,255.2z M85.6,252.7c1,0,1.8-0.2,2.4-0.6
				c0.6-0.3,0.9-0.8,0.9-1.5c0-0.4-0.2-0.7-0.6-0.9c-0.4-0.2-0.9-0.2-1.5-0.2c-0.8,0-1.5,0.2-2.1,0.6c-0.6,0.4-0.8,0.9-0.8,1.4
				C83.9,252.4,84.5,252.7,85.6,252.7z"/>
			<path class="st1" d="M102.1,255.1c-0.4,0-0.7-0.1-1.1-0.3c-0.3-0.2-0.6-0.5-0.8-1l-3.6-9.5c-0.2-0.6-0.2-1-0.1-1.3
				c0.2-0.3,0.5-0.5,1.1-0.5c0.9,0,1.5,0.4,1.8,1.2l2.7,7.5l2.7-7.5c0.3-0.8,0.9-1.2,1.7-1.2c0.5,0,0.8,0.2,0.9,0.5
				c0.2,0.3,0.1,0.7-0.1,1.3l-3.5,9.5c-0.2,0.4-0.4,0.8-0.8,1C102.8,255,102.5,255.1,102.1,255.1z"/>
			<path class="st1" d="M117.5,255.3c-1.8,0-3.3-0.5-4.4-1.6c-1.1-1.1-1.7-2.7-1.7-4.9c0-1.3,0.3-2.5,0.8-3.5c0.5-1,1.2-1.7,2.1-2.3
				c0.9-0.5,1.9-0.8,3.1-0.8c1.2,0,2.1,0.3,3,0.8c0.8,0.5,1.4,1.2,1.9,2.1c0.4,0.8,0.6,1.7,0.6,2.6c0,0.6-0.1,1.1-0.4,1.3
				c-0.3,0.2-0.6,0.3-1.1,0.3h-7c0.1,1.2,0.4,2.1,1,2.7c0.6,0.5,1.3,0.8,2.3,0.8c1.1,0,1.9-0.4,2.5-1.1c0.3-0.4,0.7-0.6,1-0.7
				c0.3-0.1,0.6,0,1,0.2c0.3,0.2,0.5,0.6,0.6,0.9c0.1,0.4-0.1,0.8-0.5,1.2c-0.6,0.7-1.3,1.2-2,1.5
				C119.3,255.2,118.5,255.3,117.5,255.3z M114.4,247.1h5.5c-0.1-0.8-0.4-1.4-0.9-1.9c-0.5-0.4-1-0.7-1.7-0.7
				c-0.8,0-1.4,0.2-1.9,0.6C114.9,245.6,114.6,246.2,114.4,247.1z"/>
			<path class="st1" d="M129.5,255.3c-0.5,0-1-0.2-1.4-0.6s-0.6-0.8-0.6-1.4c0-0.6,0.2-1,0.6-1.4c0.4-0.4,0.9-0.6,1.4-0.6
				c0.5,0,1,0.2,1.4,0.6c0.4,0.4,0.6,0.8,0.6,1.4c0,0.5-0.2,1-0.6,1.4C130.5,255.1,130,255.3,129.5,255.3z"/>
			<path class="st1" d="M143,255.3c-1.5,0-2.6-0.6-3.5-1.9v0.5c0,0.4-0.1,0.7-0.4,0.9c-0.3,0.2-0.6,0.2-1,0.2
				c-0.9,0-1.3-0.5-1.3-1.5v-15.4c0-1,0.5-1.5,1.5-1.5c1,0,1.5,0.5,1.5,1.5v5.6c0.4-0.4,0.9-0.8,1.5-1c0.6-0.3,1.1-0.4,1.8-0.4
				c1.2,0,2.2,0.3,3.1,0.8c0.9,0.5,1.6,1.3,2.1,2.2c0.5,1,0.8,2.1,0.8,3.5c0,1.4-0.3,2.5-0.8,3.5c-0.5,1-1.2,1.7-2.1,2.2
				C145.2,255.1,144.1,255.3,143,255.3z M142.9,252.7c0.9,0,1.7-0.3,2.3-1c0.6-0.7,0.9-1.6,0.9-2.9s-0.3-2.2-0.9-2.9
				c-0.6-0.7-1.4-1-2.3-1c-0.9,0-1.7,0.3-2.3,1c-0.6,0.7-0.9,1.6-0.9,2.9s0.3,2.2,0.9,2.9C141.2,252.4,141.9,252.7,142.9,252.7z"/>
			<path class="st1" d="M155.4,255.1c-1,0-1.5-0.5-1.5-1.5v-15.4c0-1,0.5-1.5,1.5-1.5c1,0,1.5,0.5,1.5,1.5v15.4
				C156.9,254.5,156.4,255.1,155.4,255.1z"/>
			<path class="st1" d="M166.5,255.2c-1.3,0.1-2.5-0.2-3.3-0.9c-0.9-0.6-1.3-1.6-1.3-2.8c0-0.9,0.3-1.6,0.8-2.3
				c0.5-0.6,1.2-1.1,2.1-1.5c0.8-0.4,1.7-0.5,2.6-0.6c0.4,0,0.9,0,1.3,0.1c0.4,0.1,0.8,0.3,1.1,0.4v-1.1c0-0.8-0.2-1.3-0.5-1.6
				c-0.3-0.2-0.9-0.4-1.5-0.4c-0.5,0-1,0.1-1.5,0.2c-0.5,0.1-1,0.3-1.5,0.5c-0.4,0.2-0.8,0.3-1.2,0.2c-0.3-0.1-0.6-0.3-0.8-0.6
				c-0.2-0.4-0.3-0.7-0.1-1c0.1-0.3,0.4-0.6,0.9-0.8c0.6-0.3,1.3-0.5,2-0.7c0.7-0.2,1.5-0.3,2.2-0.3c1.6,0,2.8,0.3,3.6,1
				c0.8,0.6,1.2,1.8,1.2,3.5v5.7c0,0.2,0,0.3,0.1,0.4c0,0.1,0.1,0.2,0.1,0.2c0.2,0.2,0.3,0.4,0.5,0.4c0.2,0,0.3,0.1,0.5,0.1
				c0.1,0,0.2,0.1,0.2,0.2c0,0.3-0.1,0.6-0.2,0.8c-0.2,0.2-0.4,0.4-0.8,0.5c-0.4,0.1-0.8,0.1-1.2,0.1c-0.5,0-0.9-0.1-1.2-0.3
				c-0.3-0.2-0.5-0.5-0.6-0.9c-0.4,0.4-0.9,0.6-1.5,0.8C167.7,255.1,167.1,255.2,166.5,255.2z M166.5,252.7c1,0,1.8-0.2,2.4-0.6
				c0.6-0.3,0.9-0.8,0.9-1.5c0-0.4-0.2-0.7-0.6-0.9c-0.4-0.2-0.9-0.2-1.5-0.2c-0.8,0-1.5,0.2-2.1,0.6c-0.6,0.4-0.8,0.9-0.8,1.4
				C164.7,252.4,165.3,252.7,166.5,252.7z"/>
			<path class="st1" d="M179.9,255.1c-1,0-1.5-0.5-1.5-1.5v-9.4c0-1,0.4-1.5,1.3-1.5s1.3,0.2,1.4,0.7l0.1,0.8
				c0.3-0.5,0.8-0.9,1.4-1.3c0.6-0.4,1.2-0.5,2-0.5c1.3,0,2.4,0.4,3.2,1.2c0.8,0.8,1.2,2,1.2,3.7v6.3c0,1-0.5,1.5-1.5,1.5
				c-1,0-1.5-0.5-1.5-1.5v-5.6c0-1-0.2-1.7-0.6-2.2c-0.4-0.5-0.9-0.7-1.6-0.7c-0.7,0-1.3,0.3-1.8,0.8c-0.5,0.5-0.7,1.3-0.7,2.3v5.6
				C181.4,254.5,180.9,255.1,179.9,255.1z"/>
			<path class="st1" d="M200,255.3c-1.1,0-2.2-0.3-3.1-0.8c-0.9-0.5-1.6-1.3-2.2-2.3c-0.5-1-0.8-2.1-0.8-3.4c0-1.3,0.3-2.5,0.8-3.4
				c0.5-1,1.2-1.7,2.2-2.3c0.9-0.5,1.9-0.8,3.1-0.8c1.5,0,2.7,0.4,3.7,1.2c0.4,0.3,0.6,0.7,0.6,1c0,0.4-0.2,0.7-0.6,1
				c-0.4,0.3-0.7,0.4-1,0.3c-0.3,0-0.6-0.2-1-0.5c-0.5-0.3-1-0.5-1.7-0.5c-0.9,0-1.6,0.3-2.2,1s-0.9,1.6-0.9,2.9s0.3,2.2,0.9,2.9
				s1.3,1,2.2,1c0.6,0,1.2-0.2,1.6-0.5c0.4-0.2,0.7-0.4,1-0.5c0.3-0.1,0.6,0,1,0.3c0.4,0.3,0.6,0.6,0.6,1c0.1,0.4-0.1,0.7-0.5,1
				C202.7,254.9,201.4,255.3,200,255.3z"/>
			<path class="st1" d="M214.5,255.3c-1.1,0-2.2-0.3-3.1-0.8c-0.9-0.5-1.6-1.3-2.2-2.3c-0.5-1-0.8-2.1-0.8-3.4
				c0-1.3,0.3-2.5,0.8-3.4c0.5-1,1.2-1.7,2.2-2.3c0.9-0.5,1.9-0.8,3.1-0.8c1.2,0,2.2,0.3,3.1,0.8c0.9,0.5,1.6,1.3,2.1,2.3
				c0.5,1,0.8,2.1,0.8,3.4c0,1.3-0.3,2.5-0.8,3.4c-0.5,1-1.2,1.7-2.1,2.3C216.7,255.1,215.7,255.3,214.5,255.3z M214.5,252.7
				c0.9,0,1.7-0.3,2.2-1c0.6-0.7,0.9-1.6,0.9-2.9s-0.3-2.2-0.9-2.9c-0.6-0.7-1.3-1-2.2-1c-0.9,0-1.6,0.3-2.2,1s-0.9,1.6-0.9,2.9
				s0.3,2.2,0.9,2.9S213.6,252.7,214.5,252.7z"/>
		</g>
		<g>
			<path class="st1" d="M2.1,194.1l-0.6-9.9h36.3v8.7c-1.6,12.9-12,12.5-12,12.5l-1.7-0.1c0,0,4.4-5.4,4-12.1L2.1,194.1z M8.2,225.5
				c0,0,5.3-6.6,4.6-25.1l9.9,0.3c0.8,25.9-11.9,24.8-11.9,24.8L8.2,225.5z"/>
			<path class="st1" d="M48,209.6l17.3-18.2l27.1,23.3l-6.9,7.2l-19.5-18l-10.6,12.4L48,209.6z"/>
			<path class="st1" d="M142.6,185.6h1.2c-1.1,34.5-21.5,44.3-28.8,38.3l-2.3-1.7c11.1-2.5,19.3-13.4,19.9-27.9l-23.2,0.9l-0.6-9.6
				h29H142.6z"/>
			<path class="st1" d="M163.7,195.8h34.8c0,21.1-10.1,32.4-21.1,29.1l-1.1-1.2c5.7-4.4,10-9.4,11.7-19l-23.7,1L163.7,195.8z
				 M194.5,182.4v8.6l-26.2,1.3l-0.6-9.9H194.5z"/>
			<path class="st1" d="M234.2,194.7l-5.8,6.4l-10.2-7.6l6.2-7.8L234.2,194.7z M252.4,198.1c1.8,5.3-0.2,20.5-29.5,25.7l-2.7-10.3
				c24-3.4,31-18.2,31-18.2L252.4,198.1z"/>
			<path class="st1" d="M268.4,223.2l-0.6-9.9h21.3l-0.3-16.1l-20.4,0.9l-0.6-9.9h30.7l-0.4,33.9L268.4,223.2z"/>
		</g>
		<circle class="st1" cx="79.5" cy="193" r="4.2"/>
		<circle class="st1" cx="89.3" cy="192.1" r="4.2"/>
		<ellipse transform="matrix(0.8959 -0.4443 0.4443 0.8959 -65.0662 81.3355)" class="st1" cx="141" cy="179.5" rx="4.2" ry="4.2"/>
		<ellipse transform="matrix(0.8959 -0.4443 0.4443 0.8959 -65.8765 85.7383)" class="st1" cx="150" cy="183.4" rx="4.2" ry="4.2"/>
	</g>
</g>
</svg>
