<?xml version="1.0" encoding="utf-8"?>
<!-- Generator: Adobe Illustrator 26.5.0, SVG Export Plug-In . SVG Version: 6.00 Build 0)  -->
<svg version="1.1" id="レイヤー_1" xmlns="http://www.w3.org/2000/svg" xmlns:xlink="http://www.w3.org/1999/xlink" x="0px"
	 y="0px" width="400px" height="88.4px" viewBox="0 0 400 88.4" style="enable-background:new 0 0 400 88.4;" xml:space="preserve">
<style type="text/css">
	.st0{fill:#FFFFFF;}
	.st1{fill:#64D35C;}
</style>
<g>
	<path class="st0" d="M356.1,87.9H43.9C19.7,87.9,0,68.2,0,43.9v0C0,19.7,19.7,0,43.9,0h312.1C380.3,0,400,19.7,400,43.9v0
		C400,68.2,380.3,87.9,356.1,87.9z"/>
	<g>
		<g>
			<path class="st1" d="M147.5,58.3c-0.6,0-1.1-0.3-1.6-0.7c-0.4-0.4-0.6-1-0.6-1.6c0-0.6,0.2-1.2,0.7-1.6c0.4-0.4,1-0.6,1.6-0.6
				c2,0,3.5-0.3,4.6-1c1-0.7,1.6-1.7,1.6-3c0-1.3-0.6-2.3-1.7-3c-1.1-0.7-2.8-1-4.9-1c-0.8,0-1.6,0-2.4,0.1
				c-0.8,0.1-1.5,0.2-2.2,0.3v4.6c0,2.5-0.6,4.4-1.7,5.6c-1.2,1.2-2.8,1.8-5,1.8c-1.8,0-3.2-0.5-4.4-1.4c-1.2-0.9-1.8-2.4-1.8-4.3
				c0-2,0.8-3.9,2.3-5.5c1.5-1.6,3.6-2.9,6.3-3.8v-5.5c-1.1,0.1-2.1,0.2-3.1,0.2c-1,0-1.9,0.1-2.8,0.1c-0.6,0-1.1-0.2-1.6-0.6
				c-0.4-0.4-0.7-0.9-0.7-1.5c0-0.6,0.2-1.1,0.6-1.5c0.4-0.4,1-0.6,1.6-0.6c0.9,0,1.8-0.1,2.8-0.1c1,0,2-0.1,3.1-0.2v-4.5
				c0-0.6,0.2-1.2,0.6-1.6c0.4-0.4,0.9-0.6,1.5-0.6c0.6,0,1.1,0.2,1.5,0.6c0.4,0.4,0.6,1,0.6,1.6v4.2c0.6,0,1.1-0.1,1.6-0.2
				c0.5-0.1,1-0.1,1.4-0.2c0.6-0.1,1.2,0,1.7,0.3c0.5,0.3,0.8,0.8,0.9,1.4c0.1,0.6,0,1.1-0.4,1.6s-0.9,0.7-1.5,0.8
				c-0.5,0.1-1.1,0.2-1.7,0.3c-0.6,0.1-1.3,0.2-2,0.3v4.9c1.5-0.2,3-0.3,4.7-0.3c2.3,0,4.2,0.3,5.9,1c1.6,0.6,2.9,1.6,3.8,2.7
				c0.9,1.2,1.3,2.6,1.3,4.3c0,2.7-0.9,4.8-2.8,6.3C153.5,57.7,150.9,58.4,147.5,58.3z M135.8,54c0.7,0,1.3-0.2,1.7-0.6
				c0.4-0.4,0.6-1.3,0.6-2.5v-3.3c-1.3,0.6-2.4,1.3-3.1,2.2c-0.7,0.8-1.1,1.7-1.1,2.6C134,53.5,134.6,54,135.8,54z M155.5,40.4
				c-0.4-0.3-0.9-0.6-1.4-1c-0.6-0.4-1.1-0.7-1.7-1c-0.6-0.3-1.1-0.6-1.5-0.8c-0.5-0.3-0.9-0.7-1.2-1.3c-0.2-0.6-0.2-1.1,0-1.7
				c0.3-0.6,0.7-1,1.3-1.1c0.6-0.2,1.1-0.1,1.7,0.1c0.5,0.2,1.1,0.6,1.8,1c0.7,0.4,1.3,0.8,2,1.2c0.7,0.4,1.2,0.8,1.6,1.1
				c0.5,0.3,0.8,0.8,0.8,1.4c0.1,0.6-0.1,1.1-0.4,1.6c-0.4,0.5-0.8,0.7-1.4,0.8C156.6,40.8,156,40.7,155.5,40.4z"/>
			<path class="st1" d="M165.1,59.9c-0.6,0-1-0.2-1.5-0.6c-0.4-0.4-0.6-0.9-0.6-1.5V32c0-2,0.5-3.4,1.4-4.3c0.9-0.8,2.4-1.2,4.6-1.2
				h2.4c2.2,0,3.7,0.4,4.6,1.2c0.9,0.8,1.4,2.2,1.4,4.3v1.9c0,1.4-0.2,2.4-0.6,3.1c-0.4,0.7-1,1.3-1.9,1.6c-0.9,0.3-2,0.4-3.5,0.4
				h-4.2v18.7c0,0.6-0.2,1.1-0.6,1.5C166.2,59.7,165.7,59.9,165.1,59.9z M167.2,35.8h3.8c0.9,0,1.5-0.1,1.8-0.3
				c0.3-0.2,0.5-0.7,0.6-1.3h-6.2V35.8z M167.2,31.4h6.1c0-0.6-0.2-1.1-0.6-1.3c-0.3-0.2-0.9-0.3-1.8-0.3h-1.5
				c-0.8,0-1.4,0.1-1.7,0.3C167.5,30.3,167.3,30.8,167.2,31.4z M178.6,53.8c-1.8,0-3.2-0.2-4.2-0.6c-1-0.4-1.7-1-2.1-1.9
				c-0.4-0.9-0.6-2-0.6-3.4c0-1.4,0.2-2.5,0.6-3.4c0.4-0.9,1.1-1.5,2.1-1.9c1-0.4,2.4-0.6,4.2-0.6c1.8,0,3.2,0.2,4.2,0.6
				c1,0.4,1.7,1,2.1,1.9c0.4,0.9,0.6,2,0.6,3.4c0,1.4-0.2,2.5-0.6,3.4c-0.4,0.9-1.1,1.5-2.1,1.9C181.8,53.6,180.4,53.8,178.6,53.8z
				 M178.6,50.3c1.1,0,1.8-0.2,2.2-0.5c0.4-0.3,0.6-1,0.6-1.9c0-0.9-0.2-1.6-0.6-1.9c-0.4-0.3-1.1-0.5-2.2-0.5
				c-1.1,0-1.8,0.2-2.2,0.5c-0.4,0.3-0.6,0.9-0.6,1.9c0,1,0.2,1.6,0.6,1.9C176.7,50.1,177.5,50.3,178.6,50.3z M188.8,59.7
				c-0.7,0-1.3-0.2-1.7-0.6c-0.4-0.4-0.6-0.9-0.7-1.5c-0.1-0.6,0.1-1.1,0.4-1.5c0.4-0.4,0.9-0.7,1.5-0.8c0.9-0.1,1.5-0.3,1.7-0.6
				c0.2-0.2,0.3-0.7,0.3-1.4V39.1H186c-1.4,0-2.6-0.1-3.5-0.4c-0.9-0.3-1.5-0.8-1.9-1.6c-0.4-0.7-0.6-1.8-0.6-3.1v-1.9
				c0-2,0.5-3.5,1.4-4.3c0.9-0.8,2.5-1.2,4.6-1.2h2.6c2.1,0,3.7,0.4,4.6,1.2c0.9,0.8,1.4,2.2,1.4,4.3v22.3c0,1.9-0.5,3.3-1.4,4.1
				C192.3,59.3,190.8,59.7,188.8,59.7z M184,31.4h6.3c-0.1-0.6-0.3-1.1-0.6-1.3c-0.3-0.2-0.9-0.3-1.8-0.3h-1.6
				c-0.8,0-1.4,0.1-1.8,0.3C184.3,30.3,184.1,30.8,184,31.4z M186.4,35.8h3.9v-1.7H184c0,0.7,0.2,1.1,0.6,1.3
				C184.9,35.7,185.5,35.8,186.4,35.8z"/>
			<path class="st1" d="M207.9,53.8c-1.1,0-2.2-0.2-3.2-0.8c-1-0.6-1.9-1.5-2.7-2.7c-0.7-1.1-1.2-2.5-1.7-4.2
				c-0.5-1.7-0.8-3.5-1-5.5c-0.2-2-0.2-3.9-0.1-5.9c0-0.6,0.3-1.1,0.7-1.5c0.4-0.4,1-0.6,1.6-0.5c0.6,0,1.1,0.3,1.5,0.7
				c0.4,0.5,0.6,1,0.5,1.6c-0.1,1.7-0.1,3.4,0,5c0.1,1.6,0.4,3.1,0.7,4.5c0.3,1.3,0.8,2.4,1.3,3.3c0.6,1,1.3,1.5,2.1,1.5
				c1.1,0,1.9-1.1,2.7-3.3c0.2-0.6,0.6-1,1.1-1.3c0.5-0.3,1.1-0.3,1.7-0.1c0.6,0.2,1,0.5,1.3,1.1c0.3,0.6,0.3,1.1,0.1,1.7
				c-0.7,2.2-1.6,3.8-2.8,4.8C210.5,53.2,209.2,53.7,207.9,53.8z M228,47.3c-0.6,0.2-1.2,0.2-1.7-0.1c-0.6-0.3-0.9-0.7-1.2-1.3
				c-0.4-0.9-0.9-1.8-1.5-2.8c-0.6-0.9-1.3-1.8-2.1-2.7c-0.8-0.8-1.6-1.5-2.4-2.1c-0.5-0.3-0.8-0.8-0.9-1.4c-0.1-0.6,0-1.2,0.4-1.7
				c0.4-0.5,0.9-0.8,1.5-0.8c0.6,0,1.1,0.1,1.6,0.5c1,0.7,2,1.6,3,2.6c1,1,1.9,2.1,2.7,3.3c0.8,1.2,1.4,2.3,1.8,3.5
				c0.2,0.6,0.2,1.1-0.1,1.7C228.9,46.7,228.5,47.1,228,47.3z"/>
			<path class="st1" d="M235.1,42.1c-0.6,0.4-1.2,0.6-1.9,0.5c-0.6-0.1-1.1-0.4-1.5-1c-0.4-0.6-0.5-1.1-0.3-1.7
				c0.2-0.6,0.6-1,1.1-1.3c1.5-0.9,3-1.9,4.6-3.1c1.6-1.2,3.1-2.4,4.5-3.7c1.4-1.3,2.7-2.5,3.7-3.6c1.3-1.4,2.6-2.2,3.9-2.2
				c1.3,0,2.6,0.7,4.1,2.1c1.1,1,2.3,2.1,3.7,3.3c1.4,1.2,2.9,2.3,4.4,3.4c1.6,1.1,3.1,2.1,4.7,3c0.5,0.3,0.9,0.8,1.1,1.4
				c0.2,0.6,0.1,1.2-0.3,1.8c-0.4,0.6-0.9,1-1.6,1.1c-0.7,0.1-1.3-0.1-2-0.5c-1.5-1-3-2.1-4.6-3.3c-1.6-1.2-3.1-2.4-4.6-3.7
				c-1.4-1.3-2.7-2.5-3.8-3.6c-0.3-0.4-0.7-0.6-1-0.6c-0.3,0-0.7,0.2-1,0.6c-1,1.1-2.2,2.3-3.5,3.5c-1.3,1.2-2.7,2.4-4.1,3.6
				c0.2-0.1,0.5-0.1,0.8-0.1h15.6c0.6,0,1.1,0.2,1.5,0.6c0.4,0.4,0.5,0.9,0.5,1.4c0,0.5-0.2,1-0.5,1.4c-0.4,0.4-0.8,0.6-1.5,0.6
				h-15.6c-0.6,0-1.1-0.2-1.5-0.6c-0.4-0.4-0.5-0.9-0.5-1.4c0-0.5,0.1-0.9,0.4-1.2c-0.8,0.6-1.6,1.2-2.4,1.8
				C236.6,41.1,235.8,41.6,235.1,42.1z M246.5,59.1c-2,0-3.6-0.2-4.8-0.7c-1.2-0.4-2-1.2-2.6-2.2c-0.5-1-0.8-2.4-0.8-4.2
				c0-1.8,0.3-3.2,0.8-4.2c0.5-1,1.4-1.7,2.6-2.2c1.2-0.4,2.8-0.7,4.8-0.7h5.5c2,0,3.6,0.2,4.8,0.7c1.2,0.4,2,1.2,2.6,2.2
				c0.5,1,0.8,2.4,0.8,4.2c0,1.8-0.3,3.2-0.8,4.2c-0.5,1-1.4,1.8-2.6,2.2c-1.2,0.4-2.8,0.7-4.8,0.7H246.5z M246.6,55.2h5.5
				c1.4,0,2.3-0.2,2.8-0.6c0.5-0.4,0.8-1.2,0.8-2.5c0-1.3-0.3-2.1-0.8-2.5c-0.5-0.4-1.4-0.6-2.8-0.6h-5.5c-1.4,0-2.3,0.2-2.8,0.6
				c-0.5,0.4-0.8,1.3-0.8,2.5c0,1.3,0.3,2.1,0.8,2.5C244.2,55,245.2,55.2,246.6,55.2z"/>
			<path class="st1" d="M279.4,59.6c-0.6,0-1.1-0.2-1.5-0.6c-0.4-0.4-0.6-0.9-0.6-1.5v-9.5c-0.7,0.6-1.4,1.3-2.1,2
				c-0.7,0.7-1.4,1.4-2.2,2.1c-0.4,0.4-1,0.6-1.6,0.6c-0.6,0-1.1-0.2-1.5-0.6c-0.4-0.4-0.6-1-0.6-1.6c0-0.6,0.2-1.1,0.7-1.5
				c1.2-1.1,2.3-2.2,3.6-3.3c1.2-1.1,2.4-2.1,3.7-3.1v-4.9c-0.4,0.1-1,0.2-1.6,0.3c-0.7,0.1-1.3,0.3-2,0.4c-0.6,0.1-1.1,0.3-1.5,0.3
				c-0.6,0.1-1.1,0-1.7-0.3c-0.5-0.3-0.8-0.8-1-1.4c-0.1-0.6,0-1.2,0.3-1.7c0.3-0.5,0.8-0.8,1.4-1c0.2,0,0.6-0.1,1.1-0.2
				c0.5-0.1,1.1-0.2,1.7-0.3c0.6-0.1,1.3-0.2,1.8-0.3c0.6-0.1,1.1-0.2,1.4-0.3v-5.3c0-0.6,0.2-1.1,0.6-1.5c0.4-0.4,0.9-0.6,1.5-0.6
				c0.6,0,1.1,0.2,1.5,0.6c0.4,0.4,0.6,0.9,0.6,1.5v5.3c0.7,0.2,1.4,0.7,1.8,1.4c0.3,0.5,0.5,1,0.5,1.7c0,0.6-0.2,1.3-0.4,2.1
				c1.2-0.6,2.4-1.1,3.5-1.4c1.2-0.3,2.3-0.5,3.5-0.5c3.1,0,5.6,0.8,7.2,2.4c1.7,1.6,2.5,3.8,2.5,6.4c0,1.7-0.4,3.3-1.2,4.8
				c-0.8,1.5-2.1,2.8-4,3.9c-1.8,1.1-4.3,1.9-7.4,2.4c-0.6,0.1-1.2,0-1.6-0.4c-0.5-0.4-0.8-0.8-0.9-1.5c-0.1-0.6,0-1.2,0.4-1.6
				c0.4-0.5,0.8-0.8,1.4-0.9c3.3-0.5,5.6-1.3,6.9-2.5c1.3-1.1,2-2.6,2-4.3c0-1.4-0.5-2.6-1.4-3.4c-0.9-0.8-2.3-1.2-4.1-1.2
				c-1.5,0-3,0.3-4.4,1c-1.4,0.7-2.9,1.5-4.4,2.6v13c0,0.6-0.2,1.1-0.6,1.5C280.5,59.4,280,59.6,279.4,59.6z"/>
			<path class="st1" d="M330.1,56.8c-3.4,0.4-6.3,0.4-8.8,0.1c-2.5-0.3-4.5-1.2-6.1-2.6c-1.1-1-1.8-2.2-2.4-3.6
				c-0.5-1.4-0.8-3.2-0.8-5.2V42c-1.2,0.1-2.3,0.3-3.4,0.5c-1.1,0.2-2,0.3-2.9,0.5c-0.6,0.1-1.1,0-1.6-0.4c-0.5-0.3-0.8-0.8-0.9-1.4
				c-0.1-0.6,0-1.1,0.4-1.6c0.3-0.5,0.8-0.8,1.4-0.9c1-0.1,2.1-0.3,3.3-0.5c1.2-0.2,2.4-0.3,3.8-0.5v-6.2c0-0.6,0.2-1.1,0.6-1.6
				c0.4-0.4,1-0.6,1.6-0.6c0.6,0,1.1,0.2,1.5,0.6c0.4,0.4,0.6,1,0.6,1.6v5.7c1.3-0.1,2.6-0.2,3.9-0.3c1.3-0.1,2.6-0.2,3.9-0.3
				c0.1-1.1,0.2-2.1,0.3-3.1c0.1-1,0.1-1.9,0.1-2.8c0-0.6,0.3-1.1,0.7-1.5c0.4-0.4,1-0.6,1.6-0.6c0.6,0,1.1,0.3,1.6,0.7
				c0.4,0.4,0.6,1,0.6,1.6c0,0.8-0.1,1.7-0.1,2.6c-0.1,0.9-0.1,1.9-0.2,2.8c1.1-0.1,2.1-0.1,3.2-0.2c1,0,2-0.1,2.9-0.1
				c0.6,0,1.1,0.2,1.5,0.6c0.4,0.4,0.6,0.9,0.6,1.5s-0.2,1.1-0.6,1.5c-0.4,0.4-0.9,0.6-1.5,0.6c-2,0-4.2,0-6.6,0.1
				c-0.2,1.2-0.4,2.4-0.6,3.5c-0.2,1.1-0.4,2.2-0.6,3.1c-0.1,0.6-0.5,1-1,1.3c-0.5,0.3-1.1,0.4-1.7,0.3c-0.6-0.1-1.1-0.5-1.4-1
				c-0.3-0.5-0.4-1.1-0.3-1.7c0.2-0.8,0.4-1.7,0.6-2.6c0.2-0.9,0.3-1.8,0.4-2.8c-1.2,0.1-2.4,0.2-3.6,0.3c-1.2,0.1-2.4,0.2-3.6,0.3
				v3.9c0,1.4,0.1,2.5,0.4,3.4c0.3,0.9,0.7,1.6,1.3,2.2c0.9,0.8,2.3,1.3,4.1,1.5c1.8,0.2,4.2,0.1,7.4-0.2c0.6-0.1,1.2,0.1,1.6,0.5
				c0.5,0.4,0.7,0.9,0.8,1.5c0.1,0.6-0.1,1.2-0.5,1.6C331.2,56.4,330.7,56.7,330.1,56.8z"/>
		</g>
		<g>
			<path class="st1" d="M102.7,29.8c-0.2-1.1-0.7-2.2-1.4-3c-0.1-0.2-0.3-0.4-0.5-0.5c-1.2-1.2-3-2-4.9-2h-36c-1.9,0-3.6,0.8-4.9,2
				c-0.2,0.2-0.3,0.3-0.5,0.5c-0.7,0.9-1.2,1.9-1.4,3C53,30.2,53,30.7,53,31.1v25.3c0,1,0.2,1.9,0.6,2.7c0.3,0.8,0.8,1.5,1.5,2.1
				c0.2,0.2,0.3,0.3,0.5,0.4c1.2,1,2.7,1.6,4.4,1.6h36c1.7,0,3.2-0.6,4.4-1.6c0.2-0.1,0.3-0.3,0.5-0.4c0.6-0.6,1.1-1.3,1.5-2.1v0
				c0.4-0.8,0.6-1.8,0.6-2.7V31.1C102.8,30.7,102.8,30.2,102.7,29.8z M57.5,28.8c0.6-0.6,1.4-1,2.4-1h36c0.9,0,1.8,0.4,2.4,1
				c0.1,0.1,0.2,0.2,0.3,0.4L79.7,45.6c-0.5,0.5-1.2,0.7-1.8,0.7c-0.6,0-1.3-0.2-1.8-0.7L57.2,29.1C57.3,29,57.4,28.9,57.5,28.8z
				 M56.5,56.4V32.8l13.7,11.9L56.5,56.6C56.5,56.5,56.5,56.5,56.5,56.4z M95.9,59.8h-36c-0.6,0-1.2-0.2-1.7-0.4l14.4-12.5L74,48
				c1.1,1,2.5,1.5,3.9,1.5c1.4,0,2.8-0.5,3.9-1.5l1.3-1.2l14.4,12.5C97.1,59.6,96.5,59.8,95.9,59.8z M99.3,56.4c0,0.1,0,0.1,0,0.1
				L85.6,44.7l13.7-11.9V56.4z"/>
		</g>
	</g>
</g>
</svg>
