<?xml version="1.0" encoding="utf-8"?>
<!-- Generator: Adobe Illustrator 26.5.0, SVG Export Plug-In . SVG Version: 6.00 Build 0)  -->
<svg version="1.1" id="レイヤー_1" xmlns="http://www.w3.org/2000/svg" xmlns:xlink="http://www.w3.org/1999/xlink" x="0px"
	 y="0px" width="420px" height="160px" viewBox="0 0 420 160" style="enable-background:new 0 0 420 160;" xml:space="preserve">
<style type="text/css">
	.st0{fill:#64D35C;}
	.st1{fill:#FFFFFF;}
	.st2{fill:#ABE7A7;}
</style>
<g>
	<path class="st0" d="M420,0v142.4c0,9.7-7.9,17.6-17.7,17.6H17.7C7.9,160,0,152.1,0,142.4V0H420z"/>
	<g>
		<g>
			<path class="st1" d="M167.5,53.6c-0.3,0-0.6-0.1-0.8-0.2c-0.2-0.2-0.3-0.4-0.3-0.7c0-0.3,0.1-0.5,0.2-0.7
				c0.1-0.2,0.4-0.3,0.6-0.4c0.3,0,0.5-0.1,0.6-0.1c0.1-0.1,0.2-0.2,0.3-0.3c0.1-0.1,0.1-0.3,0.2-0.6c0.1-0.3,0.1-0.7,0.2-1.1
				c0.1-0.4,0.1-0.9,0.1-1.4c0-0.5,0.1-0.9,0.1-1.4c0-0.3,0-0.5-0.1-0.6c-0.1-0.1-0.3-0.2-0.6-0.2h-0.5c-0.1,1.3-0.4,2.5-0.7,3.8
				c-0.4,1.3-0.9,2.4-1.5,3.4c-0.2,0.3-0.4,0.4-0.7,0.5c-0.3,0.1-0.6,0-0.8-0.1c-0.3-0.2-0.4-0.4-0.5-0.6c-0.1-0.3,0-0.5,0.1-0.7
				c0.7-1,1.2-2.2,1.6-3.5c0.3-1.3,0.5-2.9,0.5-4.8V42h-1.1c-0.3,0-0.5-0.1-0.7-0.3c-0.2-0.2-0.3-0.4-0.3-0.7c0-0.3,0.1-0.5,0.3-0.7
				c0.2-0.2,0.4-0.3,0.7-0.3h2.1v-2.3c0-0.3,0.1-0.6,0.3-0.8c0.2-0.2,0.5-0.3,0.8-0.3c0.3,0,0.6,0.1,0.8,0.3
				c0.2,0.2,0.3,0.5,0.3,0.8v2.3h1.8c0.3,0,0.5,0.1,0.7,0.3c0.2,0.2,0.3,0.4,0.3,0.7c0,0.3-0.1,0.5-0.3,0.7
				c-0.2,0.2-0.4,0.3-0.7,0.3h-2.8v1.8h0.8c0.6,0,1.1,0.1,1.4,0.3c0-0.1,0-0.3,0-0.4c0-0.1,0.1-0.2,0.2-0.4c0.4-0.5,0.9-1.1,1.3-1.7
				c0.4-0.7,0.8-1.4,1.2-2.1c0.4-0.7,0.6-1.4,0.8-1.9c0.1-0.3,0.3-0.6,0.6-0.7c0.3-0.1,0.5-0.1,0.8,0c0.2,0.1,0.4,0.2,0.6,0.5
				s0.1,0.5,0,0.8c-0.1,0.4-0.3,0.7-0.5,1.1c-0.2,0.4-0.3,0.8-0.6,1.1h4.8c0.3,0,0.5,0.1,0.7,0.3c0.2,0.2,0.3,0.4,0.3,0.7
				c0,0.3-0.1,0.5-0.3,0.7c-0.2,0.2-0.4,0.3-0.7,0.3h-0.6c-0.1,1.2-0.4,2.4-0.7,3.4c-0.3,1-0.8,2-1.3,2.9c0.4,0.5,0.9,1,1.4,1.5
				c0.5,0.5,1.1,0.9,1.8,1.3c0.3,0.2,0.4,0.4,0.5,0.7c0,0.3,0,0.6-0.2,0.8c-0.2,0.3-0.5,0.4-0.8,0.5c-0.3,0-0.6,0-0.9-0.2
				c-1.2-0.8-2.2-1.8-3-2.7c-0.9,1.1-2,2-3.4,2.8c-0.3,0.2-0.6,0.2-0.9,0.2c-0.3-0.1-0.5-0.3-0.7-0.5c-0.2-0.3-0.2-0.5-0.1-0.8
				s0.3-0.5,0.6-0.7c0.7-0.4,1.3-0.8,1.9-1.2c0.6-0.5,1-1,1.5-1.5c-0.8-1.5-1.4-3.2-1.6-5.2c-0.1,0.2-0.2,0.3-0.4,0.5
				s-0.3,0.3-0.4,0.5c-0.3,0.4-0.7,0.5-1.1,0.4c0.1,0.2,0.1,0.4,0.2,0.6c0,0.2,0,0.5,0,0.7c0,0.8-0.1,1.7-0.1,2.4
				c-0.1,0.8-0.2,1.5-0.3,2.2c-0.1,1-0.4,1.7-0.9,2.1C169,53.4,168.4,53.6,167.5,53.6z M175.4,46.7c0.3-0.6,0.5-1.3,0.7-2
				c0.2-0.7,0.3-1.4,0.4-2.2h-2.2c0.1,0.8,0.2,1.5,0.3,2.2C174.9,45.4,175.1,46.1,175.4,46.7z"/>
			<path class="st1" d="M184.1,41.8c-0.3,0-0.5-0.1-0.6-0.2c-0.1-0.2-0.2-0.4-0.2-0.6s0.1-0.4,0.2-0.6c0.1-0.2,0.4-0.2,0.6-0.2h5.1
				c0.3,0,0.5,0.1,0.6,0.2c0.1,0.2,0.2,0.4,0.2,0.6s-0.1,0.4-0.2,0.6c-0.1,0.2-0.4,0.2-0.6,0.2H184.1z M194.8,53.7
				c-0.3,0-0.5-0.1-0.7-0.3c-0.2-0.2-0.3-0.4-0.3-0.7v-3.5c-0.5,0.5-0.9,1.1-1.5,1.6s-1,0.9-1.5,1.3c-0.2,0.2-0.5,0.2-0.8,0.2
				s-0.5-0.1-0.7-0.3c-0.1-0.2-0.2-0.3-0.2-0.5c-0.1,0.6-0.3,1-0.7,1.2c-0.4,0.2-1,0.3-1.8,0.3c-0.7,0-1.2-0.1-1.6-0.2
				c-0.4-0.2-0.7-0.4-0.8-0.8c-0.2-0.4-0.2-0.9-0.2-1.6c0-0.7,0.1-1.2,0.2-1.6c0.2-0.4,0.4-0.6,0.8-0.8c0.4-0.2,0.9-0.2,1.6-0.2
				c0.7,0,1.2,0.1,1.6,0.2c0.4,0.2,0.7,0.4,0.8,0.8c0.2,0.4,0.2,0.9,0.2,1.6c0,0.1,0,0.2,0,0.4c0,0.1,0,0.2,0,0.3
				c0-0.1,0.2-0.3,0.3-0.4c0.4-0.2,0.8-0.5,1.2-0.9c0.4-0.4,0.8-0.7,1.2-1.1c0.4-0.4,0.7-0.8,1-1.1h-2.6c-0.3,0-0.5-0.1-0.6-0.3
				s-0.2-0.4-0.2-0.6c0-0.2,0.1-0.4,0.2-0.6c0.1-0.2,0.4-0.2,0.6-0.2h3.4v-1.1h-0.3c-1.2,0-2-0.2-2.5-0.6c-0.5-0.4-0.7-1.1-0.7-2.1
				v-1.9c0-1,0.2-1.7,0.7-2.1c0.5-0.4,1.3-0.6,2.5-0.6h2.4c1.2,0,2,0.2,2.5,0.6c0.5,0.4,0.7,1.1,0.7,2.1v1.9c0,1-0.2,1.7-0.7,2.1
				c-0.5,0.4-1.3,0.6-2.5,0.6h-0.3v1.1h3.8c0.3,0,0.5,0.1,0.6,0.2c0.2,0.2,0.2,0.4,0.2,0.6c0,0.2-0.1,0.4-0.2,0.6
				c-0.2,0.2-0.4,0.3-0.6,0.3h-3c0.3,0.3,0.6,0.7,1,1.1c0.4,0.4,0.8,0.7,1.2,1.1c0.4,0.4,0.8,0.6,1.2,0.9c0.2,0.1,0.3,0.3,0.4,0.6
				c0,0.3,0,0.5-0.2,0.7c-0.2,0.2-0.4,0.4-0.7,0.4c-0.3,0-0.5,0-0.8-0.2c-0.5-0.4-1-0.8-1.5-1.3c-0.5-0.5-1-1-1.5-1.5v3.5
				c0,0.3-0.1,0.5-0.3,0.7C195.3,53.6,195.1,53.7,194.8,53.7z M185,44.4c-0.3,0-0.5-0.1-0.6-0.2c-0.2-0.2-0.2-0.4-0.2-0.6
				c0-0.2,0.1-0.4,0.2-0.6c0.2-0.2,0.4-0.2,0.6-0.2h3.5c0.3,0,0.5,0.1,0.6,0.2c0.1,0.2,0.2,0.4,0.2,0.6c0,0.2-0.1,0.4-0.2,0.6
				c-0.1,0.2-0.4,0.2-0.6,0.2H185z M185,46.9c-0.3,0-0.5-0.1-0.6-0.2c-0.2-0.2-0.2-0.4-0.2-0.6c0-0.2,0.1-0.4,0.2-0.6
				c0.2-0.2,0.4-0.2,0.6-0.2h3.5c0.3,0,0.5,0.1,0.6,0.2c0.1,0.2,0.2,0.4,0.2,0.6c0,0.2-0.1,0.4-0.2,0.6c-0.1,0.2-0.4,0.2-0.6,0.2
				H185z M185,39.2c-0.3,0-0.5-0.1-0.6-0.3c-0.2-0.2-0.2-0.4-0.2-0.6c0-0.2,0.1-0.4,0.2-0.6c0.2-0.2,0.4-0.3,0.6-0.3h3.4
				c0.3,0,0.5,0.1,0.6,0.3c0.2,0.2,0.2,0.4,0.2,0.6c0,0.2-0.1,0.4-0.2,0.6c-0.2,0.2-0.4,0.3-0.6,0.3H185z M186.7,51.4
				c0.3,0,0.5-0.1,0.6-0.2c0.1-0.1,0.1-0.4,0.1-0.8c0-0.4,0-0.7-0.1-0.8c-0.1-0.1-0.3-0.2-0.6-0.2c-0.3,0-0.5,0.1-0.6,0.2
				c-0.1,0.1-0.1,0.4-0.1,0.8c0,0.4,0,0.7,0.1,0.8C186.2,51.4,186.4,51.4,186.7,51.4z M192.3,40.3h1.5v-1.3h-0.3
				c-0.5,0-0.8,0.1-1,0.2c-0.2,0.2-0.3,0.4-0.3,0.9V40.3z M193.6,43.2h0.3v-1.2h-1.5v0.1c0,0.4,0.1,0.7,0.3,0.9
				C192.8,43.1,193.1,43.2,193.6,43.2z M195.8,40.3h1.6v-0.2c0-0.4-0.1-0.7-0.3-0.9c-0.2-0.2-0.5-0.2-1-0.2h-0.3V40.3z M195.8,43.2
				h0.3c0.5,0,0.8-0.1,1-0.2c0.2-0.2,0.3-0.4,0.3-0.9v-0.1h-1.6V43.2z"/>
			<path class="st1" d="M207,53.8c-0.3,0-0.5-0.1-0.7-0.3s-0.3-0.4-0.3-0.7v-6.3c-0.3,0.2-0.5,0.4-0.8,0.6c-0.3,0.2-0.5,0.3-0.8,0.2
				c-0.3,0-0.6-0.2-0.7-0.4c-0.2-0.2-0.3-0.5-0.2-0.8c0-0.3,0.2-0.5,0.4-0.7c0.3-0.2,0.7-0.5,1.1-0.9c0.4-0.3,0.8-0.7,1.2-1.1
				c0.4-0.4,0.8-0.8,1.1-1.1s0.6-0.7,0.9-1c0.2-0.2,0.4-0.3,0.7-0.4c0.3,0,0.5,0,0.7,0.2c0.2,0.2,0.4,0.4,0.4,0.7
				c0,0.3,0,0.5-0.2,0.8c-0.2,0.3-0.5,0.6-0.8,0.9c-0.3,0.3-0.6,0.6-0.9,1v8.2c0,0.3-0.1,0.5-0.3,0.7
				C207.6,53.7,207.3,53.8,207,53.8z M205.6,41.7c-0.3,0.2-0.6,0.3-0.8,0.3c-0.3,0-0.6-0.1-0.8-0.4c-0.2-0.2-0.3-0.5-0.2-0.8
				c0.1-0.3,0.2-0.5,0.4-0.6c0.3-0.2,0.7-0.5,1.1-0.8s0.8-0.7,1.2-1c0.4-0.3,0.7-0.6,1-0.9c0.2-0.2,0.5-0.3,0.8-0.3
				c0.3,0,0.5,0.1,0.7,0.3c0.2,0.2,0.3,0.5,0.3,0.7c0,0.3-0.1,0.5-0.3,0.7c-0.3,0.3-0.6,0.6-1,1c-0.4,0.4-0.8,0.7-1.2,1
				C206.4,41.2,206,41.5,205.6,41.7z M210.3,53.6c-0.3,0.1-0.6,0.1-0.9,0c-0.2-0.1-0.4-0.3-0.5-0.6c-0.1-0.3-0.1-0.5,0.1-0.8
				c0.1-0.2,0.4-0.4,0.7-0.5c1.3-0.3,2.4-0.8,3.5-1.4c-0.2-0.2-0.5-0.5-0.7-0.8c-0.2-0.3-0.4-0.6-0.6-0.8c-0.5,0.5-1,1-1.4,1.4
				c-0.3,0.2-0.5,0.3-0.8,0.3s-0.5-0.1-0.7-0.3c-0.2-0.2-0.2-0.4-0.2-0.7c0-0.3,0.1-0.5,0.3-0.7c0.5-0.4,1.1-1,1.6-1.6
				c0.6-0.6,1.1-1.2,1.5-1.8c-0.4,0-0.8,0.1-1.2,0.1c-0.4,0-0.7,0-1,0.1c-0.3,0-0.6-0.1-0.8-0.2c-0.2-0.2-0.3-0.4-0.3-0.7
				c0-0.2,0.1-0.5,0.2-0.7c0.2-0.2,0.4-0.3,0.7-0.3c0.3,0,0.5,0,0.9,0c0.3,0,0.7,0,1-0.1c0.1-0.1,0.3-0.3,0.5-0.5
				c0.2-0.2,0.3-0.4,0.5-0.6c-0.3-0.2-0.6-0.5-0.9-0.7c-0.3-0.3-0.7-0.5-1-0.8c-0.3-0.2-0.6-0.4-0.8-0.6c-0.2-0.1-0.3-0.3-0.4-0.6
				c-0.1-0.3,0-0.5,0.2-0.7c0.2-0.2,0.4-0.4,0.6-0.4c0.3-0.1,0.5,0,0.7,0.1c0.1,0,0.1,0.1,0.2,0.2c0.1,0.1,0.2,0.1,0.3,0.2
				c0.2-0.3,0.5-0.6,0.7-1c0.3-0.4,0.5-0.7,0.7-1c0.2-0.2,0.4-0.4,0.6-0.4s0.5,0,0.8,0.2c0.2,0.1,0.4,0.4,0.4,0.6
				c0.1,0.3,0,0.5-0.2,0.7c-0.2,0.3-0.5,0.6-0.8,1c-0.3,0.4-0.6,0.7-0.8,1c0.2,0.1,0.3,0.2,0.5,0.4c0.1,0.1,0.3,0.2,0.4,0.3
				c0.5-0.6,0.9-1.1,1.4-1.6c0.4-0.5,0.8-1,1-1.4c0.2-0.2,0.4-0.4,0.7-0.4c0.3,0,0.5,0,0.8,0.2c0.2,0.2,0.3,0.4,0.4,0.6
				c0,0.3,0,0.5-0.2,0.7c-0.3,0.4-0.6,0.8-1,1.3c-0.4,0.5-0.9,1-1.3,1.5c-0.5,0.5-0.9,1-1.4,1.5c0.5,0,0.9-0.1,1.3-0.1
				c0.4,0,0.8-0.1,1.2-0.1c0-0.1-0.1-0.1-0.1-0.2c0,0-0.1-0.1-0.1-0.1c-0.2-0.2-0.2-0.4-0.2-0.7c0-0.3,0.1-0.5,0.3-0.6
				c0.2-0.2,0.4-0.2,0.7-0.2c0.3,0,0.5,0.1,0.7,0.3c0.2,0.2,0.4,0.5,0.7,0.8c0.3,0.3,0.6,0.7,0.8,1c0.3,0.3,0.5,0.6,0.6,0.8
				c0.2,0.2,0.2,0.5,0.2,0.8c0,0.3-0.2,0.5-0.4,0.7c-0.2,0.2-0.5,0.2-0.8,0.2c-0.3,0-0.5-0.2-0.7-0.4c-0.1-0.1-0.1-0.2-0.2-0.3
				c-0.1-0.1-0.2-0.2-0.3-0.4c-0.5,0-1,0.1-1.6,0.2c-0.6,0.1-1.3,0.1-2,0.2c-0.1,0.2-0.2,0.3-0.3,0.5c-0.1,0.2-0.2,0.3-0.3,0.5h1.8
				c0.8,0,1.4,0.2,1.8,0.5c0.4,0.3,0.5,0.8,0.5,1.3c0,0.5-0.3,1-0.8,1.5c-0.3,0.3-0.5,0.6-0.8,0.8c1,0.6,2.2,1,3.4,1.2
				c0.3,0.1,0.6,0.2,0.7,0.4c0.2,0.2,0.2,0.5,0.1,0.8c-0.1,0.3-0.3,0.5-0.5,0.6c-0.3,0.1-0.6,0.1-0.9,0c-0.8-0.2-1.5-0.4-2.3-0.7
				c-0.8-0.3-1.5-0.7-2.1-1.1C213.4,52.5,212,53.2,210.3,53.6z M214.8,49.3c0.3-0.2,0.6-0.5,0.8-0.7c0.2-0.2,0.3-0.4,0.2-0.5
				c-0.1-0.1-0.2-0.2-0.5-0.2h-1.8c0.2,0.3,0.4,0.5,0.6,0.8C214.3,48.8,214.5,49.1,214.8,49.3z"/>
			<path class="st1" d="M233.3,53.9c-0.3,0-0.6-0.1-0.8-0.3c-0.2-0.2-0.3-0.5-0.4-0.8c0-0.3,0.1-0.5,0.3-0.7
				c0.2-0.2,0.4-0.3,0.7-0.3c0.5,0,0.9-0.1,1-0.2s0.2-0.4,0.2-0.8v-1.2h-5.2c0,0,0.1,0,0.1,0.1c0,0,0.1,0.1,0.1,0.1
				c0.2,0.2,0.4,0.4,0.7,0.7s0.5,0.5,0.7,0.7c0.2,0.3,0.3,0.5,0.3,0.8c0,0.3-0.2,0.5-0.4,0.8c-0.3,0.2-0.5,0.3-0.8,0.3
				c-0.3,0-0.6-0.2-0.8-0.4c-0.2-0.2-0.4-0.4-0.7-0.7c-0.3-0.3-0.5-0.5-0.7-0.7c-0.2-0.2-0.3-0.4-0.3-0.7c0-0.3,0.1-0.5,0.4-0.7
				c0,0,0,0,0.1-0.1c0,0,0,0,0.1,0h-2.8c-0.2,0-0.5-0.1-0.6-0.3c-0.2-0.2-0.3-0.4-0.3-0.6c0-0.2,0.1-0.5,0.3-0.6
				c0.2-0.2,0.4-0.3,0.6-0.3h9.3v-1h-10c-0.2,0-0.4-0.1-0.6-0.3s-0.2-0.4-0.2-0.6c0-0.2,0.1-0.4,0.2-0.6c0.2-0.2,0.4-0.3,0.6-0.3
				h6.5V44h-4.5c-0.2,0-0.4-0.1-0.6-0.2c-0.2-0.2-0.2-0.4-0.2-0.6c0-0.2,0.1-0.4,0.2-0.6c0.2-0.2,0.4-0.3,0.6-0.3h4.5V42
				c0-0.4,0.2-0.7,0.5-0.9c-0.1-0.3-0.1-0.6,0.1-0.8c0.3-0.4,0.6-0.9,0.9-1.4c0.3-0.5,0.6-1,0.7-1.5c0.1-0.3,0.3-0.5,0.6-0.6
				c0.3-0.1,0.5-0.1,0.8,0c0.3,0.1,0.5,0.3,0.6,0.5c0.1,0.2,0.1,0.5,0,0.7c0,0.1-0.1,0.1-0.1,0.2c0,0.1-0.1,0.1-0.1,0.2h4.5
				c0.3,0,0.5,0.1,0.6,0.2c0.1,0.2,0.2,0.4,0.2,0.6s-0.1,0.4-0.2,0.6c-0.1,0.2-0.4,0.2-0.6,0.2h-2.3c0.1,0.1,0.1,0.2,0.2,0.4
				c0,0.1,0.1,0.2,0.1,0.3c0.1,0.2,0.1,0.5,0,0.7c-0.1,0.2-0.3,0.4-0.6,0.5c-0.3,0.1-0.5,0.1-0.8,0c-0.2-0.1-0.4-0.3-0.5-0.5
				c-0.1-0.2-0.1-0.4-0.2-0.7c-0.1-0.3-0.2-0.5-0.3-0.7h-0.9c-0.1,0.2-0.2,0.4-0.3,0.6c-0.1,0.2-0.2,0.3-0.3,0.5
				c-0.1,0.2-0.2,0.3-0.4,0.4c0,0.1,0.1,0.3,0.1,0.5v0.3h4.7c0.2,0,0.4,0.1,0.6,0.3c0.2,0.2,0.2,0.4,0.2,0.6c0,0.2-0.1,0.4-0.2,0.6
				c-0.2,0.2-0.4,0.2-0.6,0.2h-4.7v0.9h6.6c0.2,0,0.4,0.1,0.6,0.3c0.2,0.2,0.2,0.4,0.2,0.6c0,0.2-0.1,0.4-0.2,0.6
				c-0.2,0.2-0.4,0.3-0.6,0.3h-3.1v1h2.5c0.2,0,0.5,0.1,0.6,0.3c0.2,0.2,0.3,0.4,0.3,0.6c0,0.2-0.1,0.5-0.3,0.6
				c-0.2,0.2-0.4,0.3-0.6,0.3h-2.5v1.7c0,1-0.3,1.7-0.8,2.1C235.4,53.6,234.5,53.9,233.3,53.9z M229.3,42c-0.3,0.1-0.5,0.1-0.8,0
				c-0.2-0.1-0.4-0.3-0.5-0.5c-0.1-0.2-0.2-0.4-0.3-0.7c-0.1-0.3-0.2-0.5-0.3-0.7h-0.8c-0.2,0.3-0.3,0.5-0.5,0.7
				c-0.2,0.2-0.3,0.4-0.5,0.7c-0.2,0.2-0.4,0.4-0.7,0.5c-0.3,0.1-0.6,0-0.8-0.1c-0.2-0.1-0.4-0.3-0.4-0.6s0-0.5,0.2-0.7
				c0.4-0.5,0.8-1,1.1-1.6s0.7-1.1,0.9-1.6c0.1-0.3,0.3-0.5,0.6-0.6c0.3-0.1,0.5-0.1,0.8,0c0.3,0.1,0.5,0.3,0.6,0.5
				c0.1,0.2,0.1,0.5-0.1,0.8c0,0-0.1,0.1-0.1,0.2c0,0.1-0.1,0.1-0.1,0.2h3.4c0.3,0,0.5,0.1,0.6,0.2c0.2,0.2,0.2,0.4,0.2,0.6
				s-0.1,0.4-0.2,0.6c-0.2,0.2-0.4,0.2-0.6,0.2h-1.4c0,0.1,0.1,0.2,0.1,0.4c0,0.1,0.1,0.2,0.1,0.3c0.1,0.2,0.1,0.5,0,0.7
				C229.8,41.8,229.6,41.9,229.3,42z"/>
			<path class="st1" d="M247,52.7c-0.3,0.1-0.6,0.2-0.8,0.1c-0.3-0.1-0.5-0.3-0.7-0.5c-0.2-0.3-0.2-0.5-0.1-0.8
				c0.1-0.3,0.3-0.5,0.5-0.7c1.3-0.7,2.3-1.5,3.1-2.5s1.3-2.1,1.5-3.3h-5.3c-0.3,0-0.6-0.1-0.8-0.3c-0.2-0.2-0.3-0.5-0.3-0.8
				c0-0.3,0.1-0.6,0.3-0.8c0.2-0.2,0.5-0.3,0.8-0.3h12.1c0.3,0,0.6,0.1,0.8,0.3c0.2,0.2,0.3,0.5,0.3,0.8c0,0.3-0.1,0.6-0.3,0.8
				c-0.2,0.2-0.5,0.3-0.8,0.3h-4.6c-0.1,1-0.4,2.1-0.9,3.1c-0.5,1-1.1,1.9-1.9,2.7C248.9,51.4,248,52.1,247,52.7z M247.2,41
				c-0.3,0-0.6-0.1-0.8-0.3c-0.2-0.2-0.3-0.5-0.3-0.8c0-0.3,0.1-0.6,0.3-0.8c0.2-0.2,0.5-0.3,0.8-0.3h7.8c0.3,0,0.6,0.1,0.8,0.3
				c0.2,0.2,0.3,0.5,0.3,0.8c0,0.3-0.1,0.6-0.3,0.8c-0.2,0.2-0.5,0.3-0.8,0.3H247.2z M258.9,42.4c-0.2,0.1-0.4,0.2-0.6,0.2
				c-0.2,0-0.4-0.1-0.5-0.3c-0.1-0.2-0.3-0.4-0.5-0.7c-0.2-0.3-0.4-0.5-0.6-0.7c-0.1-0.1-0.2-0.3-0.1-0.5c0-0.2,0.1-0.4,0.3-0.5
				c0.1-0.1,0.3-0.2,0.5-0.2c0.2,0,0.4,0.1,0.5,0.2c0.2,0.2,0.4,0.4,0.6,0.6c0.2,0.3,0.4,0.5,0.6,0.7c0.1,0.2,0.2,0.4,0.2,0.6
				C259.1,42.1,259,42.3,258.9,42.4z M260.6,40.9c-0.2,0.1-0.3,0.2-0.6,0.2c-0.2,0-0.4-0.1-0.5-0.3c-0.1-0.2-0.3-0.4-0.5-0.6
				c-0.2-0.2-0.4-0.5-0.6-0.7c-0.1-0.1-0.2-0.3-0.2-0.5s0.1-0.4,0.2-0.5c0.1-0.1,0.3-0.2,0.5-0.2c0.2,0,0.4,0.1,0.5,0.2
				c0.2,0.1,0.4,0.3,0.7,0.6c0.3,0.2,0.5,0.5,0.6,0.7c0.1,0.2,0.2,0.4,0.2,0.6C260.9,40.6,260.8,40.8,260.6,40.9z"/>
			<path class="st1" d="M269.6,53c-0.3,0-0.6-0.1-0.8-0.3c-0.2-0.2-0.3-0.5-0.3-0.8v-7.3c-0.8,0.7-1.6,1.3-2.4,2
				c-0.8,0.6-1.7,1.2-2.5,1.7c-0.3,0.2-0.6,0.2-0.8,0.1c-0.3-0.1-0.5-0.2-0.7-0.5c-0.2-0.3-0.2-0.6-0.1-0.9c0.1-0.3,0.2-0.5,0.5-0.7
				c0.8-0.5,1.6-1,2.4-1.7c0.8-0.6,1.6-1.3,2.4-2c0.8-0.7,1.5-1.4,2.2-2.2c0.7-0.7,1.2-1.4,1.7-2c0.2-0.3,0.4-0.4,0.7-0.5
				c0.3-0.1,0.6,0,0.8,0.2c0.3,0.2,0.4,0.4,0.5,0.7c0.1,0.3,0,0.6-0.2,0.8c-0.6,0.8-1.4,1.7-2.3,2.7v9.5c0,0.3-0.1,0.6-0.3,0.8
				C270.2,52.9,269.9,53,269.6,53z"/>
			<path class="st1" d="M283.9,53c-0.3,0.1-0.6,0.1-0.9,0c-0.3-0.1-0.5-0.3-0.6-0.6c-0.1-0.3-0.1-0.6,0-0.9c0.1-0.3,0.3-0.5,0.6-0.6
				c1.4-0.6,2.4-1.5,3-2.6c0.7-1.1,1-2.5,1-4.2h-2.8c0,0.5,0,0.9,0,1.4c0,0.4,0,0.8,0,1.2c0,0.3-0.1,0.6-0.4,0.8
				c-0.2,0.2-0.5,0.3-0.8,0.3c-0.3,0-0.6-0.2-0.7-0.4c-0.2-0.2-0.3-0.5-0.3-0.8c0-0.3,0-0.7,0-1.1s0-0.9,0-1.3h-3.7
				c-0.3,0-0.6-0.1-0.8-0.3c-0.2-0.2-0.3-0.5-0.3-0.8c0-0.3,0.1-0.6,0.3-0.8c0.2-0.2,0.5-0.3,0.8-0.3h3.7c0-0.4-0.1-0.8-0.1-1.2
				c0-0.4-0.1-0.7-0.1-1c0-0.3,0-0.6,0.2-0.8c0.2-0.2,0.4-0.4,0.7-0.4c0.3-0.1,0.6,0,0.8,0.2c0.2,0.2,0.4,0.4,0.4,0.7
				c0,0.3,0.1,0.7,0.1,1.2c0,0.4,0.1,0.9,0.1,1.4h2.8c0-0.5,0-1,0-1.5c0-0.5,0-0.9-0.1-1.3c0-0.3,0.1-0.6,0.3-0.8
				c0.2-0.2,0.5-0.4,0.8-0.4c0.3,0,0.6,0.1,0.8,0.3s0.4,0.5,0.4,0.8c0,0.4,0.1,0.8,0.1,1.4c0,0.5,0,1.1,0,1.6h3.5
				c0.3,0,0.6,0.1,0.8,0.3c0.2,0.2,0.3,0.5,0.3,0.8c0,0.3-0.1,0.6-0.3,0.8c-0.2,0.2-0.5,0.3-0.8,0.3h-3.5c0,2.2-0.5,4-1.4,5.5
				C286.9,51.1,285.6,52.2,283.9,53z"/>
			<path class="st1" d="M298.5,46.5c-0.3,0-0.6-0.1-0.8-0.3c-0.2-0.2-0.3-0.5-0.3-0.8c0-0.3,0.1-0.6,0.3-0.8
				c0.2-0.2,0.5-0.3,0.8-0.3h11.4c0.3,0,0.6,0.1,0.8,0.3c0.2,0.2,0.3,0.5,0.3,0.8c0,0.3-0.1,0.6-0.3,0.8c-0.2,0.2-0.5,0.3-0.8,0.3
				H298.5z"/>
			<path class="st1" d="M326.9,51.6c-2.3,0.4-4.1,0.5-5.5,0.5c-1.4-0.1-2.5-0.4-3.1-1c-0.5-0.4-0.9-1-1.1-1.6
				c-0.2-0.7-0.3-1.5-0.3-2.4v-7.4c0-0.3,0.1-0.6,0.3-0.8c0.2-0.2,0.5-0.3,0.8-0.3c0.3,0,0.6,0.1,0.8,0.3c0.2,0.2,0.3,0.5,0.3,0.8v4
				c1-0.2,2-0.5,3.1-0.8c1.1-0.3,2-0.6,2.9-1c0.3-0.1,0.6-0.1,0.9,0c0.3,0.1,0.5,0.3,0.6,0.6c0.1,0.3,0.1,0.6,0,0.9
				c-0.1,0.3-0.3,0.5-0.6,0.6c-1,0.4-2.2,0.7-3.4,1.1c-1.2,0.3-2.3,0.6-3.4,0.9v1.2c0,0.7,0.1,1.2,0.2,1.5c0.1,0.3,0.3,0.6,0.5,0.7
				c0.3,0.2,0.7,0.4,1.2,0.4c0.5,0.1,1.2,0.1,2.1,0c0.9-0.1,2-0.2,3.4-0.4c0.3-0.1,0.6,0,0.8,0.2c0.2,0.2,0.4,0.4,0.4,0.8
				c0.1,0.3,0,0.6-0.2,0.8C327.4,51.4,327.2,51.6,326.9,51.6z M328.9,42.6c-0.1,0.2-0.3,0.2-0.6,0.2c-0.2,0-0.4-0.1-0.6-0.2
				c-0.1-0.2-0.3-0.4-0.6-0.6c-0.2-0.2-0.4-0.5-0.6-0.6c-0.1-0.1-0.2-0.3-0.2-0.5c0-0.2,0.1-0.4,0.2-0.5c0.1-0.1,0.3-0.2,0.5-0.2
				c0.2,0,0.4,0,0.5,0.2c0.2,0.1,0.4,0.3,0.7,0.5c0.3,0.2,0.5,0.5,0.6,0.6c0.1,0.2,0.2,0.3,0.2,0.6C329.1,42.2,329,42.4,328.9,42.6z
				 M329.4,40.9c-0.2-0.2-0.4-0.4-0.6-0.6c-0.2-0.2-0.5-0.4-0.7-0.6c-0.1-0.1-0.2-0.3-0.2-0.5c0-0.2,0-0.4,0.2-0.5
				c0.1-0.1,0.3-0.2,0.5-0.3c0.2,0,0.4,0,0.5,0.1c0.2,0.1,0.4,0.3,0.7,0.5c0.3,0.2,0.5,0.4,0.7,0.6c0.2,0.2,0.2,0.3,0.2,0.6
				c0,0.2-0.1,0.4-0.2,0.6c-0.1,0.2-0.3,0.2-0.5,0.3C329.7,41.1,329.5,41.1,329.4,40.9z"/>
			<path class="st1" d="M335,51.8c-0.3,0.1-0.6,0.1-0.8,0s-0.5-0.3-0.6-0.6c-0.1-0.3-0.1-0.6,0-0.9c0.1-0.3,0.3-0.5,0.6-0.6
				c1.7-0.8,3.3-1.8,4.6-3c1.4-1.2,2.5-2.5,3.3-3.9c0.5-0.9,0.2-1.3-0.9-1.3h-5c-0.3,0-0.6-0.1-0.8-0.3c-0.2-0.2-0.3-0.5-0.3-0.8
				c0-0.3,0.1-0.6,0.3-0.8c0.2-0.2,0.5-0.3,0.8-0.3h5.1c1.1,0,1.9,0.2,2.5,0.6c0.6,0.4,0.9,0.9,1,1.6c0.1,0.7-0.2,1.5-0.7,2.3
				c-0.3,0.5-0.6,1-1,1.5c0.6,0.5,1.1,1,1.7,1.5c0.6,0.6,1.1,1.1,1.7,1.6c0.5,0.5,1,1,1.3,1.3c0.2,0.2,0.3,0.5,0.3,0.8
				c0,0.3-0.1,0.6-0.3,0.8c-0.2,0.2-0.5,0.3-0.8,0.3c-0.3,0-0.6-0.1-0.8-0.3c-0.3-0.3-0.7-0.8-1.2-1.3c-0.5-0.5-1-1-1.6-1.6
				c-0.6-0.6-1.1-1.1-1.6-1.5c-0.9,1-2,1.9-3.1,2.7C337.4,50.6,336.2,51.3,335,51.8z"/>
		</g>
		<g>
			<path class="st1" d="M178.8,131.8c-1.4,0.1-2.5-0.2-3.4-0.9c-0.9-0.6-1.3-1.6-1.3-2.8c0-0.9,0.3-1.6,0.8-2.3
				c0.5-0.6,1.2-1.1,2.1-1.5c0.9-0.4,1.7-0.5,2.6-0.6c0.5,0,0.9,0,1.3,0.1c0.4,0.1,0.8,0.3,1.1,0.4v-1.1c0-0.8-0.2-1.4-0.5-1.6
				c-0.3-0.2-0.9-0.4-1.5-0.4c-0.5,0-1,0.1-1.5,0.2c-0.5,0.1-1.1,0.3-1.6,0.5c-0.5,0.2-0.8,0.3-1.2,0.2c-0.3-0.1-0.6-0.3-0.8-0.6
				c-0.2-0.4-0.3-0.7-0.1-1.1c0.1-0.3,0.4-0.6,0.9-0.8c0.6-0.3,1.3-0.5,2.1-0.7c0.7-0.2,1.5-0.3,2.3-0.3c1.6,0,2.8,0.3,3.7,1
				c0.8,0.7,1.2,1.8,1.2,3.5v5.8c0,0.2,0,0.3,0.1,0.4c0,0.1,0.1,0.2,0.1,0.2c0.2,0.2,0.3,0.4,0.5,0.4c0.2,0,0.3,0.1,0.5,0.1
				c0.1,0,0.2,0.1,0.2,0.2c0,0.3-0.1,0.6-0.2,0.8c-0.2,0.2-0.4,0.4-0.8,0.5c-0.4,0.1-0.8,0.1-1.2,0.1c-0.5,0-1-0.1-1.2-0.3
				c-0.3-0.2-0.5-0.5-0.6-0.9c-0.4,0.4-0.9,0.6-1.5,0.8C180.1,131.6,179.5,131.7,178.8,131.8z M178.8,129.2c1,0,1.8-0.2,2.4-0.6
				c0.6-0.3,0.9-0.8,0.9-1.5c0-0.4-0.2-0.7-0.6-0.9c-0.4-0.2-0.9-0.2-1.5-0.2c-0.9,0-1.6,0.2-2.1,0.6c-0.6,0.4-0.8,0.9-0.8,1.4
				C177,128.9,177.6,129.3,178.8,129.2z"/>
			<path class="st1" d="M197.6,131.7c-0.4,0-0.8-0.1-1.1-0.3c-0.3-0.2-0.6-0.5-0.8-1l-3.6-9.6c-0.2-0.6-0.2-1-0.1-1.3
				c0.2-0.3,0.5-0.5,1.1-0.5c0.9,0,1.5,0.4,1.8,1.2l2.7,7.6l2.7-7.6c0.3-0.8,0.9-1.2,1.8-1.2c0.5,0,0.8,0.2,0.9,0.5
				c0.2,0.3,0.1,0.7-0.1,1.3l-3.5,9.5c-0.2,0.4-0.4,0.8-0.8,1C198.3,131.5,198,131.7,197.6,131.7z"/>
			<path class="st1" d="M215.3,131.9c-1.8,0-3.3-0.6-4.5-1.7c-1.1-1.1-1.7-2.7-1.7-4.9c0-1.4,0.3-2.5,0.8-3.5s1.2-1.7,2.1-2.3
				c0.9-0.5,1.9-0.8,3.1-0.8c1.2,0,2.2,0.3,3,0.8c0.8,0.5,1.4,1.2,1.9,2.1c0.4,0.9,0.7,1.7,0.7,2.7c0,0.6-0.1,1.1-0.4,1.3
				c-0.3,0.2-0.6,0.3-1.2,0.3h-7.1c0.1,1.3,0.4,2.1,1,2.7c0.6,0.5,1.4,0.8,2.3,0.8c1.1,0,1.9-0.4,2.5-1.1c0.3-0.4,0.7-0.6,1-0.7
				c0.3-0.1,0.6,0,1,0.2c0.3,0.2,0.5,0.6,0.6,0.9c0.1,0.4-0.1,0.8-0.5,1.2c-0.6,0.7-1.3,1.2-2,1.6
				C217.2,131.7,216.3,131.9,215.3,131.9z M212.2,123.6h5.6c-0.1-0.8-0.4-1.5-0.9-1.9c-0.5-0.4-1.1-0.7-1.8-0.7
				c-0.8,0-1.4,0.2-1.9,0.6C212.7,122.1,212.4,122.7,212.2,123.6z"/>
			<path class="st1" d="M229.6,131.9c-0.5,0-1-0.2-1.4-0.6c-0.4-0.4-0.6-0.8-0.6-1.4c0-0.6,0.2-1,0.6-1.4c0.4-0.4,0.9-0.6,1.4-0.6
				c0.5,0,1,0.2,1.4,0.6c0.4,0.4,0.6,0.9,0.6,1.4c0,0.5-0.2,1-0.6,1.4C230.6,131.7,230.2,131.9,229.6,131.9z"/>
			<path class="st1" d="M245.4,131.9c-1.5,0-2.7-0.6-3.5-1.9v0.5c0,0.4-0.1,0.7-0.4,0.9c-0.3,0.2-0.6,0.2-1,0.2
				c-0.9,0-1.3-0.5-1.3-1.5v-15.6c0-1,0.5-1.5,1.5-1.5c1,0,1.5,0.5,1.5,1.5v5.6c0.4-0.5,0.9-0.8,1.5-1.1c0.6-0.3,1.2-0.4,1.8-0.4
				c1.2,0,2.2,0.3,3.1,0.8c0.9,0.5,1.6,1.3,2.2,2.3c0.5,1,0.8,2.2,0.8,3.5c0,1.4-0.3,2.6-0.8,3.5c-0.5,1-1.2,1.7-2.2,2.3
				C247.6,131.6,246.6,131.9,245.4,131.9z M245.3,129.2c0.9,0,1.7-0.3,2.3-1c0.6-0.7,0.9-1.6,0.9-2.9s-0.3-2.2-0.9-2.9
				c-0.6-0.7-1.4-1-2.3-1c-0.9,0-1.7,0.3-2.3,1c-0.6,0.7-0.9,1.6-0.9,2.9s0.3,2.2,0.9,2.9C243.6,128.9,244.4,129.2,245.3,129.2z"/>
			<path class="st1" d="M260.2,131.6c-1,0-1.5-0.5-1.5-1.5v-15.6c0-1,0.5-1.5,1.5-1.5c1,0,1.5,0.5,1.5,1.5v15.6
				C261.7,131.1,261.2,131.6,260.2,131.6z"/>
			<path class="st1" d="M273.5,131.8c-1.4,0.1-2.5-0.2-3.4-0.9c-0.9-0.6-1.3-1.6-1.3-2.8c0-0.9,0.3-1.6,0.8-2.3
				c0.5-0.6,1.2-1.1,2.1-1.5c0.9-0.4,1.7-0.5,2.6-0.6c0.5,0,0.9,0,1.3,0.1c0.4,0.1,0.8,0.3,1.1,0.4v-1.1c0-0.8-0.2-1.4-0.5-1.6
				c-0.3-0.2-0.9-0.4-1.5-0.4c-0.5,0-1,0.1-1.5,0.2c-0.5,0.1-1.1,0.3-1.6,0.5c-0.5,0.2-0.8,0.3-1.2,0.2c-0.3-0.1-0.6-0.3-0.8-0.6
				c-0.2-0.4-0.3-0.7-0.1-1.1c0.1-0.3,0.4-0.6,0.9-0.8c0.6-0.3,1.3-0.5,2.1-0.7c0.7-0.2,1.5-0.3,2.3-0.3c1.6,0,2.8,0.3,3.7,1
				c0.8,0.7,1.2,1.8,1.2,3.5v5.8c0,0.2,0,0.3,0.1,0.4c0,0.1,0.1,0.2,0.1,0.2c0.2,0.2,0.3,0.4,0.5,0.4c0.2,0,0.3,0.1,0.5,0.1
				c0.1,0,0.2,0.1,0.2,0.2c0,0.3-0.1,0.6-0.2,0.8c-0.2,0.2-0.4,0.4-0.8,0.5c-0.4,0.1-0.8,0.1-1.2,0.1c-0.5,0-1-0.1-1.2-0.3
				c-0.3-0.2-0.5-0.5-0.6-0.9c-0.4,0.4-0.9,0.6-1.5,0.8C274.8,131.6,274.2,131.7,273.5,131.8z M273.5,129.2c1,0,1.8-0.2,2.4-0.6
				c0.6-0.3,0.9-0.8,0.9-1.5c0-0.4-0.2-0.7-0.6-0.9c-0.4-0.2-0.9-0.2-1.5-0.2c-0.9,0-1.6,0.2-2.1,0.6c-0.6,0.4-0.8,0.9-0.8,1.4
				C271.7,128.9,272.3,129.3,273.5,129.2z"/>
			<path class="st1" d="M289.3,131.6c-1,0-1.5-0.5-1.5-1.5v-9.5c0-1,0.4-1.5,1.3-1.5c0.9,0,1.4,0.2,1.4,0.7l0.1,0.8
				c0.3-0.5,0.8-0.9,1.4-1.3c0.6-0.4,1.3-0.5,2-0.5c1.3,0,2.4,0.4,3.2,1.3c0.8,0.8,1.2,2.1,1.2,3.7v6.4c0,1-0.5,1.5-1.5,1.5
				c-1,0-1.5-0.5-1.5-1.5v-5.7c0-1-0.2-1.7-0.6-2.2c-0.4-0.5-0.9-0.7-1.6-0.7c-0.8,0-1.4,0.3-1.8,0.8c-0.5,0.5-0.7,1.3-0.7,2.3v5.6
				C290.7,131.1,290.3,131.6,289.3,131.6z"/>
			<path class="st1" d="M311.7,131.9c-1.2,0-2.2-0.3-3.1-0.8c-0.9-0.5-1.6-1.3-2.2-2.3c-0.5-1-0.8-2.1-0.8-3.5
				c0-1.3,0.3-2.5,0.8-3.5c0.5-1,1.3-1.8,2.2-2.3c0.9-0.5,2-0.8,3.1-0.8c1.5,0,2.8,0.4,3.8,1.3c0.4,0.3,0.6,0.7,0.6,1
				c0,0.4-0.2,0.7-0.6,1c-0.4,0.3-0.7,0.4-1,0.3s-0.6-0.2-1.1-0.5c-0.5-0.3-1-0.5-1.7-0.5c-0.9,0-1.6,0.3-2.2,1
				c-0.6,0.7-0.9,1.6-0.9,2.9s0.3,2.2,0.9,2.9c0.6,0.7,1.3,1,2.2,1c0.6,0,1.2-0.2,1.6-0.5c0.4-0.2,0.8-0.4,1.1-0.5
				c0.3-0.1,0.6,0,1,0.3c0.4,0.3,0.6,0.6,0.7,1c0.1,0.4-0.1,0.7-0.5,1C314.4,131.5,313.2,131.9,311.7,131.9z"/>
			<path class="st1" d="M328.6,131.9c-1.2,0-2.2-0.3-3.1-0.8c-0.9-0.5-1.6-1.3-2.2-2.3c-0.5-1-0.8-2.1-0.8-3.5
				c0-1.3,0.3-2.5,0.8-3.5c0.5-1,1.3-1.8,2.2-2.3c0.9-0.5,2-0.8,3.1-0.8c1.2,0,2.2,0.3,3.2,0.8c0.9,0.5,1.6,1.3,2.2,2.3
				c0.5,1,0.8,2.1,0.8,3.5c0,1.3-0.3,2.5-0.8,3.5c-0.5,1-1.2,1.8-2.2,2.3C330.8,131.6,329.8,131.9,328.6,131.9z M328.6,129.2
				c0.9,0,1.7-0.3,2.3-1c0.6-0.7,0.9-1.6,0.9-2.9s-0.3-2.2-0.9-2.9c-0.6-0.7-1.3-1-2.3-1c-0.9,0-1.6,0.3-2.2,1
				c-0.6,0.7-0.9,1.6-0.9,2.9s0.3,2.2,0.9,2.9C326.9,128.9,327.7,129.2,328.6,129.2z"/>
		</g>
		<g>
			<path class="st1" d="M136.7,77.1l-0.5-7.9h28.8v6.9c-1.2,10.2-9.5,9.9-9.5,9.9l-1.3,0c0,0,3.5-4.3,3.2-9.6L136.7,77.1z
				 M141.5,102c0,0,4.2-5.2,3.7-19.9l7.9,0.2c0.6,20.5-9.4,19.7-9.4,19.7L141.5,102z"/>
			<path class="st1" d="M173.1,89.4L186.8,75l21.5,18.4l-5.5,5.7l-15.4-14.3l-8.4,9.8L173.1,89.4z"/>
			<path class="st1" d="M248.2,70.4h0.9c-0.9,27.3-17.1,35.1-22.8,30.3l-1.8-1.4c8.8-2,15.4-10.6,15.8-22.1L221.9,78l-0.5-7.6h23
				H248.2z"/>
			<path class="st1" d="M264.9,78.5h27.7c0,16.7-8,25.7-16.7,23.1l-0.9-0.9c4.5-3.5,8-7.4,9.2-15.1l-18.8,0.8L264.9,78.5z
				 M289.4,67.8v6.8l-20.8,1l-0.5-7.8H289.4z"/>
			<path class="st1" d="M320.9,77.6l-4.6,5.1l-8.1-6l4.9-6.1L320.9,77.6z M335.3,80.3c1.4,4.2-0.1,16.3-23.4,20.4l-2.1-8.1
				c19-2.7,24.6-14.4,24.6-14.4L335.3,80.3z"/>
			<path class="st1" d="M348,100.2l-0.5-7.8h16.9l-0.3-12.8L348,80.3l-0.5-7.8h24.3l-0.3,26.9L348,100.2z"/>
		</g>
		<ellipse class="st1" cx="198.1" cy="76.3" rx="3.3" ry="3.3"/>
		<ellipse class="st1" cx="205.9" cy="75.5" rx="3.3" ry="3.3"/>
		
			<ellipse transform="matrix(0.9969 -7.905441e-02 7.905441e-02 0.9969 -4.4085 19.7253)" class="st1" cx="246.9" cy="65.5" rx="3.3" ry="3.3"/>
		
			<ellipse transform="matrix(0.9969 -7.905441e-02 7.905441e-02 0.9969 -4.6324 20.2989)" class="st1" cx="254.1" cy="68.7" rx="3.3" ry="3.3"/>
	</g>
	<g>
		<path class="st2" d="M114.2,79.7c-0.3,0-0.6-0.2-0.8-0.4c-0.5-0.5-0.5-1.3,0-1.8c15.6-15.4,4.9-29.5,4.4-30.2
			c-0.4-0.6-0.3-1.4,0.3-1.8c0.6-0.4,1.4-0.3,1.8,0.3c0.1,0.2,12.6,16.6-4.7,33.6C114.9,79.6,114.6,79.8,114.2,79.7z"/>
		<path class="st1" d="M60.3,73.6l-14.4,6.2l-13.8-4l12.6,34.3c0,0,13.8-7.8,23.6-13c-4.5,9-7.6,15.5-7.6,15.5l6,19l19.6-8.9
			c0,0,16.5-18.7,17.4-22.9c0.8-4.2,5.7-26.7,5.7-26.7s13.1-11.3,16.9-13.3c-11.6-10.5-23-11.4-28.7-4c-11.3-7.3-21.8-10.3-32.5-8
			C54.6,49.7,35.6,53,35.6,53l13,16.2L60.3,73.6z"/>
		<ellipse class="st0" cx="112" cy="57.7" rx="1.7" ry="1.7"/>
		<g>
			<path class="st2" d="M118.4,31c0.2-1.6-0.9-3.1-2.4-3.3c-1-0.1-1.9,0.2-2.5,0.8c-0.4-0.8-1.2-1.4-2.1-1.5
				c-1.6-0.2-3.1,0.9-3.3,2.4c-0.1,0.8,0.1,1.6,0.6,2.2l2.8,3.8l0,0c0.2,0.3,0.5,0.5,0.9,0.6c0.4,0.1,0.8,0,1.1-0.3l0,0l3.7-2.8
				C117.8,32.5,118.3,31.8,118.4,31z"/>
			<path class="st2" d="M105.9,43.5c-0.2,1.6,0.9,3.1,2.4,3.3c1,0.1,1.9-0.2,2.5-0.8c0.4,0.8,1.2,1.4,2.1,1.5
				c1.6,0.2,3.1-0.9,3.3-2.4c0.1-0.8-0.1-1.6-0.6-2.2l-2.8-3.8l0,0c-0.2-0.3-0.5-0.5-0.9-0.6c-0.4-0.1-0.8,0-1.1,0.3l0,0l-3.7,2.8
				C106.5,42,106.1,42.7,105.9,43.5z"/>
			<path class="st2" d="M119.1,43.6c1.6,0.2,3.1-0.9,3.3-2.4c0.1-0.9-0.2-1.9-0.8-2.5c0.8-0.4,1.4-1.2,1.5-2.1
				c0.2-1.6-0.9-3.1-2.4-3.3c-0.8-0.1-1.6,0.1-2.2,0.6l-3.8,2.8l0,0c-0.3,0.2-0.5,0.5-0.6,0.9c-0.1,0.4,0,0.8,0.3,1.1l0,0l2.8,3.7
				C117.5,43,118.2,43.5,119.1,43.6z"/>
			<path class="st2" d="M105.4,31c-1.6-0.2-3.1,0.9-3.3,2.4c-0.1,0.9,0.2,1.9,0.8,2.5c-0.8,0.4-1.4,1.2-1.5,2.1
				c-0.2,1.6,0.9,3.1,2.4,3.3c0.8,0.1,1.6-0.1,2.2-0.6l3.8-2.8l0,0c0.3-0.2,0.5-0.5,0.6-0.9c0.1-0.4,0-0.8-0.3-1.1l0,0l-2.8-3.7
				C106.9,31.6,106.2,31.1,105.4,31z"/>
		</g>
	</g>
</g>
</svg>
