<?xml version="1.0" encoding="utf-8"?>
<!-- Generator: Adobe Illustrator 26.5.0, SVG Export Plug-In . SVG Version: 6.00 Build 0)  -->
<svg version="1.1" id="レイヤー_1" xmlns="http://www.w3.org/2000/svg" xmlns:xlink="http://www.w3.org/1999/xlink" x="0px"
	 y="0px" width="370px" height="280px" viewBox="0 0 370 280" style="enable-background:new 0 0 370 280;" xml:space="preserve">
<style type="text/css">
	.st0{fill:#FFFFFF;}
	.st1{fill:#64D35C;}
</style>
<path class="st0" d="M218.7,57.2H6.1c-3.4,0-6.1-2.7-6.1-6.1v-45C0,2.7,2.7,0,6.1,0h212.6c3.4,0,6.1,2.7,6.1,6.1v45
	C224.9,54.5,222.1,57.2,218.7,57.2z"/>
<path class="st0" d="M332.6,128.5H6.1c-3.4,0-6.1-2.7-6.1-6.1v-45c0-3.4,2.7-6.1,6.1-6.1h326.5c3.4,0,6.1,2.7,6.1,6.1v45
	C338.7,125.8,336,128.5,332.6,128.5z"/>
<path class="st0" d="M362.5,199.8H6.1c-3.4,0-6.1-2.7-6.1-6.1v-45c0-3.4,2.7-6.1,6.1-6.1h356.4c3.4,0,6.1,2.7,6.1,6.1v45
	C368.6,197.1,365.9,199.8,362.5,199.8z"/>
<path class="st0" d="M264.5,271.1H6.1c-3.4,0-6.1-2.7-6.1-6.1v-45c0-3.4,2.7-6.1,6.1-6.1h258.4c3.4,0,6.1,2.7,6.1,6.1v45
	C270.6,268.4,267.9,271.1,264.5,271.1z"/>
<g>
	<path class="st1" d="M33.5,42.6c-1.2,0.1-2.4-0.2-3.6-0.9s-2.1-1.6-3-3c-0.7-1.2-1.4-2.8-1.9-4.6c-0.5-1.9-0.9-3.9-1.1-6.1
		c-0.2-2.2-0.3-4.3-0.2-6.5c0.1-0.7,0.3-1.2,0.8-1.7c0.5-0.4,1-0.6,1.7-0.6c0.7,0,1.2,0.3,1.7,0.8c0.4,0.5,0.6,1.1,0.6,1.8
		c-0.1,1.9-0.1,3.7,0,5.5c0.1,1.8,0.4,3.4,0.8,4.9c0.4,1.5,0.9,2.7,1.4,3.7c0.6,1.1,1.4,1.7,2.3,1.7c1.2,0,2.1-1.2,2.9-3.6
		c0.2-0.6,0.6-1.1,1.2-1.4c0.6-0.3,1.2-0.4,1.9-0.1c0.6,0.2,1.1,0.6,1.4,1.2c0.3,0.6,0.3,1.2,0.1,1.8c-0.8,2.4-1.8,4.1-3,5.3
		S34.9,42.5,33.5,42.6z M55.5,35.5c-0.6,0.2-1.3,0.2-1.9-0.1s-1-0.8-1.3-1.4c-0.4-1-1-2-1.6-3c-0.7-1-1.5-2-2.3-2.9
		c-0.9-0.9-1.7-1.7-2.6-2.3c-0.5-0.4-0.9-0.9-1-1.6c-0.1-0.7,0-1.3,0.4-1.8c0.4-0.5,1-0.8,1.6-0.9c0.6-0.1,1.2,0.1,1.8,0.5
		c1.1,0.8,2.2,1.7,3.3,2.9s2.1,2.3,3,3.6c0.9,1.3,1.6,2.6,2,3.8c0.2,0.6,0.2,1.2-0.1,1.9C56.6,34.8,56.1,35.3,55.5,35.5z"/>
	<path class="st1" d="M87.2,48c-0.7,0-1.3-0.2-1.7-0.6c-0.5-0.5-0.8-1-0.8-1.7c0-0.7,0.2-1.3,0.6-1.8s1-0.8,1.7-0.8
		c3.2-0.1,5.7-0.8,7.5-2c1.8-1.2,2.7-2.9,2.7-5.2c0-2-0.8-3.4-2.5-4.2c-0.9-0.4-2-0.7-3.2-0.7c-1.3,0-2.6,0.3-4,0.8
		c-1.4,0.6-2.9,1.5-4.4,2.8c-0.8,0.6-1.5,1.3-2.3,2c-0.8,0.7-1.5,1.4-2.2,1.9c-0.5,0.4-1.1,0.6-1.8,0.6c-0.7-0.1-1.2-0.3-1.6-0.9
		c-0.4-0.5-0.6-1.1-0.5-1.8c0.1-0.7,0.4-1.2,0.9-1.6c1.1-0.9,2.3-1.9,3.6-3.1c1.3-1.1,2.6-2.3,3.8-3.5c1.3-1.2,2.5-2.4,3.5-3.6
		c1.1-1.2,2-2.3,2.8-3.3c0.8-1,1.1-1.8,0.8-2.3c-0.2-0.5-1-0.7-2.3-0.6c-0.3,0-0.7,0.1-1.2,0.1c-0.6,0.1-1.1,0.1-1.8,0.2
		S83.5,19,83,19.1c-0.5,0.1-0.8,0.1-0.9,0.1c-0.7,0.1-1.3-0.1-1.8-0.5c-0.5-0.4-0.8-1-0.9-1.6c-0.1-0.7,0.1-1.3,0.5-1.8
		c0.4-0.5,1-0.8,1.6-0.9c0.4-0.1,1-0.1,1.8-0.2c0.7-0.1,1.5-0.1,2.3-0.2c0.8-0.1,1.5-0.1,2.1-0.1c1.8-0.1,3.4,0.1,4.6,0.6
		c1.2,0.5,2.1,1.2,2.6,2.2c0.5,1,0.7,2.1,0.4,3.3c-0.2,1.2-0.9,2.5-1.9,3.7c-0.4,0.5-0.9,1.1-1.6,1.9c-0.7,0.7-1.2,1.4-1.7,1.9
		c1.1-0.4,2.3-0.6,3.5-0.5c1.3,0.1,2.3,0.3,3.3,0.7c1.6,0.7,2.9,1.7,3.8,3.1c0.9,1.4,1.4,3.1,1.4,5.1c0,3.6-1.3,6.5-3.9,8.6
		C95.5,46.6,91.9,47.8,87.2,48z"/>
	<path class="st1" d="M120.9,46.5c-0.6-0.2-1-0.7-1.3-1.3s-0.2-1.3,0-1.9c0.5-1,1-2.3,1.8-3.8c0.7-1.5,1.5-3.2,2.3-4.9
		s1.7-3.6,2.6-5.5c0.9-1.9,1.8-3.7,2.6-5.4c0.9-1.8,1.7-3.4,2.4-4.8c0.7-1.4,1.3-2.6,1.8-3.5c0.3-0.6,0.8-1,1.4-1.2
		c0.7-0.2,1.3-0.1,1.8,0.3c0.6,0.4,1,0.8,1.2,1.5c0.2,0.6,0.1,1.2-0.3,1.8c-0.4,0.7-0.9,1.6-1.5,2.8c-0.6,1.2-1.3,2.5-2,3.9
		c-0.7,1.5-1.5,3-2.3,4.6c0.9-0.4,1.9-0.6,2.9-0.6c2.6,0,4.3,0.8,5.3,2.4c1,1.6,1,3.8,0.3,6.6c-0.4,1.5-0.4,2.5-0.1,3
		c0.3,0.5,1,0.8,1.9,0.8c0.6,0,1.2-0.1,1.8-0.4c0.6-0.3,1.1-0.9,1.7-1.7c0.6-0.9,1.2-2.1,1.9-3.8c0.2-0.6,0.7-1.1,1.3-1.3
		c0.6-0.3,1.2-0.3,1.9-0.1c0.6,0.2,1.1,0.7,1.4,1.3c0.3,0.6,0.3,1.3,0.1,1.9c-1.1,3-2.4,5.3-4,6.7c-1.6,1.5-3.7,2.2-6.1,2.2
		c-1.7,0-3.1-0.4-4.3-1.1c-1.2-0.7-1.9-1.8-2.3-3.2c-0.4-1.4-0.3-3.2,0.3-5.3c0.4-1.3,0.4-2.2,0.1-2.7c-0.3-0.5-0.9-0.8-1.9-0.8
		c-1.2,0-2.3,0.4-3.4,1.1c-1.1,0.8-2.1,2.2-3.1,4.3c-0.1,0.2-0.3,0.6-0.6,1.3c-0.3,0.6-0.6,1.3-0.9,2.1c-0.3,0.8-0.6,1.4-0.9,2
		c-0.3,0.6-0.5,1-0.5,1.2c-0.3,0.6-0.7,1.1-1.3,1.4S121.6,46.7,120.9,46.5z"/>
	<path class="st1" d="M173.3,37.3c-0.5,0.4-1.1,0.6-1.8,0.6s-1.2-0.2-1.7-0.7c-0.5-0.5-0.7-1.1-0.7-1.8s0.3-1.2,0.8-1.7
		c1.5-1.4,2.9-2.9,4.1-4.7c1.2-1.8,2.1-3.6,2.9-5.5c-0.7,0.1-1.4,0.2-2.1,0.2c-0.7,0.1-1.3,0.1-2,0.2c-0.7,0-1.3-0.2-1.8-0.6
		c-0.5-0.4-0.7-1-0.8-1.8c0-0.7,0.2-1.2,0.6-1.7c0.4-0.4,1-0.7,1.8-0.7c0.9-0.1,1.8-0.1,2.7-0.2c1-0.1,1.9-0.2,2.9-0.4
		c0.1-0.6,0.2-1.3,0.3-1.9c0-0.6,0.1-1.3,0.1-1.9c0-0.7,0.2-1.2,0.7-1.7c0.5-0.5,1-0.7,1.7-0.7c0.7,0,1.3,0.2,1.7,0.7
		c0.5,0.5,0.7,1,0.7,1.7c0,0.9-0.1,1.9-0.2,2.9c0.2-0.1,0.4-0.1,0.5-0.1c0.2,0,0.3-0.1,0.5-0.1c0.7-0.2,1.3-0.1,1.9,0.2
		s0.9,0.8,1.1,1.5c0.1,0.7,0,1.3-0.3,1.8c-0.4,0.5-0.9,0.9-1.5,1.1c-0.4,0.1-0.9,0.2-1.5,0.3c-0.6,0.1-1.1,0.2-1.7,0.3
		c-0.8,2.8-2,5.5-3.5,8C177,33.3,175.3,35.5,173.3,37.3z M184.1,48.5c-2.1,0-3.7-0.5-5.1-1.6s-2-2.6-2-4.6c0-1.8,0.7-3.3,2-4.4
		c1.3-1.1,3-1.6,5.2-1.6c0.8,0,1.6,0,2.3,0.1v-7.7c0-0.7,0.2-1.3,0.7-1.7c0.5-0.5,1-0.7,1.7-0.7c0.7,0,1.2,0.2,1.7,0.7
		c0.5,0.5,0.7,1,0.7,1.7v8.7c1.5,0.5,2.8,1,4.2,1.7c1.3,0.7,2.5,1.3,3.5,2c0.5,0.4,0.9,0.9,1,1.6c0.1,0.7,0,1.3-0.4,1.8
		c-0.4,0.5-0.9,0.9-1.6,1c-0.7,0.1-1.3,0-1.8-0.4c-0.6-0.5-1.4-1-2.2-1.5c-0.8-0.5-1.7-0.9-2.6-1.3c-0.2,2-0.9,3.5-2.1,4.5
		C188,48,186.3,48.5,184.1,48.5z M184,44c0.9,0,1.5-0.2,1.9-0.6c0.4-0.4,0.6-1,0.6-1.9v-0.7c-0.4-0.1-0.9-0.2-1.3-0.2
		c-0.4,0-0.8-0.1-1.2-0.1c-0.8,0-1.5,0.2-1.8,0.5c-0.4,0.3-0.6,0.7-0.6,1.3c0,0.5,0.2,0.9,0.6,1.2C182.5,43.9,183.2,44,184,44z
		 M196.7,26.5c-0.9-0.5-1.9-1.1-3.1-1.7s-2.2-1-3.1-1.3c-0.6-0.2-1.1-0.6-1.5-1.1c-0.4-0.5-0.4-1.1-0.3-1.8c0.1-0.6,0.5-1.1,1.1-1.5
		c0.6-0.4,1.2-0.4,1.8-0.2c0.8,0.2,1.7,0.5,2.7,0.9c1,0.4,1.9,0.8,2.8,1.3c0.9,0.5,1.7,0.9,2.2,1.3c0.5,0.4,0.9,0.9,1,1.5
		c0.1,0.7,0,1.3-0.4,1.9c-0.4,0.5-0.9,0.9-1.5,1C197.8,27,197.2,26.9,196.7,26.5z"/>
	<path class="st1" d="M37.7,118.5c-2.3,0-4.1-0.1-5.6-0.4c-1.5-0.3-2.7-0.8-3.5-1.5c-0.9-0.7-1.5-1.8-1.8-3.2
		c-0.4-1.4-0.5-3.1-0.5-5.2V98c0-2.5,0.2-4.4,0.7-5.9c0.5-1.4,1.3-2.5,2.6-3.2c1.2-0.7,2.9-1.1,5-1.3c0.2-0.6,0.5-1.4,0.9-2.2
		c0.3-0.9,0.6-1.5,0.8-1.9c0.3-0.7,0.7-1.2,1.3-1.6c0.6-0.3,1.3-0.3,2.2-0.1c0.7,0.2,1.2,0.6,1.5,1.3c0.3,0.6,0.3,1.3,0,1.9
		c-0.1,0.3-0.3,0.7-0.5,1.2c-0.2,0.5-0.4,0.9-0.6,1.3h2.3c2.3,0,4.2,0.1,5.6,0.4c1.5,0.3,2.7,0.8,3.5,1.6c0.9,0.7,1.5,1.8,1.8,3.2
		c0.4,1.4,0.5,3.1,0.5,5.2v10.2c0,2.1-0.2,3.9-0.5,5.2c-0.4,1.4-1,2.4-1.8,3.2c-0.9,0.7-2,1.3-3.5,1.5c-1.5,0.3-3.4,0.4-5.6,0.4
		H37.7z M31.1,105.3H49v-4.6H31.1V105.3z M31.2,96.4H49c-0.1-1.3-0.3-2.3-0.6-3c-0.4-0.6-1-1.1-1.9-1.3c-0.9-0.2-2.3-0.3-4-0.3h-4.7
		c-1.7,0-3.1,0.1-4,0.3s-1.6,0.6-1.9,1.3C31.5,94.1,31.2,95.1,31.2,96.4z M37.7,114.2h4.7c1.8,0,3.1-0.1,4-0.3
		c0.9-0.2,1.6-0.6,1.9-1.3c0.4-0.7,0.6-1.7,0.6-3H31.2c0.1,1.3,0.3,2.4,0.6,3c0.4,0.7,1,1.1,1.9,1.3C34.7,114.1,36,114.2,37.7,114.2
		z"/>
	<path class="st1" d="M75.3,101.6c-0.6,0.5-1.3,0.7-2,0.6c-0.8,0-1.4-0.3-1.9-0.9c-0.4-0.6-0.6-1.2-0.5-1.9c0.1-0.7,0.4-1.2,1-1.7
		c1.2-0.9,2.4-1.9,3.6-3.1c1.2-1.2,2.4-2.5,3.4-3.8c1.1-1.3,1.9-2.5,2.6-3.6c0.4-0.6,0.9-1,1.6-1.2c0.7-0.2,1.3-0.1,1.9,0.3
		c0.6,0.4,1,0.9,1.2,1.5c0.2,0.7,0.1,1.3-0.3,1.9c-0.8,1.4-1.8,2.8-3,4.3c-1.2,1.5-2.5,2.9-3.8,4.2C77.7,99.6,76.4,100.7,75.3,101.6
		z M91.3,119.2c-1.9,0-2.9-0.8-3.1-2.4c-0.1-0.8,0.2-1.4,0.7-1.9c0.5-0.5,1.2-0.7,2.1-0.8c1.2,0,2.1-0.1,2.7-0.3
		c0.6-0.1,1.1-0.5,1.4-1c0.3-0.5,0.6-1.2,0.7-2.2c0.1-0.8,0.2-1.6,0.3-2.5c0.1-0.9,0.2-1.8,0.3-2.8c0.1-1.2,0-1.9-0.4-2.3
		c-0.4-0.4-1.3-0.6-2.6-0.6h-3.6c-0.2,2.4-0.9,4.7-1.8,6.9c-1,2.2-2.4,4.1-4.1,5.7c-1.8,1.7-3.9,3-6.5,3.9c-0.7,0.3-1.3,0.3-2,0.1
		c-0.7-0.2-1.1-0.7-1.4-1.4c-0.3-0.6-0.3-1.2,0-1.8c0.3-0.6,0.8-1,1.5-1.2c2-0.8,3.6-1.8,5-3s2.4-2.7,3.2-4.3
		c0.8-1.6,1.3-3.2,1.5-4.9h-3.9c-0.7,0-1.2-0.2-1.7-0.7c-0.5-0.5-0.7-1-0.7-1.7c0-0.6,0.2-1.2,0.7-1.7c0.5-0.5,1-0.7,1.7-0.7h12.6
		c2.1,0,3.7,0.2,4.8,0.7c1.1,0.4,1.9,1.2,2.4,2.2c0.4,1.1,0.6,2.5,0.5,4.3c-0.1,1.3-0.2,2.5-0.3,3.6c-0.1,1.1-0.3,2.2-0.4,3.2
		c-0.3,1.9-0.8,3.4-1.5,4.5c-0.7,1.1-1.7,1.9-3,2.3C95,119,93.4,119.2,91.3,119.2z M105,101.2c-1.3-0.9-2.7-2.1-4-3.4
		s-2.6-2.6-3.8-4c-1.1-1.4-2.1-2.7-2.8-3.9c-0.4-0.6-0.7-1.1-1-1.4c-0.3-0.3-0.7-0.5-1.2-0.6c-0.5-0.1-1.1-0.2-1.8-0.2h-2.1
		c-0.6,0-1.2-0.2-1.7-0.7c-0.5-0.4-0.7-1-0.7-1.6c0-0.6,0.2-1.2,0.6-1.7c0.4-0.5,1-0.7,1.6-0.7h2.2c1.7,0,3,0.1,4,0.4
		c1,0.3,1.8,0.7,2.5,1.4c0.7,0.7,1.4,1.6,2.1,2.9c1,1.6,2.3,3.2,4,4.9c1.7,1.6,3.4,3,5.3,4.2c0.6,0.4,1,1,1.2,1.7
		c0.2,0.7,0,1.4-0.4,2c-0.5,0.7-1.1,1.1-1.9,1.2C106.4,101.8,105.7,101.6,105,101.2z"/>
	<path class="st1" d="M139.9,119c-2.5,0-4.5-0.1-6-0.4c-1.6-0.3-2.8-0.7-3.7-1.4c-0.9-0.7-1.5-1.6-1.8-2.8c-0.3-1.2-0.5-2.8-0.5-4.7
		v-8.5c0-1.9,0.3-3.3,0.8-4.4c0.5-1.1,1.4-1.9,2.7-2.3c1.3-0.5,2.9-0.7,5.1-0.7h4.4c0.3-0.4,0.6-0.8,0.9-1.2
		c0.3-0.4,0.6-0.8,0.8-1.1c0.7-1,0.4-1.5-0.8-1.5h-6.5c-2.7,2.3-5.5,4.4-8.5,6.2c-0.6,0.4-1.3,0.5-1.9,0.4c-0.7-0.1-1.2-0.4-1.6-1
		c-0.4-0.6-0.6-1.3-0.4-1.9c0.1-0.6,0.6-1.2,1.3-1.6c1.4-0.8,2.8-1.7,4.2-2.8c1.4-1.1,2.8-2.2,4.1-3.4c1.3-1.2,2.4-2.3,3.2-3.4
		c0.5-0.6,1.1-1,1.8-1c0.7,0,1.3,0.1,1.8,0.5c0.5,0.4,0.8,0.9,0.9,1.5c0.1,0.6-0.1,1.2-0.5,1.7c-0.1,0.1-0.2,0.2-0.3,0.3
		c-0.1,0.1-0.2,0.2-0.3,0.3h4.9c1.6,0,2.8,0.3,3.6,0.9c0.8,0.6,1.3,1.4,1.3,2.3c0,1-0.3,2-1.1,3.1c-0.4,0.5-0.7,1-1.1,1.5h1.3
		c2.1,0,3.7,0.2,4.8,0.7c1.1,0.4,2,1.2,2.4,2.2c0.5,1,0.7,2.4,0.7,4.1c0,1.7-0.2,3.1-0.7,4.1c-0.5,1-1.3,1.7-2.4,2.2
		c-1.1,0.4-2.8,0.7-4.8,0.7h-15.4v2.1c0,1.1,0.1,1.9,0.2,2.6c0.2,0.6,0.5,1.1,1,1.5c0.5,0.3,1.2,0.6,2.2,0.7s2.2,0.2,3.8,0.2h7.5
		c2,0,3.5-0.1,4.5-0.3c1-0.2,1.7-0.6,2.2-1.1c0.4-0.5,0.8-1.2,1-2.1c0.2-0.6,0.6-1.1,1.2-1.4c0.7-0.3,1.3-0.4,2-0.2
		c0.7,0.2,1.2,0.6,1.5,1.1c0.3,0.5,0.4,1.1,0.3,1.8c-0.3,1.7-0.9,3-1.7,3.9c-0.8,1-2.1,1.6-3.8,2c-1.7,0.4-4.1,0.6-7.1,0.6H139.9z
		 M132.7,103.4h6.8v-5.5h-3.1c-1.5,0-2.5,0.2-3,0.6c-0.5,0.4-0.7,1.3-0.7,2.6V103.4z M144.4,103.4h3.7c1.2,0,2.1-0.2,2.5-0.6
		c0.4-0.4,0.6-1.1,0.6-2.2c0-1.1-0.2-1.8-0.6-2.2c-0.4-0.4-1.2-0.5-2.5-0.5h-3.7V103.4z"/>
	<path class="st1" d="M196.1,116.2c-0.7,0.2-1.3,0.1-1.9-0.3c-0.6-0.4-1-0.9-1.1-1.5c-0.2-0.6-0.1-1.3,0.3-1.8
		c0.4-0.6,0.9-1,1.5-1.1c3-0.8,5.2-2.1,6.6-3.8c1.4-1.8,2.1-4,2.1-6.7c0-1.7-0.4-3.2-1.1-4.6c-0.8-1.3-1.8-2.4-3.2-3.3
		c-1.4-0.8-3.1-1.4-5-1.5c-0.5,4.5-1.3,8.5-2.5,11.8c-1.1,3.3-2.5,5.9-4,7.7c-1.6,1.8-3.2,2.7-4.9,2.7c-1.4,0-2.7-0.4-3.9-1.3
		c-1.2-0.8-2.1-2-2.8-3.6s-1-3.4-1-5.6c0-2.2,0.4-4.3,1.3-6.3c0.9-2,2.1-3.7,3.6-5.2c1.6-1.5,3.4-2.6,5.5-3.5c2.1-0.8,4.4-1.3,7-1.3
		c3.1,0,5.8,0.6,8.2,1.8c2.4,1.2,4.3,2.8,5.6,4.9c1.4,2.1,2.1,4.5,2.1,7.3c0,3.9-1,7.2-3.1,9.8C203.2,113.3,200.2,115.1,196.1,116.2
		z M182.9,108.7c0.5,0,1-0.4,1.7-1.2c0.6-0.8,1.3-2,1.9-3.5c0.6-1.5,1.2-3.3,1.8-5.4c0.5-2.1,0.9-4.4,1.2-6.9
		c-2.1,0.4-3.9,1.2-5.3,2.3c-1.4,1.1-2.5,2.5-3.2,4.1c-0.7,1.6-1.1,3.2-1.1,5c0,1.8,0.3,3.2,0.9,4.2
		C181.3,108.2,182,108.7,182.9,108.7z"/>
	<path class="st1" d="M227.4,110.7c-0.7,0.4-1.4,0.4-2.1,0.2c-0.7-0.2-1.2-0.6-1.5-1.3c-0.3-0.6-0.3-1.3-0.1-1.9
		c0.2-0.6,0.7-1.1,1.5-1.4c0.8-0.4,1.6-0.8,2.6-1.2c1-0.5,2-1,2.9-1.4c1-0.5,1.8-0.9,2.6-1.3c0.5-0.3,1.1-0.3,1.6-0.2
		c0.6,0.2,1,0.5,1.2,1.1c0.3,0.6,0.4,1.1,0.2,1.7c-0.1,0.6-0.5,1.1-1.2,1.4c-0.6,0.4-1.4,0.8-2.3,1.4c-1,0.5-2,1.1-2.9,1.6
		C229,109.9,228.1,110.4,227.4,110.7z M234.5,119.5c-0.7,0-1.4-0.2-1.9-0.6c-0.6-0.4-0.9-1-0.9-1.9c0-0.7,0.2-1.3,0.7-1.8
		c0.5-0.5,1.1-0.8,1.8-0.9c1.1-0.1,1.7-0.2,2-0.5c0.3-0.3,0.5-0.8,0.5-1.5V91.4c0-1.2-0.2-1.9-0.6-2.3c-0.4-0.4-1.3-0.6-2.7-0.6H226
		c-0.6,0-1.2-0.2-1.6-0.7c-0.4-0.4-0.7-1-0.7-1.6c0-0.6,0.2-1.1,0.7-1.6c0.4-0.4,1-0.6,1.6-0.6h7.2c2.1,0,3.8,0.2,4.9,0.7
		c1.2,0.4,2,1.2,2.5,2.3c0.5,1.1,0.7,2.6,0.7,4.5V113c0,2.3-0.5,3.9-1.6,5C238.9,118.9,237,119.4,234.5,119.5z M233.7,100.2
		c-0.5,0.4-1.1,0.5-1.8,0.4c-0.7-0.1-1.2-0.4-1.6-0.9c-0.3-0.4-0.7-0.9-1.2-1.5c-0.5-0.6-1-1.2-1.5-1.9c-0.5-0.6-0.9-1.1-1.2-1.5
		c-0.4-0.5-0.6-1-0.5-1.7s0.4-1.1,0.9-1.5c0.5-0.4,1.1-0.6,1.8-0.6c0.6,0,1.2,0.3,1.6,0.8c0.4,0.4,0.8,0.9,1.3,1.6
		c0.5,0.6,1,1.3,1.5,1.9s0.9,1.2,1.2,1.6c0.4,0.5,0.6,1.1,0.4,1.8C234.6,99.3,234.2,99.8,233.7,100.2z M245.8,109.3
		c-0.7,0.4-1.4,0.4-2.1,0.2s-1.2-0.6-1.5-1.3c-0.3-0.6-0.3-1.3-0.1-1.9c0.2-0.6,0.7-1.1,1.5-1.4c0.8-0.4,1.6-0.8,2.6-1.2
		c0.9-0.5,1.9-0.9,2.8-1.4c0.9-0.5,1.8-0.9,2.5-1.3c0.5-0.3,1.1-0.3,1.6-0.2c0.6,0.2,1,0.5,1.2,1.1c0.3,0.5,0.4,1.1,0.2,1.7
		c-0.1,0.6-0.5,1.1-1.2,1.5c-0.6,0.4-1.4,0.8-2.3,1.3c-0.9,0.5-1.9,1-2.8,1.5C247.3,108.5,246.5,109,245.8,109.3z M252.6,119.5
		c-0.7,0-1.4-0.2-1.9-0.6c-0.6-0.4-0.9-1-0.9-1.9c0-0.7,0.2-1.3,0.6-1.8c0.5-0.5,1.1-0.8,1.8-0.9c1.1-0.1,1.7-0.2,2-0.5
		c0.3-0.3,0.5-0.8,0.5-1.5V91.4c0-1.2-0.2-1.9-0.6-2.3c-0.4-0.4-1.3-0.6-2.7-0.6h-7.2c-0.6,0-1.2-0.2-1.6-0.7
		c-0.4-0.4-0.7-1-0.7-1.6c0-0.6,0.2-1.1,0.7-1.6s1-0.6,1.6-0.6h7.2c2.1,0,3.8,0.2,4.9,0.7c1.2,0.4,2,1.2,2.5,2.3s0.7,2.6,0.7,4.5
		V113c0,2.3-0.5,3.9-1.6,5C257,118.9,255.2,119.4,252.6,119.5z M251.5,99.7c-0.5,0.4-1.1,0.5-1.8,0.4s-1.2-0.4-1.6-0.9
		c-0.3-0.4-0.7-0.9-1.2-1.6c-0.5-0.6-1-1.3-1.5-1.9c-0.5-0.6-0.9-1.1-1.2-1.5c-0.4-0.5-0.6-1-0.5-1.7c0.1-0.6,0.4-1.1,0.9-1.5
		c0.5-0.4,1.1-0.6,1.8-0.6c0.6,0,1.2,0.3,1.6,0.8c0.4,0.4,0.8,0.9,1.3,1.6c0.5,0.6,1,1.3,1.5,1.9c0.5,0.6,0.9,1.2,1.2,1.6
		c0.4,0.5,0.6,1.1,0.4,1.8C252.4,98.8,252.1,99.3,251.5,99.7z"/>
	<path class="st1" d="M303.1,117.6c-3.2-0.5-5.8-1.4-7.9-2.8c-2.1-1.4-3.6-3.1-4.6-5c-1-2-1.5-4-1.5-6.2c0-2.2,0.4-4.2,1.3-6.1
		c0.8-1.9,2.1-3.5,3.6-4.9c-1.6,0.2-3.3,0.5-5.2,0.8c-1.8,0.3-3.6,0.6-5.3,0.9c-1.7,0.3-3.2,0.6-4.5,0.8c-0.7,0.1-1.3,0-1.8-0.4
		s-0.8-0.9-1-1.6c-0.1-0.7,0-1.3,0.4-1.8c0.4-0.5,0.9-0.8,1.6-1c0.9-0.1,2-0.3,3.3-0.5c1.3-0.2,2.9-0.5,4.5-0.7
		c1.7-0.3,3.4-0.6,5.1-0.9c1.8-0.3,3.5-0.6,5.2-0.9c1.7-0.3,3.2-0.5,4.6-0.8c1.4-0.2,2.6-0.4,3.4-0.6c0.6-0.1,1.2,0,1.8,0.4
		c0.6,0.4,0.9,0.9,1,1.5c0.1,0.6,0,1.3-0.3,1.8c-0.3,0.6-0.8,0.9-1.5,1c-1.9,0.3-3.6,0.9-5,1.7s-2.6,1.9-3.6,3.1
		c-1,1.2-1.7,2.5-2.2,3.8c-0.5,1.3-0.7,2.7-0.7,3.9c0,2.6,0.9,4.7,2.7,6.3c1.8,1.6,4.2,2.6,7.3,3.1c0.6,0.1,1.2,0.4,1.6,1
		c0.4,0.5,0.6,1.1,0.4,1.8c-0.1,0.7-0.4,1.2-0.9,1.6C304.4,117.5,303.8,117.7,303.1,117.6z M308.3,101c-0.4,0.3-0.8,0.4-1.3,0.4
		c-0.5-0.1-0.9-0.3-1.2-0.7c-0.3-0.4-0.7-0.9-1.1-1.4c-0.5-0.6-0.9-1.1-1.3-1.5c-0.2-0.3-0.4-0.7-0.3-1.1c0-0.4,0.2-0.8,0.5-1.1
		c0.3-0.3,0.7-0.4,1.1-0.4c0.4,0,0.8,0.2,1.2,0.5c0.4,0.4,0.9,0.8,1.4,1.4c0.5,0.6,1,1.1,1.3,1.5c0.3,0.4,0.4,0.8,0.3,1.3
		C308.9,100.3,308.6,100.7,308.3,101z M312.2,97.5c-0.4,0.4-0.8,0.5-1.3,0.5c-0.5,0-0.9-0.2-1.2-0.6c-0.3-0.4-0.7-0.8-1.2-1.4
		c-0.5-0.5-1-1-1.4-1.4c-0.3-0.3-0.4-0.6-0.4-1.1c0-0.4,0.1-0.8,0.5-1.1c0.3-0.3,0.7-0.5,1.1-0.5c0.4,0,0.8,0.1,1.2,0.4
		c0.4,0.3,0.9,0.7,1.5,1.2s1,1,1.4,1.5c0.3,0.4,0.5,0.8,0.4,1.2S312.5,97.2,312.2,97.5z"/>
	<path class="st1" d="M30.7,190.1c-0.6,0-1.2-0.2-1.7-0.6c-0.5-0.4-0.7-1-0.7-1.7v-11.5c-0.6,0.5-1.2,1-1.8,1.5
		c-0.6,0.5-1.2,0.9-1.8,1.4c-0.6,0.4-1.2,0.6-1.9,0.5c-0.7,0-1.3-0.4-1.7-1c-0.4-0.5-0.5-1.1-0.4-1.8c0.1-0.6,0.5-1.1,1-1.5
		c1.2-0.8,2.4-1.7,3.6-2.7c1.2-1.1,2.4-2.1,3.5-3.3c1.1-1.1,2-2.2,2.8-3.2c0.9-1.2,0.6-1.8-0.9-1.8h-7c-0.6,0-1.1-0.2-1.5-0.6
		c-0.4-0.4-0.6-0.9-0.6-1.5c0-0.6,0.2-1.1,0.6-1.6c0.4-0.4,0.9-0.6,1.5-0.6h4.5v-5.2c0-0.7,0.2-1.3,0.7-1.7c0.5-0.4,1-0.6,1.7-0.6
		s1.2,0.2,1.7,0.6c0.5,0.4,0.7,1,0.7,1.7v5.2c2.2,0.2,3.6,0.9,4.2,2.2c0.6,1.3,0.2,3-1,4.9c-0.2,0.4-0.5,0.7-0.7,1.1
		c-0.2,0.4-0.5,0.7-0.8,1.1c0.5,0.3,1.1,0.6,1.7,1.1c0.6,0.4,1.3,0.8,1.9,1.2c0.6,0.4,1.1,0.7,1.4,0.9c0.5,0.4,0.9,0.8,1,1.5
		c0.1,0.6,0,1.2-0.4,1.8c-0.4,0.5-0.9,0.9-1.5,1c-0.6,0.1-1.2,0-1.8-0.4c-0.4-0.3-1-0.7-1.7-1.2c-0.7-0.5-1.4-1-2.1-1.5v14.1
		c0,0.7-0.2,1.3-0.7,1.7C31.9,189.9,31.4,190.1,30.7,190.1z M38.3,188.4c-0.6,0-1.2-0.2-1.6-0.7c-0.4-0.4-0.7-1-0.7-1.6
		c0-0.6,0.2-1.2,0.7-1.6c0.4-0.5,1-0.7,1.6-0.7h7.2v-14.1h-4.9c-0.6,0-1.2-0.2-1.6-0.7s-0.7-1-0.7-1.6c0-0.6,0.2-1.2,0.7-1.7
		s1-0.7,1.6-0.7h4.9v-10c0-0.7,0.2-1.3,0.7-1.8c0.5-0.4,1-0.7,1.7-0.7c0.7,0,1.3,0.2,1.8,0.7c0.5,0.4,0.7,1,0.7,1.8v10h5.3
		c0.6,0,1.2,0.2,1.6,0.7c0.4,0.5,0.7,1,0.7,1.7c0,0.6-0.2,1.2-0.7,1.6c-0.4,0.4-1,0.7-1.6,0.7h-5.3v14.1h6.4c0.6,0,1.2,0.2,1.6,0.7
		c0.5,0.5,0.7,1,0.7,1.6c0,0.6-0.2,1.2-0.7,1.6c-0.5,0.4-1,0.7-1.6,0.7H38.3z"/>
	<path class="st1" d="M76.7,169.1c-0.7,0.4-1.3,0.5-2,0.4c-0.7-0.1-1.2-0.5-1.6-1.1c-0.3-0.5-0.4-1.1-0.2-1.7
		c0.2-0.6,0.6-1.1,1.3-1.5c1.5-0.9,3-1.9,4.7-3c1.6-1.1,3.2-2.3,4.8-3.5c1.6-1.2,2.9-2.3,4.2-3.4c1.1-0.9,2-1.6,2.8-1.9
		c0.8-0.3,1.7-0.3,2.5,0c0.9,0.3,1.8,0.9,2.9,1.8c1.1,0.9,2.5,1.9,4,3.1c1.6,1.2,3.2,2.3,4.9,3.5c1.7,1.1,3.3,2.2,4.8,3.1
		c0.8,0.4,1.3,1,1.4,1.6c0.2,0.6,0.1,1.3-0.3,1.9c-0.4,0.6-0.9,0.9-1.6,1.1c-0.7,0.1-1.5-0.1-2.2-0.5c-1.1-0.6-2.2-1.4-3.4-2.3
		c-1.2-0.9-2.5-1.8-3.7-2.7c-1.3-0.9-2.5-1.8-3.6-2.8c-1.1-0.9-2.1-1.7-3-2.5c-0.5-0.5-1-0.7-1.4-0.7s-0.9,0.2-1.4,0.7
		c-1.2,1.1-2.6,2.3-4.2,3.6c-1.6,1.3-3.3,2.6-4.9,3.8C79.8,167.2,78.2,168.3,76.7,169.1z M106.4,188.9c-0.5,0.4-1.1,0.6-1.8,0.5
		s-1.2-0.3-1.6-0.8c-0.3-0.4-0.6-0.8-1-1.3c-0.3-0.4-0.7-0.9-1.1-1.3c-1.4,0.2-2.9,0.4-4.7,0.7c-1.8,0.2-3.7,0.5-5.6,0.7
		c-1.9,0.2-3.8,0.5-5.6,0.7c-1.8,0.2-3.4,0.4-4.7,0.5c-0.8,0.1-1.4-0.1-1.8-0.4c-0.4-0.4-0.7-0.9-0.8-1.6c-0.1-0.6,0.1-1.2,0.6-1.6
		c0.5-0.4,1.1-0.7,1.8-0.7c0.4,0,0.8-0.1,1.2-0.1c0.4,0,0.8-0.1,1.2-0.1c0.3-0.6,0.7-1.3,1.1-2.1c0.4-0.8,0.9-1.7,1.3-2.5
		c0.5-0.9,0.9-1.7,1.2-2.5h-8c-0.5,0-1-0.2-1.4-0.6c-0.4-0.4-0.6-0.9-0.6-1.4c0-0.6,0.2-1.1,0.6-1.5c0.4-0.4,0.9-0.6,1.4-0.6h27.9
		c0.5,0,1,0.2,1.4,0.6c0.4,0.4,0.6,0.9,0.6,1.5c0,0.5-0.2,1-0.6,1.4c-0.4,0.4-0.9,0.6-1.4,0.6H91.3c-0.4,0.9-0.9,1.9-1.5,3.1
		c-0.6,1.2-1.2,2.4-1.8,3.4c1.8-0.2,3.5-0.3,5.3-0.5c1.8-0.2,3.4-0.4,4.8-0.6c-0.2-0.2-0.4-0.4-0.5-0.6c-0.2-0.2-0.4-0.4-0.5-0.5
		c-0.4-0.4-0.5-0.9-0.5-1.4c0-0.6,0.2-1.1,0.6-1.4c0.5-0.5,1-0.7,1.7-0.6c0.6,0,1.2,0.3,1.6,0.7c1,1,2.1,2.1,3.3,3.4
		c1.2,1.3,2.2,2.5,3.1,3.6c0.4,0.5,0.6,1.1,0.5,1.7C107.1,188,106.9,188.5,106.4,188.9z M84.9,169.8c-0.5,0-1-0.2-1.4-0.6
		c-0.4-0.4-0.6-0.9-0.6-1.5c0-0.5,0.2-1,0.6-1.4c0.4-0.4,0.9-0.6,1.4-0.6h14.5c0.5,0,1,0.2,1.4,0.6c0.4,0.4,0.6,0.9,0.6,1.4
		c0,0.6-0.2,1.1-0.6,1.5c-0.4,0.4-0.9,0.6-1.4,0.6H84.9z"/>
	<path class="st1" d="M156.6,182.1c-1.3-1-2.8-2.1-4.4-3.4c-1.6-1.3-3.2-2.6-4.9-4c-1.6-1.4-3.2-2.8-4.6-4.1c-1-0.9-1.8-1.6-2.5-1.9
		c-0.7-0.3-1.3-0.3-2-0.1c-0.7,0.3-1.6,0.8-2.7,1.7c-1.3,1-2.6,1.9-3.8,2.8c-1.2,0.9-2.4,1.7-3.5,2.4c-0.6,0.4-1.2,0.5-1.8,0.3
		c-0.7-0.1-1.2-0.5-1.6-1.1c-0.4-0.6-0.5-1.2-0.3-1.9c0.1-0.7,0.5-1.2,1-1.5c1-0.6,2.2-1.4,3.5-2.3c1.3-0.9,2.6-1.8,3.8-2.7
		c1.6-1.2,3.1-2.1,4.5-2.5s2.7-0.4,4,0.1c1.3,0.5,2.8,1.5,4.3,2.9c1.3,1.3,2.9,2.6,4.5,4c1.7,1.4,3.3,2.7,5,3.9
		c1.6,1.2,3.1,2.3,4.3,3.2c0.5,0.4,0.9,0.9,1,1.6c0.1,0.7,0,1.3-0.4,1.9c-0.4,0.5-1,0.9-1.6,1C157.7,182.7,157.1,182.5,156.6,182.1z
		"/>
	<path class="st1" d="M180.5,188.4c-0.7,0.1-1.3,0-1.8-0.4c-0.5-0.4-0.9-0.9-1-1.5c-0.2-0.9-0.3-2.1-0.4-3.6
		c-0.1-1.5-0.1-3.3-0.2-5.2c0-1.9,0-3.9,0-6s0.1-4.1,0.2-6c0.1-2,0.2-3.7,0.4-5.3c0.2-1.6,0.4-2.9,0.6-3.9c0.2-0.6,0.5-1.1,1.1-1.5
		c0.6-0.4,1.2-0.4,1.8-0.3s1.1,0.5,1.5,1.1c0.4,0.6,0.4,1.2,0.3,1.8c-0.2,1-0.4,2.3-0.6,3.8c-0.2,1.5-0.3,3.2-0.4,5
		c-0.1,1.8-0.2,3.6-0.2,5.5s0,3.7,0,5.5c0,1.8,0.1,3.4,0.2,4.8s0.2,2.6,0.4,3.5c0.1,0.6,0,1.2-0.4,1.8
		C181.7,187.9,181.1,188.2,180.5,188.4z M194,188.3c-2.2,0-3.9-0.5-5.2-1.6c-1.3-1.1-2-2.6-2-4.6c0-1.9,0.7-3.4,2-4.6
		c1.3-1.1,3.1-1.7,5.4-1.7c0.7,0,1.4,0,2.1,0.1c0-1.3-0.1-2.7-0.1-4.2c0-1.5-0.1-3-0.1-4.6c-1.4,0.1-2.8,0.1-4.2,0.2
		c-1.3,0-2.5,0-3.5,0c-0.7,0-1.2-0.3-1.7-0.7c-0.4-0.5-0.7-1-0.6-1.7c0.1-0.6,0.3-1.2,0.8-1.6c0.5-0.4,1-0.7,1.7-0.6
		c0.9,0,2.1,0,3.3,0c1.3,0,2.6-0.1,4-0.1c0-1,0-2,0-3s0-1.8,0-2.7c0-0.7,0.2-1.2,0.7-1.7c0.5-0.5,1-0.7,1.7-0.7
		c0.7,0,1.3,0.2,1.7,0.7c0.5,0.5,0.7,1,0.7,1.7c0,0.8,0,1.7,0,2.6c0,0.9,0,1.8,0,2.7c1.2-0.1,2.3-0.2,3.3-0.3c1-0.1,1.8-0.2,2.5-0.3
		c0.6-0.1,1.2,0,1.8,0.4c0.5,0.4,0.9,0.9,1,1.6c0.1,0.6,0,1.2-0.4,1.8c-0.4,0.5-0.9,0.9-1.6,0.9c-0.8,0.1-1.7,0.2-2.8,0.3
		c-1.1,0.1-2.3,0.2-3.6,0.3c0.1,1.9,0.1,3.7,0.2,5.5c0.1,1.8,0.1,3.3,0.1,4.7c1.5,0.5,2.9,1.1,4.2,1.7c1.3,0.7,2.5,1.4,3.4,2.1
		c0.5,0.4,0.9,0.9,1,1.6c0.1,0.7,0,1.3-0.4,1.8c-0.4,0.5-0.9,0.9-1.6,1c-0.7,0.1-1.3,0-1.8-0.4c-0.7-0.5-1.4-1-2.2-1.5
		c-0.8-0.5-1.6-0.9-2.5-1.3C201,186.3,198.6,188.3,194,188.3z M194,183.7c1.7,0,2.5-0.8,2.5-2.4c0-0.1,0-0.2,0-0.3
		c0-0.1,0-0.3,0-0.4c-0.8-0.2-1.6-0.2-2.5-0.2s-1.5,0.2-1.8,0.5c-0.4,0.3-0.6,0.7-0.6,1.3s0.2,0.9,0.6,1.2
		C192.5,183.6,193.1,183.7,194,183.7z"/>
	<path class="st1" d="M230.1,188.4c-0.6,0.1-1.2,0-1.8-0.4c-0.5-0.4-0.9-0.9-1-1.6c-0.2-0.9-0.3-2.1-0.4-3.6
		c-0.1-1.5-0.2-3.3-0.2-5.2c0-1.9,0-3.9,0-6c0.1-2.1,0.1-4.1,0.2-6c0.1-2,0.2-3.7,0.4-5.3c0.2-1.6,0.4-2.9,0.6-3.9
		c0.1-0.6,0.5-1.1,1.1-1.5c0.6-0.4,1.2-0.4,1.8-0.3s1.1,0.5,1.5,1.1c0.4,0.6,0.4,1.2,0.3,1.8c-0.2,1-0.5,2.3-0.6,3.8
		c-0.2,1.5-0.3,3.2-0.4,5c-0.1,1.8-0.2,3.6-0.2,5.5s0,3.7,0,5.5c0,1.8,0.1,3.4,0.2,4.8c0.1,1.4,0.2,2.6,0.4,3.5
		c0.1,0.6,0,1.2-0.4,1.8C231.3,187.9,230.8,188.2,230.1,188.4z M243.6,188.3c-2.2,0-3.9-0.5-5.2-1.6s-2-2.6-2-4.6
		c0-1.9,0.7-3.4,2-4.6s3.1-1.7,5.4-1.7c0.7,0,1.4,0,2.1,0.1c0-1.3-0.1-2.7-0.1-4.2c0-1.5-0.1-3-0.1-4.6c-1.4,0.1-2.8,0.1-4.2,0.2
		c-1.3,0-2.5,0-3.5,0c-0.7,0-1.2-0.3-1.7-0.7s-0.7-1-0.6-1.7c0.1-0.6,0.3-1.2,0.8-1.6c0.5-0.4,1-0.7,1.7-0.6c0.9,0,2.1,0,3.3,0
		c1.3,0,2.6-0.1,4-0.1c0-1,0-2,0-3s0-1.8,0-2.7c0-0.7,0.2-1.2,0.7-1.7c0.5-0.5,1-0.7,1.7-0.7c0.7,0,1.2,0.2,1.7,0.7
		c0.5,0.5,0.7,1,0.7,1.7c0,0.8,0,1.7,0,2.6c0,0.9,0,1.8,0,2.7c1.2-0.1,2.2-0.2,3.2-0.3c1-0.1,1.8-0.2,2.5-0.3c0.6-0.1,1.2,0,1.8,0.4
		c0.5,0.4,0.8,0.9,1,1.6c0.1,0.6,0,1.2-0.4,1.8c-0.4,0.5-0.9,0.9-1.6,0.9c-0.8,0.1-1.7,0.2-2.8,0.3c-1.1,0.1-2.3,0.2-3.6,0.3
		c0.1,1.9,0.1,3.7,0.2,5.5c0.1,1.8,0.1,3.3,0.1,4.7c1.5,0.5,2.9,1.1,4.2,1.7c1.3,0.7,2.5,1.4,3.4,2.1c0.5,0.4,0.9,0.9,1,1.6
		c0.1,0.7,0,1.3-0.4,1.8c-0.4,0.5-0.9,0.9-1.6,1c-0.7,0.1-1.3,0-1.8-0.4c-0.6-0.5-1.4-1-2.2-1.5c-0.8-0.5-1.6-0.9-2.5-1.3
		C250.6,186.3,248.2,188.3,243.6,188.3z M243.6,183.7c0.9,0,1.5-0.2,1.9-0.6c0.4-0.4,0.6-1,0.6-1.8v-0.8c-0.8-0.2-1.7-0.2-2.5-0.2
		c-0.8,0-1.5,0.2-1.8,0.5c-0.4,0.3-0.6,0.7-0.6,1.3s0.2,0.9,0.6,1.2C242.1,183.6,242.7,183.7,243.6,183.7z M258.3,160.7
		c-0.4,0.3-0.8,0.4-1.3,0.4c-0.5-0.1-0.9-0.3-1.2-0.7c-0.3-0.4-0.6-0.9-1.1-1.5c-0.5-0.6-0.9-1.1-1.3-1.5c-0.2-0.3-0.4-0.7-0.3-1.1
		c0-0.4,0.2-0.8,0.6-1.1c0.3-0.3,0.7-0.4,1.1-0.4c0.4,0,0.8,0.2,1.2,0.5c0.4,0.3,0.8,0.8,1.4,1.3c0.5,0.6,1,1.1,1.3,1.6
		c0.3,0.4,0.4,0.8,0.3,1.3S258.7,160.4,258.3,160.7z M262.2,157.3c-0.4,0.4-0.8,0.5-1.3,0.5c-0.5,0-0.9-0.2-1.2-0.6
		c-0.3-0.4-0.7-0.8-1.2-1.4s-1-1-1.4-1.5c-0.3-0.3-0.4-0.6-0.4-1c0-0.4,0.2-0.8,0.5-1.2c0.3-0.3,0.7-0.5,1.1-0.5
		c0.4,0,0.8,0.1,1.2,0.4c0.4,0.3,0.9,0.8,1.5,1.3c0.6,0.5,1,1,1.4,1.5c0.3,0.4,0.5,0.8,0.4,1.2C262.8,156.5,262.6,156.9,262.2,157.3
		z"/>
	<path class="st1" d="M277.6,188c-0.6-0.4-1-0.9-1.1-1.5c-0.1-0.6,0-1.3,0.3-1.8c1.1-1.7,2-3.6,2.8-5.6c0.8-2.1,1.5-4.2,2.1-6.4
		c0.6-2.2,1-4.4,1.4-6.5c-0.8,0.1-1.5,0.1-2.3,0.2s-1.4,0.1-2.1,0.2c-0.7,0-1.3-0.2-1.8-0.6c-0.5-0.4-0.8-1-0.8-1.6
		c0-0.7,0.2-1.3,0.6-1.8c0.4-0.5,1-0.8,1.7-0.8c0.8-0.1,1.6-0.1,2.5-0.2c0.9-0.1,1.8-0.1,2.7-0.2c0.1-0.9,0.1-1.8,0.2-2.6
		c0-0.8,0-1.6,0-2.4c0-0.7,0.2-1.3,0.6-1.7c0.4-0.5,1-0.7,1.7-0.8c0.7,0,1.3,0.2,1.7,0.6s0.7,1,0.8,1.7c0,0.7,0,1.4,0,2.2
		c0,0.8-0.1,1.6-0.2,2.5c1.2-0.2,2.3-0.4,3.3-0.6c0.6-0.1,1.3,0,1.8,0.3s0.9,0.9,1.1,1.5c0.1,0.7,0,1.3-0.3,1.8
		c-0.4,0.5-0.9,0.9-1.5,1c-0.7,0.1-1.4,0.3-2.2,0.4c-0.8,0.1-1.7,0.3-2.6,0.4c-0.4,2.5-0.9,5-1.5,7.6s-1.4,5.2-2.3,7.6
		c-0.9,2.4-1.9,4.6-3.1,6.4c-0.4,0.6-0.9,0.9-1.5,1.1C278.8,188.5,278.1,188.4,277.6,188z M305.8,187.2c-4,0.9-7.5,0.9-10.3,0.1
		c-2.9-0.9-4.9-2.5-6.2-4.8c-0.3-0.6-0.4-1.2-0.2-1.8c0.2-0.6,0.6-1.1,1.2-1.4c0.6-0.3,1.2-0.4,1.8-0.2c0.6,0.2,1.1,0.6,1.4,1.2
		c0.8,1.4,2.2,2.3,4.1,2.7c1.9,0.4,4.3,0.2,7.2-0.4c0.7-0.1,1.3,0,1.8,0.3c0.6,0.4,0.9,0.9,1,1.5c0.1,0.7,0,1.3-0.3,1.8
		C306.9,186.7,306.4,187,305.8,187.2z M303.8,171.7c-0.9-0.2-2-0.4-3.1-0.4c-1.2-0.1-2.4-0.1-3.6-0.1c-1.2,0-2.3,0.2-3.4,0.3
		c-0.6,0.1-1.2,0-1.8-0.4c-0.5-0.4-0.9-0.9-1-1.5c-0.1-0.6,0-1.2,0.3-1.8c0.4-0.6,0.9-0.9,1.5-1c1.3-0.2,2.6-0.4,4-0.4
		c1.4-0.1,2.8,0,4.2,0.1c1.4,0.1,2.7,0.3,3.8,0.5c0.6,0.1,1.1,0.5,1.5,1.1c0.3,0.6,0.4,1.2,0.3,1.8c-0.1,0.6-0.5,1.1-1.1,1.4
		C305,171.7,304.4,171.8,303.8,171.7z"/>
	<path class="st1" d="M344.5,189.3c-0.5,0.4-1.1,0.5-1.8,0.4c-0.7-0.1-1.2-0.4-1.6-1c-0.9-1.3-2-2.7-3.1-4.1
		c-1.1-1.4-2.3-2.8-3.4-4.1c-1.1-1.3-2.2-2.4-3.1-3.3c-1.6-1.6-2.7-3-3.2-4.4s-0.5-2.7,0-4.1c0.6-1.4,1.7-2.8,3.4-4.4
		c0.6-0.5,1.2-1.2,2-1.9c0.8-0.8,1.6-1.6,2.5-2.5c0.9-0.9,1.8-1.8,2.6-2.7c0.8-0.9,1.6-1.7,2.3-2.4c0.5-0.5,1-0.7,1.7-0.7
		s1.3,0.2,1.8,0.7c0.5,0.4,0.7,1,0.7,1.7s-0.2,1.3-0.7,1.8c-0.9,1-2,2.1-3.1,3.3c-1.1,1.1-2.3,2.2-3.3,3.3c-1.1,1-2,1.9-2.8,2.6
		c-1.1,1-1.7,1.8-2.1,2.5c-0.3,0.7-0.3,1.4,0,2c0.3,0.7,1,1.5,1.9,2.5c0.9,0.9,2,2.1,3.1,3.4s2.4,2.7,3.5,4.1
		c1.2,1.4,2.2,2.8,3.1,4.1c0.4,0.5,0.5,1.1,0.4,1.8S345.1,188.9,344.5,189.3z"/>
	<path class="st1" d="M36.1,258.9c-0.6,0.3-1.3,0.3-1.9,0.1s-1.1-0.7-1.4-1.3c-0.3-0.6-0.3-1.3-0.1-1.9c0.2-0.7,0.7-1.1,1.3-1.4
		c3.1-1.4,5.3-3.4,6.8-5.8c1.5-2.4,2.2-5.6,2.3-9.4h-6.2c0,1.1,0,2.1,0,3.1s0,1.8-0.1,2.6c0,0.7-0.3,1.3-0.8,1.7
		c-0.5,0.4-1.1,0.7-1.8,0.6c-0.7-0.1-1.2-0.3-1.7-0.9c-0.4-0.5-0.6-1.1-0.6-1.8c0.1-0.7,0.1-1.6,0.1-2.5s0-1.9,0-2.9h-8.3
		c-0.7,0-1.2-0.2-1.7-0.7c-0.5-0.5-0.7-1-0.7-1.7c0-0.7,0.2-1.2,0.7-1.7c0.5-0.5,1-0.7,1.7-0.7h8.1c-0.1-0.9-0.1-1.8-0.2-2.7
		c-0.1-0.9-0.2-1.6-0.3-2.2c-0.1-0.7,0-1.3,0.4-1.8c0.4-0.6,0.9-0.9,1.6-1c0.7-0.1,1.3,0,1.9,0.4c0.6,0.4,0.9,0.9,1,1.6
		c0.1,0.8,0.2,1.6,0.3,2.6s0.1,2,0.2,3.1h6.3c0-1.2-0.1-2.3-0.1-3.4c0-1.1-0.1-2-0.2-2.9c-0.1-0.7,0.1-1.3,0.6-1.8s1-0.8,1.7-0.9
		c0.7-0.1,1.3,0.1,1.8,0.6s0.8,1,0.8,1.7c0.1,0.8,0.1,1.8,0.2,3s0.1,2.4,0.1,3.6h7.7c0.7,0,1.2,0.2,1.7,0.7c0.5,0.5,0.7,1,0.7,1.7
		c0,0.7-0.2,1.2-0.7,1.7c-0.5,0.5-1,0.7-1.7,0.7H48c-0.1,4.8-1.1,8.9-3.1,12.2C42.9,254.7,40,257.2,36.1,258.9z"/>
	<path class="st1" d="M76.6,252.5c-0.6,0.4-1.2,0.4-1.9,0.3c-0.7-0.2-1.2-0.6-1.5-1.2c-0.4-0.6-0.4-1.3-0.2-1.9
		c0.2-0.6,0.6-1.1,1.1-1.5c1.1-0.8,2.3-1.6,3.4-2.6c1.2-1,2.2-2,3.1-3c0.5-0.5,1-0.8,1.7-1c0.6-0.1,1.2,0,1.8,0.4
		c0.5,0.4,0.9,0.9,1,1.6c0.1,0.7,0,1.3-0.5,1.8c-0.7,0.9-1.5,1.7-2.4,2.6c-0.9,0.9-1.9,1.7-2.8,2.4
		C78.5,251.3,77.5,251.9,76.6,252.5z M84.8,257.6c-0.7,0-1.3-0.2-1.8-0.7c-0.5-0.5-0.7-1.1-0.7-1.7c0-0.7,0.2-1.3,0.7-1.8
		c0.5-0.5,1.1-0.7,1.8-0.7c1.2,0,2.1-0.2,2.4-0.5c0.4-0.4,0.6-1.1,0.6-2.3v-11.2H77.1c-0.7,0-1.2-0.2-1.7-0.7
		c-0.5-0.5-0.7-1-0.7-1.7c0-0.7,0.2-1.2,0.7-1.7c0.5-0.5,1-0.7,1.7-0.7h10.7v-4.4c0-0.7,0.2-1.3,0.7-1.8c0.5-0.5,1.1-0.7,1.7-0.7
		c0.7,0,1.3,0.2,1.8,0.7c0.5,0.5,0.7,1.1,0.7,1.8v4.4h10c0.7,0,1.2,0.2,1.7,0.7c0.5,0.5,0.7,1,0.7,1.7c0,0.7-0.2,1.2-0.7,1.7
		c-0.5,0.5-1,0.7-1.7,0.7h-10V250c0,2.8-0.6,4.7-1.8,5.8C89.7,257,87.7,257.6,84.8,257.6z M106.6,251.6c-0.5,0.5-1.1,0.7-1.8,0.6
		c-0.7-0.1-1.3-0.3-1.8-0.8c-0.5-0.5-1.2-1.2-2-1.8s-1.6-1.4-2.3-2c-0.8-0.7-1.5-1.2-2.2-1.6c-0.5-0.4-0.9-0.9-1-1.6
		c-0.1-0.7,0-1.3,0.3-1.8c0.4-0.6,0.9-0.9,1.6-1c0.7-0.1,1.3,0,1.9,0.4c0.7,0.5,1.5,1.1,2.4,1.8c0.9,0.7,1.8,1.5,2.7,2.2
		c0.9,0.8,1.7,1.5,2.3,2.2c0.5,0.5,0.7,1.1,0.7,1.8C107.4,250.5,107.2,251.1,106.6,251.6z M104,232.4c-1.1,0-2.1-0.4-2.9-1.2
		c-0.8-0.8-1.2-1.8-1.2-2.9c0-1.1,0.4-2.1,1.2-2.9c0.8-0.8,1.8-1.2,2.9-1.2c1.1,0,2.1,0.4,2.9,1.2c0.8,0.8,1.2,1.7,1.2,2.9
		c0,1.1-0.4,2.1-1.2,2.9C106.1,232,105.1,232.4,104,232.4z M104,230.1c0.5,0,0.9-0.2,1.2-0.5c0.4-0.4,0.5-0.8,0.5-1.3
		c0-0.5-0.2-0.9-0.5-1.2c-0.4-0.3-0.8-0.5-1.2-0.5c-0.5,0-0.9,0.2-1.3,0.5c-0.4,0.3-0.5,0.7-0.5,1.2c0,0.5,0.2,0.9,0.5,1.3
		C103.1,229.9,103.5,230.1,104,230.1z"/>
	<path class="st1" d="M125.3,244.5c-0.7,0-1.3-0.2-1.8-0.7c-0.5-0.5-0.7-1.1-0.7-1.8c0-0.7,0.2-1.3,0.7-1.8c0.5-0.5,1.1-0.7,1.8-0.7
		h25.2c0.7,0,1.3,0.2,1.8,0.7c0.5,0.5,0.7,1.1,0.7,1.8c0,0.7-0.2,1.3-0.7,1.8c-0.5,0.5-1.1,0.7-1.8,0.7H125.3z"/>
	<path class="st1" d="M179,259c-0.7,0-1.3-0.2-1.7-0.7c-0.5-0.5-0.7-1.1-0.7-1.7v-28c0-0.7,0.2-1.3,0.7-1.8c0.5-0.5,1.1-0.7,1.7-0.7
		c0.7,0,1.3,0.2,1.8,0.7c0.5,0.5,0.7,1.1,0.7,1.8v9.8c0.4-0.5,0.8-0.9,1.5-1.1c0.6-0.2,1.2-0.1,1.8,0.2c1.6,0.8,3.2,1.8,4.9,2.9
		c1.7,1.1,3.1,2.1,4.3,3.2c0.5,0.4,0.8,1,0.9,1.7c0.1,0.7-0.1,1.3-0.6,1.9c-0.4,0.5-1,0.8-1.7,0.9c-0.7,0.1-1.3-0.1-1.9-0.5
		c-0.8-0.6-1.6-1.2-2.6-1.9c-1-0.7-2-1.3-3-2c-1-0.6-1.9-1.2-2.7-1.6c-0.4-0.2-0.8-0.5-1-0.9v15.6c0,0.7-0.2,1.3-0.7,1.7
		C180.3,258.7,179.7,259,179,259z"/>
	<path class="st1" d="M237.6,259c-3.6,0.5-6.7,0.7-9.2,0.6c-2.5-0.1-4.5-0.5-6-1.1s-2.6-1.5-3.3-2.5c-0.7-1-1-2.2-1-3.5
		c0-2,0.8-3.9,2.5-5.7c1.6-1.8,4-3.3,7.1-4.6c-0.4-0.5-1-0.9-1.6-1.1c-1.4-0.4-2.7-0.3-4,0.4c-1.3,0.7-2.6,1.7-3.8,3.1
		c-0.5,0.5-1.1,0.7-1.8,0.8c-0.7,0-1.3-0.2-1.8-0.7c-0.4-0.5-0.6-1.1-0.6-1.8s0.3-1.2,0.8-1.7c1.3-1.1,2.5-2.4,3.5-3.7
		c1-1.3,1.9-2.7,2.6-4.1c-1.2,0-2.2,0-3.3,0.1c-1,0-1.9,0-2.6,0c-0.7,0-1.2-0.2-1.7-0.7c-0.5-0.5-0.7-1-0.7-1.7
		c0-0.7,0.3-1.2,0.8-1.7s1.1-0.6,1.7-0.6c0.9,0,2.1,0,3.4,0c1.3,0,2.7,0,4.2-0.1c0.1-0.5,0.3-1,0.4-1.5c0.1-0.5,0.2-1,0.3-1.5
		c0.1-0.7,0.4-1.2,0.9-1.6c0.5-0.4,1.1-0.6,1.7-0.5s1.2,0.4,1.6,0.9c0.4,0.5,0.6,1.1,0.5,1.8c0,0.4-0.1,0.7-0.2,1.1
		s-0.2,0.8-0.3,1.1c1-0.1,2-0.1,2.9-0.2s1.7-0.2,2.4-0.3c0.7-0.1,1.3,0.1,1.8,0.5s0.8,0.9,0.9,1.6s-0.1,1.3-0.5,1.8
		c-0.4,0.5-1,0.8-1.6,0.9c-1,0.1-2.1,0.2-3.4,0.3s-2.6,0.1-4.1,0.2c-0.6,1.3-1.2,2.6-1.9,3.7c0.6-0.1,1.3-0.2,1.9-0.1
		c0.6,0,1.2,0.1,1.7,0.3c0.8,0.2,1.6,0.6,2.4,1.1s1.5,1.3,2,2.2c1.3-0.4,2.7-0.7,4.2-1.1s3.1-0.6,4.8-0.9c0.6-0.1,1.2,0,1.8,0.4
		c0.5,0.4,0.9,0.9,0.9,1.6c0.1,0.7,0,1.3-0.4,1.8c-0.4,0.5-0.9,0.8-1.6,0.9c-1.6,0.2-3,0.4-4.3,0.7c-1.3,0.3-2.6,0.5-3.7,0.8
		c0.1,0.7,0.2,1.5,0.3,2.4c0.1,0.9,0.1,1.8,0.1,2.8c0,0.7-0.2,1.2-0.7,1.7c-0.5,0.5-1,0.7-1.7,0.7c-0.7,0-1.2-0.2-1.7-0.7
		c-0.5-0.5-0.7-1-0.7-1.7c0-1.4-0.1-2.6-0.2-3.7c-2.2,0.9-3.8,1.9-4.8,2.9c-1,1-1.5,2-1.5,3c0,0.7,0.4,1.3,1.3,1.8
		c0.9,0.5,2.3,0.7,4.3,0.8c2,0.1,4.8-0.1,8.3-0.6c0.6-0.1,1.2,0.1,1.8,0.5c0.5,0.4,0.9,0.9,0.9,1.6c0.1,0.6-0.1,1.2-0.5,1.7
		C238.7,258.6,238.2,258.9,237.6,259z"/>
</g>
</svg>
