<?xml version="1.0" encoding="utf-8"?>
<!-- Generator: Adobe Illustrator 26.5.0, SVG Export Plug-In . SVG Version: 6.00 Build 0)  -->
<svg version="1.1" id="レイヤー_1" xmlns="http://www.w3.org/2000/svg" xmlns:xlink="http://www.w3.org/1999/xlink" x="0px"
	 y="0px" width="333px" height="38px" viewBox="0 0 333 38" style="enable-background:new 0 0 333 38;" xml:space="preserve">
<style type="text/css">
	.st0{fill:#64D35C;}
	.st1{fill:#FFFFFF;}
</style>
<g>
	<path class="st0" d="M314.8,37.2H18.2C8.1,37.2,0,29,0,19v0C0,9,8.1,0.8,18.2,0.8h296.6C324.9,0.8,333,9,333,19v0
		C333,29,324.9,37.2,314.8,37.2z"/>
	<g>
		<g>
			<path class="st1" d="M33,27.9c-0.9,0-1.4-0.4-1.6-1.3l-3.2-14.6c-0.1-0.5-0.1-0.9,0.1-1.2c0.2-0.3,0.5-0.4,1-0.4
				c0.5,0,0.9,0.1,1.2,0.3c0.3,0.2,0.5,0.5,0.5,1l2.2,11l2.9-11c0.2-0.8,0.7-1.3,1.6-1.3c0.8,0,1.4,0.4,1.6,1.3l2.9,11l2.2-11
				c0.2-0.9,0.7-1.3,1.6-1.3c0.5,0,0.9,0.1,1.1,0.4c0.2,0.3,0.3,0.7,0.2,1.2l-3.2,14.6c-0.2,0.9-0.7,1.3-1.6,1.3
				c-0.9,0-1.4-0.4-1.7-1.3L37.7,15l-3.1,11.7C34.5,27.5,33.9,27.9,33,27.9z"/>
			<path class="st1" d="M52.8,27.9c-0.9,0-1.4-0.5-1.4-1.5V11.6c0-1,0.5-1.5,1.4-1.5c0.9,0,1.4,0.5,1.4,1.5v5.8
				c0.3-0.5,0.7-0.9,1.2-1.2c0.5-0.3,1.2-0.5,1.9-0.5c1.2,0,2.3,0.4,3.1,1.2c0.8,0.8,1.2,2,1.2,3.5v6.1c0,1-0.5,1.5-1.4,1.5
				c-0.9,0-1.4-0.5-1.4-1.5V21c0-0.9-0.2-1.7-0.6-2.1c-0.4-0.5-0.9-0.7-1.5-0.7c-0.7,0-1.3,0.2-1.8,0.7c-0.5,0.5-0.7,1.2-0.7,2.2
				v5.4C54.2,27.5,53.7,27.9,52.8,27.9z"/>
			<path class="st1" d="M70.2,28.1c-1.3,0-2.4-0.2-3.2-0.9c-0.8-0.6-1.3-1.5-1.3-2.7c0-0.8,0.3-1.6,0.8-2.2c0.5-0.6,1.2-1.1,2-1.4
				c0.8-0.3,1.7-0.5,2.5-0.5c0.4,0,0.8,0,1.2,0.1c0.4,0.1,0.7,0.2,1,0.4v-1.1c0-0.8-0.2-1.3-0.5-1.5c-0.3-0.2-0.8-0.4-1.5-0.4
				c-0.5,0-1,0.1-1.5,0.2c-0.5,0.1-1,0.3-1.5,0.5c-0.4,0.2-0.8,0.2-1.1,0.2c-0.3,0-0.6-0.2-0.8-0.6s-0.2-0.7-0.1-1
				c0.1-0.3,0.4-0.6,0.8-0.8c0.6-0.3,1.3-0.5,2-0.7c0.7-0.2,1.4-0.2,2.2-0.2c1.6,0,2.7,0.3,3.5,0.9c0.8,0.6,1.2,1.8,1.2,3.4v5.5
				c0,0.2,0,0.3,0.1,0.4c0,0.1,0.1,0.2,0.1,0.2c0.1,0.2,0.3,0.3,0.5,0.4c0.2,0,0.3,0.1,0.5,0.1c0.1,0,0.2,0.1,0.2,0.2
				c0,0.3-0.1,0.6-0.2,0.8c-0.2,0.2-0.4,0.4-0.8,0.5c-0.4,0.1-0.8,0.1-1.1,0.1c-0.5,0-0.9-0.1-1.2-0.3c-0.3-0.2-0.5-0.5-0.6-0.9
				c-0.4,0.4-0.9,0.6-1.5,0.8C71.4,28,70.8,28.1,70.2,28.1z M70.2,25.7c0.9,0,1.7-0.2,2.3-0.5c0.6-0.3,0.9-0.8,0.9-1.4
				c0-0.4-0.2-0.7-0.6-0.8c-0.4-0.2-0.9-0.2-1.5-0.2c-0.8,0-1.5,0.2-2,0.6c-0.5,0.4-0.8,0.8-0.8,1.3C68.5,25.4,69.1,25.7,70.2,25.7z
				"/>
			<path class="st1" d="M85.9,28.2c-1.2,0-2.1-0.2-2.7-0.6s-0.9-1.3-0.9-2.6v-6.6h-0.8c-1,0-1.5-0.4-1.5-1.2c0-0.4,0.1-0.7,0.3-0.9
				c0.2-0.2,0.6-0.3,1.1-0.3h0.9v-2.8c0-1,0.5-1.5,1.4-1.5c0.9,0,1.4,0.5,1.4,1.5v2.8h1.8c1,0,1.5,0.4,1.5,1.2
				c0,0.8-0.5,1.2-1.5,1.2h-1.9v5.9c0,0.6,0.1,0.9,0.4,1.1c0.3,0.2,0.7,0.3,1.2,0.3c0.5,0,1,0.1,1.3,0.2c0.3,0.1,0.5,0.4,0.5,1
				c0,0.4-0.1,0.7-0.4,0.9c-0.2,0.2-0.6,0.3-0.9,0.4C86.7,28.2,86.3,28.2,85.9,28.2z"/>
			<path class="st1" d="M103.4,13.9c-0.5,0-0.9-0.2-1.2-0.5c-0.4-0.4-0.5-0.8-0.5-1.2s0.2-0.9,0.5-1.2c0.3-0.4,0.8-0.5,1.2-0.5
				c0.5,0,0.9,0.2,1.2,0.5c0.3,0.3,0.5,0.8,0.5,1.2s-0.2,0.9-0.5,1.2C104.3,13.8,103.9,13.9,103.4,13.9z M103.4,27.9
				c-0.9,0-1.4-0.5-1.4-1.5v-9.1c0-1,0.5-1.5,1.4-1.5c0.9,0,1.4,0.5,1.4,1.5v9.1C104.8,27.5,104.3,27.9,103.4,27.9z"/>
			<path class="st1" d="M114.1,28.2c-0.8,0-1.5-0.1-2.1-0.3c-0.7-0.2-1.3-0.5-1.9-0.9c-0.4-0.3-0.6-0.6-0.7-0.9c0-0.3,0.1-0.7,0.4-1
				c0.3-0.3,0.6-0.4,0.9-0.4c0.3,0,0.7,0.1,1.1,0.4c0.7,0.5,1.5,0.7,2.4,0.7c0.7,0,1.2-0.1,1.5-0.3c0.3-0.2,0.5-0.5,0.5-1.1
				c0-0.2-0.1-0.5-0.2-0.6c-0.2-0.2-0.4-0.3-0.8-0.4c-0.4-0.1-1-0.3-1.8-0.4c-1.2-0.2-2.1-0.6-2.8-1.2c-0.7-0.5-1.1-1.4-1.1-2.5
				c0-0.8,0.2-1.4,0.6-1.9c0.4-0.5,0.9-1,1.6-1.3c0.7-0.3,1.4-0.5,2.3-0.5c1.3,0,2.4,0.3,3.3,0.8c0.4,0.2,0.7,0.5,0.8,0.9
				c0.1,0.3,0,0.7-0.3,1c-0.3,0.3-0.6,0.5-0.9,0.5c-0.3,0-0.7-0.1-1.1-0.3c-0.3-0.2-0.5-0.3-0.8-0.3c-0.3-0.1-0.6-0.1-0.9-0.1
				c-0.6,0-1.1,0.1-1.3,0.3c-0.3,0.2-0.4,0.5-0.4,0.8c0,0.2,0.1,0.4,0.2,0.5c0.1,0.2,0.4,0.3,0.7,0.4c0.4,0.1,0.9,0.3,1.6,0.5
				c1.3,0.3,2.4,0.8,3.1,1.4c0.7,0.6,1.1,1.4,1.1,2.5c0,1.2-0.5,2.1-1.4,2.8S115.6,28.2,114.1,28.2z"/>
			<path class="st1" d="M136.3,28.1c-1.3,0-2.4-0.2-3.2-0.9c-0.8-0.6-1.3-1.5-1.3-2.7c0-0.8,0.3-1.6,0.8-2.2c0.5-0.6,1.2-1.1,2-1.4
				c0.8-0.3,1.7-0.5,2.5-0.5c0.4,0,0.8,0,1.2,0.1c0.4,0.1,0.7,0.2,1,0.4v-1.1c0-0.8-0.2-1.3-0.5-1.5c-0.3-0.2-0.8-0.4-1.5-0.4
				c-0.5,0-1,0.1-1.5,0.2c-0.5,0.1-1,0.3-1.5,0.5c-0.4,0.2-0.8,0.2-1.1,0.2c-0.3,0-0.6-0.2-0.8-0.6s-0.2-0.7-0.1-1
				c0.1-0.3,0.4-0.6,0.8-0.8c0.6-0.3,1.3-0.5,2-0.7c0.7-0.2,1.4-0.2,2.2-0.2c1.6,0,2.7,0.3,3.5,0.9c0.8,0.6,1.2,1.8,1.2,3.4v5.5
				c0,0.2,0,0.3,0.1,0.4c0,0.1,0.1,0.2,0.1,0.2c0.1,0.2,0.3,0.3,0.5,0.4c0.2,0,0.3,0.1,0.5,0.1c0.1,0,0.2,0.1,0.2,0.2
				c0,0.3-0.1,0.6-0.2,0.8c-0.2,0.2-0.4,0.4-0.8,0.5c-0.4,0.1-0.8,0.1-1.1,0.1c-0.5,0-0.9-0.1-1.2-0.3c-0.3-0.2-0.5-0.5-0.6-0.9
				c-0.4,0.4-0.9,0.6-1.5,0.8C137.4,28,136.9,28.1,136.3,28.1z M136.2,25.7c0.9,0,1.7-0.2,2.3-0.5c0.6-0.3,0.9-0.8,0.9-1.4
				c0-0.4-0.2-0.7-0.6-0.8c-0.4-0.2-0.9-0.2-1.5-0.2c-0.8,0-1.5,0.2-2,0.6c-0.5,0.4-0.8,0.8-0.8,1.3
				C134.5,25.4,135.1,25.7,136.2,25.7z"/>
			<path class="st1" d="M151.6,28c-0.4,0-0.7-0.1-1.1-0.3c-0.3-0.2-0.6-0.5-0.7-0.9l-3.5-9.1c-0.2-0.5-0.2-1-0.1-1.2
				c0.2-0.3,0.5-0.5,1-0.5c0.9,0,1.4,0.4,1.7,1.2l2.6,7.2l2.6-7.2c0.3-0.8,0.8-1.2,1.7-1.2c0.4,0,0.8,0.1,0.9,0.5
				c0.1,0.3,0.1,0.7-0.1,1.2l-3.3,9.1c-0.2,0.4-0.4,0.7-0.7,0.9C152.3,27.9,151.9,28,151.6,28z"/>
			<path class="st1" d="M166,28.2c-1.8,0-3.2-0.5-4.2-1.6c-1.1-1.1-1.6-2.6-1.6-4.7c0-1.3,0.2-2.4,0.7-3.4c0.5-0.9,1.2-1.7,2-2.2
				c0.9-0.5,1.9-0.8,3-0.8c1.1,0,2.1,0.3,2.8,0.8c0.8,0.5,1.4,1.2,1.8,2c0.4,0.8,0.6,1.7,0.6,2.6c0,0.6-0.1,1-0.4,1.2
				c-0.2,0.2-0.6,0.3-1.1,0.3h-6.8c0.1,1.2,0.4,2.1,0.9,2.6c0.6,0.5,1.3,0.8,2.2,0.8c1,0,1.8-0.3,2.4-1c0.3-0.3,0.6-0.6,0.9-0.7
				c0.3-0.1,0.6,0,0.9,0.2c0.3,0.2,0.5,0.5,0.6,0.9c0,0.4-0.1,0.8-0.5,1.1c-0.6,0.7-1.2,1.2-1.9,1.5C167.7,28.1,166.9,28.2,166,28.2
				z M163,20.3h5.3c-0.1-0.8-0.4-1.4-0.9-1.8c-0.4-0.4-1-0.6-1.7-0.6c-0.7,0-1.3,0.2-1.8,0.6C163.5,18.8,163.2,19.4,163,20.3z"/>
			<path class="st1" d="M177.1,28.2c-0.5,0-1-0.2-1.3-0.5s-0.6-0.8-0.6-1.3c0-0.5,0.2-1,0.6-1.3c0.4-0.4,0.8-0.6,1.3-0.6
				c0.5,0,1,0.2,1.3,0.6c0.4,0.4,0.6,0.8,0.6,1.3c0,0.5-0.2,1-0.6,1.3S177.6,28.2,177.1,28.2z"/>
			<path class="st1" d="M189.6,28.2c-1.4,0-2.5-0.6-3.3-1.8v0.5c0,0.4-0.1,0.7-0.4,0.8c-0.3,0.2-0.6,0.2-1,0.2
				c-0.8,0-1.2-0.5-1.2-1.5V11.6c0-1,0.5-1.5,1.4-1.5c0.9,0,1.4,0.5,1.4,1.5V17c0.4-0.4,0.9-0.8,1.4-1c0.5-0.2,1.1-0.4,1.7-0.4
				c1.1,0,2.1,0.2,3,0.8s1.6,1.2,2.1,2.2c0.5,0.9,0.8,2.1,0.8,3.4s-0.2,2.4-0.8,3.4s-1.2,1.7-2.1,2.2S190.7,28.2,189.6,28.2z
				 M189.5,25.7c0.9,0,1.6-0.3,2.2-1c0.6-0.6,0.9-1.6,0.9-2.8s-0.3-2.1-0.9-2.8c-0.6-0.6-1.3-1-2.2-1c-0.9,0-1.6,0.3-2.2,1
				c-0.6,0.7-0.9,1.6-0.9,2.8s0.3,2.1,0.9,2.8C187.8,25.3,188.6,25.7,189.5,25.7z"/>
			<path class="st1" d="M201.1,27.9c-0.9,0-1.4-0.5-1.4-1.5V11.6c0-1,0.5-1.5,1.4-1.5c0.9,0,1.4,0.5,1.4,1.5v14.9
				C202.5,27.5,202,27.9,201.1,27.9z"/>
			<path class="st1" d="M211.3,28.1c-1.3,0-2.4-0.2-3.2-0.9c-0.8-0.6-1.3-1.5-1.3-2.7c0-0.8,0.3-1.6,0.8-2.2c0.5-0.6,1.2-1.1,2-1.4
				c0.8-0.3,1.7-0.5,2.5-0.5c0.4,0,0.8,0,1.2,0.1c0.4,0.1,0.7,0.2,1,0.4v-1.1c0-0.8-0.2-1.3-0.5-1.5c-0.3-0.2-0.8-0.4-1.5-0.4
				c-0.5,0-1,0.1-1.5,0.2c-0.5,0.1-1,0.3-1.5,0.5c-0.4,0.2-0.8,0.2-1.1,0.2c-0.3,0-0.6-0.2-0.8-0.6s-0.2-0.7-0.1-1
				c0.1-0.3,0.4-0.6,0.8-0.8c0.6-0.3,1.3-0.5,2-0.7c0.7-0.2,1.4-0.2,2.2-0.2c1.6,0,2.7,0.3,3.5,0.9c0.8,0.6,1.2,1.8,1.2,3.4v5.5
				c0,0.2,0,0.3,0.1,0.4c0,0.1,0.1,0.2,0.1,0.2c0.1,0.2,0.3,0.3,0.5,0.4c0.2,0,0.3,0.1,0.5,0.1c0.1,0,0.2,0.1,0.2,0.2
				c0,0.3-0.1,0.6-0.2,0.8c-0.2,0.2-0.4,0.4-0.8,0.5c-0.4,0.1-0.8,0.1-1.1,0.1c-0.5,0-0.9-0.1-1.2-0.3c-0.3-0.2-0.5-0.5-0.6-0.9
				c-0.4,0.4-0.9,0.6-1.5,0.8C212.5,28,211.9,28.1,211.3,28.1z M211.2,25.7c0.9,0,1.7-0.2,2.3-0.5c0.6-0.3,0.9-0.8,0.9-1.4
				c0-0.4-0.2-0.7-0.6-0.8c-0.4-0.2-0.9-0.2-1.5-0.2c-0.8,0-1.5,0.2-2,0.6c-0.5,0.4-0.8,0.8-0.8,1.3
				C209.6,25.4,210.1,25.7,211.2,25.7z"/>
			<path class="st1" d="M223.8,27.9c-0.9,0-1.4-0.5-1.4-1.5v-9.1c0-1,0.4-1.5,1.3-1.5c0.8,0,1.3,0.2,1.3,0.6l0.1,0.8
				c0.3-0.5,0.8-0.9,1.3-1.2c0.5-0.3,1.2-0.5,1.9-0.5c1.2,0,2.3,0.4,3.1,1.2c0.8,0.8,1.2,2,1.2,3.5v6.1c0,1-0.5,1.5-1.4,1.5
				c-0.9,0-1.4-0.5-1.4-1.5V21c0-0.9-0.2-1.7-0.6-2.1c-0.4-0.5-0.9-0.7-1.5-0.7c-0.7,0-1.3,0.2-1.8,0.7c-0.5,0.5-0.7,1.2-0.7,2.2
				v5.4C225.2,27.5,224.7,27.9,223.8,27.9z"/>
			<path class="st1" d="M242.6,28.2c-1.1,0-2.1-0.3-3-0.8c-0.9-0.5-1.6-1.3-2.1-2.2c-0.5-0.9-0.8-2-0.8-3.3s0.3-2.4,0.8-3.3
				c0.5-0.9,1.2-1.7,2.1-2.2c0.9-0.5,1.9-0.8,3-0.8c1.4,0,2.6,0.4,3.6,1.2c0.4,0.3,0.6,0.6,0.5,1c0,0.4-0.2,0.7-0.6,0.9
				c-0.4,0.2-0.7,0.4-0.9,0.3c-0.3,0-0.6-0.2-1-0.5c-0.5-0.3-1-0.5-1.6-0.5c-0.9,0-1.6,0.3-2.1,1c-0.5,0.7-0.8,1.6-0.8,2.8
				s0.3,2.1,0.8,2.8c0.6,0.6,1.3,1,2.1,1c0.6,0,1.1-0.2,1.6-0.5c0.4-0.2,0.7-0.4,1-0.5c0.3-0.1,0.6,0,1,0.3c0.4,0.3,0.6,0.6,0.6,0.9
				c0.1,0.4-0.1,0.7-0.5,1C245.2,27.8,244,28.2,242.6,28.2z"/>
			<path class="st1" d="M256.1,28.2c-1.1,0-2.1-0.3-3-0.8c-0.9-0.5-1.6-1.3-2.1-2.2c-0.5-0.9-0.8-2-0.8-3.3s0.3-2.4,0.8-3.3
				c0.5-0.9,1.2-1.7,2.1-2.2c0.9-0.5,1.9-0.8,3-0.8c1.1,0,2.1,0.3,3,0.8c0.9,0.5,1.6,1.3,2.1,2.2c0.5,0.9,0.8,2,0.8,3.3
				s-0.2,2.4-0.8,3.3c-0.5,0.9-1.2,1.7-2.1,2.2C258.3,28,257.3,28.2,256.1,28.2z M256.1,25.7c0.9,0,1.6-0.3,2.2-1
				c0.6-0.6,0.8-1.6,0.8-2.8s-0.3-2.1-0.8-2.8c-0.6-0.6-1.3-1-2.2-1c-0.9,0-1.6,0.3-2.1,1c-0.5,0.7-0.8,1.6-0.8,2.8s0.3,2.1,0.8,2.8
				C254.6,25.3,255.3,25.7,256.1,25.7z"/>
			<path class="st1" d="M266.2,30.6c-0.2,0-0.3-0.1-0.5-0.2c-0.1-0.1-0.2-0.3-0.2-0.5c0-0.2,0.1-0.3,0.2-0.5
				c0.1-0.1,0.3-0.2,0.5-0.2H280c0.2,0,0.3,0.1,0.5,0.2s0.2,0.3,0.2,0.5c0,0.2-0.1,0.3-0.2,0.5c-0.1,0.1-0.3,0.2-0.5,0.2H266.2z"/>
			<path class="st1" d="M289.8,28.2c-1.3,0-2.4-0.3-3.1-1s-1.3-1.7-1.6-3c-0.3-1.3-0.5-3-0.5-5s0.2-3.7,0.5-5c0.3-1.3,0.8-2.3,1.6-3
				c0.8-0.7,1.8-1,3.1-1c1.3,0,2.4,0.3,3.1,1c0.7,0.7,1.3,1.7,1.6,3c0.3,1.3,0.5,3,0.5,5s-0.2,3.7-0.5,5c-0.3,1.3-0.8,2.3-1.6,3
				C292.2,27.9,291.2,28.2,289.8,28.2z M289.8,25.6c0.6,0,1.1-0.2,1.5-0.6c0.4-0.4,0.6-1.1,0.8-2c0.2-0.9,0.2-2.2,0.2-3.9
				c0-1.7-0.1-3-0.2-3.9c-0.2-0.9-0.4-1.6-0.8-2c-0.4-0.4-0.8-0.6-1.5-0.6c-0.6,0-1.1,0.2-1.5,0.6c-0.4,0.4-0.6,1.1-0.8,2
				c-0.2,0.9-0.2,2.2-0.2,3.9c0,1.6,0.1,2.9,0.2,3.9c0.2,0.9,0.4,1.6,0.8,2C288.7,25.4,289.2,25.6,289.8,25.6z"/>
			<path class="st1" d="M306.5,27.9c-0.8,0-1.2-0.5-1.2-1.5v-2.3h-5.3c-1,0-1.5-0.3-1.5-1c0-0.4,0-0.7,0.1-1
				c0.1-0.3,0.2-0.6,0.4-0.9l5.8-9.8c0.2-0.4,0.4-0.6,0.7-0.8c0.3-0.1,0.6-0.2,1-0.2c0.9,0,1.3,0.5,1.3,1.5v9.9h1
				c1,0,1.5,0.4,1.5,1.2c0,0.8-0.4,1.2-1.1,1.2h-1.4v2.3C307.8,27.5,307.3,27.9,306.5,27.9z M301.1,21.8h4.2v-7.1L301.1,21.8z"/>
		</g>
	</g>
</g>
</svg>
