<?xml version="1.0" encoding="utf-8"?>
<!-- Generator: Adobe Illustrator 26.5.0, SVG Export Plug-In . SVG Version: 6.00 Build 0)  -->
<svg version="1.1" id="レイヤー_1" xmlns="http://www.w3.org/2000/svg" xmlns:xlink="http://www.w3.org/1999/xlink" x="0px"
	 y="0px" width="70px" height="74px" viewBox="0 0 70 74" style="enable-background:new 0 0 70 74;" xml:space="preserve">
<style type="text/css">
	.st0{fill:#FFFFFF;}
</style>
<g>
	<g>
		<path class="st0" d="M4.1,73.2c-0.8,0-1.5-0.1-2.2-0.4c-0.7-0.3-1.3-0.7-1.7-1.4C0,71.2,0,70.9,0,70.7c0.1-0.2,0.2-0.4,0.5-0.5
			C0.7,70,1,70,1.2,70.1c0.2,0.1,0.4,0.2,0.6,0.4c0.3,0.3,0.6,0.5,1,0.7s0.9,0.3,1.4,0.3c0.7,0,1.3-0.1,1.6-0.4
			c0.3-0.3,0.5-0.6,0.5-1.1c0-0.3-0.1-0.5-0.2-0.8c-0.1-0.2-0.4-0.4-0.8-0.6c-0.4-0.2-1.1-0.4-1.9-0.6c-1-0.2-1.8-0.6-2.3-1.2
			c-0.5-0.5-0.7-1.2-0.7-2c0-0.6,0.2-1.2,0.5-1.7C1,62.7,1.5,62.3,2,62c0.6-0.3,1.2-0.4,2-0.4c0.8,0,1.5,0.1,2.1,0.4
			c0.6,0.3,1.1,0.6,1.5,1.1c0.2,0.2,0.3,0.4,0.2,0.7c0,0.2-0.2,0.4-0.4,0.6c-0.2,0.2-0.5,0.3-0.7,0.2c-0.2,0-0.4-0.2-0.6-0.4
			c-0.3-0.2-0.6-0.4-0.9-0.6c-0.3-0.2-0.7-0.2-1.2-0.2c-0.5,0-1,0.1-1.3,0.4c-0.3,0.2-0.5,0.6-0.5,1.1c0,0.2,0,0.4,0.2,0.6
			c0.1,0.2,0.3,0.4,0.7,0.6s0.9,0.4,1.6,0.5c1.3,0.3,2.2,0.7,2.7,1.3c0.6,0.6,0.8,1.3,0.8,2.2c0,1.1-0.4,1.9-1.1,2.4
			C6.3,72.9,5.3,73.2,4.1,73.2z"/>
		<path class="st0" d="M16.8,73.2c-1,0-1.9-0.2-2.7-0.7c-0.8-0.5-1.4-1.1-1.8-2c-0.4-0.9-0.7-1.9-0.7-3.1c0-1.2,0.2-2.2,0.7-3.1
			c0.4-0.9,1.1-1.5,1.8-2c0.8-0.5,1.7-0.7,2.7-0.7c0.7,0,1.4,0.1,2.1,0.4c0.6,0.3,1.2,0.7,1.6,1.2c0.2,0.2,0.3,0.5,0.2,0.7
			c-0.1,0.2-0.2,0.4-0.4,0.5l-0.1,0c-0.1,0.1-0.3,0.1-0.6,0.1c-0.3,0-0.5-0.1-0.7-0.3c-0.3-0.3-0.6-0.5-0.9-0.6
			c-0.4-0.1-0.7-0.2-1.2-0.2c-0.7,0-1.2,0.2-1.7,0.5c-0.5,0.3-0.9,0.8-1.1,1.4c-0.3,0.6-0.4,1.3-0.4,2.1c0,0.8,0.1,1.5,0.4,2.1
			c0.3,0.6,0.7,1.1,1.1,1.4c0.5,0.3,1.1,0.5,1.7,0.5c0.8,0,1.5-0.3,2.1-0.8c0.2-0.2,0.4-0.3,0.7-0.3c0.2,0,0.4,0,0.6,0.1l0,0
			c0.2,0.1,0.4,0.3,0.5,0.5c0.1,0.2,0,0.5-0.2,0.7c-0.5,0.5-1,0.9-1.6,1.2C18.3,73.1,17.6,73.2,16.8,73.2z"/>
		<path class="st0" d="M25.7,73c-0.6,0-0.9-0.3-0.9-0.9v-9.2c0-0.6,0.3-0.9,0.9-0.9h4.1c1,0,1.9,0.2,2.5,0.7
			c0.6,0.5,0.9,1.3,0.9,2.5c0,1-0.2,1.7-0.7,2.2c-0.4,0.5-1.1,0.8-1.8,0.9l1.8,3.7c0.2,0.3,0.2,0.6,0.1,0.8
			c-0.1,0.2-0.3,0.3-0.6,0.3h-0.3c-0.5,0-0.9-0.2-1.1-0.7l-1.8-4h-2.2V72C26.7,72.7,26.4,73,25.7,73z M26.7,66.6h3
			c0.5,0,1-0.1,1.3-0.3c0.3-0.2,0.4-0.6,0.4-1.2c0-0.5-0.1-0.9-0.4-1.1c-0.3-0.2-0.7-0.3-1.3-0.3h-3V66.6z"/>
		<path class="st0" d="M41.9,73.2c-1,0-1.9-0.2-2.7-0.7c-0.8-0.5-1.4-1.1-1.8-2c-0.4-0.9-0.7-1.9-0.7-3.1c0-1.2,0.2-2.2,0.7-3.1
			c0.4-0.9,1.1-1.5,1.8-2c0.8-0.5,1.7-0.7,2.7-0.7c1,0,1.9,0.2,2.7,0.7c0.8,0.5,1.4,1.2,1.8,2c0.4,0.9,0.7,1.9,0.7,3.1
			c0,1.2-0.2,2.2-0.7,3.1c-0.4,0.9-1.1,1.5-1.8,2C43.8,73,42.9,73.2,41.9,73.2z M41.9,71.4c0.7,0,1.2-0.2,1.7-0.5
			c0.5-0.3,0.9-0.8,1.1-1.4c0.3-0.6,0.4-1.3,0.4-2.1c0-0.8-0.1-1.5-0.4-2.1c-0.3-0.6-0.6-1.1-1.1-1.4c-0.5-0.3-1.1-0.5-1.7-0.5
			c-0.7,0-1.2,0.2-1.7,0.5c-0.5,0.3-0.9,0.8-1.1,1.4c-0.3,0.6-0.4,1.3-0.4,2.1c0,0.8,0.1,1.5,0.4,2.1c0.3,0.6,0.7,1.1,1.1,1.4
			C40.7,71.3,41.3,71.4,41.9,71.4z"/>
		<path class="st0" d="M52.1,73c-0.6,0-0.9-0.3-0.9-0.9v-9.2c0-0.6,0.3-0.9,0.9-0.9c0.6,0,0.9,0.3,0.9,0.9v8.5h4.9
			c0.6,0,0.9,0.3,0.9,0.8c0,0.6-0.3,0.9-0.9,0.9H52.1z"/>
		<path class="st0" d="M63.3,73c-0.6,0-0.9-0.3-0.9-0.9v-9.2c0-0.6,0.3-0.9,0.9-0.9c0.6,0,0.9,0.3,0.9,0.9v8.5h4.9
			c0.6,0,0.9,0.3,0.9,0.8c0,0.6-0.3,0.9-0.9,0.9H63.3z"/>
	</g>
	<circle class="st0" cx="34.5" cy="44.5" r="3.5"/>
	<circle class="st0" cx="34.5" cy="24" r="3.5"/>
	<circle class="st0" cx="34.5" cy="3.5" r="3.5"/>
</g>
</svg>
