<?xml version="1.0" encoding="utf-8"?>
<!-- Generator: Adobe Illustrator 26.5.0, SVG Export Plug-In . SVG Version: 6.00 Build 0)  -->
<svg version="1.1" id="レイヤー_1" xmlns="http://www.w3.org/2000/svg" xmlns:xlink="http://www.w3.org/1999/xlink" x="0px"
	 y="0px" width="450px" height="50px" viewBox="0 0 450 50" style="enable-background:new 0 0 450 50;" xml:space="preserve">
<style type="text/css">
	.st0{fill:#64D35C;}
	.st1{fill:none;stroke:#4AC944;stroke-width:1.74;stroke-linecap:round;stroke-linejoin:round;stroke-miterlimit:10;}
</style>
<g>
	<g>
		<path class="st0" d="M54.9,33.3c-0.5,0-1-0.1-1.3-0.4c-0.3-0.3-0.5-0.7-0.6-1.2c0-0.5,0.1-0.9,0.3-1.2c0.2-0.3,0.6-0.5,1.1-0.6
			c0.5-0.1,0.8-0.1,1.1-0.2c0.2-0.1,0.4-0.3,0.5-0.5c0.1-0.2,0.2-0.6,0.3-1.1c0.1-0.5,0.2-1.2,0.3-1.9s0.2-1.5,0.2-2.4
			c0.1-0.8,0.1-1.6,0.1-2.3c0-0.5-0.1-0.9-0.2-1.1c-0.2-0.2-0.5-0.3-1.1-0.3h-0.8c-0.2,2.1-0.6,4.2-1.2,6.3c-0.6,2.1-1.4,4-2.5,5.6
			c-0.3,0.4-0.6,0.7-1.1,0.9c-0.5,0.1-0.9,0.1-1.4-0.2c-0.4-0.3-0.7-0.6-0.8-1.1c-0.1-0.4,0-0.8,0.2-1.2c1.2-1.7,2.1-3.7,2.6-5.9
			c0.6-2.2,0.9-4.9,0.9-8V14h-1.9c-0.5,0-0.9-0.2-1.2-0.5c-0.3-0.3-0.4-0.7-0.4-1.1s0.1-0.8,0.4-1.1s0.7-0.5,1.2-0.5h3.6V7.1
			c0-0.6,0.2-1,0.5-1.3c0.3-0.3,0.8-0.5,1.3-0.5c0.5,0,0.9,0.2,1.3,0.5c0.3,0.3,0.5,0.8,0.5,1.3v3.8h3c0.5,0,0.9,0.2,1.2,0.5
			s0.4,0.7,0.4,1.1s-0.1,0.8-0.4,1.1c-0.3,0.3-0.7,0.5-1.2,0.5H55v3h1.4c1,0,1.8,0.2,2.4,0.5c0-0.2,0-0.4,0-0.7
			c0.1-0.2,0.2-0.4,0.3-0.6c0.8-0.8,1.5-1.8,2.2-2.9c0.7-1.1,1.4-2.3,2-3.5c0.6-1.2,1-2.3,1.4-3.2c0.2-0.6,0.5-0.9,0.9-1.1
			c0.4-0.2,0.9-0.2,1.4,0C67.4,5.7,67.8,6,68,6.4c0.2,0.4,0.2,0.9,0,1.4c-0.2,0.6-0.5,1.2-0.8,1.9c-0.3,0.6-0.6,1.3-0.9,1.9h8
			c0.5,0,0.9,0.2,1.2,0.5s0.4,0.7,0.4,1.1s-0.1,0.8-0.4,1.1c-0.3,0.3-0.7,0.5-1.2,0.5h-1c-0.2,2.1-0.6,4-1.2,5.7
			c-0.6,1.7-1.3,3.3-2.1,4.8c0.7,0.9,1.5,1.7,2.4,2.5c0.9,0.8,1.9,1.5,2.9,2.2c0.4,0.3,0.7,0.7,0.8,1.2c0.1,0.5,0,1-0.3,1.4
			c-0.3,0.5-0.8,0.7-1.3,0.8c-0.6,0.1-1.1-0.1-1.5-0.4c-2-1.4-3.7-2.9-5.1-4.6c-1.5,1.8-3.4,3.3-5.6,4.7c-0.5,0.3-1.1,0.4-1.6,0.3
			c-0.5-0.1-0.9-0.4-1.2-0.9c-0.3-0.4-0.3-0.9-0.2-1.4c0.2-0.5,0.5-0.8,0.9-1.1c1.1-0.6,2.2-1.3,3.1-2.1c0.9-0.8,1.8-1.6,2.5-2.5
			c-1.4-2.5-2.3-5.4-2.7-8.6c-0.2,0.3-0.4,0.5-0.6,0.8c-0.2,0.3-0.4,0.5-0.7,0.8c-0.5,0.6-1.1,0.8-1.9,0.6c0.1,0.3,0.2,0.6,0.3,1
			c0.1,0.4,0.1,0.8,0,1.2c0,1.4-0.1,2.8-0.2,4.1c-0.1,1.3-0.3,2.6-0.4,3.7c-0.2,1.7-0.7,2.9-1.5,3.5C57.4,33,56.3,33.3,54.9,33.3z
			 M68,21.8c0.5-1.1,0.9-2.2,1.2-3.4c0.3-1.2,0.5-2.4,0.7-3.7h-3.6c0.1,1.3,0.3,2.6,0.6,3.7C67.1,19.7,67.5,20.8,68,21.8z"/>
		<path class="st0" d="M82.4,13.6c-0.4,0-0.8-0.1-1-0.4c-0.2-0.3-0.4-0.6-0.4-1c0-0.4,0.1-0.7,0.4-1s0.6-0.4,1-0.4H91
			c0.4,0,0.8,0.1,1,0.4s0.4,0.6,0.4,1c0,0.4-0.1,0.7-0.4,1c-0.2,0.3-0.6,0.4-1,0.4H82.4z M100.3,33.6c-0.4,0-0.8-0.1-1.1-0.4
			c-0.3-0.3-0.5-0.7-0.5-1.2v-5.9c-0.8,0.9-1.6,1.8-2.4,2.6c-0.9,0.9-1.7,1.6-2.4,2.1c-0.4,0.3-0.8,0.4-1.3,0.4
			c-0.5,0-0.9-0.2-1.1-0.6c-0.2-0.3-0.3-0.5-0.3-0.8c-0.2,1-0.6,1.7-1.2,2.1c-0.7,0.4-1.7,0.6-3.1,0.6c-1.2,0-2.1-0.1-2.7-0.4
			c-0.6-0.3-1.1-0.7-1.4-1.4s-0.4-1.5-0.4-2.7c0-1.2,0.1-2.1,0.4-2.7s0.7-1.1,1.4-1.3c0.6-0.3,1.6-0.4,2.7-0.4
			c1.2,0,2.1,0.1,2.7,0.4c0.6,0.3,1.1,0.7,1.3,1.3s0.4,1.5,0.4,2.7c0,0.2,0,0.4,0,0.6c0,0.2,0,0.4,0,0.5c0.1-0.2,0.3-0.5,0.5-0.7
			c0.6-0.4,1.3-0.9,2-1.5c0.7-0.6,1.4-1.2,2-1.9s1.2-1.3,1.7-1.9H93c-0.4,0-0.8-0.1-1-0.4c-0.2-0.3-0.4-0.6-0.4-1
			c0-0.4,0.1-0.7,0.4-1c0.2-0.3,0.6-0.4,1-0.4h5.7v-1.8h-0.4c-2,0-3.3-0.3-4.1-1c-0.8-0.7-1.2-1.9-1.2-3.5v-3.2
			c0-1.7,0.4-2.9,1.2-3.5c0.8-0.7,2.2-1,4.1-1h4c1.9,0,3.3,0.3,4.1,1c0.8,0.7,1.2,1.9,1.2,3.5v3.2c0,1.7-0.4,2.9-1.2,3.5
			c-0.8,0.7-2.2,1-4.1,1h-0.5v1.8h6.4c0.4,0,0.8,0.1,1.1,0.4c0.3,0.3,0.4,0.6,0.4,1c0,0.4-0.1,0.7-0.4,1c-0.3,0.3-0.6,0.4-1.1,0.4
			h-5.1c0.5,0.5,1,1.1,1.7,1.8s1.4,1.3,2.1,1.8c0.7,0.6,1.4,1.1,1.9,1.5c0.4,0.2,0.6,0.5,0.6,1c0.1,0.4-0.1,0.8-0.3,1.2
			c-0.3,0.4-0.7,0.6-1.1,0.7c-0.5,0.1-0.9-0.1-1.3-0.3c-0.8-0.6-1.6-1.3-2.5-2.1c-0.9-0.8-1.7-1.7-2.4-2.6V32c0,0.5-0.2,0.9-0.5,1.2
			C101.1,33.4,100.7,33.6,100.3,33.6z M83.8,17.9c-0.4,0-0.8-0.1-1-0.4c-0.3-0.3-0.4-0.6-0.4-1c0-0.4,0.1-0.7,0.4-1
			c0.3-0.3,0.6-0.4,1-0.4h5.8c0.4,0,0.8,0.1,1,0.4s0.4,0.6,0.4,1c0,0.4-0.1,0.7-0.4,1c-0.2,0.3-0.6,0.4-1,0.4H83.8z M83.8,22.2
			c-0.4,0-0.8-0.1-1-0.4c-0.3-0.3-0.4-0.6-0.4-1c0-0.4,0.1-0.7,0.4-1c0.3-0.3,0.6-0.4,1-0.4h5.8c0.4,0,0.8,0.1,1,0.4
			c0.2,0.3,0.4,0.6,0.4,1c0,0.4-0.1,0.7-0.4,1c-0.2,0.3-0.6,0.4-1,0.4H83.8z M83.9,9.3c-0.4,0-0.8-0.1-1.1-0.4
			c-0.3-0.3-0.4-0.6-0.4-1c0-0.4,0.1-0.8,0.4-1c0.3-0.3,0.6-0.4,1.1-0.4h5.7c0.4,0,0.8,0.1,1.1,0.4c0.3,0.3,0.4,0.6,0.4,1
			c0,0.4-0.1,0.7-0.4,1c-0.3,0.3-0.6,0.4-1.1,0.4H83.9z M86.8,29.7c0.5,0,0.9-0.1,1-0.3c0.1-0.2,0.2-0.6,0.2-1.4
			c0-0.7-0.1-1.2-0.2-1.3c-0.1-0.2-0.5-0.3-1-0.3c-0.5,0-0.9,0.1-1,0.3s-0.2,0.6-0.2,1.3c0,0.7,0.1,1.2,0.2,1.4S86.2,29.7,86.8,29.7
			z M96.1,11.2h2.6V9h-0.4c-0.8,0-1.4,0.1-1.7,0.4c-0.3,0.3-0.4,0.7-0.4,1.4V11.2z M98.2,15.9h0.4v-2.1h-2.6v0.2
			c0,0.7,0.1,1.2,0.4,1.4C96.8,15.8,97.4,15.9,98.2,15.9z M101.8,11.2h2.6v-0.3c0-0.7-0.2-1.2-0.5-1.4c-0.3-0.3-0.9-0.4-1.7-0.4
			h-0.5V11.2z M101.8,15.9h0.5c0.8,0,1.4-0.1,1.7-0.4c0.3-0.3,0.5-0.7,0.5-1.4v-0.2h-2.6V15.9z"/>
		<path class="st0" d="M120.4,33.7c-0.5,0-0.9-0.2-1.2-0.5s-0.5-0.7-0.5-1.2V21.4c-0.4,0.4-0.9,0.7-1.3,1c-0.4,0.3-0.9,0.5-1.4,0.4
			c-0.5-0.1-0.9-0.3-1.2-0.7c-0.3-0.4-0.4-0.8-0.4-1.3c0.1-0.5,0.3-0.9,0.7-1.1c0.5-0.4,1.1-0.9,1.8-1.4s1.3-1.2,2-1.8
			c0.7-0.6,1.3-1.3,1.9-1.9s1.1-1.2,1.4-1.7c0.3-0.4,0.7-0.6,1.1-0.6c0.4,0,0.9,0.1,1.2,0.4c0.4,0.3,0.6,0.7,0.7,1.1
			c0.1,0.5-0.1,0.9-0.4,1.3c-0.4,0.5-0.8,1-1.3,1.5c-0.5,0.5-1,1.1-1.5,1.6V32c0,0.5-0.2,0.9-0.5,1.2S120.9,33.7,120.4,33.7z
			 M118.2,13.5c-0.4,0.3-0.9,0.5-1.4,0.5c-0.5,0-0.9-0.2-1.3-0.7c-0.3-0.4-0.4-0.8-0.3-1.3c0.1-0.5,0.3-0.8,0.7-1.1
			c0.5-0.4,1.2-0.8,1.9-1.4c0.7-0.5,1.4-1.1,2-1.7s1.2-1.1,1.6-1.5c0.3-0.3,0.8-0.5,1.3-0.5c0.5,0,0.9,0.2,1.2,0.4
			c0.4,0.4,0.5,0.8,0.5,1.2c0,0.5-0.2,0.9-0.5,1.2c-0.5,0.5-1.1,1-1.8,1.6s-1.4,1.2-2.1,1.7C119.4,12.7,118.7,13.1,118.2,13.5z
			 M125.9,33.4c-0.6,0.1-1.1,0.1-1.5-0.1c-0.4-0.2-0.7-0.5-0.9-0.9c-0.1-0.5-0.1-0.9,0.1-1.3c0.2-0.4,0.6-0.7,1.1-0.8
			c2.1-0.5,4.1-1.3,5.9-2.3c-0.4-0.4-0.8-0.8-1.1-1.3c-0.4-0.5-0.7-0.9-1-1.4c-0.8,0.9-1.6,1.7-2.4,2.4c-0.4,0.4-0.9,0.6-1.4,0.6
			c-0.5,0-0.9-0.2-1.2-0.5c-0.3-0.3-0.4-0.7-0.4-1.2c0-0.4,0.2-0.8,0.6-1.1c0.9-0.7,1.8-1.6,2.7-2.6c1-1.1,1.8-2.1,2.6-3
			c-0.7,0.1-1.4,0.1-2,0.2s-1.2,0.1-1.6,0.1c-0.5,0-0.9-0.1-1.3-0.3s-0.5-0.6-0.6-1.1c0-0.4,0.1-0.8,0.4-1.1
			c0.3-0.3,0.7-0.5,1.1-0.5c0.4,0,0.9,0,1.4-0.1c0.5,0,1.1-0.1,1.7-0.1c0.2-0.2,0.5-0.5,0.8-0.8c0.3-0.3,0.6-0.6,0.9-1
			c-0.4-0.4-0.9-0.8-1.5-1.2c-0.5-0.4-1.1-0.9-1.6-1.3c-0.5-0.4-1-0.7-1.3-0.9c-0.3-0.2-0.6-0.6-0.7-1c-0.1-0.4,0-0.8,0.3-1.2
			c0.3-0.4,0.6-0.6,1.1-0.7c0.4-0.1,0.8,0,1.2,0.2c0.1,0.1,0.2,0.2,0.4,0.3s0.3,0.2,0.4,0.3c0.4-0.5,0.8-1.1,1.2-1.7
			c0.5-0.7,0.8-1.2,1.1-1.6c0.3-0.4,0.6-0.6,1.1-0.7c0.5-0.1,0.9,0,1.3,0.3c0.4,0.2,0.7,0.6,0.7,1.1c0.1,0.5,0,0.9-0.3,1.2
			c-0.4,0.5-0.8,1.1-1.3,1.7c-0.5,0.6-1,1.2-1.4,1.7c0.3,0.2,0.5,0.4,0.8,0.6c0.2,0.2,0.5,0.4,0.7,0.5c0.8-0.9,1.5-1.8,2.3-2.7
			c0.7-0.9,1.3-1.7,1.8-2.3c0.3-0.4,0.7-0.6,1.1-0.7c0.5-0.1,0.9,0.1,1.3,0.3c0.4,0.3,0.6,0.6,0.6,1.1c0.1,0.4-0.1,0.9-0.3,1.2
			c-0.4,0.6-1,1.3-1.7,2.1s-1.4,1.6-2.2,2.5c-0.8,0.9-1.5,1.7-2.3,2.5c0.8,0,1.5-0.1,2.3-0.2c0.7-0.1,1.4-0.1,2-0.2
			c-0.1-0.1-0.2-0.2-0.2-0.3c-0.1-0.1-0.1-0.2-0.2-0.2c-0.3-0.3-0.4-0.7-0.3-1.1c0-0.4,0.2-0.8,0.5-1c0.3-0.3,0.7-0.4,1.2-0.4
			c0.4,0,0.8,0.2,1.1,0.5c0.3,0.3,0.7,0.8,1.2,1.3c0.5,0.5,0.9,1.1,1.4,1.7c0.4,0.6,0.8,1,1,1.4c0.3,0.4,0.4,0.8,0.3,1.3
			c-0.1,0.5-0.3,0.8-0.7,1.1c-0.4,0.3-0.8,0.4-1.3,0.3c-0.5-0.1-0.8-0.3-1.1-0.7c-0.1-0.1-0.2-0.3-0.4-0.5c-0.1-0.2-0.3-0.4-0.5-0.6
			c-0.8,0.1-1.6,0.2-2.7,0.3c-1,0.1-2.1,0.2-3.3,0.3c-0.1,0.3-0.3,0.5-0.5,0.8c-0.2,0.3-0.4,0.6-0.5,0.8h3c1.3,0,2.3,0.3,2.9,0.9
			c0.6,0.6,0.9,1.3,0.8,2.1c-0.1,0.9-0.5,1.7-1.3,2.6c-0.4,0.5-0.9,1-1.4,1.4c1.7,1,3.7,1.7,5.8,2.1c0.5,0.1,0.9,0.4,1.2,0.7
			c0.3,0.4,0.3,0.8,0.2,1.3c-0.1,0.5-0.4,0.9-0.9,1c-0.4,0.2-1,0.2-1.6,0.1c-1.3-0.3-2.6-0.7-3.8-1.2c-1.3-0.5-2.4-1.2-3.6-1.9
			C131.2,31.6,128.7,32.6,125.9,33.4z M133.4,26.1c0.5-0.4,0.9-0.8,1.3-1.2c0.3-0.4,0.5-0.7,0.4-0.9c-0.1-0.2-0.4-0.3-0.9-0.3h-3
			c0.3,0.4,0.7,0.9,1.1,1.3C132.5,25.4,133,25.8,133.4,26.1z"/>
		<path class="st0" d="M153.9,31.8c-0.4,0.2-0.9,0.3-1.4,0.1c-0.5-0.1-0.9-0.4-1.1-0.9c-0.3-0.4-0.3-0.9-0.2-1.4
			c0.1-0.5,0.4-0.9,0.9-1.1c2.1-1.1,3.8-2.5,5.1-4.2c1.3-1.7,2.1-3.5,2.5-5.5h-8.8c-0.5,0-0.9-0.2-1.3-0.5c-0.3-0.4-0.5-0.8-0.5-1.3
			c0-0.5,0.2-0.9,0.5-1.3c0.3-0.4,0.8-0.5,1.3-0.5h20.2c0.5,0,0.9,0.2,1.3,0.5c0.3,0.4,0.5,0.8,0.5,1.3c0,0.5-0.2,0.9-0.5,1.3
			c-0.3,0.4-0.8,0.5-1.3,0.5h-7.7c-0.2,1.7-0.7,3.4-1.5,5.1c-0.8,1.7-1.9,3.2-3.2,4.5C157.2,29.8,155.6,30.9,153.9,31.8z
			 M154.3,12.2c-0.5,0-0.9-0.2-1.3-0.5c-0.4-0.4-0.5-0.8-0.5-1.3c0-0.5,0.2-0.9,0.5-1.3c0.4-0.4,0.8-0.5,1.3-0.5h13
			c0.5,0,1,0.2,1.3,0.5c0.3,0.4,0.5,0.8,0.5,1.3c0,0.5-0.2,0.9-0.5,1.3c-0.3,0.4-0.8,0.5-1.3,0.5H154.3z M173.8,14.7
			c-0.3,0.2-0.6,0.3-1,0.3c-0.4,0-0.7-0.2-0.9-0.5c-0.2-0.3-0.5-0.7-0.8-1.1c-0.3-0.4-0.7-0.8-0.9-1.2c-0.2-0.2-0.3-0.5-0.2-0.8
			c0-0.3,0.2-0.6,0.4-0.8c0.2-0.2,0.5-0.3,0.8-0.3c0.3,0,0.6,0.1,0.8,0.4c0.3,0.3,0.6,0.6,1,1c0.4,0.4,0.7,0.8,1,1.2
			c0.2,0.3,0.3,0.6,0.3,1C174.2,14.2,174.1,14.4,173.8,14.7z M176.7,12.1c-0.3,0.2-0.6,0.4-1,0.3c-0.4,0-0.7-0.2-0.9-0.4
			c-0.2-0.3-0.5-0.6-0.9-1c-0.4-0.4-0.7-0.8-1-1.1c-0.2-0.2-0.3-0.5-0.3-0.8c0-0.3,0.1-0.6,0.4-0.9c0.2-0.2,0.5-0.3,0.8-0.4
			c0.3,0,0.6,0.1,0.9,0.3c0.3,0.2,0.7,0.5,1.1,0.9s0.8,0.8,1.1,1.1c0.2,0.3,0.3,0.6,0.3,1C177.1,11.6,177,11.9,176.7,12.1z"/>
		<path class="st0" d="M191.4,32.4c-0.5,0-0.9-0.2-1.3-0.6c-0.4-0.4-0.5-0.8-0.5-1.3V18.3c-1.3,1.1-2.6,2.2-4,3.3
			c-1.4,1.1-2.8,2-4.1,2.9c-0.4,0.3-0.9,0.3-1.4,0.2c-0.5-0.1-0.9-0.4-1.2-0.9c-0.3-0.4-0.3-0.9-0.2-1.4c0.1-0.5,0.4-0.9,0.9-1.2
			c1.3-0.8,2.6-1.7,4-2.8s2.8-2.2,4.1-3.4c1.3-1.2,2.6-2.4,3.7-3.6c1.1-1.2,2.1-2.3,2.8-3.4c0.3-0.4,0.7-0.7,1.2-0.8s1,0,1.4,0.3
			c0.4,0.3,0.7,0.7,0.8,1.2s0,1-0.3,1.4c-1.1,1.4-2.3,2.9-3.8,4.5v15.8c0,0.5-0.2,0.9-0.5,1.3C192.3,32.2,191.9,32.4,191.4,32.4z"/>
		<path class="st0" d="M214.9,32.3c-0.5,0.2-0.9,0.2-1.4,0c-0.5-0.2-0.8-0.5-1.1-1c-0.2-0.5-0.2-0.9,0-1.4c0.2-0.5,0.5-0.8,1-1.1
			c2.3-1.1,4-2.5,5.1-4.4c1.1-1.8,1.7-4.2,1.7-7.1h-4.6c0,0.8,0,1.6,0,2.3c0,0.7,0,1.4-0.1,2c0,0.5-0.2,1-0.6,1.3s-0.8,0.5-1.4,0.5
			c-0.5,0-0.9-0.3-1.2-0.7s-0.5-0.8-0.5-1.4c0-0.5,0.1-1.2,0.1-1.9s0-1.4,0-2.2h-6.2c-0.5,0-0.9-0.2-1.3-0.5
			c-0.4-0.3-0.5-0.8-0.5-1.3c0-0.5,0.2-0.9,0.5-1.3c0.4-0.4,0.8-0.5,1.3-0.5h6.1c0-0.7-0.1-1.4-0.1-2c-0.1-0.6-0.1-1.2-0.2-1.7
			c-0.1-0.5,0-1,0.3-1.4c0.3-0.4,0.7-0.7,1.2-0.7c0.5-0.1,1,0,1.4,0.3c0.4,0.3,0.7,0.7,0.7,1.2c0.1,0.6,0.2,1.2,0.2,2
			c0.1,0.7,0.1,1.5,0.2,2.4h4.7c0-0.9,0-1.7-0.1-2.5c0-0.8-0.1-1.5-0.1-2.1c0-0.5,0.1-1,0.4-1.4c0.3-0.4,0.8-0.6,1.3-0.7
			c0.5,0,1,0.1,1.4,0.4c0.4,0.3,0.6,0.8,0.6,1.3c0.1,0.6,0.1,1.4,0.1,2.3c0,0.9,0.1,1.8,0.1,2.7h5.8c0.5,0,0.9,0.2,1.3,0.5
			c0.4,0.4,0.5,0.8,0.5,1.3c0,0.5-0.2,0.9-0.5,1.3c-0.4,0.3-0.8,0.5-1.3,0.5h-5.8c-0.1,3.6-0.8,6.7-2.3,9.1
			C219.9,29.1,217.7,31,214.9,32.3z"/>
		<path class="st0" d="M239.1,21.5c-0.5,0-0.9-0.2-1.3-0.6c-0.4-0.4-0.6-0.8-0.6-1.3c0-0.5,0.2-1,0.6-1.3c0.4-0.4,0.8-0.5,1.3-0.5
			h19c0.5,0,1,0.2,1.3,0.5c0.4,0.4,0.5,0.8,0.5,1.3c0,0.5-0.2,0.9-0.5,1.3c-0.4,0.4-0.8,0.6-1.3,0.6H239.1z"/>
		<path class="st0" d="M286.1,30.1c-3.8,0.6-6.8,0.9-9.2,0.8s-4.1-0.7-5.3-1.6c-0.9-0.7-1.5-1.6-1.8-2.7c-0.3-1.1-0.5-2.4-0.5-4
			V10.1c0-0.5,0.2-1,0.5-1.3c0.4-0.4,0.8-0.5,1.3-0.5c0.5,0,1,0.2,1.3,0.5s0.5,0.8,0.5,1.3v6.7c1.7-0.4,3.4-0.9,5.2-1.4
			c1.8-0.5,3.4-1.1,4.8-1.6c0.5-0.2,1-0.2,1.5,0c0.5,0.2,0.8,0.6,1,1.1c0.2,0.5,0.2,1,0,1.4c-0.2,0.5-0.5,0.8-1,1
			c-1.7,0.6-3.6,1.2-5.6,1.8c-2,0.5-3.9,1-5.7,1.4v2c0,1.2,0.1,2.1,0.3,2.6s0.5,0.9,0.9,1.2c0.5,0.3,1.1,0.6,2,0.7
			c0.9,0.2,2,0.2,3.5,0.1c1.5-0.1,3.4-0.3,5.7-0.7c0.5-0.1,1,0,1.4,0.3c0.4,0.3,0.6,0.7,0.7,1.3c0.1,0.5,0,1-0.3,1.4
			C287,29.7,286.6,30,286.1,30.1z M289.4,14.9c-0.2,0.3-0.6,0.4-0.9,0.4c-0.4,0-0.7-0.1-1-0.4c-0.2-0.3-0.6-0.6-0.9-1
			s-0.7-0.8-1-1.1c-0.2-0.2-0.3-0.4-0.3-0.8c0-0.3,0.1-0.6,0.3-0.9c0.2-0.2,0.5-0.3,0.8-0.4c0.3,0,0.6,0.1,0.9,0.3
			c0.3,0.2,0.7,0.5,1.1,0.9c0.4,0.4,0.8,0.8,1.1,1.1c0.2,0.3,0.4,0.6,0.4,0.9C289.8,14.3,289.7,14.6,289.4,14.9z M290.2,12.1
			c-0.3-0.3-0.6-0.6-1-1s-0.8-0.7-1.1-1c-0.2-0.2-0.3-0.4-0.4-0.8c0-0.3,0.1-0.6,0.3-0.9c0.2-0.2,0.5-0.4,0.8-0.4
			c0.3,0,0.6,0,0.9,0.2c0.3,0.2,0.7,0.5,1.2,0.9c0.5,0.4,0.8,0.7,1.2,1c0.3,0.3,0.4,0.6,0.4,0.9c0,0.4-0.1,0.7-0.4,1
			c-0.2,0.3-0.5,0.4-0.9,0.4C290.8,12.5,290.5,12.4,290.2,12.1z"/>
		<path class="st0" d="M299.4,30.4c-0.4,0.2-0.9,0.2-1.4,0.1c-0.5-0.2-0.9-0.5-1.1-1c-0.2-0.5-0.2-0.9-0.1-1.4s0.5-0.8,0.9-1.1
			c2.9-1.4,5.5-3.1,7.7-5.1c2.3-2,4.1-4.1,5.5-6.4c0.9-1.5,0.4-2.2-1.5-2.2h-8.3c-0.5,0-0.9-0.2-1.3-0.6c-0.4-0.4-0.5-0.8-0.5-1.3
			c0-0.5,0.2-1,0.5-1.3c0.4-0.4,0.8-0.5,1.3-0.5h8.4c1.8,0,3.2,0.3,4.2,1c1,0.7,1.5,1.6,1.6,2.7c0.1,1.1-0.3,2.4-1.1,3.9
			c-0.4,0.8-1,1.6-1.6,2.4c0.9,0.8,1.9,1.6,2.9,2.5c1,0.9,1.9,1.8,2.8,2.7c0.9,0.9,1.6,1.6,2.2,2.2c0.3,0.4,0.5,0.8,0.5,1.3
			c0,0.5-0.2,1-0.6,1.3c-0.4,0.4-0.8,0.5-1.3,0.5c-0.5,0-1-0.2-1.3-0.6c-0.5-0.6-1.2-1.3-2.1-2.1c-0.8-0.9-1.7-1.8-2.6-2.7
			c-0.9-0.9-1.8-1.8-2.7-2.5c-1.5,1.6-3.3,3.1-5.2,4.5C303.4,28.3,301.4,29.5,299.4,30.4z"/>
		<path class="st0" d="M345.8,31.9c-3.3,0.4-6.1,0.5-8.5,0.1c-2.4-0.4-4.3-1.1-5.6-2.3c-1.3-1.2-2-2.8-2-4.9c0-1.8,0.5-3.3,1.4-4.6
			c0.9-1.3,2.2-2.4,3.8-3.3c-0.1-0.8-0.3-1.7-0.6-2.7c-0.3-1-0.5-2-0.8-3c-0.3-1-0.5-1.9-0.8-2.5c-0.1-0.5-0.1-0.9,0.2-1.4
			c0.3-0.4,0.6-0.7,1.1-0.9c0.5-0.1,1-0.1,1.4,0.2c0.4,0.3,0.7,0.6,0.9,1.1c0.3,1.2,0.7,2.5,1,3.8s0.6,2.7,0.8,3.9
			c1-0.4,2-0.7,3.1-1.1c1.1-0.3,2.2-0.6,3.4-0.9c0.5-0.1,0.9,0,1.4,0.2c0.4,0.3,0.7,0.6,0.8,1.1c0.1,0.5,0,1-0.2,1.4
			c-0.3,0.4-0.6,0.7-1.1,0.8c-2.5,0.5-4.6,1.1-6.2,1.7s-2.8,1.2-3.6,1.9c-0.8,0.7-1.4,1.3-1.7,2c-0.3,0.7-0.5,1.4-0.5,2.2
			c0,1.6,1,2.7,2.9,3.4c1.9,0.7,5,0.7,9.1,0.1c0.5-0.1,1,0,1.4,0.3c0.4,0.3,0.6,0.7,0.7,1.2c0.1,0.5-0.1,1-0.4,1.4
			C346.7,31.6,346.3,31.8,345.8,31.9z"/>
		<path class="st0" d="M358.4,32.2c-0.5,0.1-1,0-1.4-0.3c-0.4-0.3-0.7-0.7-0.8-1.2c-0.1-0.7-0.2-1.6-0.3-2.7s-0.1-2.5-0.1-3.9
			s0-2.9,0-4.5c0-1.6,0.1-3.1,0.2-4.5c0.1-1.5,0.2-2.8,0.3-4c0.1-1.2,0.3-2.2,0.5-2.9c0.1-0.5,0.4-0.9,0.8-1.1s0.9-0.3,1.4-0.2
			c0.5,0.1,0.9,0.4,1.1,0.8c0.3,0.4,0.3,0.9,0.2,1.4c-0.2,0.8-0.3,1.7-0.5,2.8c-0.1,1.1-0.2,2.4-0.3,3.7c-0.1,1.3-0.1,2.7-0.2,4.2
			s0,2.8,0,4.1c0,1.3,0.1,2.5,0.1,3.6c0.1,1.1,0.2,2,0.3,2.7c0.1,0.5,0,0.9-0.3,1.3C359.3,31.9,358.9,32.1,358.4,32.2z M368.5,32.2
			c-1.6,0-2.9-0.4-3.9-1.2c-1-0.8-1.5-2-1.5-3.5c0-1.4,0.5-2.6,1.5-3.4c1-0.8,2.3-1.3,4.1-1.3c0.5,0,1.1,0,1.6,0.1c0-1,0-2-0.1-3.1
			s-0.1-2.3-0.1-3.5c-1.1,0.1-2.1,0.1-3.1,0.1s-1.9,0-2.6,0c-0.5,0-0.9-0.2-1.3-0.6s-0.5-0.8-0.5-1.3c0-0.5,0.2-0.9,0.6-1.2
			c0.4-0.3,0.8-0.5,1.3-0.5c0.7,0,1.5,0,2.5,0c1,0,2,0,3-0.1c0-0.8,0-1.5,0-2.2s0-1.4,0-2c0-0.5,0.2-0.9,0.5-1.3
			c0.3-0.4,0.8-0.5,1.3-0.5c0.5,0,1,0.2,1.3,0.5c0.3,0.4,0.5,0.8,0.5,1.3c0,0.6,0,1.3,0,1.9c0,0.7,0,1.3,0,2
			c0.9-0.1,1.7-0.2,2.5-0.2c0.7-0.1,1.4-0.2,1.9-0.2c0.5-0.1,0.9,0,1.3,0.3c0.4,0.3,0.6,0.7,0.7,1.2c0.1,0.5,0,0.9-0.3,1.3
			c-0.3,0.4-0.7,0.6-1.2,0.7c-0.6,0.1-1.3,0.2-2.1,0.3c-0.8,0.1-1.8,0.2-2.7,0.3c0,1.4,0.1,2.8,0.1,4.1c0,1.3,0.1,2.5,0.1,3.5
			c1.1,0.4,2.2,0.8,3.2,1.3c1,0.5,1.8,1,2.6,1.6c0.4,0.3,0.6,0.7,0.7,1.2c0.1,0.5,0,0.9-0.3,1.4c-0.3,0.4-0.7,0.7-1.2,0.8
			s-0.9,0-1.4-0.3c-0.5-0.4-1.1-0.8-1.7-1.1c-0.6-0.4-1.2-0.7-1.9-1C373.8,30.7,372,32.2,368.5,32.2z M368.5,28.8
			c1.3,0,1.9-0.6,1.9-1.8c0-0.1,0-0.1,0-0.2s0-0.2,0-0.3c-0.6-0.1-1.2-0.2-1.9-0.2c-0.6,0-1.1,0.1-1.4,0.4c-0.3,0.2-0.4,0.6-0.4,0.9
			c0,0.4,0.1,0.7,0.4,0.9S367.9,28.8,368.5,28.8z"/>
		<path class="st0" d="M396.9,25.9c-0.4,0-0.8-0.1-1.1-0.4c-0.3-0.3-0.5-0.6-0.5-1l-0.2-3c0-1,0.1-1.8,0.5-2.5
			c0.3-0.6,1.1-1.2,2.3-1.6c1-0.3,1.7-0.8,2.1-1.4c0.5-0.6,0.7-1.4,0.7-2.3c0-1.2-0.3-2.2-1-2.9c-0.7-0.7-1.6-1.1-2.8-1.1
			c-1,0-1.9,0.3-2.6,0.9c-0.7,0.6-1.2,1.3-1.4,2.3c-0.1,0.5-0.5,1-1,1.2c-0.5,0.3-1,0.3-1.6,0.2c-0.5-0.2-1-0.5-1.2-1
			c-0.3-0.5-0.3-1-0.2-1.6c0.3-1.1,0.8-2.1,1.5-2.9c0.7-0.9,1.7-1.5,2.8-2.1c1.1-0.5,2.3-0.8,3.7-0.8c1.6,0,3,0.3,4.2,0.9
			c1.2,0.6,2.2,1.5,2.9,2.6c0.7,1.1,1.1,2.5,1.1,4.1c0,1.6-0.5,3-1.4,4.1c-1,1.1-2.2,1.9-3.7,2.4c-0.5,0.2-0.8,0.4-1,0.6
			c-0.2,0.2-0.3,0.6-0.3,1.1l-0.1,2.6c0,0.4-0.2,0.8-0.5,1C397.7,25.8,397.3,25.9,396.9,25.9z M396.9,32.9c-0.7,0-1.3-0.3-1.8-0.8
			c-0.5-0.5-0.8-1.1-0.8-1.8s0.3-1.3,0.8-1.8c0.5-0.5,1.1-0.8,1.8-0.8c0.7,0,1.3,0.3,1.8,0.8s0.8,1.1,0.8,1.8s-0.3,1.3-0.8,1.8
			C398.3,32.6,397.6,32.9,396.9,32.9z"/>
	</g>
</g>
<g>
	<g>
		<path class="st0" d="M21.4,10.4c0-2.1-1.7-3.8-3.8-3.8c-1.3,0-2.4,0.6-3.1,1.6c-0.7-0.9-1.8-1.6-3.1-1.6c-2.1,0-3.8,1.7-3.8,3.8
			c0,1.1,0.5,2.1,1.2,2.8l4.3,4.4l0,0c0.3,0.3,0.8,0.5,1.3,0.5c0.6,0,1-0.2,1.3-0.5l0,0l4.3-4.4C20.9,12.5,21.4,11.5,21.4,10.4z"/>
		<path class="st0" d="M7.7,29.1c0,2.1,1.7,3.8,3.8,3.8c1.3,0,2.4-0.6,3.1-1.6c0.7,0.9,1.8,1.6,3.1,1.6c2.1,0,3.8-1.7,3.8-3.8
			c0-1.1-0.5-2.1-1.2-2.8l-4.3-4.4l0,0c-0.3-0.3-0.8-0.5-1.3-0.5s-1,0.2-1.3,0.5l0,0l-4.3,4.4C8.2,27,7.7,28,7.7,29.1z"/>
		<path class="st0" d="M24.7,26.6c2.1,0,3.8-1.7,3.8-3.8c0-1.3-0.6-2.4-1.6-3.1c0.9-0.7,1.6-1.8,1.6-3.1c0-2.1-1.7-3.8-3.8-3.8
			c-1.1,0-2.1,0.5-2.8,1.2l-4.4,4.3l0,0c-0.3,0.3-0.5,0.8-0.5,1.3s0.2,1,0.5,1.3l0,0l4.4,4.3C22.6,26.2,23.6,26.6,24.7,26.6z"/>
		<path class="st0" d="M4.5,13c-2.1,0-3.8,1.7-3.8,3.8c0,1.3,0.6,2.4,1.6,3.1c-0.9,0.7-1.6,1.8-1.6,3.1c0,2.1,1.7,3.8,3.8,3.8
			c1.1,0,2.1-0.5,2.8-1.2l4.4-4.3l0,0c0.3-0.3,0.5-0.8,0.5-1.3s-0.2-1-0.5-1.3l0,0l-4.4-4.3C6.6,13.4,5.6,13,4.5,13z"/>
	</g>
</g>
<g>
	<g>
		<path class="st0" d="M442.2,10.4c0-2.1-1.7-3.8-3.8-3.8c-1.3,0-2.4,0.6-3.1,1.6c-0.7-0.9-1.8-1.6-3.1-1.6c-2.1,0-3.8,1.7-3.8,3.8
			c0,1.1,0.5,2.1,1.2,2.8l4.3,4.4l0,0c0.3,0.3,0.8,0.5,1.3,0.5c0.6,0,1-0.2,1.3-0.5l0,0l4.3-4.4C441.7,12.5,442.2,11.5,442.2,10.4z"
			/>
		<path class="st0" d="M428.4,29.1c0,2.1,1.7,3.8,3.8,3.8c1.3,0,2.4-0.6,3.1-1.6c0.7,0.9,1.8,1.6,3.1,1.6c2.1,0,3.8-1.7,3.8-3.8
			c0-1.1-0.5-2.1-1.2-2.8l-4.3-4.4l0,0c-0.3-0.3-0.8-0.5-1.3-0.5c-0.6,0-1,0.2-1.3,0.5l0,0l-4.3,4.4C428.9,27,428.4,28,428.4,29.1z"
			/>
		<path class="st0" d="M445.5,26.6c2.1,0,3.8-1.7,3.8-3.8c0-1.3-0.6-2.4-1.6-3.1c0.9-0.7,1.6-1.8,1.6-3.1c0-2.1-1.7-3.8-3.8-3.8
			c-1.1,0-2.1,0.5-2.8,1.2l-4.4,4.3l0,0c-0.3,0.3-0.5,0.8-0.5,1.3s0.2,1,0.5,1.3l0,0l4.4,4.3C443.4,26.2,444.4,26.6,445.5,26.6z"/>
		<path class="st0" d="M425.3,13c-2.1,0-3.8,1.7-3.8,3.8c0,1.3,0.6,2.4,1.6,3.1c-0.9,0.7-1.6,1.8-1.6,3.1c0,2.1,1.7,3.8,3.8,3.8
			c1.1,0,2.1-0.5,2.8-1.2l4.4-4.3l0,0c0.3-0.3,0.5-0.8,0.5-1.3c0-0.6-0.2-1-0.5-1.3l0,0l-4.4-4.3C427.4,13.4,426.4,13,425.3,13z"/>
	</g>
</g>
<line class="st1" x1="2.6" y1="44.7" x2="447.4" y2="44.7"/>
</svg>
