<?xml version="1.0" encoding="utf-8"?>
<!-- Generator: Adobe Illustrator 26.5.0, SVG Export Plug-In . SVG Version: 6.00 Build 0)  -->
<svg version="1.1" id="レイヤー_1" xmlns="http://www.w3.org/2000/svg" xmlns:xlink="http://www.w3.org/1999/xlink" x="0px"
	 y="0px" width="530px" height="130px" viewBox="0 0 530 130" style="enable-background:new 0 0 530 130;" xml:space="preserve">
<style type="text/css">
	.st0{fill:#64D35C;}
	.st1{fill:none;stroke:#64D35C;stroke-width:2;stroke-linecap:round;stroke-linejoin:round;stroke-miterlimit:10;}
</style>
<g>
	<g>
		<g>
			<path class="st0" d="M39.9,67.3c0-3.7-3-6.7-6.7-6.6c-2.2,0-4.2,1.1-5.4,2.7c-1.2-1.7-3.2-2.7-5.4-2.7c-3.7,0-6.7,3-6.6,6.7
				c0,1.9,0.8,3.7,2.2,4.9l7.6,7.6l0,0c0.5,0.6,1.4,0.9,2.3,0.9c1,0,1.8-0.4,2.3-1l0,0l7.5-7.7C39.1,71,39.9,69.2,39.9,67.3z"/>
			<path class="st0" d="M15.9,100.1c0,3.7,3,6.7,6.7,6.6c2.2,0,4.2-1.1,5.4-2.7c1.2,1.7,3.2,2.7,5.4,2.7c3.7,0,6.7-3,6.6-6.7
				c0-1.9-0.8-3.7-2.2-4.9l-7.6-7.6l0,0c-0.5-0.6-1.4-0.9-2.3-0.9c-1,0-1.8,0.4-2.3,1l0,0L18,95.2C16.7,96.4,15.9,98.1,15.9,100.1z"
				/>
			<path class="st0" d="M45.7,95.8c3.7,0,6.7-3,6.6-6.7c0-2.2-1.1-4.2-2.7-5.4c1.7-1.2,2.7-3.2,2.7-5.4c0-3.7-3-6.7-6.7-6.6
				c-1.9,0-3.7,0.8-4.9,2.2l-7.6,7.6l0,0c-0.6,0.5-0.9,1.4-0.9,2.3c0,1,0.4,1.8,1,2.3l0,0l7.7,7.5C42,94.9,43.8,95.8,45.7,95.8z"/>
			<path class="st0" d="M10.3,71.8c-3.7,0-6.7,3-6.6,6.7c0,2.2,1.1,4.2,2.7,5.4c-1.7,1.2-2.7,3.2-2.7,5.4c0,3.7,3,6.7,6.7,6.6
				c1.9,0,3.7-0.8,4.9-2.2l7.6-7.6l0,0c0.6-0.5,0.9-1.4,0.9-2.3c0-1-0.4-1.8-1-2.3l0,0L15.2,74C14,72.7,12.2,71.8,10.3,71.8z"/>
		</g>
	</g>
	<g>
		<g>
			<path class="st0" d="M514.4,67.3c0-3.7-3-6.7-6.7-6.6c-2.2,0-4.2,1.1-5.4,2.7c-1.2-1.7-3.2-2.7-5.4-2.7c-3.7,0-6.7,3-6.6,6.7
				c0,1.9,0.8,3.7,2.2,4.9l7.6,7.6l0,0c0.5,0.6,1.4,0.9,2.3,0.9s1.8-0.4,2.3-1l0,0l7.5-7.7C513.6,71,514.4,69.2,514.4,67.3z"/>
			<path class="st0" d="M490.5,100.1c0,3.7,3,6.7,6.7,6.6c2.2,0,4.2-1.1,5.4-2.7c1.2,1.7,3.2,2.7,5.4,2.7c3.7,0,6.7-3,6.6-6.7
				c0-1.9-0.8-3.7-2.2-4.9l-7.6-7.6l0,0c-0.5-0.6-1.4-0.9-2.3-0.9s-1.8,0.4-2.3,1l0,0l-7.5,7.7C491.3,96.4,490.5,98.1,490.5,100.1z"
				/>
			<path class="st0" d="M520.3,95.8c3.7,0,6.7-3,6.6-6.7c0-2.2-1.1-4.2-2.7-5.4c1.7-1.2,2.7-3.2,2.7-5.4c0-3.7-3-6.7-6.7-6.6
				c-1.9,0-3.7,0.8-4.9,2.2l-7.6,7.6l0,0c-0.6,0.5-0.9,1.4-0.9,2.3c0,1,0.4,1.8,1,2.3l0,0l7.7,7.5C516.6,94.9,518.3,95.8,520.3,95.8
				z"/>
			<path class="st0" d="M484.9,71.8c-3.7,0-6.7,3-6.6,6.7c0,2.2,1.1,4.2,2.7,5.4c-1.7,1.2-2.7,3.2-2.7,5.4c0,3.7,3,6.7,6.7,6.6
				c1.9,0,3.7-0.8,4.9-2.2l7.6-7.6l0,0c0.6-0.5,0.9-1.4,0.9-2.3c0-1-0.4-1.8-1-2.3l0,0l-7.7-7.5C488.6,72.7,486.8,71.8,484.9,71.8z"
				/>
		</g>
	</g>
</g>
<line class="st1" x1="1.3" y1="124.5" x2="528.7" y2="124.5"/>
<g>
	<path class="st0" d="M204.5,48.8c-0.8,0-1.5-0.2-2.1-0.6c-0.5-0.4-0.8-1-0.9-1.8c0-0.7,0.1-1.3,0.5-1.9c0.4-0.5,0.9-0.8,1.7-0.9
		c0.7-0.1,1.3-0.2,1.6-0.4c0.4-0.1,0.6-0.4,0.8-0.8c0.2-0.4,0.4-0.9,0.5-1.6c0.2-0.8,0.3-1.8,0.4-3s0.3-2.4,0.4-3.6s0.2-2.4,0.2-3.5
		c0-0.8-0.1-1.4-0.4-1.7s-0.8-0.4-1.6-0.4h-1.3c-0.3,3.3-0.9,6.5-1.9,9.8c-0.9,3.3-2.2,6.2-3.9,8.7c-0.4,0.7-1,1.1-1.7,1.4
		c-0.7,0.2-1.5,0.1-2.2-0.3c-0.7-0.4-1.1-0.9-1.2-1.6c-0.1-0.7,0-1.3,0.4-1.9c1.8-2.7,3.2-5.7,4-9.1c0.9-3.4,1.3-7.5,1.3-12.3V19h-3
		c-0.8,0-1.4-0.2-1.8-0.7c-0.5-0.5-0.7-1-0.7-1.7c0-0.7,0.2-1.3,0.7-1.7c0.5-0.5,1.1-0.7,1.8-0.7h5.5V8.3c0-0.9,0.3-1.6,0.8-2
		c0.5-0.5,1.2-0.7,2-0.7c0.8,0,1.4,0.2,2,0.7c0.5,0.5,0.8,1.2,0.8,2v5.8h4.7c0.8,0,1.3,0.2,1.8,0.7c0.4,0.5,0.7,1.1,0.7,1.7
		c0,0.7-0.2,1.3-0.7,1.7c-0.4,0.5-1,0.7-1.8,0.7h-7.3v4.7h2.2c1.5,0,2.7,0.2,3.7,0.7c0-0.3,0-0.7,0.1-1c0.1-0.3,0.2-0.6,0.5-0.9
		c1.2-1.3,2.3-2.7,3.4-4.5c1.1-1.7,2.1-3.5,3.1-5.4c0.9-1.8,1.6-3.5,2.1-5c0.3-0.9,0.8-1.4,1.4-1.7c0.7-0.3,1.4-0.3,2.2,0
		c0.6,0.2,1.1,0.6,1.5,1.2c0.3,0.6,0.4,1.3,0,2.2c-0.4,0.9-0.8,1.9-1.2,2.9c-0.4,1-0.9,2-1.4,3h12.4c0.8,0,1.3,0.2,1.8,0.7
		c0.4,0.5,0.7,1,0.7,1.7s-0.2,1.3-0.7,1.7c-0.4,0.5-1,0.7-1.8,0.7H233c-0.4,3.2-1,6.1-1.9,8.8c-0.9,2.7-2,5.2-3.3,7.4
		c1.1,1.3,2.3,2.6,3.6,3.8c1.4,1.2,2.9,2.3,4.5,3.4c0.7,0.4,1.1,1,1.2,1.8c0.1,0.8-0.1,1.5-0.5,2.1c-0.5,0.7-1.2,1.1-2,1.2
		c-0.9,0.1-1.7-0.1-2.4-0.6c-3-2.2-5.6-4.5-7.8-7.1c-2.4,2.8-5.3,5.2-8.7,7.2c-0.8,0.5-1.6,0.6-2.4,0.4c-0.8-0.2-1.4-0.7-1.8-1.3
		c-0.4-0.7-0.5-1.4-0.2-2.1c0.3-0.7,0.7-1.3,1.5-1.7c1.8-0.9,3.3-2,4.8-3.2c1.4-1.2,2.7-2.5,3.8-3.9c-2.2-3.9-3.6-8.3-4.2-13.3
		c-0.3,0.4-0.6,0.8-1,1.2c-0.3,0.4-0.7,0.8-1,1.2c-0.8,0.9-1.8,1.2-2.9,0.9c0.2,0.4,0.4,0.9,0.4,1.5c0.1,0.6,0.1,1.2,0.1,1.9
		c0,2.2-0.1,4.3-0.3,6.3c-0.2,2.1-0.4,4-0.7,5.7c-0.3,2.6-1.1,4.4-2.3,5.4C208.4,48.3,206.7,48.8,204.5,48.8z M224.7,31.1
		c0.8-1.7,1.4-3.4,1.9-5.2c0.5-1.8,0.8-3.7,1.1-5.7H222c0.2,2,0.5,4,0.9,5.8C223.4,27.7,224,29.4,224.7,31.1z"/>
	<path class="st0" d="M246.7,18.4c-0.7,0-1.2-0.2-1.6-0.6s-0.6-0.9-0.6-1.5c0-0.6,0.2-1.1,0.6-1.5s0.9-0.6,1.6-0.6h13.3
		c0.7,0,1.2,0.2,1.6,0.6c0.4,0.4,0.6,0.9,0.6,1.5c0,0.6-0.2,1.1-0.6,1.5c-0.4,0.4-0.9,0.6-1.6,0.6H246.7z M274.3,49.2
		c-0.7,0-1.3-0.2-1.7-0.7c-0.5-0.4-0.7-1-0.7-1.8v-9.1c-1.2,1.4-2.4,2.7-3.7,4c-1.3,1.3-2.6,2.4-3.7,3.3c-0.6,0.4-1.3,0.6-2,0.6
		c-0.7,0-1.3-0.3-1.8-0.9c-0.3-0.4-0.5-0.8-0.5-1.3c-0.3,1.5-0.9,2.6-1.9,3.2c-1,0.6-2.6,0.9-4.7,0.9c-1.8,0-3.2-0.2-4.2-0.6
		c-1-0.4-1.7-1.1-2.1-2.1c-0.4-1-0.6-2.4-0.6-4.1c0-1.8,0.2-3.2,0.6-4.1c0.4-1,1.1-1.7,2.1-2c1-0.4,2.4-0.6,4.2-0.6s3.2,0.2,4.2,0.6
		c1,0.4,1.7,1.1,2.1,2c0.4,1,0.6,2.4,0.6,4.1c0,0.3,0,0.6,0,0.9c0,0.3,0,0.6,0,0.8c0.1-0.4,0.4-0.7,0.8-1c0.9-0.6,2-1.4,3-2.4
		c1.1-0.9,2.1-1.9,3.1-3c1-1,1.9-2,2.6-2.9h-6.7c-0.7,0-1.2-0.2-1.6-0.7c-0.4-0.4-0.6-1-0.6-1.6c0-0.6,0.2-1.2,0.6-1.6
		c0.4-0.4,0.9-0.6,1.6-0.6h8.7v-2.7h-0.7c-3,0-5.2-0.5-6.4-1.6s-1.8-2.9-1.8-5.5v-4.9c0-2.6,0.6-4.4,1.8-5.5c1.2-1,3.4-1.6,6.4-1.6
		h6.3c3,0,5.1,0.5,6.4,1.6c1.3,1.1,1.9,2.9,1.9,5.5v4.9c0,2.6-0.6,4.4-1.9,5.5c-1.3,1-3.4,1.6-6.4,1.6h-0.7v2.7h9.9
		c0.7,0,1.2,0.2,1.6,0.6c0.4,0.4,0.6,0.9,0.6,1.6c0,0.6-0.2,1.1-0.6,1.6c-0.4,0.4-0.9,0.7-1.6,0.7h-7.8c0.7,0.8,1.6,1.8,2.6,2.8
		c1,1,2.1,1.9,3.2,2.8c1.1,0.9,2.1,1.7,3,2.3c0.6,0.3,0.9,0.8,1,1.5c0.1,0.7-0.1,1.3-0.5,1.8c-0.4,0.6-1,0.9-1.7,1
		c-0.7,0.1-1.4-0.1-2-0.5c-1.2-0.9-2.5-2-3.9-3.3c-1.4-1.3-2.6-2.6-3.7-4v9.1c0,0.8-0.2,1.3-0.7,1.8C275.5,49,275,49.2,274.3,49.2z
		 M248.9,25c-0.7,0-1.2-0.2-1.6-0.6c-0.4-0.4-0.6-0.9-0.6-1.5c0-0.6,0.2-1.1,0.6-1.6c0.4-0.4,0.9-0.6,1.6-0.6h8.9
		c0.7,0,1.2,0.2,1.6,0.6c0.4,0.4,0.6,0.9,0.6,1.6c0,0.6-0.2,1.1-0.6,1.5c-0.4,0.4-0.9,0.6-1.6,0.6H248.9z M248.9,31.6
		c-0.7,0-1.2-0.2-1.6-0.6c-0.4-0.4-0.6-0.9-0.6-1.5c0-0.6,0.2-1.2,0.6-1.6c0.4-0.4,0.9-0.6,1.6-0.6h8.9c0.7,0,1.2,0.2,1.6,0.6
		c0.4,0.4,0.6,0.9,0.6,1.6c0,0.6-0.2,1.1-0.6,1.5c-0.4,0.4-0.9,0.6-1.6,0.6H248.9z M249,11.8c-0.7,0-1.2-0.2-1.6-0.7
		c-0.4-0.4-0.6-1-0.6-1.6c0-0.6,0.2-1.2,0.6-1.6c0.4-0.4,0.9-0.7,1.6-0.7h8.8c0.7,0,1.2,0.2,1.6,0.7c0.4,0.4,0.6,1,0.6,1.6
		c0,0.6-0.2,1.1-0.6,1.6c-0.4,0.4-0.9,0.7-1.6,0.7H249z M253.5,43.3c0.8,0,1.4-0.1,1.6-0.4c0.2-0.3,0.3-1,0.3-2.1
		c0-1.1-0.1-1.8-0.3-2.1c-0.2-0.3-0.8-0.4-1.6-0.4c-0.8,0-1.4,0.1-1.6,0.4c-0.2,0.3-0.3,1-0.3,2.1c0,1.1,0.1,1.8,0.3,2.1
		C252.1,43.1,252.6,43.3,253.5,43.3z M267.9,14.6h3.9v-3.3h-0.7c-1.3,0-2.2,0.2-2.6,0.6c-0.5,0.4-0.7,1.1-0.7,2.2V14.6z M271.2,21.9
		h0.7v-3.2h-3.9v0.4c0,1.1,0.2,1.8,0.7,2.2C269,21.7,269.9,21.9,271.2,21.9z M276.7,14.6h4v-0.5c0-1.1-0.2-1.8-0.7-2.2
		c-0.5-0.4-1.3-0.6-2.6-0.6h-0.7V14.6z M276.7,21.9h0.7c1.3,0,2.2-0.2,2.6-0.6s0.7-1.1,0.7-2.2v-0.4h-4V21.9z"/>
	<path class="st0" d="M305.2,49.3c-0.7,0-1.3-0.2-1.9-0.7c-0.5-0.5-0.8-1.1-0.8-1.9V30.4c-0.7,0.6-1.3,1.1-2,1.6
		c-0.7,0.5-1.4,0.7-2.2,0.6c-0.8-0.1-1.4-0.5-1.9-1.1c-0.5-0.6-0.7-1.3-0.5-2c0.1-0.7,0.5-1.3,1.1-1.8c0.8-0.6,1.7-1.3,2.7-2.2
		c1-0.9,2-1.8,3.1-2.8c1-1,2-2,2.9-2.9c0.9-1,1.6-1.8,2.2-2.6c0.5-0.6,1-0.9,1.7-0.9c0.7-0.1,1.3,0.1,1.9,0.6c0.6,0.4,1,1,1.1,1.8
		c0.1,0.7-0.1,1.4-0.5,2c-0.6,0.8-1.3,1.5-2,2.4c-0.7,0.8-1.5,1.7-2.3,2.5v21.3c0,0.8-0.3,1.4-0.8,1.9
		C306.6,49.1,306,49.3,305.2,49.3z M301.7,18.3c-0.7,0.5-1.4,0.7-2.2,0.7c-0.8,0-1.4-0.4-2-1.1c-0.5-0.6-0.7-1.3-0.5-2
		c0.2-0.7,0.5-1.3,1.1-1.6c0.8-0.6,1.8-1.3,2.9-2.1c1.1-0.8,2.1-1.7,3.1-2.6c1-0.9,1.9-1.6,2.5-2.3c0.5-0.5,1.2-0.8,2-0.8
		c0.8,0,1.4,0.2,1.8,0.7c0.6,0.6,0.8,1.2,0.8,1.9c0,0.7-0.3,1.3-0.8,1.9c-0.8,0.8-1.7,1.6-2.7,2.5c-1.1,0.9-2.1,1.8-3.2,2.6
		C303.6,16.9,302.6,17.7,301.7,18.3z M313.6,48.9c-0.9,0.2-1.6,0.2-2.3-0.1c-0.6-0.3-1.1-0.8-1.3-1.5c-0.2-0.7-0.1-1.4,0.2-2
		c0.4-0.6,0.9-1,1.7-1.2c3.3-0.8,6.3-2,9.1-3.6c-0.6-0.6-1.2-1.3-1.8-2c-0.5-0.7-1.1-1.4-1.6-2.2c-1.2,1.4-2.5,2.6-3.7,3.7
		c-0.7,0.6-1.4,0.9-2.1,0.9c-0.7,0-1.4-0.3-1.9-0.8c-0.4-0.5-0.6-1.1-0.6-1.8c0-0.7,0.3-1.3,0.9-1.7c1.3-1.1,2.7-2.5,4.2-4.1
		c1.5-1.6,2.8-3.2,3.9-4.7c-1.1,0.1-2.1,0.2-3.1,0.2c-1,0.1-1.8,0.1-2.5,0.1c-0.8,0-1.4-0.1-2-0.5c-0.5-0.4-0.8-1-0.9-1.8
		c0-0.6,0.2-1.2,0.6-1.7c0.5-0.5,1-0.8,1.8-0.8c0.7,0,1.4-0.1,2.2-0.1c0.8,0,1.7-0.1,2.6-0.1c0.3-0.4,0.7-0.8,1.2-1.3
		c0.4-0.5,0.9-1,1.4-1.5c-0.7-0.6-1.5-1.2-2.3-1.9c-0.8-0.7-1.7-1.3-2.5-2c-0.8-0.6-1.5-1.1-2-1.5c-0.5-0.4-0.9-0.9-1-1.6
		c-0.1-0.7,0-1.3,0.4-1.8c0.4-0.6,0.9-0.9,1.6-1.1c0.7-0.2,1.3-0.1,1.9,0.4c0.2,0.1,0.4,0.3,0.6,0.4c0.2,0.2,0.5,0.3,0.7,0.5
		c0.6-0.8,1.2-1.6,1.9-2.7c0.7-1,1.3-1.9,1.7-2.5c0.4-0.6,1-1,1.7-1.1c0.7-0.1,1.4,0,2,0.4c0.6,0.4,1,0.9,1.2,1.6
		c0.1,0.7,0,1.3-0.4,1.9c-0.6,0.8-1.2,1.7-2,2.7c-0.8,1-1.5,1.9-2.1,2.6c0.4,0.3,0.8,0.6,1.2,0.9s0.7,0.6,1,0.8
		c1.2-1.4,2.4-2.9,3.5-4.2c1.1-1.4,2-2.6,2.7-3.5c0.4-0.6,1-0.9,1.7-1s1.4,0.1,2,0.5c0.6,0.4,0.9,1,1,1.6s-0.1,1.3-0.5,1.9
		c-0.7,0.9-1.6,2-2.7,3.2c-1.1,1.3-2.2,2.5-3.4,3.9c-1.2,1.3-2.4,2.6-3.5,3.8c1.2-0.1,2.3-0.1,3.5-0.2c1.1-0.1,2.2-0.2,3.1-0.3
		c-0.1-0.2-0.2-0.3-0.4-0.4c-0.1-0.1-0.2-0.2-0.3-0.4c-0.4-0.5-0.6-1-0.5-1.7c0.1-0.7,0.3-1.2,0.8-1.6c0.5-0.4,1.1-0.6,1.8-0.6
		c0.7,0,1.3,0.3,1.7,0.8c0.5,0.5,1.1,1.2,1.8,2.1c0.7,0.8,1.4,1.7,2.1,2.6c0.7,0.9,1.2,1.6,1.6,2.1c0.4,0.6,0.6,1.2,0.5,2
		s-0.5,1.3-1.1,1.7c-0.6,0.4-1.3,0.5-2,0.4c-0.7-0.1-1.3-0.5-1.7-1.1c-0.2-0.2-0.3-0.5-0.6-0.8c-0.2-0.3-0.5-0.6-0.7-0.9
		c-1.2,0.1-2.5,0.3-4.2,0.4c-1.6,0.2-3.3,0.3-5.1,0.5c-0.2,0.4-0.5,0.8-0.8,1.2c-0.3,0.4-0.6,0.9-0.8,1.3h4.6c2,0,3.5,0.4,4.5,1.3
		c1,0.9,1.4,2,1.3,3.3c-0.1,1.3-0.8,2.6-2,4c-0.7,0.8-1.4,1.5-2.2,2.2c2.7,1.6,5.7,2.6,8.9,3.2c0.8,0.2,1.4,0.5,1.8,1.2
		c0.4,0.6,0.5,1.3,0.3,2c-0.2,0.8-0.7,1.3-1.4,1.6c-0.7,0.3-1.5,0.3-2.4,0.1c-2-0.4-4-1.1-5.9-1.9c-1.9-0.8-3.8-1.8-5.5-3
		C321.8,46.1,318,47.8,313.6,48.9z M325.2,37.7c0.8-0.6,1.4-1.2,2-1.9c0.5-0.6,0.7-1.1,0.6-1.4c-0.2-0.3-0.6-0.5-1.4-0.5h-4.7
		c0.5,0.7,1,1.4,1.6,2C323.9,36.6,324.5,37.2,325.2,37.7z"/>
	<path class="st0" d="M75.4,102.1c-0.7,0.3-1.4,0.4-2.2,0.2c-0.8-0.2-1.4-0.7-1.8-1.3c-0.4-0.7-0.5-1.4-0.3-2.2
		c0.2-0.8,0.7-1.4,1.4-1.8c3.2-1.8,5.9-3.9,7.9-6.5c2-2.6,3.3-5.4,3.8-8.5H70.6c-0.8,0-1.4-0.3-2-0.8c-0.5-0.5-0.8-1.2-0.8-2
		s0.3-1.4,0.8-2c0.5-0.5,1.2-0.8,2-0.8h31.2c0.8,0,1.4,0.3,2,0.8c0.5,0.5,0.8,1.2,0.8,2s-0.3,1.4-0.8,2c-0.5,0.5-1.2,0.8-2,0.8H89.8
		c-0.3,2.7-1.1,5.3-2.4,7.9s-2.9,4.9-5,7C80.5,99,78.1,100.7,75.4,102.1z M76.1,71.9c-0.8,0-1.4-0.3-2-0.8c-0.5-0.5-0.8-1.2-0.8-2
		c0-0.8,0.3-1.4,0.8-2c0.5-0.5,1.2-0.8,2-0.8h20c0.8,0,1.5,0.3,2,0.8c0.5,0.5,0.8,1.2,0.8,2c0,0.8-0.3,1.5-0.8,2
		c-0.5,0.5-1.2,0.8-2,0.8H76.1z M106.1,75.7c-0.4,0.4-0.9,0.5-1.5,0.5c-0.6-0.1-1-0.3-1.4-0.8c-0.3-0.5-0.7-1-1.3-1.7
		c-0.5-0.7-1-1.3-1.5-1.8c-0.3-0.3-0.4-0.8-0.4-1.3c0-0.5,0.3-0.9,0.7-1.3c0.4-0.3,0.8-0.5,1.3-0.5c0.5,0,0.9,0.2,1.3,0.6
		c0.4,0.4,1,0.9,1.6,1.6s1.1,1.3,1.5,1.8c0.3,0.5,0.5,1,0.4,1.5C106.8,74.9,106.5,75.3,106.1,75.7z M110.6,71.8
		c-0.4,0.4-0.9,0.6-1.5,0.5c-0.6,0-1-0.2-1.4-0.7c-0.4-0.4-0.8-1-1.4-1.6c-0.6-0.6-1.1-1.2-1.6-1.7c-0.3-0.3-0.5-0.7-0.5-1.2
		c0-0.5,0.2-0.9,0.6-1.3c0.3-0.3,0.8-0.5,1.2-0.5c0.5,0,0.9,0.1,1.3,0.4c0.5,0.3,1,0.8,1.7,1.5c0.7,0.6,1.2,1.2,1.6,1.7
		c0.3,0.4,0.5,0.9,0.5,1.5C111.2,70.9,111,71.4,110.6,71.8z"/>
	<path class="st0" d="M132.8,103c-0.8,0-1.5-0.3-2-0.9s-0.8-1.3-0.8-2V81.3c-2,1.8-4.1,3.4-6.2,5.1c-2.1,1.6-4.3,3.1-6.4,4.5
		c-0.7,0.4-1.4,0.5-2.2,0.3c-0.8-0.2-1.4-0.6-1.8-1.3c-0.4-0.7-0.5-1.4-0.3-2.2s0.6-1.4,1.3-1.8c2-1.2,4-2.6,6.2-4.3
		c2.1-1.6,4.2-3.4,6.3-5.2c2.1-1.8,3.9-3.7,5.7-5.6c1.7-1.9,3.2-3.6,4.3-5.3c0.5-0.7,1.1-1.1,1.9-1.2c0.8-0.2,1.5,0,2.2,0.5
		c0.7,0.4,1.1,1.1,1.2,1.9c0.2,0.8,0,1.5-0.5,2.2c-1.6,2.2-3.6,4.5-5.9,6.9v24.4c0,0.8-0.3,1.5-0.8,2
		C134.3,102.7,133.6,103,132.8,103z"/>
	<path class="st0" d="M168.6,102.9c-0.7,0.3-1.5,0.3-2.2,0.1c-0.8-0.3-1.3-0.8-1.6-1.5c-0.3-0.7-0.3-1.5-0.1-2.2
		c0.3-0.8,0.8-1.3,1.5-1.6c3.5-1.7,6.2-3.9,7.8-6.7c1.7-2.8,2.6-6.5,2.7-10.9h-7.1c0,1.3,0,2.4,0,3.6s0,2.1-0.1,3.1
		c0,0.8-0.3,1.5-0.9,2c-0.6,0.5-1.3,0.8-2.1,0.7c-0.8-0.1-1.4-0.4-1.9-1c-0.5-0.6-0.7-1.3-0.7-2.1c0.1-0.8,0.1-1.8,0.1-2.9
		s0-2.2,0-3.4h-9.6c-0.8,0-1.4-0.3-2-0.8c-0.5-0.5-0.8-1.2-0.8-2c0-0.8,0.3-1.4,0.8-2c0.5-0.5,1.2-0.8,2-0.8h9.4
		c-0.1-1.1-0.1-2.1-0.2-3.1c-0.1-1-0.2-1.9-0.3-2.6c-0.1-0.8,0-1.5,0.5-2.1c0.5-0.6,1.1-1,1.9-1.2c0.8-0.2,1.5,0,2.2,0.5
		c0.6,0.5,1,1.1,1.1,1.9c0.1,0.9,0.2,1.9,0.3,3c0.1,1.1,0.2,2.4,0.2,3.6h7.3c0-1.3-0.1-2.7-0.1-3.9c0-1.3-0.1-2.4-0.2-3.3
		c-0.1-0.8,0.2-1.5,0.7-2.1c0.5-0.6,1.2-0.9,2-1c0.8-0.1,1.5,0.2,2.1,0.7c0.6,0.5,0.9,1.2,1,2c0.1,1,0.2,2.1,0.2,3.5
		c0,1.4,0.1,2.8,0.1,4.2h8.9c0.8,0,1.4,0.3,2,0.8c0.5,0.5,0.8,1.2,0.8,2c0,0.8-0.3,1.4-0.8,2c-0.5,0.5-1.2,0.8-2,0.8h-8.9
		c-0.1,5.6-1.3,10.3-3.6,14.1C176.5,98,173.1,100.9,168.6,102.9z"/>
	<path class="st0" d="M205.7,86.2c-0.8,0-1.5-0.3-2-0.9c-0.6-0.6-0.9-1.3-0.9-2c0-0.8,0.3-1.5,0.9-2.1c0.6-0.6,1.3-0.8,2-0.8H235
		c0.8,0,1.5,0.3,2.1,0.8c0.6,0.6,0.8,1.3,0.8,2.1c0,0.8-0.3,1.5-0.8,2c-0.6,0.6-1.3,0.9-2.1,0.9H205.7z"/>
	<path class="st0" d="M277.9,99.5c-5.8,1-10.6,1.4-14.2,1.2c-3.6-0.2-6.3-1-8.1-2.5c-1.3-1.1-2.3-2.5-2.7-4.2
		c-0.5-1.7-0.7-3.8-0.7-6.3V68.6c0-0.8,0.3-1.5,0.8-2.1c0.6-0.6,1.2-0.8,2-0.8c0.8,0,1.5,0.3,2.1,0.8c0.6,0.6,0.8,1.3,0.8,2.1V79
		c2.6-0.6,5.2-1.4,8-2.2c2.7-0.8,5.2-1.7,7.4-2.5c0.8-0.3,1.5-0.3,2.3,0c0.7,0.3,1.2,0.9,1.5,1.7c0.3,0.8,0.3,1.5,0,2.2
		c-0.3,0.7-0.8,1.2-1.6,1.5c-2.7,1-5.5,1.9-8.6,2.7c-3.1,0.8-6,1.6-8.8,2.2v3.1c0,1.8,0.1,3.2,0.4,4c0.3,0.8,0.7,1.4,1.3,1.9
		c0.7,0.5,1.7,0.9,3.1,1.2c1.3,0.2,3.1,0.3,5.5,0.1c2.3-0.2,5.2-0.5,8.8-1.1c0.8-0.2,1.5,0,2.2,0.5c0.6,0.5,1,1.1,1.1,2
		c0.2,0.8,0,1.5-0.5,2.1C279.3,98.9,278.6,99.3,277.9,99.5z M283,76c-0.4,0.4-0.9,0.6-1.4,0.6c-0.6,0-1.1-0.2-1.5-0.6
		c-0.4-0.4-0.9-1-1.5-1.6c-0.6-0.6-1.1-1.2-1.6-1.6c-0.3-0.3-0.5-0.7-0.5-1.2c0-0.5,0.1-1,0.5-1.4c0.3-0.3,0.8-0.5,1.3-0.6
		c0.5,0,1,0.1,1.4,0.4c0.5,0.3,1.1,0.8,1.8,1.4c0.7,0.6,1.2,1.2,1.7,1.7c0.4,0.4,0.6,0.9,0.5,1.5C283.7,75.2,283.4,75.6,283,76z
		 M284.3,71.8c-0.4-0.4-0.9-0.9-1.6-1.5c-0.6-0.6-1.2-1.1-1.8-1.5c-0.3-0.3-0.5-0.7-0.6-1.2c-0.1-0.5,0.1-1,0.4-1.4
		c0.3-0.4,0.7-0.6,1.2-0.7c0.5-0.1,0.9,0,1.4,0.3c0.5,0.3,1.2,0.8,1.9,1.3c0.7,0.6,1.3,1.1,1.8,1.6c0.4,0.4,0.6,0.9,0.6,1.4
		c0,0.5-0.2,1-0.5,1.5c-0.3,0.4-0.8,0.6-1.4,0.7C285.2,72.4,284.7,72.2,284.3,71.8z"/>
	<path class="st0" d="M298.2,100c-0.7,0.3-1.4,0.4-2.2,0.1c-0.8-0.3-1.3-0.8-1.7-1.5c-0.3-0.7-0.4-1.5-0.1-2.2
		c0.3-0.8,0.7-1.3,1.4-1.6c4.5-2.2,8.5-4.8,12-7.8c3.5-3.1,6.3-6.4,8.5-9.9c1.4-2.3,0.6-3.4-2.3-3.4H301c-0.8,0-1.5-0.3-2-0.9
		c-0.6-0.6-0.8-1.3-0.8-2c0-0.8,0.3-1.5,0.8-2.1c0.6-0.6,1.2-0.8,2-0.8h13c2.8,0,5,0.5,6.5,1.5c1.5,1,2.3,2.4,2.5,4.2
		c0.1,1.8-0.4,3.8-1.8,6.1c-0.7,1.3-1.5,2.5-2.5,3.8c1.4,1.2,2.9,2.5,4.4,3.9c1.5,1.4,2.9,2.8,4.3,4.1c1.3,1.3,2.5,2.5,3.4,3.4
		c0.5,0.6,0.8,1.3,0.8,2.1c0,0.8-0.3,1.5-0.9,2.1c-0.6,0.6-1.3,0.8-2.1,0.8c-0.8,0-1.5-0.3-2.1-0.9c-0.8-0.9-1.9-2-3.2-3.3
		c-1.3-1.3-2.6-2.7-4.1-4.1c-1.4-1.4-2.8-2.7-4.2-3.9c-2.4,2.5-5,4.8-8,7C304.3,96.7,301.3,98.5,298.2,100z"/>
	<path class="st0" d="M369.3,102.3c-5,0.7-9.4,0.8-13.2,0.2c-3.7-0.5-6.6-1.7-8.6-3.6c-2-1.8-3-4.4-3-7.5c0-2.8,0.7-5.1,2.1-7.1
		c1.4-2,3.3-3.7,5.8-5.1c-0.2-1.2-0.5-2.6-0.9-4.2c-0.4-1.6-0.8-3.1-1.3-4.7c-0.4-1.6-0.8-2.9-1.2-3.9c-0.2-0.7-0.1-1.4,0.3-2.1
		c0.4-0.7,0.9-1.1,1.7-1.4c0.8-0.2,1.5-0.1,2.2,0.3c0.7,0.4,1.1,1,1.3,1.7c0.5,1.8,1.1,3.8,1.6,5.9c0.5,2.1,0.9,4.1,1.3,6.1
		c1.5-0.6,3.1-1.1,4.8-1.6c1.7-0.5,3.4-0.9,5.3-1.3c0.8-0.2,1.5-0.1,2.1,0.3c0.7,0.4,1.1,1,1.2,1.7c0.2,0.8,0,1.5-0.4,2.1
		c-0.4,0.6-1,1-1.7,1.2c-3.9,0.8-7.1,1.7-9.5,2.6c-2.4,0.9-4.3,1.9-5.6,2.9c-1.3,1-2.2,2.1-2.7,3.1c-0.5,1.1-0.7,2.2-0.7,3.4
		c0,2.5,1.5,4.2,4.5,5.2c3,1,7.7,1.1,14.1,0.1c0.8-0.1,1.5,0.1,2.1,0.5c0.6,0.5,1,1.1,1.1,1.9c0.1,0.8-0.1,1.5-0.6,2.1
		C370.7,101.8,370.1,102.2,369.3,102.3z"/>
	<path class="st0" d="M388.4,102.8c-0.8,0.1-1.5,0-2.1-0.5c-0.6-0.4-1-1-1.2-1.8c-0.2-1-0.3-2.4-0.4-4.2c-0.1-1.8-0.2-3.8-0.2-6
		c0-2.2,0-4.5,0-6.9c0-2.4,0.1-4.7,0.3-7c0.1-2.3,0.3-4.3,0.5-6.2c0.2-1.9,0.4-3.4,0.7-4.5c0.2-0.8,0.6-1.3,1.3-1.7
		c0.7-0.4,1.4-0.5,2.1-0.3c0.8,0.2,1.3,0.6,1.7,1.3c0.4,0.7,0.5,1.4,0.3,2.1c-0.3,1.2-0.5,2.6-0.7,4.4c-0.2,1.8-0.3,3.7-0.5,5.8
		c-0.1,2.1-0.2,4.2-0.3,6.4s-0.1,4.3,0,6.4c0,2.1,0.1,3.9,0.2,5.6c0.1,1.7,0.3,3,0.4,4.1c0.2,0.8,0,1.4-0.4,2.1
		C389.7,102.2,389.1,102.6,388.4,102.8z M404,102.7c-2.5,0-4.5-0.6-6-1.9c-1.5-1.2-2.3-3-2.3-5.3c0-2.2,0.8-4,2.3-5.3
		c1.5-1.3,3.6-2,6.3-2c0.8,0,1.6,0,2.5,0.1c0-1.5-0.1-3.1-0.1-4.8c0-1.7-0.1-3.5-0.2-5.3c-1.7,0.1-3.3,0.2-4.8,0.2s-2.9,0-4,0
		c-0.8,0-1.4-0.3-2-0.9s-0.8-1.2-0.7-2c0.1-0.8,0.4-1.4,0.9-1.9c0.5-0.5,1.2-0.8,2-0.7c1.1,0,2.4,0,3.9,0c1.5,0,3-0.1,4.7-0.2
		c0-1.2,0-2.3,0-3.4c0-1.1,0-2.1,0-3.1c0-0.8,0.3-1.4,0.8-2c0.5-0.5,1.2-0.8,2-0.8c0.8,0,1.5,0.3,2,0.8c0.5,0.5,0.8,1.2,0.8,2
		c0,1,0,2,0,3c0,1,0,2.1,0,3.1c1.4-0.1,2.6-0.3,3.8-0.4c1.1-0.1,2.1-0.3,2.9-0.4c0.8-0.2,1.4,0,2.1,0.4c0.6,0.5,1,1.1,1.1,1.8
		c0.1,0.8,0,1.4-0.5,2.1c-0.5,0.6-1.1,1-1.8,1.1c-0.9,0.1-2,0.3-3.3,0.4c-1.3,0.1-2.7,0.3-4.2,0.4c0.1,2.2,0.1,4.3,0.2,6.3
		c0.1,2,0.1,3.8,0.1,5.4c1.7,0.6,3.3,1.2,4.9,2c1.5,0.8,2.8,1.6,4,2.4c0.6,0.5,1,1.1,1.1,1.9c0.1,0.8,0,1.5-0.5,2.1
		c-0.4,0.6-1,1-1.8,1.2c-0.8,0.2-1.5,0-2.1-0.5c-0.8-0.6-1.6-1.2-2.6-1.7c-0.9-0.6-1.9-1.1-2.9-1.5
		C412.2,100.3,409.4,102.7,404,102.7z M404,97.4c1.9,0,2.9-0.9,2.9-2.8c0-0.1,0-0.2,0-0.4c0-0.2,0-0.3,0-0.5
		c-0.9-0.2-1.9-0.3-2.9-0.3c-1,0-1.7,0.2-2.1,0.6c-0.5,0.4-0.7,0.9-0.7,1.5c0,0.6,0.2,1.1,0.7,1.4C402.3,97.3,403,97.4,404,97.4z"/>
	<path class="st0" d="M447.5,93.1c-0.6,0-1.2-0.2-1.7-0.7c-0.5-0.4-0.8-1-0.8-1.6l-0.2-4.7c-0.1-1.6,0.2-2.8,0.7-3.8
		c0.5-1,1.7-1.8,3.6-2.5c1.5-0.5,2.6-1.3,3.3-2.2s1.1-2.1,1.1-3.5c0-1.8-0.5-3.3-1.6-4.4c-1.1-1.1-2.5-1.6-4.3-1.6
		c-1.5,0-2.9,0.4-4,1.3c-1.1,0.9-1.8,2.1-2.2,3.5c-0.2,0.8-0.7,1.5-1.5,1.9c-0.8,0.4-1.6,0.5-2.5,0.3c-0.8-0.3-1.5-0.7-1.9-1.5
		c-0.4-0.7-0.5-1.5-0.3-2.4c0.4-1.7,1.2-3.2,2.3-4.5c1.1-1.3,2.6-2.4,4.3-3.2c1.7-0.8,3.6-1.2,5.8-1.2c2.4,0,4.6,0.5,6.5,1.4
		c1.9,0.9,3.4,2.3,4.4,4.1c1.1,1.8,1.6,3.9,1.6,6.3c0,2.5-0.7,4.6-2.2,6.3c-1.5,1.7-3.4,2.9-5.8,3.7c-0.8,0.3-1.3,0.6-1.6,0.9
		c-0.3,0.3-0.4,0.9-0.4,1.7l-0.1,4c0,0.6-0.3,1.2-0.8,1.6C448.7,92.8,448.1,93.1,447.5,93.1z M447.5,103.8c-1.1,0-2-0.4-2.8-1.2
		c-0.8-0.8-1.2-1.7-1.2-2.8s0.4-2,1.2-2.8c0.8-0.8,1.7-1.2,2.8-1.2c1.1,0,2,0.4,2.8,1.2c0.8,0.8,1.2,1.7,1.2,2.8s-0.4,2-1.2,2.8
		C449.5,103.4,448.6,103.8,447.5,103.8z"/>
</g>
</svg>
